<svg xmlns="http://www.w3.org/2000/svg" xmlns:xlink="http://www.w3.org/1999/xlink" width="108" height="108" viewBox="0 0 108 108">
  <defs>
    <filter id="Trazado_904820" x="0" y="0" width="108" height="108" filterUnits="userSpaceOnUse">
      <feOffset dy="3" input="SourceAlpha"/>
      <feGaussianBlur stdDeviation="3" result="blur"/>
      <feFlood flood-opacity="0.161"/>
      <feComposite operator="in" in2="blur"/>
      <feComposite in="SourceGraphic"/>
    </filter>
  </defs>
  <g id="Grupo_1219557" data-name="Grupo 1219557" transform="translate(-200 -531)">
    <g id="Grupo_1202655" data-name="Grupo 1202655" transform="translate(209 537)">
      <g id="Grupo_1173585" data-name="Grupo 1173585" transform="translate(0 0)">
        <g id="Grupo_1173428" data-name="Grupo 1173428">
          <g id="Grupo_1171958" data-name="Grupo 1171958">
            <g id="Grupo_1167341" data-name="Grupo 1167341">
              <g id="Grupo_1166792" data-name="Grupo 1166792">
                <g transform="matrix(1, 0, 0, 1, -9, -6)" filter="url(#Trazado_904820)">
                  <g id="Trazado_904820-2" data-name="Trazado 904820" transform="translate(9 6)" fill="#f3e6fd">
                    <path d="M 44.99999618530273 88.49999237060547 C 39.12687301635742 88.49999237060547 33.43022155761719 87.35006713867188 28.06829643249512 85.08216857910156 C 22.88852119445801 82.89130401611328 18.23629570007324 79.75457763671875 14.24084663391113 75.75914001464844 C 10.24540901184082 71.76369476318359 7.108683586120605 67.11146545410156 4.917821407318115 61.93169403076172 C 2.649921178817749 56.56976699829102 1.499996185302734 50.87311553955078 1.499996185302734 44.99999237060547 C 1.499996185302734 39.12686920166016 2.649921178817749 33.43021774291992 4.917821407318115 28.06829261779785 C 7.108683586120605 22.88851737976074 10.24540901184082 18.23630523681641 14.24084663391113 14.24085521697998 C 18.23629570007324 10.24540519714355 22.88852119445801 7.108692169189453 28.06829643249512 4.917829990386963 C 33.43022155761719 2.649929761886597 39.12687301635742 1.500004887580872 44.99999618530273 1.500004887580872 C 50.87311935424805 1.500004887580872 56.56977081298828 2.649929761886597 61.93169784545898 4.917829990386963 C 67.11147308349609 7.108692169189453 71.76369476318359 10.24540519714355 75.75914764404297 14.24085521697998 C 79.75458526611328 18.23630523681641 82.89131164550781 22.88851737976074 85.08216857910156 28.06829261779785 C 87.35007476806641 33.43021774291992 88.5 39.12686920166016 88.5 44.99999237060547 C 88.5 50.87311553955078 87.35007476806641 56.56976699829102 85.08216857910156 61.93169403076172 C 82.89131164550781 67.11146545410156 79.75458526611328 71.76369476318359 75.75914764404297 75.75914001464844 C 71.76369476318359 79.75457763671875 67.11147308349609 82.89130401611328 61.93169784545898 85.08216857910156 C 56.56977081298828 87.35006713867188 50.87311935424805 88.49999237060547 44.99999618530273 88.49999237060547 Z" stroke="none"/>
                    <path d="M 44.99999618530273 2.999992370605469 C 39.32870864868164 2.999992370605469 33.82865142822266 4.11004638671875 28.65262603759766 6.299331665039062 C 23.65165710449219 8.414566040039062 19.15968322753906 11.44333648681641 15.301513671875 15.30150604248047 C 11.44333648681641 19.15967559814453 8.414566040039062 23.65164947509766 6.299339294433594 28.65262222290039 C 4.110054016113281 33.82864761352539 2.999992370605469 39.32870483398438 2.999992370605469 44.99999237060547 C 2.999992370605469 50.67127990722656 4.110054016113281 56.17132186889648 6.299339294433594 61.34736633300781 C 8.414566040039062 66.34833526611328 11.44333648681641 70.84029388427734 15.301513671875 74.69846343994141 C 19.15968322753906 78.55663299560547 23.65165710449219 81.58540344238281 28.65262603759766 83.70063781738281 C 33.82865142822266 85.88992309570312 39.32870864868164 86.99997711181641 44.99999618530273 86.99997711181641 C 50.67128372192383 86.99997711181641 56.17134094238281 85.88992309570312 61.34736633300781 83.70063781738281 C 66.34834289550781 81.58540344238281 70.84030914306641 78.55663299560547 74.69847869873047 74.69846343994141 C 78.55665588378906 70.84029388427734 81.58542633056641 66.34833526611328 83.70065307617188 61.34736633300781 C 85.88993835449219 56.17132186889648 87 50.67127990722656 87 44.99999237060547 C 87 39.32870483398438 85.88993835449219 33.82864761352539 83.70065307617188 28.65262222290039 C 81.58542633056641 23.65164947509766 78.55665588378906 19.15967559814453 74.69847869873047 15.30150604248047 C 70.84030914306641 11.44333648681641 66.34834289550781 8.414566040039062 61.34736633300781 6.299331665039062 C 56.17134094238281 4.11004638671875 50.67128372192383 2.999992370605469 44.99999618530273 2.999992370605469 M 44.99999618530273 -7.62939453125e-06 C 69.85281372070312 -7.62939453125e-06 90 20.14717864990234 90 44.99999237060547 C 90 69.85279083251953 69.85281372070312 89.99997711181641 44.99999618530273 89.99997711181641 C 20.14717864990234 89.99997711181641 -7.62939453125e-06 69.85279083251953 -7.62939453125e-06 44.99999237060547 C -7.62939453125e-06 20.14717864990234 20.14717864990234 -7.62939453125e-06 44.99999618530273 -7.62939453125e-06 Z" stroke="none" fill="#510e84"/>
                  </g>
                </g>
              </g>
            </g>
          </g>
        </g>
      </g>
    </g>
    <g id="asistente-de-ai_1_" data-name="asistente-de-ai (1)" transform="translate(180.143 548)">
      <g id="Grupo_1219555" data-name="Grupo 1219555" transform="translate(46.994 0.995)">
        <path id="Trazado_1043814" data-name="Trazado 1043814" d="M151.23,60.943a3.991,3.991,0,0,0-3.98,3.98V79.847a3.992,3.992,0,0,0,3.98,3.98h20.894a3.992,3.992,0,0,0,3.98-3.98V64.923a3.991,3.991,0,0,0-3.98-3.98ZM156.7,69.9a1.99,1.99,0,1,1-1.99-1.99A1.99,1.99,0,0,1,156.7,69.9Zm4.975,9.949a3.98,3.98,0,0,1-3.98-3.98h7.959A3.98,3.98,0,0,1,161.676,79.847Zm6.965-7.959a1.99,1.99,0,1,1,1.99-1.99A1.99,1.99,0,0,1,168.641,71.887Z" transform="translate(-134.813 -53.853)" fill="#fff" fill-rule="evenodd"/>
        <g id="Grupo_1219554" data-name="Grupo 1219554" transform="translate(17.909 14.054)">
          <circle id="Elipse_12533" data-name="Elipse 12533" cx="2" cy="2" r="2" transform="translate(-0.188 -0.262)" fill="#6186a6"/>
          <path id="Trazado_1043815" data-name="Trazado 1043815" d="M233.959,173.444H226a3.98,3.98,0,0,0,7.959,0Z" transform="translate(-221.025 -165.485)" fill="#6186a6" fill-rule="evenodd"/>
          <circle id="Elipse_12534" data-name="Elipse 12534" cx="2" cy="2" r="2" transform="translate(13.812 -0.262)" fill="#6186a6"/>
        </g>
        <path id="Trazado_1043816" data-name="Trazado 1043816" d="M121.229,105.867V90.943l-3.98,1.99v10.944Z" transform="translate(-108.792 -79.874)" fill="#456078" fill-rule="evenodd"/>
        <path id="Trazado_1043817" data-name="Trazado 1043817" d="M203.5,233.443h13.929v3.98H203.5Z" transform="translate(-183.6 -203.47)" fill="#6186a6" fill-rule="evenodd"/>
        <path id="Trazado_1043818" data-name="Trazado 1043818" d="M364.75,90.943v14.924l3.98-1.99V92.933Z" transform="translate(-323.46 -79.874)" fill="#6186a6" fill-rule="evenodd"/>
        <circle id="Elipse_12535" data-name="Elipse 12535" cx="1.99" cy="1.99" r="1.99" transform="translate(24.873)" fill="#97eeba"/>
        <path id="Trazado_1043819" data-name="Trazado 1043819" d="M128.5,263.443v15.064a16.914,16.914,0,1,0,33.828,0V263.443Z" transform="translate(-118.551 -229.49)" fill="#fff" fill-rule="evenodd"/>
        <path id="Trazado_1043820" data-name="Trazado 1043820" d="M187.5,300.942h18.174v18.174H187.5Z" transform="translate(-169.724 -262.015)" fill="#97eeba" fill-rule="evenodd"/>
        <path id="Trazado_1043821" data-name="Trazado 1043821" d="M59.469,283.342v-19.9h-3.98a2,2,0,0,0-1.99,1.99v14.924a2.994,2.994,0,0,0,2.985,2.985Z" transform="translate(-53.499 -229.49)" fill="#fff" fill-rule="evenodd"/>
        <path id="Trazado_1043822" data-name="Trazado 1043822" d="M98.5,278.443h3.98v3.98H98.5Z" transform="translate(-92.53 -242.5)" fill="#6186a6" fill-rule="evenodd"/>
        <path id="Trazado_1043823" data-name="Trazado 1043823" d="M383.5,278.443h3.98v3.98H383.5Z" transform="translate(-339.723 -242.5)" fill="#6186a6" fill-rule="evenodd"/>
        <path id="Trazado_1043824" data-name="Trazado 1043824" d="M413.5,283.341h2.985a2.994,2.994,0,0,0,2.985-2.985V265.432a2,2,0,0,0-1.99-1.99H413.5Z" transform="translate(-365.744 -229.489)" fill="#fff" fill-rule="evenodd"/>
        <path id="Trazado_1043825" data-name="Trazado 1043825" d="M151.23,60.943a3.991,3.991,0,0,0-3.98,3.98V79.847a3.992,3.992,0,0,0,3.98,3.98h2.985a3.991,3.991,0,0,1-3.98-3.98V64.923a3.991,3.991,0,0,1,3.98-3.98Z" transform="translate(-134.813 -53.853)" fill="#abe6fc" fill-rule="evenodd"/>
        <path id="Trazado_1043826" data-name="Trazado 1043826" d="M128.5,263.443v15.064a16.964,16.964,0,0,0,16.914,16.914c.5,0,1-.024,1.492-.067a16.97,16.97,0,0,1-15.421-16.847V263.443Z" transform="translate(-118.551 -229.49)" fill="#abe6fc" fill-rule="evenodd"/>
        <path id="Trazado_1043827" data-name="Trazado 1043827" d="M203.5,233.443h2.985v3.98H203.5Z" transform="translate(-183.6 -203.47)" fill="#456078" fill-rule="evenodd"/>
        <path id="Trazado_1043828" data-name="Trazado 1043828" d="M187.5,300.942h2.985v18.174H187.5Z" transform="translate(-169.724 -262.015)" fill="#00e0bb" fill-rule="evenodd"/>
        <path id="Trazado_1043829" data-name="Trazado 1043829" d="M58.474,263.443H55.489a2,2,0,0,0-1.99,1.99v14.924a2.994,2.994,0,0,0,2.985,2.985h2.985a2.994,2.994,0,0,1-2.985-2.985V265.433A2,2,0,0,1,58.474,263.443Z" transform="translate(-53.499 -229.49)" fill="#abe6fc" fill-rule="evenodd"/>
      </g>
      <g id="Grupo_1219556" data-name="Grupo 1219556" transform="translate(45.999 0)">
        <path id="Trazado_1043830" data-name="Trazado 1043830" d="M288.984,105.944a2.985,2.985,0,1,0,2.985,2.985A2.988,2.988,0,0,0,288.984,105.944Zm0,3.98a.995.995,0,1,1,.995-.995A1,1,0,0,1,288.984,109.924Z" transform="translate(-254.161 -91.89)"/>
        <path id="Trazado_1043831" data-name="Trazado 1043831" d="M218.5,166.939a4.975,4.975,0,1,0,9.949,0v-.995H218.5Zm7.789.995a2.985,2.985,0,0,1-5.629,0Z" transform="translate(-195.616 -143.93)"/>
        <path id="Trazado_1043832" data-name="Trazado 1043832" d="M186.97,108.929a2.985,2.985,0,1,0-2.985,2.985A2.988,2.988,0,0,0,186.97,108.929Zm-2.985.995a.995.995,0,1,1,1-.995A1,1,0,0,1,183.985,109.924Z" transform="translate(-163.091 -91.89)"/>
        <path id="Trazado_1043833" data-name="Trazado 1043833" d="M98.731,33.953H93.756v1.99h-1.99v-1.99H81.817v-1.99H84.3a4.981,4.981,0,0,0,4.933-4.339l4.022-2.011V13.439l-4.022-2.011A4.981,4.981,0,0,0,84.3,7.09H74.852V5.8a2.985,2.985,0,1,0-1.99,0V7.09H63.41a4.981,4.981,0,0,0-4.933,4.339l-4.022,2.011v5.092h1.99V14.669l1.99-.995v11.7l-1.99-.995V20.521h-1.99v5.092l4.022,2.011a4.981,4.981,0,0,0,4.933,4.339H65.9v1.99H55.948v1.99h-1.99v-1.99H48.984A2.988,2.988,0,0,0,46,36.937V51.862a3.984,3.984,0,0,0,3.98,3.98h3.98V41.912h1.99v8.1A17.885,17.885,0,0,0,85.713,63.405l-1.32-1.489a15.9,15.9,0,0,1-26.455-11.9V35.943H89.776V50.012a15.873,15.873,0,0,1-4.014,10.536l1.489,1.32a17.861,17.861,0,0,0,4.515-11.856v-8.1h1.99V55.841h3.98a3.984,3.984,0,0,0,3.98-3.98V36.937a2.988,2.988,0,0,0-2.985-2.985Zm-7.462-9.569-1.99.995v-11.7l1.99.995ZM73.857,1.99a.995.995,0,1,1-.995.995A1,1,0,0,1,73.857,1.99ZM51.969,53.851h-1.99a1.992,1.992,0,0,1-1.99-1.99V36.937a1,1,0,0,1,.995-.995h2.985Zm1.99-13.929v-1.99h1.99v1.99Zm6.467-12.934V12.064A2.988,2.988,0,0,1,63.41,9.079H84.3a2.988,2.988,0,0,1,2.985,2.985V26.988A2.988,2.988,0,0,1,84.3,29.973H63.41A2.988,2.988,0,0,1,60.426,26.988Zm7.462,4.975H79.827v1.99H67.887Zm23.878,7.959v-1.99h1.99v1.99Zm7.96,11.939a1.992,1.992,0,0,1-1.99,1.99h-1.99V35.943h2.985a1,1,0,0,1,.995.995Z" transform="translate(-45.999 0)"/>
        <path id="Trazado_1043834" data-name="Trazado 1043834" d="M213.592,336.283l-3.154,8.281,1.86.708.747-1.96h2.733l.739,1.959,1.862-.7-3.127-8.286Zm.21,5.039.615-1.615.609,1.615Z" transform="translate(-188.624 -291.671)"/>
        <path id="Trazado_1043835" data-name="Trazado 1043835" d="M284.383,336.288h1.99v8.8h-1.99Z" transform="translate(-252.76 -291.677)"/>
        <path id="Trazado_1043836" data-name="Trazado 1043836" d="M187.155,313.606v-4.112h1.99V307.5h-1.99v-2.985h1.99v-1.99h-1.99v-2.985h1.99v-1.99h-1.99v-4.112H166.991v4.112H165v1.99h1.99v2.985H165v1.99h1.99V307.5H165v1.99h1.99v4.112Zm-18.174-18.174h16.184v16.184H168.981Z" transform="translate(-149.215 -254.515)"/>
        <path id="Trazado_1043837" data-name="Trazado 1043837" d="M233.5,83.443h1.99v1.99H233.5Z" transform="translate(-208.627 -72.374)"/>
        <path id="Trazado_1043838" data-name="Trazado 1043838" d="M263.5,83.443h1.99v1.99H263.5Z" transform="translate(-234.647 -72.374)"/>
      </g>
    </g>
  </g>
</svg>
