<svg xmlns="http://www.w3.org/2000/svg" xmlns:xlink="http://www.w3.org/1999/xlink" width="93.934" height="93.934" viewBox="0 0 93.934 93.934">
  <defs>
    <filter id="Trazado_982547" x="0" y="0" width="93.934" height="93.934" filterUnits="userSpaceOnUse">
      <feOffset dy="3" input="SourceAlpha"/>
      <feGaussianBlur stdDeviation="3" result="blur"/>
      <feFlood flood-opacity="0.161"/>
      <feComposite operator="in" in2="blur"/>
      <feComposite in="SourceGraphic"/>
    </filter>
  </defs>
  <g id="Grupo_1219806" data-name="Grupo 1219806" transform="translate(-1031.066 -3457)">
    <g id="Grupo_1219543" data-name="Grupo 1219543" transform="translate(0 -4926)">
      <g id="Grupo_1219299" data-name="Grupo 1219299" transform="translate(0 1145.965)">
        <g id="Grupo_1216282" data-name="Grupo 1216282" transform="translate(0 6194.186)">
          <g id="Grupo_1215983" data-name="Grupo 1215983" transform="translate(-0.229 -2679.151)">
            <g id="Grupo_1214661" data-name="Grupo 1214661" transform="translate(0 -1406)">
              <g id="Grupo_1214434" data-name="Grupo 1214434" transform="translate(-0.771 -2738.522)">
                <g id="Grupo_1183184" data-name="Grupo 1183184" transform="translate(1 1016.523)">
                  <g id="Grupo_1179612" data-name="Grupo 1179612" transform="translate(848 4723.467)">
                    <g id="Grupo_1175227" data-name="Grupo 1175227" transform="translate(-5.967 140.533)">
                      <g id="Grupo_1167337" data-name="Grupo 1167337" transform="translate(198.033 1992)">
                        <g id="Grupo_1166720" data-name="Grupo 1166720">
                          <g id="Grupo_1164305" data-name="Grupo 1164305">
                            <g id="Grupo_1163948" data-name="Grupo 1163948">
                              <g id="Grupo_1158168" data-name="Grupo 1158168">
                                <g id="Grupo_1152576" data-name="Grupo 1152576">
                                  <g id="Grupo_1148633" data-name="Grupo 1148633">
                                    <g id="Grupo_1148525" data-name="Grupo 1148525">
                                      <g transform="matrix(1, 0, 0, 1, -9, -6)" filter="url(#Trazado_982547)">
                                        <g id="Trazado_982547-2" data-name="Trazado 982547" transform="translate(9 6)" fill="#e6fdfd">
                                          <path d="M 37.966796875 74.43359375 C 33.04315185546875 74.43359375 28.26757431030273 73.46962738037109 23.77274131774902 71.56847381591797 C 19.43047523498535 69.73184967041016 15.53040790557861 67.10224914550781 12.18087482452393 63.75271987915039 C 8.831341743469238 60.4031867980957 6.201741218566895 56.50312042236328 4.365118980407715 52.16086196899414 C 2.463963508605957 47.66601943969727 1.499996900558472 42.89044189453125 1.499996900558472 37.966796875 C 1.499996900558472 33.04315185546875 2.463963508605957 28.26757431030273 4.365118980407715 23.77274131774902 C 6.201741218566895 19.43047523498535 8.831341743469238 15.53040790557861 12.18087482452393 12.18087482452393 C 15.53040790557861 8.831341743469238 19.43047523498535 6.201741218566895 23.77274131774902 4.365118980407715 C 28.26757431030273 2.463963508605957 33.04315185546875 1.499996900558472 37.966796875 1.499996900558472 C 42.89044189453125 1.499996900558472 47.66601943969727 2.463963508605957 52.16086196899414 4.365118980407715 C 56.50312042236328 6.201741218566895 60.4031867980957 8.831341743469238 63.75271987915039 12.18087482452393 C 67.10224914550781 15.53040790557861 69.73184967041016 19.43047523498535 71.56847381591797 23.77274131774902 C 73.46962738037109 28.26757431030273 74.43359375 33.04315185546875 74.43359375 37.966796875 C 74.43359375 42.89044189453125 73.46962738037109 47.66601943969727 71.56847381591797 52.16086196899414 C 69.73184967041016 56.50313186645508 67.10224914550781 60.4031867980957 63.75271987915039 63.75271987915039 C 60.4031867980957 67.10224914550781 56.50313186645508 69.73184967041016 52.16086196899414 71.56847381591797 C 47.66601943969727 73.46962738037109 42.89044189453125 74.43359375 37.966796875 74.43359375 Z" stroke="none"/>
                                          <path d="M 37.966796875 3 C 33.2449836730957 3 28.66600799560547 3.924095153808594 24.35705947875977 5.746635437011719 C 20.19359588623047 7.507637023925781 16.45379638671875 10.02928161621094 13.24153518676758 13.24153518676758 C 10.02927398681641 16.45379638671875 7.507621765136719 20.19359588623047 5.746635437011719 24.35705947875977 C 3.924095153808594 28.66600799560547 3 33.2449836730957 3 37.966796875 C 3 42.6886100769043 3.924095153808594 47.26758575439453 5.746635437011719 51.57653427124023 C 7.507621765136719 55.73999786376953 10.02927398681641 59.47979736328125 13.24153518676758 62.69205856323242 C 16.45379638671875 65.90431976318359 20.19359588623047 68.42597198486328 24.35705947875977 70.18695831298828 C 28.66600799560547 72.00949859619141 33.2449836730957 72.93359375 37.966796875 72.93359375 C 42.6886100769043 72.93359375 47.26758575439453 72.00949859619141 51.57653427124023 70.18695831298828 C 55.73999786376953 68.42597198486328 59.47979736328125 65.90431976318359 62.69205856323242 62.69205856323242 C 65.90431976318359 59.47979736328125 68.42597198486328 55.73999786376953 70.18695831298828 51.57653427124023 C 72.00949859619141 47.26758575439453 72.93359375 42.6886100769043 72.93359375 37.966796875 C 72.93359375 33.2449836730957 72.00949859619141 28.66600799560547 70.18695831298828 24.35705947875977 C 68.42597198486328 20.19359588623047 65.90431976318359 16.45379638671875 62.69205856323242 13.24153518676758 C 59.47979736328125 10.02928161621094 55.73999786376953 7.507637023925781 51.57653427124023 5.746635437011719 C 47.26758575439453 3.924095153808594 42.6886100769043 3 37.966796875 3 M 37.966796875 0 C 58.93528366088867 0 75.93359375 16.99832153320312 75.93359375 37.966796875 C 75.93359375 58.93528366088867 58.93528366088867 75.93359375 37.966796875 75.93359375 C 16.99831008911133 75.93359375 0 58.93528366088867 0 37.966796875 C 0 16.99832153320312 16.99831008911133 0 37.966796875 0 Z" stroke="none" fill="#1bf5f5"/>
                                        </g>
                                      </g>
                                    </g>
                                  </g>
                                </g>
                              </g>
                            </g>
                          </g>
                        </g>
                      </g>
                    </g>
                  </g>
                </g>
              </g>
            </g>
          </g>
        </g>
      </g>
    </g>
    <g id="transparencia_2_" data-name="transparencia (2)" transform="translate(1024.106 3473.608)">
      <g id="Grupo_1219805" data-name="Grupo 1219805" transform="translate(32.282 4.595)">
        <path id="Trazado_1044800" data-name="Trazado 1044800" d="M82.538,47.552h29.6q.019-18.776.03-37.551H82.57Z" transform="translate(-78.091 -10.001)" fill="#ecba78" fill-rule="evenodd"/>
        <path id="Trazado_1044801" data-name="Trazado 1044801" d="M37.687,92.286h29.6V60.823l-6.1-6.1h-23.5Z" transform="translate(-37.687 -50.288)" fill="#f3f5fb" fill-rule="evenodd"/>
        <path id="Trazado_1044802" data-name="Trazado 1044802" d="M280.789,60.823l-6.1-6.1v6.1Z" transform="translate(-251.19 -50.288)" fill="#e5eaf1" fill-rule="evenodd"/>
        <path id="Trazado_1044803" data-name="Trazado 1044803" d="M0,0H2.341V4.453H0Z" transform="translate(34.094 41.247) rotate(-45)" fill="#5f7080"/>
        <path id="Trazado_1044804" data-name="Trazado 1044804" d="M0,0H1.17V4.453H0Z" transform="translate(34.921 40.419) rotate(-45)" fill="#77899b"/>
        <circle id="Elipse_12579" data-name="Elipse 12579" cx="9.171" cy="9.171" r="9.171" transform="translate(19.715 25.205)" fill="#4677d5"/>
        <path id="Trazado_1044805" data-name="Trazado 1044805" d="M259.482,282.793a9.17,9.17,0,1,0-5.766-2.658A9.135,9.135,0,0,0,259.482,282.793Z" transform="translate(-229.878 -239.275)" fill="#5c85da" fill-rule="evenodd"/>
        <path id="Trazado_1044806" data-name="Trazado 1044806" d="M417.781,443.812l-1.655,1.655a.568.568,0,0,1-.8,0l-3.418-3.418a.567.567,0,0,1,0-.8l1.655-1.655a.567.567,0,0,1,.8,0l3.418,3.418a.567.567,0,0,1,0,.8Z" transform="translate(-374.656 -396.853)" fill="#4677d5" fill-rule="evenodd"/>
        <path id="Trazado_1044807" data-name="Trazado 1044807" d="M426.8,443.814l-.828.828-4.218-4.218.828-.828a.567.567,0,0,1,.8,0l3.418,3.418a.567.567,0,0,1,0,.8Z" transform="translate(-383.676 -396.855)" fill="#5c85da" fill-rule="evenodd"/>
        <circle id="Elipse_12580" data-name="Elipse 12580" cx="7.14" cy="7.14" r="7.14" transform="translate(21.746 27.236)" fill="#dbe2ec"/>
        <g id="Grupo_1219804" data-name="Grupo 1219804" transform="translate(3.66 8.872)">
          <path id="Trazado_1044808" data-name="Trazado 1044808" d="M277.937,299.281a7.14,7.14,0,1,0-4.33-2.055A7.11,7.11,0,0,0,277.937,299.281Z" transform="translate(-251.993 -266.674)" fill="#f3f5fb" fill-rule="evenodd"/>
          <path id="Trazado_1044809" data-name="Trazado 1044809" d="M291.591,326.351a.992.992,0,1,1,1.6-1.173l1.177,1.6,2.7-3.673a.992.992,0,1,1,1.6,1.173l-3.488,4.744a.993.993,0,0,1-1.613.017Z" transform="translate(-269.904 -300.571)" fill="#4ac994" fill-rule="evenodd"/>
          <path id="Trazado_1044810" data-name="Trazado 1044810" d="M75.2,100.674a.593.593,0,1,1,0-1.185H90.77a.593.593,0,0,1,0,1.185Zm0,18.212a.593.593,0,1,1,0-1.185H85.888a.593.593,0,0,1,0,1.185Zm0,3.642a.593.593,0,1,1,0-1.185H85.888a.593.593,0,0,1,0,1.185H75.2Zm0,3.642a.593.593,0,1,1,0-1.185H85.888a.593.593,0,1,1,0,1.185H75.2Zm0,3.642a.593.593,0,1,1,0-1.185H85.888a.593.593,0,0,1,0,1.185Zm0-14.57a.593.593,0,1,1,0-1.185H88.633a.593.593,0,1,1,0,1.185Zm0-3.643a.593.593,0,1,1,0-1.185H88.633a.593.593,0,1,1,0,1.185Zm0-3.643a.593.593,0,1,1,0-1.185H96.289a.593.593,0,0,1,0,1.185H75.2Zm0-3.643a.593.593,0,1,1,0-1.185H96.289a.593.593,0,0,1,0,1.185H75.2Z" transform="translate(-74.603 -99.489)" fill="#77899b" fill-rule="evenodd"/>
          <path id="Trazado_1044811" data-name="Trazado 1044811" d="M360.4,268.805a4.914,4.914,0,0,0,3.916-3.916,4.914,4.914,0,0,0,3.916,3.916,4.914,4.914,0,0,0-3.916,3.916A4.914,4.914,0,0,0,360.4,268.805Z" transform="translate(-332.063 -248.49)" fill="#ffbd1c" fill-rule="evenodd"/>
          <path id="Trazado_1044812" data-name="Trazado 1044812" d="M256.517,214.865a.595.595,0,1,1,1.19,0v.818h.818a.595.595,0,1,1,0,1.19h-.818v.818a.595.595,0,1,1-1.19,0v-.818H255.7a.595.595,0,1,1,0-1.19h.818Zm17.1,13.087a.595.595,0,1,1,1.19,0v.818h.818a.595.595,0,0,1,0,1.19h-.818v.818a.595.595,0,1,1-1.19,0v-.818H272.8a.595.595,0,1,1,0-1.19h.818ZM271.934,214.2a.595.595,0,1,1,1.19,0v.818h.818a.595.595,0,1,1,0,1.19h-.818v.818a.595.595,0,1,1-1.19,0V216.2h-.818a.595.595,0,1,1,0-1.19h.818Z" transform="translate(-237.208 -202.287)" fill="#ffbd1c" fill-rule="evenodd"/>
        </g>
        <path id="Trazado_1044813" data-name="Trazado 1044813" d="M37.687,54.722h1.749V92.286H37.687Z" transform="translate(-37.687 -50.288)" fill="#e5eaf1"/>
        <path id="Trazado_1044814" data-name="Trazado 1044814" d="M82.861,10H84.61v4.434H82.861Z" transform="translate(-78.382 -10.001)" fill="#e3a76f"/>
      </g>
      <path id="Trazado_1044815" data-name="Trazado 1044815" d="M60.829,40.095a.594.594,0,0,1-.906-.079L58.758,38.43a.4.4,0,0,0-.637.467l1.97,2.68a.4.4,0,0,0,.65-.017l3.476-4.727a.4.4,0,0,0-.381-.623.391.391,0,0,0-.256.156L60.9,40.016Zm11.524-.963a.595.595,0,1,1,1.19,0v.818h.818a.595.595,0,0,1,0,1.19h-.818v.818a.595.595,0,1,1-1.19,0V41.14h-.818a.595.595,0,1,1,0-1.19h.818ZM60.41,38.673l2.212-3.009a1.582,1.582,0,1,1,2.552,1.871L61.7,42.262a1.587,1.587,0,0,1-2.565.017l-1.97-2.68a1.582,1.582,0,1,1,2.552-1.871l.695.945Zm5.337-8.33L65.762,5.19H37.353l0,3.244H55.779a.592.592,0,0,1,.426.179L62.294,14.7a.592.592,0,0,1,.181.427V29.294A9.74,9.74,0,0,1,65.747,30.343ZM36.165,8.434V4.595A.6.6,0,0,1,36.761,4h29.6a.6.6,0,0,1,.595.595l-.02,26.491.127.094a4.658,4.658,0,0,0,.555-1.435.594.594,0,0,1,1.164.009A4.333,4.333,0,0,0,72.212,33.2a.6.6,0,0,1-.01,1.173,4.187,4.187,0,0,0-1.976.948,9.793,9.793,0,0,1-1.018,9.2l2.1,2.1a1.156,1.156,0,0,1,1.1.305h0l3.418,3.418a1.156,1.156,0,0,1,.337.821h0a1.157,1.157,0,0,1-.339.821L74.172,53.63a1.159,1.159,0,0,1-1.64,0h0l-3.418-3.418a1.165,1.165,0,0,1-.3-1.1l-2.1-2.1a9.776,9.776,0,0,1-10.824.176H32.282a.6.6,0,0,1-.595-.595V9.029a.6.6,0,0,1,.595-.595h3.883ZM61.878,30.422a8.541,8.541,0,0,1,4.436,1.687,4.291,4.291,0,0,1-.7.535,7.745,7.745,0,1,0,3.18,5.071,4.625,4.625,0,0,1,.543-1.35,8.58,8.58,0,1,1-7.551-5.95.6.6,0,0,0,.088.007Zm-.593-1.215A9.763,9.763,0,0,0,54.387,46H32.877V9.624H55.185V15.13a.6.6,0,0,0,.595.595h5.506V29.208Zm-.841-14.673h-4.07v-4.07Zm-23.91,18.33H47.226a.593.593,0,1,0,0-1.185H36.534a.593.593,0,1,0,0,1.185Zm0,3.642H47.226a.592.592,0,1,0,0-1.185H36.534a.593.593,0,1,0,0,1.185Zm0,3.642H47.226a.593.593,0,1,0,0-1.185H36.534a.593.593,0,1,0,0,1.185Zm0,3.642H47.226a.593.593,0,1,0,0-1.185H36.534a.593.593,0,1,0,0,1.185Zm0-14.57a.593.593,0,1,1,0-1.185H49.972a.593.593,0,1,1,0,1.185H36.534Zm0-3.643a.593.593,0,1,1,0-1.185H49.972a.593.593,0,1,1,0,1.185H36.534ZM70.347,47.336l-1.879-1.879-.814.814,1.879,1.879Zm3,5.432,1.614-1.614-3.377-3.377-1.614,1.614ZM64.234,33.185l-.049.009a.6.6,0,0,0-.01,1.173,4.333,4.333,0,0,1,3.436,3.443,6.6,6.6,0,0,1-.2,3.121,6.546,6.546,0,1,1-3.18-7.746Zm-27.7-11.248a.593.593,0,1,1,0-1.185H57.628a.593.593,0,1,1,0,1.185Zm0-3.643a.593.593,0,0,1,0-1.185H57.628a.593.593,0,1,1,0,1.185Zm0-3.643a.593.593,0,0,1,0-1.185H52.109a.593.593,0,1,1,0,1.185ZM67.243,32.865a5.465,5.465,0,0,1-1.218.917,5.473,5.473,0,0,1,2.169,2.195,5.474,5.474,0,0,1,2.169-2.195,5.473,5.473,0,0,1-2.169-2.195A5.5,5.5,0,0,1,67.243,32.865Zm3.425-7.489v.818H69.85a.595.595,0,0,0,0,1.19h.818V28.2a.595.595,0,0,0,1.19,0v-.818h.818a.595.595,0,0,0,0-1.19h-.818v-.818a.595.595,0,0,0-1.19,0Zm-15.417.669a.595.595,0,1,1,1.19,0v.818h.818a.595.595,0,0,1,0,1.19H56.44v.818a.595.595,0,1,1-1.19,0v-.818h-.818a.595.595,0,0,1,0-1.19h.818Z" transform="translate(0)" fill-rule="evenodd"/>
    </g>
  </g>
</svg>
