<svg xmlns="http://www.w3.org/2000/svg" xmlns:xlink="http://www.w3.org/1999/xlink" width="113" height="113" viewBox="0 0 113 113">
  <defs>
    <filter id="Trazado_982547" x="0" y="0" width="113" height="113" filterUnits="userSpaceOnUse">
      <feOffset dy="3" input="SourceAlpha"/>
      <feGaussianBlur stdDeviation="3" result="blur"/>
      <feFlood flood-opacity="0.161"/>
      <feComposite operator="in" in2="blur"/>
      <feComposite in="SourceGraphic"/>
    </filter>
  </defs>
  <g id="Grupo_1219821" data-name="Grupo 1219821" transform="translate(-271.425 -1792.073)">
    <g id="Grupo_1203716" data-name="Grupo 1203716" transform="translate(-0.575 -4108.927)">
      <g id="Grupo_1202432" data-name="Grupo 1202432" transform="translate(0 1255.486)">
        <g id="Grupo_1202055" data-name="Grupo 1202055" transform="translate(0 3240.511)">
          <g id="Grupo_1177900" data-name="Grupo 1177900" transform="translate(281 1411.003)">
            <g id="Grupo_1172010" data-name="Grupo 1172010" transform="translate(0)">
              <g id="Grupo_1171046" data-name="Grupo 1171046">
                <g id="Grupo_1148525" data-name="Grupo 1148525">
                  <g transform="matrix(1, 0, 0, 1, -9, -6)" filter="url(#Trazado_982547)">
                    <g id="Trazado_982547-2" data-name="Trazado 982547" transform="translate(9 6)" fill="#f3e6fd">
                      <path d="M 47.5 93.5 C 41.28937149047852 93.5 35.26533508300781 92.28397369384766 29.59518623352051 89.88570404052734 C 24.11771965026855 87.56893157958984 19.19813346862793 84.25196075439453 14.97309303283691 80.02691650390625 C 10.74804019927979 75.80186462402344 7.431066513061523 70.88229370117188 5.114293098449707 65.40481567382812 C 2.716026782989502 59.73468017578125 1.5 53.71062850952148 1.5 47.5 C 1.5 41.28937149047852 2.716026782989502 35.26533508300781 5.114293098449707 29.59518623352051 C 7.431066513061523 24.11771965026855 10.74804019927979 19.19813346862793 14.97309303283691 14.97309303283691 C 19.19813346862793 10.74804019927979 24.11771965026855 7.431066513061523 29.59518623352051 5.114293098449707 C 35.26533508300781 2.716026782989502 41.28937149047852 1.5 47.5 1.5 C 53.71062850952148 1.5 59.73468017578125 2.716026782989502 65.40481567382812 5.114293098449707 C 70.88229370117188 7.431066513061523 75.80186462402344 10.74804019927979 80.02691650390625 14.97309303283691 C 84.25196075439453 19.19813346862793 87.56893157958984 24.11771965026855 89.88570404052734 29.59518623352051 C 92.28397369384766 35.26533508300781 93.5 41.28937149047852 93.5 47.5 C 93.5 53.71062850952148 92.28397369384766 59.73468017578125 89.88570404052734 65.40481567382812 C 87.56893157958984 70.88229370117188 84.25196075439453 75.80186462402344 80.02691650390625 80.02691650390625 C 75.80186462402344 84.25196075439453 70.88229370117188 87.56893157958984 65.40481567382812 89.88570404052734 C 59.73468017578125 92.28397369384766 53.71062850952148 93.5 47.5 93.5 Z" stroke="none"/>
                      <path d="M 47.5 3 C 41.49121475219727 3 35.66376876831055 4.176155090332031 30.17950439453125 6.495796203613281 C 24.88084411621094 8.736953735351562 20.12152099609375 11.94598388671875 16.03375244140625 16.03375244140625 C 11.94598388671875 20.12152099609375 8.736953735351562 24.88084411621094 6.495796203613281 30.17950439453125 C 4.176155090332031 35.66376876831055 3 41.49121475219727 3 47.5 C 3 53.50878524780273 4.176155090332031 59.33623123168945 6.495796203613281 64.82049560546875 C 8.736953735351562 70.11915588378906 11.94598388671875 74.87847900390625 16.03375244140625 78.96624755859375 C 20.12152099609375 83.05401611328125 24.88084411621094 86.26304626464844 30.17950439453125 88.50419616699219 C 35.66376876831055 90.82384490966797 41.49121475219727 92 47.5 92 C 53.50878524780273 92 59.33623123168945 90.82384490966797 64.82049560546875 88.50419616699219 C 70.11915588378906 86.26304626464844 74.87847900390625 83.05401611328125 78.96624755859375 78.96624755859375 C 83.05401611328125 74.87847900390625 86.26304626464844 70.11915588378906 88.50419616699219 64.82049560546875 C 90.82384490966797 59.33623123168945 92 53.50878524780273 92 47.5 C 92 41.49121475219727 90.82384490966797 35.66376876831055 88.50419616699219 30.17950439453125 C 86.26304626464844 24.88084411621094 83.05401611328125 20.12152099609375 78.96624755859375 16.03375244140625 C 74.87847900390625 11.94598388671875 70.11915588378906 8.736953735351562 64.82049560546875 6.495796203613281 C 59.33623123168945 4.176155090332031 53.50878524780273 3 47.5 3 M 47.5 0 C 73.7335205078125 0 95 21.2664794921875 95 47.5 C 95 73.7335205078125 73.7335205078125 95 47.5 95 C 21.2664794921875 95 0 73.7335205078125 0 47.5 C 0 21.2664794921875 21.2664794921875 0 47.5 0 Z" stroke="none" fill="#951bf1"/>
                    </g>
                  </g>
                </g>
              </g>
            </g>
          </g>
        </g>
      </g>
    </g>
    <g id="proceso_2_" data-name="proceso (2)" transform="translate(278.555 1793.303)">
      <path id="Trazado_1044343" data-name="Trazado 1044343" d="M277.939,287.413l-6.169-10.689L265.6,266.035a3.193,3.193,0,0,0-5.53,0L253.9,276.723l-6.172,10.688a3.192,3.192,0,0,0,2.765,4.787h24.685a3.192,3.192,0,0,0,2.762-4.787Z" transform="translate(-203.408 -211.265)" fill="#ffdf40"/>
      <path id="Trazado_1044344" data-name="Trazado 1044344" d="M374.013,276.719l-6.172-10.688a3.081,3.081,0,0,0-2.765-1.6V292.2H377.42a3.192,3.192,0,0,0,2.762-4.787Z" transform="translate(-305.651 -211.261)" fill="#ffbe40"/>
      <path id="Trazado_1044345" data-name="Trazado 1044345" d="M33.237,68.2h-4.37a1.055,1.055,0,0,1-.9-.5l-1.287-2.084L23.2,64.171l-2.381.567a1.055,1.055,0,0,1-.991-.28l-3.092-3.092a1.055,1.055,0,0,1-.28-.991l.567-2.382L15.578,54.51l-2.086-1.283a1.055,1.055,0,0,1-.5-.9V47.955a1.055,1.055,0,0,1,.5-.9l2.086-1.283,1.443-3.485-.567-2.382a1.055,1.055,0,0,1,.28-.991l3.091-3.091a1.055,1.055,0,0,1,.989-.281l2.382.564,3.486-1.443,1.286-2.084a1.055,1.055,0,0,1,.9-.5h4.37a1.055,1.055,0,0,1,.9.5l1.283,2.083,3.488,1.444,2.379-.564a1.055,1.055,0,0,1,.989.28l3.1,3.092a1.055,1.055,0,0,1,.281.991l-.567,2.382,1.443,3.485,2.083,1.283a1.055,1.055,0,0,1,.5.9v4.374a1.055,1.055,0,0,1-.5.9L46.527,54.51l-1.443,3.485.567,2.382a1.055,1.055,0,0,1-.28.991l-3.092,3.092a1.055,1.055,0,0,1-.991.28l-2.381-.567-3.488,1.447L34.136,67.7A1.055,1.055,0,0,1,33.237,68.2Zm-3.782-2.11h3.192L33.8,64.221a1.057,1.057,0,0,1,.494-.422l4.12-1.708a1.055,1.055,0,0,1,.649-.052l2.14.51,2.258-2.257-.51-2.14A1.054,1.054,0,0,1,43,57.5l1.7-4.116a1.055,1.055,0,0,1,.422-.495L47,51.739V48.544L45.13,47.391a1.054,1.054,0,0,1-.422-.495L43,42.781a1.054,1.054,0,0,1-.052-.648l.51-2.14L41.2,37.734l-2.138.507a1.055,1.055,0,0,1-.647-.052l-4.12-1.7a1.055,1.055,0,0,1-.5-.422L32.648,34.19H29.456L28.3,36.063a1.055,1.055,0,0,1-.494.42L23.69,38.189a1.056,1.056,0,0,1-.647.052L20.9,37.734l-2.258,2.258.51,2.14a1.055,1.055,0,0,1-.052.648L17.4,46.9a1.053,1.053,0,0,1-.422.495L15.1,48.545v3.194l1.875,1.153a1.054,1.054,0,0,1,.422.495L19.1,57.5a1.055,1.055,0,0,1,.052.648l-.51,2.14L20.9,62.549l2.14-.51a1.056,1.056,0,0,1,.649.052L27.806,63.8a1.055,1.055,0,0,1,.493.42Zm1.595-4.81A11.141,11.141,0,1,1,42.192,50.142,11.141,11.141,0,0,1,31.05,61.283Zm0-20.172a9.031,9.031,0,1,0,9.031,9.031A9.031,9.031,0,0,0,31.05,41.111Zm30.6,4.512H58.767a1.055,1.055,0,0,1-.9-.5l-.785-1.276L55,42.982l-1.458.347a1.055,1.055,0,0,1-.991-.281l-2.037-2.041a1.055,1.055,0,0,1-.279-.99l.347-1.454-.864-2.086-1.275-.785a1.055,1.055,0,0,1-.5-.9V31.909a1.055,1.055,0,0,1,.5-.9l1.276-.786.864-2.083-.347-1.458a1.055,1.055,0,0,1,.28-.989l2.037-2.042a1.055,1.055,0,0,1,.991-.281L55,23.719l2.083-.864.785-1.276a1.055,1.055,0,0,1,.9-.5h2.886a1.055,1.055,0,0,1,.9.5l.785,1.276,2.083.863,1.458-.347a1.055,1.055,0,0,1,.991.281l2.037,2.041a1.055,1.055,0,0,1,.28.989l-.347,1.458.864,2.083,1.276.786a1.055,1.055,0,0,1,.5.9v2.882a1.055,1.055,0,0,1-.5.9l-1.275.785-.864,2.086.347,1.454a1.055,1.055,0,0,1-.279.99l-2.037,2.041a1.056,1.056,0,0,1-.991.281l-1.458-.347-2.083.864-.785,1.276a1.055,1.055,0,0,1-.9.5Zm-2.3-2.11h1.707l.655-1.065a1.055,1.055,0,0,1,.494-.421L64.927,40.9a1.055,1.055,0,0,1,.648-.052l1.217.29L68,39.933l-.289-1.213a1.055,1.055,0,0,1,.052-.648l1.125-2.718a1.055,1.055,0,0,1,.422-.495L70.37,34.2V32.5l-1.064-.655a1.055,1.055,0,0,1-.421-.494l-1.125-2.714a1.053,1.053,0,0,1-.052-.648L68,26.769l-1.2-1.207-1.217.29a1.055,1.055,0,0,1-.648-.052l-2.714-1.125a1.055,1.055,0,0,1-.494-.421l-.655-1.065H59.356L58.7,24.254a1.055,1.055,0,0,1-.494.422L55.492,25.8a1.055,1.055,0,0,1-.648.052l-1.217-.29-1.2,1.207.29,1.218a1.055,1.055,0,0,1-.052.648L51.536,31.35a1.055,1.055,0,0,1-.421.494L50.05,32.5v1.7l1.065.655a1.055,1.055,0,0,1,.422.495l1.125,2.718a1.055,1.055,0,0,1,.052.648l-.29,1.213,1.2,1.207,1.217-.29a1.055,1.055,0,0,1,.648.052l2.714,1.125a1.055,1.055,0,0,1,.494.421Zm.854-3.277a6.885,6.885,0,1,1,6.883-6.884A6.885,6.885,0,0,1,60.21,40.236Zm0-11.66a4.775,4.775,0,1,0,4.773,4.777,4.775,4.775,0,0,0-4.773-4.777ZM71.769,83.044H47.085a5.3,5.3,0,0,1-4.592-7.954L48.665,64.4l6.168-10.688a5.3,5.3,0,0,1,9.185,0L70.19,64.4l6.169,10.688a5.3,5.3,0,0,1-4.589,7.953ZM59.425,53.174a3.081,3.081,0,0,0-2.765,1.6L50.492,65.458,44.32,76.146a3.192,3.192,0,0,0,2.765,4.787H71.769a3.192,3.192,0,0,0,2.762-4.787L68.362,65.458,62.19,54.77a3.081,3.081,0,0,0-2.765-1.6Zm0,18.67a2.824,2.824,0,0,1-2.777-2.724l-.31-6.079a2.91,2.91,0,0,1,.816-2.167,3.13,3.13,0,0,1,4.542,0,2.909,2.909,0,0,1,.817,2.166l-.31,6.08a2.824,2.824,0,0,1-2.777,2.725Zm0-9.836a1.03,1.03,0,0,0-.742.32.815.815,0,0,0-.237.606l.31,6.078a.672.672,0,1,0,1.339,0l.31-6.078a.814.814,0,0,0-.238-.6,1.03,1.03,0,0,0-.742-.32Zm0,16.247A2.779,2.779,0,1,1,62.2,75.476a2.779,2.779,0,0,1-2.779,2.779Zm0-3.447a.668.668,0,1,0,.669.668.668.668,0,0,0-.669-.668Z"/>
      <path id="Trazado_1044346" data-name="Trazado 1044346" d="M312.825,45.239,311.7,42.525a1.053,1.053,0,0,1-.052-.648l.29-1.218-1.2-1.207-1.216.29a1.055,1.055,0,0,1-.648-.052l-2.714-1.125a1.055,1.055,0,0,1-.494-.421l-.655-1.065H303.3l-.655,1.065a1.055,1.055,0,0,1-.494.422l-2.714,1.125a1.055,1.055,0,0,1-.648.052l-1.217-.29-1.2,1.207.29,1.218a1.055,1.055,0,0,1-.052.648l-1.125,2.714a1.055,1.055,0,0,1-.422.494l-1.064.655v1.7l1.064.655a1.055,1.055,0,0,1,.422.495l1.125,2.718a1.056,1.056,0,0,1,.052.648l-.29,1.213,1.2,1.207,1.217-.29a1.055,1.055,0,0,1,.648.052l2.714,1.125a1.055,1.055,0,0,1,.494.421L303.3,57.4H305l.655-1.065a1.055,1.055,0,0,1,.494-.421l2.714-1.125a1.055,1.055,0,0,1,.648-.052l1.216.29,1.2-1.207-.289-1.213a1.055,1.055,0,0,1,.052-.648l1.125-2.718a1.054,1.054,0,0,1,.422-.495l1.064-.655v-1.7l-1.064-.655A1.054,1.054,0,0,1,312.825,45.239Zm-8.674,8.887a6.885,6.885,0,1,1,6.883-6.884,6.885,6.885,0,0,1-6.883,6.884Z" transform="translate(-243.941 -13.89)" fill="#bec7cf"/>
      <path id="Trazado_1044347" data-name="Trazado 1044347" d="M358.628,331.421a1.03,1.03,0,0,0-.742.32.815.815,0,0,0-.237.606l.31,6.078a.672.672,0,1,0,1.339,0l.31-6.078a.814.814,0,0,0-.238-.6A1.029,1.029,0,0,0,358.628,331.421Z" transform="translate(-299.203 -269.413)" fill="#ec4c36"/>
      <path id="Trazado_1044348" data-name="Trazado 1044348" d="M360.678,428.478a.668.668,0,1,0,.668.668A.668.668,0,0,0,360.678,428.478Z" transform="translate(-301.254 -353.669)" fill="#ec4c36"/>
      <path id="Trazado_1044349" data-name="Trazado 1044349" d="M31.28,139.691l1.705,4.116a1.055,1.055,0,0,1,.052.648l-.51,2.14,2.258,2.258,2.14-.51a1.056,1.056,0,0,1,.649.052L41.69,150.1a1.055,1.055,0,0,1,.493.42L43.34,152.4h3.192l1.153-1.872a1.056,1.056,0,0,1,.494-.422l4.12-1.708a1.055,1.055,0,0,1,.649-.052l2.14.51,2.258-2.257-.51-2.14a1.054,1.054,0,0,1,.052-.648l1.7-4.116a1.055,1.055,0,0,1,.422-.495l1.872-1.153v-3.195L59.014,133.7a1.054,1.054,0,0,1-.422-.495l-1.7-4.116a1.053,1.053,0,0,1-.052-.648l.51-2.14-2.261-2.259-2.138.507a1.055,1.055,0,0,1-.647-.052l-4.12-1.7a1.055,1.055,0,0,1-.5-.422l-1.153-1.872H43.34l-1.156,1.873a1.055,1.055,0,0,1-.494.42l-4.116,1.705a1.056,1.056,0,0,1-.647.052l-2.141-.507L32.527,126.3l.51,2.14a1.055,1.055,0,0,1-.052.648L31.28,133.2a1.053,1.053,0,0,1-.422.495l-1.875,1.153v3.194l1.875,1.153a1.054,1.054,0,0,1,.422.494ZM44.934,125.3A11.141,11.141,0,1,1,33.8,136.445,11.141,11.141,0,0,1,44.934,125.3Z" transform="translate(-13.884 -86.305)" fill="#bec7cf"/>
      <g id="Grupo_1219663" data-name="Grupo 1219663" transform="translate(31.052 23.189)">
        <path id="Trazado_1044350" data-name="Trazado 1044350" d="M163.6,133.2l-1.7-4.116a1.054,1.054,0,0,1-.052-.648l.51-2.14-2.261-2.259-2.138.507a1.055,1.055,0,0,1-.647-.052l-4.12-1.7a1.055,1.055,0,0,1-.5-.422l-1.153-1.872h-1.6v4.81a11.141,11.141,0,1,1,0,22.283v4.81h1.6l1.153-1.872a1.056,1.056,0,0,1,.494-.422l4.12-1.708a1.055,1.055,0,0,1,.649-.052l2.14.51,2.258-2.257-.51-2.14a1.054,1.054,0,0,1,.052-.648l1.7-4.116a1.055,1.055,0,0,1,.422-.495l1.872-1.153v-3.195l-1.872-1.153A1.054,1.054,0,0,1,163.6,133.2Z" transform="translate(-149.945 -109.494)" fill="#abb3ba"/>
        <path id="Trazado_1044351" data-name="Trazado 1044351" d="M379.7,45.239l-1.125-2.714a1.053,1.053,0,0,1-.052-.648l.29-1.218-1.2-1.207-1.217.29a1.055,1.055,0,0,1-.648-.052l-2.714-1.125a1.055,1.055,0,0,1-.494-.421l-.655-1.065h-.854v3.276a6.885,6.885,0,1,1,0,13.77V57.4h.853l.655-1.065a1.055,1.055,0,0,1,.494-.421l2.714-1.125a1.055,1.055,0,0,1,.648-.052l1.217.29,1.2-1.207-.289-1.213a1.055,1.055,0,0,1,.052-.648l1.125-2.718a1.054,1.054,0,0,1,.422-.495l1.064-.655v-1.7l-1.064-.655a1.054,1.054,0,0,1-.422-.494Z" transform="translate(-341.873 -37.079)" fill="#abb3ba"/>
      </g>
    </g>
  </g>
</svg>
