<svg xmlns="http://www.w3.org/2000/svg" xmlns:xlink="http://www.w3.org/1999/xlink" width="113" height="113" viewBox="0 0 113 113">
  <defs>
    <filter id="Trazado_982547" x="0" y="0" width="113" height="113" filterUnits="userSpaceOnUse">
      <feOffset dy="3" input="SourceAlpha"/>
      <feGaussianBlur stdDeviation="3" result="blur"/>
      <feFlood flood-opacity="0.161"/>
      <feComposite operator="in" in2="blur"/>
      <feComposite in="SourceGraphic"/>
    </filter>
  </defs>
  <g id="Grupo_1219823" data-name="Grupo 1219823" transform="translate(-901 -1792.36)">
    <g id="Grupo_1203718" data-name="Grupo 1203718" transform="translate(0 -4108.927)">
      <g id="Grupo_1202434" data-name="Grupo 1202434" transform="translate(-0.56 1255.773)">
        <g id="Grupo_1202053" data-name="Grupo 1202053" transform="translate(0 3240.511)">
          <g id="Grupo_1177898" data-name="Grupo 1177898" transform="translate(910.561 1411.003)">
            <g id="Grupo_1172010" data-name="Grupo 1172010" transform="translate(0)">
              <g id="Grupo_1171046" data-name="Grupo 1171046">
                <g id="Grupo_1148525" data-name="Grupo 1148525">
                  <g transform="matrix(1, 0, 0, 1, -9, -6)" filter="url(#Trazado_982547)">
                    <g id="Trazado_982547-2" data-name="Trazado 982547" transform="translate(9 6)" fill="#f3e6fd">
                      <path d="M 47.5 93.5 C 41.28937149047852 93.5 35.26533508300781 92.28397369384766 29.59518623352051 89.88570404052734 C 24.11771965026855 87.56893157958984 19.19813346862793 84.25196075439453 14.97309303283691 80.02691650390625 C 10.74804019927979 75.80186462402344 7.431066513061523 70.88229370117188 5.114293098449707 65.40481567382812 C 2.716026782989502 59.73468017578125 1.5 53.71062850952148 1.5 47.5 C 1.5 41.28937149047852 2.716026782989502 35.26533508300781 5.114293098449707 29.59518623352051 C 7.431066513061523 24.11771965026855 10.74804019927979 19.19813346862793 14.97309303283691 14.97309303283691 C 19.19813346862793 10.74804019927979 24.11771965026855 7.431066513061523 29.59518623352051 5.114293098449707 C 35.26533508300781 2.716026782989502 41.28937149047852 1.5 47.5 1.5 C 53.71062850952148 1.5 59.73468017578125 2.716026782989502 65.40481567382812 5.114293098449707 C 70.88229370117188 7.431066513061523 75.80186462402344 10.74804019927979 80.02691650390625 14.97309303283691 C 84.25196075439453 19.19813346862793 87.56893157958984 24.11771965026855 89.88570404052734 29.59518623352051 C 92.28397369384766 35.26533508300781 93.5 41.28937149047852 93.5 47.5 C 93.5 53.71062850952148 92.28397369384766 59.73468017578125 89.88570404052734 65.40481567382812 C 87.56893157958984 70.88229370117188 84.25196075439453 75.80186462402344 80.02691650390625 80.02691650390625 C 75.80186462402344 84.25196075439453 70.88229370117188 87.56893157958984 65.40481567382812 89.88570404052734 C 59.73468017578125 92.28397369384766 53.71062850952148 93.5 47.5 93.5 Z" stroke="none"/>
                      <path d="M 47.5 3 C 41.49121475219727 3 35.66376876831055 4.176155090332031 30.17950439453125 6.495796203613281 C 24.88084411621094 8.736953735351562 20.12152099609375 11.94598388671875 16.03375244140625 16.03375244140625 C 11.94598388671875 20.12152099609375 8.736953735351562 24.88084411621094 6.495796203613281 30.17950439453125 C 4.176155090332031 35.66376876831055 3 41.49121475219727 3 47.5 C 3 53.50878524780273 4.176155090332031 59.33623123168945 6.495796203613281 64.82049560546875 C 8.736953735351562 70.11915588378906 11.94598388671875 74.87847900390625 16.03375244140625 78.96624755859375 C 20.12152099609375 83.05401611328125 24.88084411621094 86.26304626464844 30.17950439453125 88.50419616699219 C 35.66376876831055 90.82384490966797 41.49121475219727 92 47.5 92 C 53.50878524780273 92 59.33623123168945 90.82384490966797 64.82049560546875 88.50419616699219 C 70.11915588378906 86.26304626464844 74.87847900390625 83.05401611328125 78.96624755859375 78.96624755859375 C 83.05401611328125 74.87847900390625 86.26304626464844 70.11915588378906 88.50419616699219 64.82049560546875 C 90.82384490966797 59.33623123168945 92 53.50878524780273 92 47.5 C 92 41.49121475219727 90.82384490966797 35.66376876831055 88.50419616699219 30.17950439453125 C 86.26304626464844 24.88084411621094 83.05401611328125 20.12152099609375 78.96624755859375 16.03375244140625 C 74.87847900390625 11.94598388671875 70.11915588378906 8.736953735351562 64.82049560546875 6.495796203613281 C 59.33623123168945 4.176155090332031 53.50878524780273 3 47.5 3 M 47.5 0 C 73.7335205078125 0 95 21.2664794921875 95 47.5 C 95 73.7335205078125 73.7335205078125 95 47.5 95 C 21.2664794921875 95 0 73.7335205078125 0 47.5 C 0 21.2664794921875 21.2664794921875 0 47.5 0 Z" stroke="none" fill="#951bf1"/>
                    </g>
                  </g>
                </g>
              </g>
            </g>
          </g>
        </g>
      </g>
    </g>
    <g id="investigar_1_" data-name="investigar (1)" transform="translate(915.53 1817.008)">
      <g id="Grupo_1219686" data-name="Grupo 1219686" transform="translate(15.065 0.845)">
        <path id="Trazado_1044375" data-name="Trazado 1044375" d="M73.927,63.515H22.319a.6.6,0,0,1-.6-.6V8.1a.6.6,0,0,1,.6-.6H73.927a.6.6,0,0,1,.6.6V62.914A.6.6,0,0,1,73.927,63.515Z" transform="translate(-21.718 -7.5)" fill="#f5f8f9"/>
      </g>
      <g id="Grupo_1219687" data-name="Grupo 1219687" transform="translate(64.986 0.845)">
        <path id="Trazado_1044376" data-name="Trazado 1044376" d="M467.541,8.1V62.912a.6.6,0,0,1-.6.6h-2.287a.6.6,0,0,0,.6-.6v-48.1h0V8.1a.6.6,0,0,0-.136-.383c-.012-.015-.026-.029-.039-.043a.6.6,0,0,0-.425-.176h2.287a.6.6,0,0,1,.425.176c.014.014.027.028.039.043a.6.6,0,0,1,.138.383Z" transform="translate(-464.652 -7.498)" fill="#e8edf2"/>
      </g>
      <g id="Grupo_1219688" data-name="Grupo 1219688" transform="translate(15.065 0.845)">
        <path id="Trazado_1044377" data-name="Trazado 1044377" d="M74.53,8.1v6.713H21.721V8.1a.6.6,0,0,1,.6-.6H73.93A.6.6,0,0,1,74.53,8.1Z" transform="translate(-21.721 -7.498)" fill="#c1e9af"/>
      </g>
      <g id="Grupo_1219689" data-name="Grupo 1219689" transform="translate(64.986 0.845)">
        <path id="Trazado_1044378" data-name="Trazado 1044378" d="M467.54,8.1v6.713h-2.287V8.1a.6.6,0,0,0-.136-.383c-.012-.015-.026-.029-.039-.043a.6.6,0,0,0-.425-.176h2.287a.6.6,0,0,1,.425.176c.014.014.027.028.039.043A.6.6,0,0,1,467.54,8.1Z" transform="translate(-464.652 -7.498)" fill="#ade194"/>
      </g>
      <g id="Grupo_1219690" data-name="Grupo 1219690" transform="translate(65.451 1.064)">
        <path id="Trazado_1044379" data-name="Trazado 1044379" d="M468.908,9.821v6.713h0V9.821a.6.6,0,0,0-.136-.383A.6.6,0,0,1,468.908,9.821Z" transform="translate(-468.771 -9.438)" fill="#ade194"/>
      </g>
      <g id="Grupo_1219691" data-name="Grupo 1219691" transform="translate(19.214 13.142)">
        <path id="Trazado_1044380" data-name="Trazado 1044380" d="M102.156,127.547H59.418a.887.887,0,0,1-.887-.887v-9.166a.887.887,0,0,1,.887-.887h42.739a.887.887,0,0,1,.887.887v9.166A.887.887,0,0,1,102.156,127.547Z" transform="translate(-58.531 -116.607)" fill="#fee97d"/>
      </g>
      <g id="Grupo_1219692" data-name="Grupo 1219692" transform="translate(60.586 13.142)">
        <path id="Trazado_1044381" data-name="Trazado 1044381" d="M428.75,117.49v9.166a.886.886,0,0,1-.886.887h-2.254a.886.886,0,0,0,.886-.887V117.49a.887.887,0,0,0-.886-.887h2.254A.887.887,0,0,1,428.75,117.49Z" transform="translate(-425.611 -116.603)" fill="#fedf30"/>
      </g>
      <g id="Grupo_1219703" data-name="Grupo 1219703" transform="translate(14.22)">
        <g id="Grupo_1219693" data-name="Grupo 1219693" transform="translate(26.868 36.328)">
          <path id="Trazado_1044382" data-name="Trazado 1044382" d="M0,0H4.31V6.133H0Z" transform="translate(0 3.047) rotate(-45)" fill="#f5f8f9"/>
        </g>
        <g id="Grupo_1219694" data-name="Grupo 1219694" transform="translate(28.311 36.328)">
          <path id="Trazado_1044383" data-name="Trazado 1044383" d="M0,0H2.267V6.133H0Z" transform="translate(0 1.603) rotate(-45)" fill="#d9e7ec"/>
        </g>
        <g id="Grupo_1219695" data-name="Grupo 1219695" transform="translate(30.702 40.156)">
          <path id="Trazado_1044384" data-name="Trazado 1044384" d="M297.286,366.947a3.481,3.481,0,0,1-4.923,0l-5.434-5.434a1.034,1.034,0,0,1,0-1.462l3.46-3.46a1.034,1.034,0,0,1,1.462,0l5.434,5.434A3.481,3.481,0,0,1,297.286,366.947Z" transform="translate(-286.627 -356.288)" fill="#596c76"/>
        </g>
        <g id="Grupo_1219696" data-name="Grupo 1219696" transform="translate(33.392 40.156)">
          <path id="Trazado_1044385" data-name="Trazado 1044385" d="M318.465,366.95a3.456,3.456,0,0,1-1.571.9,3.479,3.479,0,0,0-.386-4.463l-5.434-5.434a1.029,1.029,0,0,0-.579-.291l1.073-1.073a1.034,1.034,0,0,1,1.462,0l5.435,5.434A3.481,3.481,0,0,1,318.465,366.95Z" transform="translate(-310.495 -356.291)" fill="#465a61"/>
        </g>
        <g id="Grupo_1219697" data-name="Grupo 1219697" transform="translate(12.119 21.573)">
          <circle id="Elipse_12552" data-name="Elipse 12552" cx="9.974" cy="9.974" r="9.974" fill="#b6c4cf"/>
        </g>
        <g id="Grupo_1219698" data-name="Grupo 1219698" transform="translate(17.866 21.807)">
          <path id="Trazado_1044386" data-name="Trazado 1044386" d="M184.018,210.281a9.978,9.978,0,0,1-11.278,1.984,9.977,9.977,0,0,0,6.382-18.775,9.976,9.976,0,0,1,4.9,16.792Z" transform="translate(-172.74 -193.489)" fill="#9facba"/>
        </g>
        <g id="Grupo_1219699" data-name="Grupo 1219699" transform="translate(15.44 24.894)">
          <circle id="Elipse_12553" data-name="Elipse 12553" cx="6.653" cy="6.653" r="6.653" fill="#dff6fd"/>
        </g>
        <g id="Grupo_1219700" data-name="Grupo 1219700" transform="translate(17.106 25.485)">
          <path id="Trazado_1044387" data-name="Trazado 1044387" d="M175.685,236.887a6.653,6.653,0,0,1-9.409,0c-.1-.1-.192-.2-.282-.3a6.654,6.654,0,0,0,7.734-10.465,6.657,6.657,0,0,1,1.957,10.765Z" transform="translate(-165.994 -226.122)" fill="#c8effe"/>
        </g>
        <g id="Grupo_1219702" data-name="Grupo 1219702" transform="translate(0)">
          <path id="Trazado_1044388" data-name="Trazado 1044388" d="M67.879.134a1.434,1.434,0,0,0-.6-.134H15.666A1.45,1.45,0,0,0,14.22,1.446V56.259a1.448,1.448,0,0,0,1.446,1.446H26.339a.845.845,0,1,0,0-1.69H15.91V9.005H67.03v47.01H30.245a.845.845,0,1,0,0,1.69H67.274a1.448,1.448,0,0,0,1.446-1.446V1.446A1.447,1.447,0,0,0,67.879.134ZM67.03,7.315H15.91V1.69H67.03Z" transform="translate(-14.22)"/>
          <g id="Grupo_1219701" data-name="Grupo 1219701" transform="translate(4.149 3.658)">
            <path id="Trazado_1044389" data-name="Trazado 1044389" d="M337.88,242.956H324.043a.845.845,0,0,0,0,1.69H337.88a.845.845,0,0,0,0-1.69Z" transform="translate(-292.523 -219.231)"/>
            <path id="Trazado_1044390" data-name="Trazado 1044390" d="M51.878,244.647h3.828a.845.845,0,1,0,0-1.69H51.878a.845.845,0,1,0,0,1.69Z" transform="translate(-51.033 -219.232)"/>
            <path id="Trazado_1044391" data-name="Trazado 1044391" d="M349.666,284.848h-12.34a.845.845,0,0,0,0,1.69h12.34a.845.845,0,1,0,0-1.69Z" transform="translate(-304.309 -256.402)"/>
            <path id="Trazado_1044392" data-name="Trazado 1044392" d="M51.878,286.538h3.828a.845.845,0,1,0,0-1.69H51.878a.845.845,0,1,0,0,1.69Z" transform="translate(-51.033 -256.402)"/>
            <path id="Trazado_1044393" data-name="Trazado 1044393" d="M360.545,326.738H349.587a.845.845,0,1,0,0,1.69h10.958a.845.845,0,1,0,0-1.69Z" transform="translate(-315.188 -293.57)"/>
            <path id="Trazado_1044394" data-name="Trazado 1044394" d="M51.878,328.429h4.673a.845.845,0,0,0,0-1.69H51.878a.845.845,0,0,0,0,1.69Z" transform="translate(-51.033 -293.571)"/>
            <path id="Trazado_1044395" data-name="Trazado 1044395" d="M403.68,368.63H398.2a.845.845,0,0,0,0,1.69h5.479a.845.845,0,1,0,0-1.69Z" transform="translate(-358.323 -330.741)"/>
            <path id="Trazado_1044396" data-name="Trazado 1044396" d="M51.878,370.32h7.9a.845.845,0,0,0,0-1.69h-7.9a.845.845,0,0,0,0,1.69Z" transform="translate(-51.033 -330.741)"/>
            <path id="Trazado_1044397" data-name="Trazado 1044397" d="M420.379,410.521h-3.358a.845.845,0,0,0,0,1.69h3.358a.845.845,0,1,0,0-1.69Z" transform="translate(-375.022 -367.91)"/>
            <path id="Trazado_1044398" data-name="Trazado 1044398" d="M51.878,412.211H74.134a.845.845,0,1,0,0-1.69H51.878a.845.845,0,1,0,0,1.69Z" transform="translate(-51.033 -367.91)"/>
            <path id="Trazado_1044399" data-name="Trazado 1044399" d="M410.407,452.412h-4.625a.845.845,0,1,0,0,1.69h4.625a.845.845,0,1,0,0-1.69Z" transform="translate(-365.05 -405.08)"/>
            <path id="Trazado_1044400" data-name="Trazado 1044400" d="M76.449,452.412H51.878a.845.845,0,1,0,0,1.69H76.449a.845.845,0,1,0,0-1.69Z" transform="translate(-51.033 -405.08)"/>
            <path id="Trazado_1044401" data-name="Trazado 1044401" d="M57.168,34.143a.845.845,0,1,0-.845-.845A.845.845,0,0,0,57.168,34.143Z" transform="translate(-55.727 -32.453)"/>
            <path id="Trazado_1044402" data-name="Trazado 1044402" d="M93.338,34.143a.845.845,0,1,0-.845-.845A.845.845,0,0,0,93.338,34.143Z" transform="translate(-87.82 -32.453)"/>
            <path id="Trazado_1044403" data-name="Trazado 1044403" d="M129.508,34.143a.845.845,0,1,0-.845-.845A.845.845,0,0,0,129.508,34.143Z" transform="translate(-119.914 -32.453)"/>
            <path id="Trazado_1044404" data-name="Trazado 1044404" d="M95.5,109.109H86.967a.845.845,0,0,0,0,1.69H95.5a.042.042,0,0,1,.042.041v9.167a.042.042,0,0,1-.042.041H75.9a10.835,10.835,0,0,0-13.85,0H52.765a.042.042,0,0,1-.041-.041v-9.167a.042.042,0,0,1,.041-.041H83.043a.845.845,0,0,0,0-1.69H52.765a1.734,1.734,0,0,0-1.732,1.732v9.167a1.734,1.734,0,0,0,1.732,1.732h7.652A10.82,10.82,0,0,0,74.2,137.828l2.755,2.755a1.883,1.883,0,0,0,.332,2.207l5.434,5.434a4.326,4.326,0,1,0,6.118-6.118l-5.434-5.434a1.883,1.883,0,0,0-2.207-.332l-2.754-2.753a10.848,10.848,0,0,0-.917-11.848H95.5a1.734,1.734,0,0,0,1.732-1.732v-9.167a1.734,1.734,0,0,0-1.732-1.732ZM81.946,137.868a.189.189,0,0,1,.267,0l5.434,5.434a2.636,2.636,0,1,1-3.727,3.727L78.486,141.6a.189.189,0,0,1,0-.267Zm-2-.391L78.1,139.329l-2.453-2.453a10.508,10.508,0,0,0,1.852-1.852Zm-4.516-2.664a9.124,9.124,0,1,1,0-12.91A9.139,9.139,0,0,1,75.431,134.813Z" transform="translate(-51.033 -100.469)"/>
            <path id="Trazado_1044405" data-name="Trazado 1044405" d="M145.937,215.6a7.5,7.5,0,1,0,10.6,0A7.507,7.507,0,0,0,145.937,215.6Zm9.408,9.408a5.8,5.8,0,1,1,0-8.213A5.814,5.814,0,0,1,155.345,225.006Z" transform="translate(-133.295 -193.011)"/>
          </g>
        </g>
      </g>
    </g>
  </g>
</svg>
