<svg xmlns="http://www.w3.org/2000/svg" xmlns:xlink="http://www.w3.org/1999/xlink" width="113" height="113" viewBox="0 0 113 113">
  <defs>
    <filter id="Trazado_982547" x="0" y="0" width="113" height="113" filterUnits="userSpaceOnUse">
      <feOffset dy="3" input="SourceAlpha"/>
      <feGaussianBlur stdDeviation="3" result="blur"/>
      <feFlood flood-opacity="0.161"/>
      <feComposite operator="in" in2="blur"/>
      <feComposite in="SourceGraphic"/>
    </filter>
  </defs>
  <g id="Grupo_1219824" data-name="Grupo 1219824" transform="translate(-1215.425 -1792.073)">
    <g id="Grupo_1203719" data-name="Grupo 1203719" transform="translate(-0.575 -4108.927)">
      <g id="Grupo_1202435" data-name="Grupo 1202435" transform="translate(-0.56 1255.486)">
        <g id="Grupo_1202052" data-name="Grupo 1202052" transform="translate(1225.561 4651.514)">
          <g id="Grupo_1172010" data-name="Grupo 1172010" transform="translate(0)">
            <g id="Grupo_1171046" data-name="Grupo 1171046">
              <g id="Grupo_1148525" data-name="Grupo 1148525">
                <g transform="matrix(1, 0, 0, 1, -9, -6)" filter="url(#Trazado_982547)">
                  <g id="Trazado_982547-2" data-name="Trazado 982547" transform="translate(9 6)" fill="#f3e6fd">
                    <path d="M 47.5 93.5 C 41.28937149047852 93.5 35.26533508300781 92.28397369384766 29.59518623352051 89.88570404052734 C 24.11771965026855 87.56893157958984 19.19813346862793 84.25196075439453 14.97309303283691 80.02691650390625 C 10.74804019927979 75.80186462402344 7.431066513061523 70.88229370117188 5.114293098449707 65.40481567382812 C 2.716026782989502 59.73468017578125 1.5 53.71062850952148 1.5 47.5 C 1.5 41.28937149047852 2.716026782989502 35.26533508300781 5.114293098449707 29.59518623352051 C 7.431066513061523 24.11771965026855 10.74804019927979 19.19813346862793 14.97309303283691 14.97309303283691 C 19.19813346862793 10.74804019927979 24.11771965026855 7.431066513061523 29.59518623352051 5.114293098449707 C 35.26533508300781 2.716026782989502 41.28937149047852 1.5 47.5 1.5 C 53.71062850952148 1.5 59.73468017578125 2.716026782989502 65.40481567382812 5.114293098449707 C 70.88229370117188 7.431066513061523 75.80186462402344 10.74804019927979 80.02691650390625 14.97309303283691 C 84.25196075439453 19.19813346862793 87.56893157958984 24.11771965026855 89.88570404052734 29.59518623352051 C 92.28397369384766 35.26533508300781 93.5 41.28937149047852 93.5 47.5 C 93.5 53.71062850952148 92.28397369384766 59.73468017578125 89.88570404052734 65.40481567382812 C 87.56893157958984 70.88229370117188 84.25196075439453 75.80186462402344 80.02691650390625 80.02691650390625 C 75.80186462402344 84.25196075439453 70.88229370117188 87.56893157958984 65.40481567382812 89.88570404052734 C 59.73468017578125 92.28397369384766 53.71062850952148 93.5 47.5 93.5 Z" stroke="none"/>
                    <path d="M 47.5 3 C 41.49121475219727 3 35.66376876831055 4.176155090332031 30.17950439453125 6.495796203613281 C 24.88084411621094 8.736953735351562 20.12152099609375 11.94598388671875 16.03375244140625 16.03375244140625 C 11.94598388671875 20.12152099609375 8.736953735351562 24.88084411621094 6.495796203613281 30.17950439453125 C 4.176155090332031 35.66376876831055 3 41.49121475219727 3 47.5 C 3 53.50878524780273 4.176155090332031 59.33623123168945 6.495796203613281 64.82049560546875 C 8.736953735351562 70.11915588378906 11.94598388671875 74.87847900390625 16.03375244140625 78.96624755859375 C 20.12152099609375 83.05401611328125 24.88084411621094 86.26304626464844 30.17950439453125 88.50419616699219 C 35.66376876831055 90.82384490966797 41.49121475219727 92 47.5 92 C 53.50878524780273 92 59.33623123168945 90.82384490966797 64.82049560546875 88.50419616699219 C 70.11915588378906 86.26304626464844 74.87847900390625 83.05401611328125 78.96624755859375 78.96624755859375 C 83.05401611328125 74.87847900390625 86.26304626464844 70.11915588378906 88.50419616699219 64.82049560546875 C 90.82384490966797 59.33623123168945 92 53.50878524780273 92 47.5 C 92 41.49121475219727 90.82384490966797 35.66376876831055 88.50419616699219 30.17950439453125 C 86.26304626464844 24.88084411621094 83.05401611328125 20.12152099609375 78.96624755859375 16.03375244140625 C 74.87847900390625 11.94598388671875 70.11915588378906 8.736953735351562 64.82049560546875 6.495796203613281 C 59.33623123168945 4.176155090332031 53.50878524780273 3 47.5 3 M 47.5 0 C 73.7335205078125 0 95 21.2664794921875 95 47.5 C 95 73.7335205078125 73.7335205078125 95 47.5 95 C 21.2664794921875 95 0 73.7335205078125 0 47.5 C 0 21.2664794921875 21.2664794921875 0 47.5 0 Z" stroke="none" fill="#951bf1"/>
                  </g>
                </g>
              </g>
            </g>
          </g>
        </g>
      </g>
    </g>
    <g id="asistente-virtual_3_" data-name="asistente-virtual (3)" transform="translate(1239.514 1814.737)">
      <g id="Grupo_1219714" data-name="Grupo 1219714" transform="translate(0.936 0.935)">
        <path id="Trazado_1044406" data-name="Trazado 1044406" d="M143.854,69.451H119.692a5.609,5.609,0,0,1-5.609-5.609V13.109A5.609,5.609,0,0,1,119.692,7.5h24.162a5.609,5.609,0,0,1,5.609,5.609V63.842A5.609,5.609,0,0,1,143.854,69.451Z" transform="translate(-100.797 -7.5)" fill="#f9f7f8"/>
        <g id="Grupo_1219713" data-name="Grupo 1219713" transform="translate(0 0.089)">
          <g id="Grupo_1219706" data-name="Grupo 1219706" transform="translate(13.412)">
            <g id="Grupo_1219705" data-name="Grupo 1219705">
              <path id="Trazado_1044407" data-name="Trazado 1044407" d="M145.731,8.21V61.285a4.363,4.363,0,0,1-4.363,4.363H115.1a5.61,5.61,0,0,0,5.483,4.425h24.162a5.609,5.609,0,0,0,5.609-5.609V13.731A5.61,5.61,0,0,0,145.731,8.21Z" transform="translate(-115.1 -8.21)" fill="#efedef"/>
            </g>
          </g>
          <g id="Grupo_1219707" data-name="Grupo 1219707" transform="translate(20.625 20.476)">
            <path id="Trazado_1044408" data-name="Trazado 1044408" d="M187.434,192.234H179.2A6.233,6.233,0,0,1,172.965,186v-7.3a6.233,6.233,0,0,1,6.233-6.233h8.236a6.233,6.233,0,0,1,6.233,6.233V186A6.233,6.233,0,0,1,187.434,192.234Z" transform="translate(-172.965 -172.474)" fill="#7a6d79"/>
            <path id="Trazado_1044409" data-name="Trazado 1044409" d="M187.434,192.234H179.2A6.233,6.233,0,0,1,172.965,186v-7.3a6.233,6.233,0,0,1,6.233-6.233h8.236a6.233,6.233,0,0,1,6.233,6.233V186A6.233,6.233,0,0,1,187.434,192.234Z" transform="translate(-172.965 -172.474)" fill="#7a6d79"/>
            <path id="Trazado_1044410" data-name="Trazado 1044410" d="M192.613,173.993v12.715a3.116,3.116,0,0,1-3.116,3.116h-12.36a6.233,6.233,0,0,0,5.713,3.74h8.236a6.233,6.233,0,0,0,6.233-6.233v-7.3A6.235,6.235,0,0,0,192.613,173.993Z" transform="translate(-176.617 -173.804)" fill="#685e68"/>
            <path id="Trazado_1044411" data-name="Trazado 1044411" d="M210.708,216.065v-3.976a1.87,1.87,0,0,1,1.87-1.87h7.552a1.87,1.87,0,0,1,1.87,1.87v3.976a1.87,1.87,0,0,1-1.87,1.87h-7.552A1.87,1.87,0,0,1,210.708,216.065Z" transform="translate(-206.003 -205.514)" fill="#00f2a6"/>
            <path id="Trazado_1044412" data-name="Trazado 1044412" d="M220.131,210.219h-.909v3.712a1.246,1.246,0,0,1-1.247,1.247h-7.266v.887a1.87,1.87,0,0,0,1.87,1.87h7.552a1.87,1.87,0,0,0,1.87-1.87v-3.976A1.87,1.87,0,0,0,220.131,210.219Z" transform="translate(-206.004 -205.514)" fill="#05e39c"/>
          </g>
          <g id="Grupo_1219711" data-name="Grupo 1219711" transform="translate(0 0.87)">
            <g id="Grupo_1219708" data-name="Grupo 1219708" transform="translate(0 35.175)">
              <path id="Trazado_1044413" data-name="Trazado 1044413" d="M17.846,297.389a9.887,9.887,0,0,1,8.18,14.695,1.259,1.259,0,0,0-.1,1.014l1.013,3.035a.623.623,0,0,1-.716.808l-3.893-.8a1.242,1.242,0,0,0-.773.091,9.889,9.889,0,1,1-3.709-18.847Z" transform="translate(-7.501 -297.379)" fill="#ffe177"/>
              <path id="Trazado_1044414" data-name="Trazado 1044414" d="M44.9,315.334a1.26,1.26,0,0,1,.1-1.014,9.885,9.885,0,0,0-6.152-14.386,9.888,9.888,0,0,1-9.671,16.387,9.923,9.923,0,0,0,11.351,2.152,1.242,1.242,0,0,1,.773-.091l3.893.8a.623.623,0,0,0,.716-.808Z" transform="translate(-26.476 -299.615)" fill="#ffd15b"/>
            </g>
            <g id="Grupo_1219710" data-name="Grupo 1219710" transform="translate(42.174)">
              <g id="Grupo_1219709" data-name="Grupo 1219709">
                <path id="Trazado_1044415" data-name="Trazado 1044415" d="M355.268,15.2a9.887,9.887,0,0,0-8.18,14.695,1.259,1.259,0,0,1,.1,1.014l-1.013,3.035a.623.623,0,0,0,.716.808l3.893-.8a1.242,1.242,0,0,1,.773.091A9.889,9.889,0,1,0,355.268,15.2Z" transform="translate(-345.835 -15.192)" fill="#ffe177"/>
              </g>
              <path id="Trazado_1044416" data-name="Trazado 1044416" d="M361.027,19.26A9.888,9.888,0,0,1,349.174,33.3c.028.052.055.1.083.155a1.259,1.259,0,0,1,.1,1.014l-1.013,3.035a.623.623,0,0,0,.716.808l3.893-.8a1.243,1.243,0,0,1,.773.091,9.89,9.89,0,1,0,7.3-18.35Z" transform="translate(-348.005 -18.753)" fill="#ffd15b"/>
            </g>
          </g>
          <g id="Grupo_1219712" data-name="Grupo 1219712" transform="translate(35.717 44.443)">
            <circle id="Elipse_12554" data-name="Elipse 12554" cx="2.805" cy="2.805" r="2.805" fill="#00f2a6"/>
          </g>
        </g>
      </g>
      <g id="Grupo_1219715" data-name="Grupo 1219715" transform="translate(0.001)">
        <path id="Trazado_1044417" data-name="Trazado 1044417" d="M49.6,165.535a.935.935,0,0,0-.935.935v7.666a4.68,4.68,0,0,1-4.674,4.674H19.831a4.68,4.68,0,0,1-4.674-4.674v-.4c.076-.033.152-.067.228-.1a.306.306,0,0,1,.192-.023l3.893.8a1.558,1.558,0,0,0,1.79-2.02l-1.013-3.035a.327.327,0,0,1,.031-.262,10.842,10.842,0,0,0-5.12-15.19V134.435a.935.935,0,1,0-1.87,0v18.84a10.838,10.838,0,0,0-8,1.238.935.935,0,0,0,.957,1.606,8.953,8.953,0,0,1,12.4,12.056,2.2,2.2,0,0,0-.172,1.766l.842,2.523-3.364-.687a2.163,2.163,0,0,0-1.355.16A8.952,8.952,0,0,1,1.88,164.212a8.9,8.9,0,0,1,1.5-5.371.935.935,0,0,0-1.554-1.04,10.824,10.824,0,0,0,8.21,16.811q.388.028.776.028a10.917,10.917,0,0,0,2.48-.286,6.551,6.551,0,0,0,6.539,6.327H43.993a6.552,6.552,0,0,0,6.544-6.544V166.47A.935.935,0,0,0,49.6,165.535Z" transform="translate(-0.001 -116.859)"/>
        <path id="Trazado_1044418" data-name="Trazado 1044418" d="M217.7,39.37a.935.935,0,0,0,0-1.87H207.163a.935.935,0,1,0,0,1.87Z" transform="translate(-180.522 -32.826)"/>
        <path id="Trazado_1044419" data-name="Trazado 1044419" d="M165.464,155.245v7.3a7.175,7.175,0,0,0,7.167,7.167h8.236a7.175,7.175,0,0,0,7.167-7.167v-7.3a7.177,7.177,0,0,0-6.233-7.1v-1.534a.935.935,0,1,0-1.87,0v1.471h-6.366v-1.471a.935.935,0,1,0-1.87,0v1.534A7.177,7.177,0,0,0,165.464,155.245Zm7.167-5.3h8.236a5.3,5.3,0,0,1,5.3,5.3v7.3a5.3,5.3,0,0,1-5.3,5.3h-8.236a5.3,5.3,0,0,1-5.3-5.3v-7.3A5.3,5.3,0,0,1,172.631,149.948Z" transform="translate(-144.839 -127.514)"/>
        <path id="Trazado_1044420" data-name="Trazado 1044420" d="M234.948,235.054a.935.935,0,0,0,.935-.935v-.161a.935.935,0,0,0-1.87,0v.161A.935.935,0,0,0,234.948,235.054Z" transform="translate(-204.843 -203.977)"/>
        <path id="Trazado_1044421" data-name="Trazado 1044421" d="M263.925,235.054a.935.935,0,0,0,.935-.935v-.161a.935.935,0,1,0-1.87,0v.161A.935.935,0,0,0,263.925,235.054Z" transform="translate(-230.208 -203.977)"/>
        <path id="Trazado_1044422" data-name="Trazado 1044422" d="M118.489,371.081a.935.935,0,0,0,0-1.87h-.206a.935.935,0,0,0,0,1.87Z" transform="translate(-102.721 -323.189)"/>
        <path id="Trazado_1044423" data-name="Trazado 1044423" d="M79.649,371.081a.935.935,0,0,0,0-1.87h-.206a.935.935,0,0,0,0,1.87Z" transform="translate(-68.722 -323.189)"/>
        <path id="Trazado_1044424" data-name="Trazado 1044424" d="M40.809,371.081a.935.935,0,0,0,0-1.87H40.6a.935.935,0,0,0,0,1.87Z" transform="translate(-34.724 -323.189)"/>
        <path id="Trazado_1044425" data-name="Trazado 1044425" d="M153.941,4.121A10.862,10.862,0,0,0,145.8.97a10.73,10.73,0,0,0-3.9.927A6.507,6.507,0,0,0,137.289,0H113.127a6.552,6.552,0,0,0-6.544,6.544v6.669a.935.935,0,0,0,1.87,0V6.544a4.68,4.68,0,0,1,4.674-4.674h24.162a4.647,4.647,0,0,1,2.883,1,10.933,10.933,0,0,0-1.486,1.23,10.8,10.8,0,0,0-1.843,12.96.327.327,0,0,1,.031.262l-1.013,3.035a1.558,1.558,0,0,0,1.79,2.02l3.893-.8a.305.305,0,0,1,.191.023c.075.035.152.069.228.1V45.248a.935.935,0,1,0,1.87,0V22.321a10.911,10.911,0,0,0,2.474.285q.387,0,.776-.028a10.824,10.824,0,0,0,6.858-18.457Zm1.3,8.057A8.953,8.953,0,0,1,142.525,19.9a2.165,2.165,0,0,0-.916-.2,2.19,2.19,0,0,0-.439.045l-3.364.687.842-2.523a2.2,2.2,0,0,0-.172-1.766,8.954,8.954,0,1,1,16.766-3.965Z" transform="translate(-93.298 0)"/>
        <path id="Trazado_1044426" data-name="Trazado 1044426" d="M389.628,56.119a.935.935,0,0,0-.935.935v2.795h-3.476V57.054a.935.935,0,1,0-1.87,0v7.725a.935.935,0,1,0,1.87,0v-3.06h3.476v3.06a.935.935,0,1,0,1.87,0V57.054A.935.935,0,0,0,389.628,56.119Z" transform="translate(-335.563 -49.124)"/>
        <path id="Trazado_1044427" data-name="Trazado 1044427" d="M452.925,82.089a.935.935,0,0,0-.935.935v4.487a.935.935,0,0,0,1.87,0V83.024A.935.935,0,0,0,452.925,82.089Z" transform="translate(-395.649 -71.857)"/>
        <path id="Trazado_1044428" data-name="Trazado 1044428" d="M452.925,55.96a.935.935,0,0,0-.935.935v.125a.935.935,0,0,0,1.87,0v-.125A.935.935,0,0,0,452.925,55.96Z" transform="translate(-395.649 -48.985)"/>
        <path id="Trazado_1044429" data-name="Trazado 1044429" d="M286.539,360.99a3.74,3.74,0,1,0,3.74-3.74A3.744,3.744,0,0,0,286.539,360.99Zm5.609,0a1.87,1.87,0,1,1-1.87-1.87A1.872,1.872,0,0,1,292.148,360.99Z" transform="translate(-250.822 -312.718)"/>
        <path id="Trazado_1044430" data-name="Trazado 1044430" d="M187.437,366.62h9.224a.935.935,0,1,0,0-1.87h-9.224a.935.935,0,1,0,0,1.87Z" transform="translate(-163.255 -319.284)"/>
        <path id="Trazado_1044431" data-name="Trazado 1044431" d="M187.437,396.62h9.224a.935.935,0,0,0,0-1.87h-9.224a.935.935,0,1,0,0,1.87Z" transform="translate(-163.255 -345.544)"/>
        <path id="Trazado_1044432" data-name="Trazado 1044432" d="M226.79,458.37h5.646a.935.935,0,1,0,0-1.87H226.79a.935.935,0,1,0,0,1.87Z" transform="translate(-197.702 -399.597)"/>
        <path id="Trazado_1044433" data-name="Trazado 1044433" d="M206.014,212.3h7.552a2.808,2.808,0,0,0,2.8-2.8v-3.976a2.808,2.808,0,0,0-2.8-2.8h-7.552a2.808,2.808,0,0,0-2.8,2.8V209.5A2.808,2.808,0,0,0,206.014,212.3Zm-.935-6.781a.936.936,0,0,1,.935-.935h7.552a.936.936,0,0,1,.935.935V209.5a.936.936,0,0,1-.935.935h-7.552a.936.936,0,0,1-.935-.935Z" transform="translate(-177.879 -177.45)"/>
      </g>
    </g>
  </g>
</svg>
