<svg xmlns="http://www.w3.org/2000/svg" xmlns:xlink="http://www.w3.org/1999/xlink" width="400" height="326" viewBox="0 0 400 326">
  <defs>
    <clipPath id="clip-path">
      <rect id="Rectángulo_419543" data-name="Rectángulo 419543" width="400" height="326" transform="translate(1020 2262)" fill="#fff" stroke="#707070" stroke-width="1"/>
    </clipPath>
  </defs>
  <g id="Enmascarar_grupo_1098816" data-name="Enmascarar grupo 1098816" transform="translate(-1020 -2262)" clip-path="url(#clip-path)">
    <g id="Grupo_1219771" data-name="Grupo 1219771">
      <rect id="Rectángulo_419560" data-name="Rectángulo 419560" width="177" height="306" rx="17" transform="translate(1158 2300)" fill="#1bf5f5"/>
      <g id="Grupo_1219749" data-name="Grupo 1219749" transform="translate(861.549 1926.633)">
        <g id="Grupo_1219720" data-name="Grupo 1219720" transform="translate(236.265 377.436)">
          <g id="Grupo_1219718" data-name="Grupo 1219718" transform="translate(0 1.032)">
            <path id="Trazado_1044450" data-name="Trazado 1044450" d="M455.625,483.818l-27.888-.92a.993.993,0,0,0-1.033,1.239l6.385,35.287a1.654,1.654,0,0,0,1.5,1.315l27.888.92a.993.993,0,0,0,1.033-1.24l-6.385-35.287A1.654,1.654,0,0,0,455.625,483.818Z" transform="translate(-426.508 -482.765)" fill="#272727"/>
            <path id="Trazado_1044451" data-name="Trazado 1044451" d="M461.743,521.236h-.056l-27.888-.92a1.8,1.8,0,0,1-1.634-1.446l-6.385-35.287a1.119,1.119,0,0,1,1.183-1.39l27.888.92a1.8,1.8,0,0,1,1.634,1.446l6.385,35.287a1.114,1.114,0,0,1-1.127,1.39Zm-34.8-38.78a.865.865,0,0,0-.676.282.954.954,0,0,0-.188.789l6.385,35.287a1.516,1.516,0,0,0,1.371,1.2l27.888.92a.92.92,0,0,0,.714-.282.953.953,0,0,0,.188-.789l-6.385-35.287a1.516,1.516,0,0,0-1.371-1.2l-27.888-.92h-.038Z" transform="translate(-425.752 -482.191)" fill="#272727"/>
          </g>
          <path id="Trazado_1044452" data-name="Trazado 1044452" d="M460.125,477.618l-27.888-.92a.993.993,0,0,0-1.033,1.239l6.385,35.287a1.654,1.654,0,0,0,1.5,1.315l27.888.92a.993.993,0,0,0,1.033-1.239l-6.385-35.287a1.654,1.654,0,0,0-1.5-1.315Z" transform="translate(-430.162 -476.698)" fill="#f9dcda"/>
          <g id="Grupo_1219719" data-name="Grupo 1219719" transform="translate(5.85 4.45)">
            <path id="Trazado_1044453" data-name="Trazado 1044453" d="M462.628,514.047l-1.239-.038a2.418,2.418,0,0,1-1.634-.676,2.879,2.879,0,0,1-.864-1.671l-.469-2.554a1.215,1.215,0,0,0-1.221-1.164l-.3-1.69c.676.019.958-.319.826-1.033l-.469-2.629a1.954,1.954,0,0,1,.282-1.634,1.594,1.594,0,0,1,1.409-.563l1.239.038.282,1.615h-.714c-.47-.038-.639.263-.526.864l.469,2.554a1.363,1.363,0,0,1-.244,1.2,1.441,1.441,0,0,1-.864.451v.038a2.074,2.074,0,0,1,1.747,1.8l.451,2.5c.113.62.394.92.864.939h.714c0,.019.282,1.634.282,1.634Z" transform="translate(-456.9 -500.393)" fill="#272727"/>
            <path id="Trazado_1044454" data-name="Trazado 1044454" d="M494.2,546.169a1.775,1.775,0,0,1,.638,1.089,1.155,1.155,0,0,1-.263,1.052,1.182,1.182,0,0,1-1,.394,1.733,1.733,0,0,1-1.164-.47,1.879,1.879,0,0,1-.638-1.07,1.155,1.155,0,0,1,.263-1.052,1.265,1.265,0,0,1,1.014-.413A1.724,1.724,0,0,1,494.2,546.169Z" transform="translate(-485.208 -537.191)" fill="#272727"/>
            <path id="Trazado_1044455" data-name="Trazado 1044455" d="M518.5,547.069a1.775,1.775,0,0,1,.639,1.089,1.155,1.155,0,0,1-.263,1.052,1.181,1.181,0,0,1-1,.394,1.733,1.733,0,0,1-1.164-.469,1.782,1.782,0,0,1-.638-1.07,1.155,1.155,0,0,1,.263-1.052,1.265,1.265,0,0,1,1.014-.413A1.723,1.723,0,0,1,518.5,547.069Z" transform="translate(-504.944 -537.922)" fill="#272727"/>
            <path id="Trazado_1044456" data-name="Trazado 1044456" d="M542.8,547.869a1.775,1.775,0,0,1,.638,1.089,1.155,1.155,0,0,1-.263,1.052,1.181,1.181,0,0,1-1,.394,1.733,1.733,0,0,1-1.164-.469,1.783,1.783,0,0,1-.638-1.07,1.155,1.155,0,0,1,.263-1.052,1.265,1.265,0,0,1,1.014-.413A1.723,1.723,0,0,1,542.8,547.869Z" transform="translate(-524.681 -538.572)" fill="#272727"/>
            <path id="Trazado_1044457" data-name="Trazado 1044457" d="M561.209,511.094c-.676-.019-.958.338-.808,1.108l.47,2.554a1.955,1.955,0,0,1-.282,1.634,1.593,1.593,0,0,1-1.408.563l-1.24-.038-.282-1.615h.714c.469.038.638-.263.526-.864l-.451-2.5a1.413,1.413,0,0,1,.225-1.3,1.321,1.321,0,0,1,.883-.432v-.038a2.453,2.453,0,0,1-1.052-.507,1.972,1.972,0,0,1-.676-1.24l-.469-2.554c-.113-.62-.394-.92-.864-.939h-.714c0-.019-.282-1.634-.282-1.634l1.24.038a2.456,2.456,0,0,1,1.634.676,2.879,2.879,0,0,1,.864,1.671l.47,2.629a1.181,1.181,0,0,0,1.221,1.108l.3,1.69Z" transform="translate(-536.983 -502.754)" fill="#272727"/>
          </g>
          <path id="Trazado_1044458" data-name="Trazado 1044458" d="M482.424,598.908h0l-7.869-.263a.261.261,0,0,1-.263-.282.273.273,0,0,1,.282-.263l7.869.263a.261.261,0,0,1,.263.282A.273.273,0,0,1,482.424,598.908Z" transform="translate(-465.175 -575.301)" fill="#272727"/>
          <path id="Trazado_1044459" data-name="Trazado 1044459" d="M495.366,622.157h0l-18.611-.62a.261.261,0,0,1-.263-.282.272.272,0,0,1,.282-.263l18.611.62a.261.261,0,0,1,.263.282A.273.273,0,0,1,495.366,622.157Z" transform="translate(-466.962 -593.893)" fill="#272727"/>
          <path id="Trazado_1044460" data-name="Trazado 1044460" d="M488.724,648h0l-7.869-.263a.272.272,0,0,1,.019-.545l7.869.263a.261.261,0,0,1,.263.282A.273.273,0,0,1,488.724,648Z" transform="translate(-470.292 -615.172)" fill="#272727"/>
        </g>
        <g id="Grupo_1219727" data-name="Grupo 1219727" transform="translate(205.006 373.531)">
          <path id="Trazado_1044461" data-name="Trazado 1044461" d="M431.53,1254.082c-1.9,13.859-11.737,57.109-17.09,81.373l-14.63-.319h-1.164c0-.019-19.907-.451-19.907-.451h-1.146c0-.019-16.864-.394-16.864-.394H359.6c0-.019-17.09-.395-17.09-.395,7.362-23.4,17.259-64.659,17.371-65.053l-34.5,68.809c-4.826.845-9.3,1.559-13.465,2.16-.432.056-.845.113-1.258.188-5.8.826-10.986,1.427-15.625,1.784-.394.038-.789.056-1.183.094-11.024.807-18.893.263-24.827-1.578-.357-.113-.714-.225-1.07-.357a24.5,24.5,0,0,1-8.658-5.108c31.832-96.059,71.269-147.5,90.8-154.558l2.479-.056,2.047-.056,2.516-.056,1.859-.038h.038l1.972-.056,4.451-.113,1.465-.037,5.089-.132,4.526-.113,5.465-.132,1.258-.037,2.4-.056,1.371-.038,2.347-.056h1.127c0-.019,3.925-.131,3.925-.131l6.892-.169h1.108c0-.019,2.028-.075,2.028-.075h.488l1.559-.056,3.7-.094,1.258-.038,1.409-.038s3.343,2.948,6.93,6.874c3,3.268,6.179,7.211,7.775,10.7,3.512,7.681,9.221,19.1,3.944,57.767Z" transform="translate(-259.3 -1042.96)" fill="#0f77ea"/>
          <path id="Trazado_1044462" data-name="Trazado 1044462" d="M341.113,1257.049c-4.657,10.592-9.014,21.559-13.221,32.151-6.573,16.564-13.334,33.6-21.522,49.8-.357-.113-.714-.225-1.07-.357,8.207-16.207,14.986-33.278,21.559-49.861,4.207-10.61,8.564-21.578,13.24-32.189,7.549-17.165,15.193-31.381,23.362-43.475,9.484-14.029,19.644-25.278,31.024-34.311.676-.545,1.371-1.07,2.047-1.6a.55.55,0,1,1,.657.883c-.282.225-.582.451-.864.676-28.245,21.9-45.034,55.1-55.231,78.274Z" transform="translate(-296.661 -1041.664)" fill="#fff"/>
          <path id="Trazado_1044463" data-name="Trazado 1044463" d="M532.873,1162.681c-26.085,52.133-50.048,106.012-71.344,160.342-.432.056-.845.113-1.258.188,21.3-54.386,45.259-108.3,71.345-160.492.469-.939.939-1.9,1.427-2.836-5.258-.958-10.629-1.5-14.573,1.39a11.537,11.537,0,0,0-1.916,1.8c-.676.77-1.3,1.615-1.953,2.535C480.308,1213.387,461.81,1269.8,444.683,1325c-.394.037-.789.056-1.183.094,7.831-25.184,16.62-52.828,27.081-78.913a458.232,458.232,0,0,1,19.118-41.935,320.993,320.993,0,0,1,24.019-39.269c.469-.639.92-1.277,1.39-1.859a13.942,13.942,0,0,1,2.742-2.723c4.488-3.305,10.442-2.535,16.169-1.465a.587.587,0,0,1,.394.3.557.557,0,0,1,0,.488c-.488,1-1,1.972-1.484,2.967Z" transform="translate(-408.908 -1026.152)" fill="#fff"/>
          <path id="Trazado_1044464" data-name="Trazado 1044464" d="M836.156,1154.412c-3.981,51.832-8.451,105.111-23.719,155.685h-1.146c15.287-50.536,19.756-103.815,23.738-155.666.132-1.6.244-3.174.376-4.77l-10.8,2.085c-.131.977-.263,1.972-.394,2.948A1442.681,1442.681,0,0,1,794.427,1309.7H793.3a1442.385,1442.385,0,0,0,29.8-154.99c.15-1.164.319-2.348.47-3.512a.538.538,0,0,1,.451-.469l11.888-2.291a.491.491,0,0,1,.47.131.583.583,0,0,1,.188.451c-.131,1.784-.282,3.587-.413,5.371Z" transform="translate(-693.016 -1018.372)" fill="#fff"/>
          <path id="Trazado_1044465" data-name="Trazado 1044465" d="M1019.066,1222.27c-2.385,30.048-6.122,61.711-16.6,91.533H1001.3c10.517-29.841,14.273-61.542,16.676-91.627,1.371-17.183,2.423-35.438-1.07-52.959a37.464,37.464,0,0,0-4.038-11.738,18.254,18.254,0,0,0-3.249-4.075.558.558,0,0,1,.751-.826,20.236,20.236,0,0,1,3.756,4.845,39.308,39.308,0,0,1,3.869,11.55c3.512,17.672,2.46,36,1.089,53.26Z" transform="translate(-861.954 -1021.627)" fill="#fff"/>
          <path id="Trazado_1044466" data-name="Trazado 1044466" d="M773.621,483.944a9.438,9.438,0,0,1-6.686,8.3c-1.709.488-3.549.451-5.3.77a12.884,12.884,0,0,0-1.408.357c-2.911.977-5.052,3.512-7.888,4.695-3.568,1.484-7.456.6-11.136.263-1.54-.15-4.113-.676-5.578.019-1.371.657-1.315,2.178-3.4,2.291-1.427.075-2.873-.319-4.282-.038a25.558,25.558,0,0,0-3,1.183c-3.08,1.089-6.442-.075-9.5-1.221a2.072,2.072,0,0,1-.864-.488c-.826-.9.244-2.2.789-3.286,1.69-3.4-2.235-7.1-2.085-10.874.131-3.362,3.456-5.991,3.512-9.352,0-1.427-.563-2.836-.338-4.244.319-1.934,2.141-3.305,4-3.925s3.869-.676,5.784-1.146c3.455-.845,6.441-3,9.371-5.014.563-.394,1.146-.789,1.746-1.164a19.384,19.384,0,0,1,7.869-3.305c3.531-.451,7.587,1.07,8.939,4.376.545,1.315.62,2.817,1.39,4,2.348,3.643,9,1.972,11.324,5.615,1.2,1.859.676,4.3,1.108,6.479a7.562,7.562,0,0,0,5.615,5.747Z" transform="translate(-628.021 -457.352)" fill="#663939"/>
          <path id="Trazado_1044467" data-name="Trazado 1044467" d="M339.125,928.592s-4.6-4.826-13.39-15.155c-8.77-10.329-29.184-34.705-26.78-43.475,2.423-8.789,35.118-23.062,35.118-23.062l2.911,4.282,12.451,18.348-2.423,5.709-1.709,1.108-5.033,3.249-.056.038s5.409,9.352,11.888,22.047c2.836,5.559,5.878,11.775,8.751,18.141,2.291,5.052-21.728,8.789-21.728,8.789Z" transform="translate(-291.35 -773.472)" fill="#c45b5b"/>
          <path id="Trazado_1044468" data-name="Trazado 1044468" d="M576.282,746.142l-12.451,28.62-.056.15s-4.169,7.024-6.8,3.737c-.019-.019-.038-.056-.075-.094-2.686-3.305-10.254-8.92-10.254-8.92s.432,8.132,0,10.761c-.376,2.2-3.493,4.395-4.507,5.071-.207.131-.319.207-.319.207l-15.061.169-24.508.263-22.329.244h0s-7.024-5.709-9.653-11.418c-1.878-4.094-3.775-9.521-4.695-12.282-.357-1.089-.582-1.765-.582-1.765l-3.08,1.465-14.047,6.667a15.073,15.073,0,0,1-5-5.709c-3.587-6.911-2.629-15.925-8.827-22.63-.094-.113-.207-.207-.3-.319-.207-.225-.413-.432-.62-.639-7.193-7.474-7.136-3.305-10.723-5.841a7.75,7.75,0,0,1-3.512-6.366s1.315-.657,9-1.54c3.455-.394,7.662-2.028,11.813-4.113,2.122-1.07,4.207-2.235,6.179-3.418,2.761-1.671,5.277-3.343,7.249-4.751,5.033-3.606,9.052-5.578,16.507-5.934,1.634-.075,3.437-.075,5.446,0,1.033.038,2.028.094,3,.169a96.972,96.972,0,0,1,16.526,2.479c25.24,2.2,31.381-3.963,43.888-1.315,12.507,2.629,13.822,12.733,19.1,18.01s18.648,19.1,18.648,19.1Z" transform="translate(-388.916 -660.413)" fill="#951bf1"/>
          <path id="Trazado_1044469" data-name="Trazado 1044469" d="M805.562,1133.436h0l-6.348.15-1.559.038-10.517.263-7.4.188-10.517.244-4.507.113-19.437.488-2.479.056.169-9.052.038-2.366,22.329-.244,24.508-.263,15.061-.15Z" transform="translate(-652 -997.639)" fill="#663939"/>
          <g id="Grupo_1219724" data-name="Grupo 1219724" transform="translate(33.906 121.974)">
            <path id="Trazado_1044470" data-name="Trazado 1044470" d="M442.242,1179.036a30.5,30.5,0,0,0-2.16-5.221c-1.146-1.934,3.718-18.78,3.718-18.78l4.695-7.493s1.3-2.592,5.221-9c3.643-5.935-19.118-19.212-12.733-21.954l22.611-11.193,13.165,27.682c1.39,5.127-15.268,28.094-15.268,28.094s-10.479,20.639-13.446,21.522c-2.948.883-5.8-3.643-5.8-3.643Z" transform="translate(-439.847 -1105.4)" fill="#c45b5b"/>
            <g id="Grupo_1219721" data-name="Grupo 1219721" transform="translate(0.972 53.194)">
              <path id="Trazado_1044471" data-name="Trazado 1044471" d="M452.294,1408.385s-2.141,3.08-4.545,1.578c-2.385-1.5-.451-6.047-.451-6.047L451.167,1390" transform="translate(-446.27 -1389.746)" fill="#c45b5b"/>
              <path id="Trazado_1044472" data-name="Trazado 1044472" d="M447.855,1409.561a2.779,2.779,0,0,1-1.5-.451c-2.517-1.578-.714-6.01-.563-6.366l3.869-13.9a.273.273,0,0,1,.526.15l-3.869,13.916v.038c0,.037-1.822,4.338.357,5.69,2.141,1.333,4.094-1.39,4.169-1.5a.284.284,0,1,1,.469.319,4.656,4.656,0,0,1-3.418,2.1Z" transform="translate(-445.024 -1388.649)" fill="#333"/>
            </g>
            <g id="Grupo_1219722" data-name="Grupo 1219722" transform="translate(3.16 54.969)">
              <path id="Trazado_1044473" data-name="Trazado 1044473" d="M466.876,1417.052s-3.324,7.042-6.873,5.578c-3.531-1.465-.92-8.921-.92-8.921l4.977-14.01" transform="translate(-457.875 -1399.4)" fill="#c45b5b"/>
              <path id="Trazado_1044474" data-name="Trazado 1044474" d="M459.813,1421.8a3,3,0,0,1-1.108-.225c-3.737-1.559-1.2-8.958-1.089-9.259l4.977-14.029a.279.279,0,0,1,.526.188l-4.977,14.01c-.019.075-2.479,7.212.77,8.564s6.479-5.371,6.517-5.446a.281.281,0,0,1,.507.244c-.131.263-2.836,5.934-6.1,5.934Z" transform="translate(-456.671 -1398.1)" fill="#333"/>
            </g>
            <g id="Grupo_1219723" data-name="Grupo 1219723" transform="translate(16.416 27.39)">
              <path id="Trazado_1044475" data-name="Trazado 1044475" d="M548.927,1252.7s2.685,8.564-6.742,18.893c-3.362,3.7-6.028,12.564-7.343,14.292s-6.61.526-6.16-3.906,4.244-13.183,4.244-13.183" transform="translate(-528.394 -1252.427)" fill="#c45b5b"/>
              <path id="Trazado_1044476" data-name="Trazado 1044476" d="M531.795,1285.757a4.864,4.864,0,0,1-1.728-.338,4.291,4.291,0,0,1-2.779-4.639c.451-4.432,4.113-12.9,4.263-13.258a.274.274,0,1,1,.507.206c-.038.094-3.793,8.751-4.225,13.108a3.752,3.752,0,0,0,2.441,4.057c1.3.507,2.686.357,3.23-.357a26.668,26.668,0,0,0,1.9-4.075c1.39-3.324,3.268-7.85,5.446-10.235,4.808-5.277,6.366-10.066,6.836-13.146a13.513,13.513,0,0,0-.15-5.484.273.273,0,0,1,.526-.15,13.319,13.319,0,0,1,.169,5.69c-.469,3.174-2.047,8.075-6.967,13.465-2.1,2.31-3.981,6.8-5.352,10.085a25.175,25.175,0,0,1-1.972,4.188,2.637,2.637,0,0,1-2.141.864Z" transform="translate(-527.262 -1251.249)" fill="#333"/>
            </g>
          </g>
          <path id="Trazado_1044477" data-name="Trazado 1044477" d="M795.094,660.9l1.747,10.1L790.7,670.8l29.409,41.71.883-40.621h-8.563l-.883-6.141Z" transform="translate(-690.904 -622.402)" fill="#c45b5b"/>
          <g id="Grupo_1219726" data-name="Grupo 1219726" transform="translate(94.927 11.059)">
            <path id="Trazado_1044478" data-name="Trazado 1044478" d="M850.075,670.4l-5.934,1.728c.075,0,.939,6.855-2.855,8.132-5.146,1.728-9.258-2.329-10.986-8.826l19.756-1.014Z" transform="translate(-817.994 -641.177)" fill="#333"/>
            <g id="Grupo_1219725" data-name="Grupo 1219725">
              <path id="Trazado_1044479" data-name="Trazado 1044479" d="M794.356,521.158l2.554,6.2c3.418,9.183,2.535,14.029.282,17.6a10.023,10.023,0,0,1-6.254,4.451c-11.587,2.648-16.864-7.08-16.864-7.08a5.766,5.766,0,0,1-2.1,1.521c-4.695.338-9.052-5.841-6.385-9.014,1.953-2.31,4.357-1.634,5.916-.789,1.521.207-.488-3.249-.714-4.038-1.709-12.151,10.085-14.16,10.911-14.911-.207.038,8.488-2.423,12.658,6.085Z" transform="translate(-764.772 -514.79)" fill="#c45b5b"/>
              <path id="Trazado_1044480" data-name="Trazado 1044480" d="M778.927,630.852a.283.283,0,0,1-.263-.169c-.244-.563-.507-1.127-.789-1.653a5.507,5.507,0,0,0-1.127-1.578,2.234,2.234,0,0,0-1.653-.639,1.328,1.328,0,0,0-1.183,1.014.276.276,0,1,1-.545-.094,1.864,1.864,0,0,1,1.69-1.484,2.751,2.751,0,0,1,2.066.77,6.1,6.1,0,0,1,1.239,1.728,17.824,17.824,0,0,1,.807,1.709.269.269,0,0,1-.15.357c-.038,0-.075.019-.113.019Z" transform="translate(-771.748 -605.309)" fill="#333"/>
              <path id="Trazado_1044481" data-name="Trazado 1044481" d="M787.076,638.423a.285.285,0,0,1-.282-.263,2.152,2.152,0,0,1,1.859-2.16.274.274,0,1,1,.056.545,1.613,1.613,0,0,0-1.371,1.578.273.273,0,0,1-.263.282h0Z" transform="translate(-782.658 -613.237)" fill="#333"/>
            </g>
            <ellipse id="Elipse_12555" data-name="Elipse 12555" cx="4.902" cy="6.01" rx="4.902" ry="6.01" transform="matrix(0.969, -0.249, 0.249, 0.969, 8.767, 12.398)" fill="#ff8da0"/>
            <ellipse id="Elipse_12556" data-name="Elipse 12556" cx="4.902" cy="6.01" rx="4.902" ry="6.01" transform="matrix(0.969, -0.249, 0.249, 0.969, 21.606, 7.193)" fill="#ff8da0"/>
            <path id="Trazado_1044482" data-name="Trazado 1044482" d="M897.722,651.487h-.075a.269.269,0,0,1-.188-.338l.432-1.5a.273.273,0,0,1,.526.15l-.432,1.5a.3.3,0,0,1-.263.207Z" transform="translate(-872.533 -624.16)" fill="#333"/>
            <path id="Trazado_1044483" data-name="Trazado 1044483" d="M877.583,623.349a2.012,2.012,0,0,1,1.014-.207.823.823,0,0,1,.695.808,2.641,2.641,0,0,1-1.24,2.216,4.977,4.977,0,0,1-2.892.9,2.227,2.227,0,0,1-2.066-.939c-.638-1.465,3.23-2.31,4.47-2.779Z" transform="translate(-852.694 -602.783)" fill="#fff"/>
            <path id="Trazado_1044484" data-name="Trazado 1044484" d="M831.5,612.9" transform="translate(-818.969 -594.475)" fill="none" stroke="#333" stroke-linecap="round" stroke-linejoin="round" stroke-width="4"/>
            <path id="Trazado_1044485" data-name="Trazado 1044485" d="M843.93,599.859a1.125,1.125,0,1,0-.807,1.371A1.128,1.128,0,0,0,843.93,599.859Z" transform="translate(-827.267 -583.2)" fill="#333"/>
            <path id="Trazado_1044486" data-name="Trazado 1044486" d="M904.53,578.559a1.125,1.125,0,1,0-.807,1.371A1.128,1.128,0,0,0,904.53,578.559Z" transform="translate(-876.487 -565.9)" fill="#333"/>
            <path id="Trazado_1044487" data-name="Trazado 1044487" d="M833.8,586.506a1.351,1.351,0,0,1-.92.188.42.42,0,0,1-.244-.113.643.643,0,0,1-.188-.6,1.263,1.263,0,0,1,.338-.563,3.06,3.06,0,0,1,2.254-.92.772.772,0,0,1,.657.282.644.644,0,0,1-.244.789,10.737,10.737,0,0,1-1.634.92Z" transform="translate(-819.733 -571.405)" fill="#fff"/>
            <path id="Trazado_1044488" data-name="Trazado 1044488" d="M895.8,564.806a1.351,1.351,0,0,1-.92.188.42.42,0,0,1-.244-.113.643.643,0,0,1-.188-.6,1.332,1.332,0,0,1,.338-.563,3.06,3.06,0,0,1,2.254-.92.771.771,0,0,1,.657.282.644.644,0,0,1-.244.789,10.731,10.731,0,0,1-1.634.92Z" transform="translate(-870.089 -553.781)" fill="#fff"/>
            <path id="Trazado_1044489" data-name="Trazado 1044489" d="M869.115,588.087a.271.271,0,0,1-.244-.15.287.287,0,0,1,.131-.376l3.493-1.69a.281.281,0,1,1,.244.507l-3.493,1.69a.239.239,0,0,1-.113.019Z" transform="translate(-849.297 -572.498)" fill="#333"/>
            <path id="Trazado_1044490" data-name="Trazado 1044490" d="M800.082,612.726a.285.285,0,0,1-.282-.263.3.3,0,0,1,.263-.3l3.737-.263a.282.282,0,0,1,.038.563l-3.737.263Z" transform="translate(-793.222 -593.663)" fill="#333"/>
            <path id="Trazado_1044491" data-name="Trazado 1044491" d="M844.172,611.7a.282.282,0,0,1-.282-.244.278.278,0,0,1,.244-.319c1.671-.244,2.028-1.127,2.047-1.164a.285.285,0,0,1,.357-.15.263.263,0,0,1,.15.357c0,.056-.488,1.221-2.5,1.521h-.038Z" transform="translate(-829.03 -591.957)" fill="#333"/>
            <path id="Trazado_1044492" data-name="Trazado 1044492" d="M903.573,590.434a3.746,3.746,0,0,1-1.127-.15.273.273,0,0,1,.15-.526,3.756,3.756,0,0,0,2.967-.488.282.282,0,1,1,.338.451,3.832,3.832,0,0,1-2.31.714Z" transform="translate(-876.431 -575.239)" fill="#333"/>
            <path id="Trazado_1044493" data-name="Trazado 1044493" d="M864.913,638.274a.286.286,0,0,1-.282-.263l-.131-2.93a.272.272,0,1,1,.545-.019l.131,2.93a.273.273,0,0,1-.263.282Z" transform="translate(-845.771 -612.262)" fill="#333"/>
            <path id="Trazado_1044494" data-name="Trazado 1044494" d="M884.333,583.565a.269.269,0,0,1-.188-.075.272.272,0,0,1-.019-.394l.582-.657a1.657,1.657,0,0,0,.451-.732,1.609,1.609,0,0,0-.47-1.2c-.075-.113-.169-.207-.244-.319a5.72,5.72,0,0,1-1.052-1.672,2.056,2.056,0,0,1,.62-2.4.271.271,0,0,1,.3.451,1.541,1.541,0,0,0-.394,1.747,5.21,5.21,0,0,0,.958,1.5c.094.113.169.225.263.319a2.1,2.1,0,0,1,.582,1.653,2.193,2.193,0,0,1-.582.977l-.582.657a.3.3,0,0,1-.207.094Z" transform="translate(-861.004 -564.558)" fill="#333"/>
          </g>
          <path id="Trazado_1044495" data-name="Trazado 1044495" d="M663.265,950.848a.29.29,0,0,1-.188-.507,74.7,74.7,0,0,1,14.986-9.033.274.274,0,1,1,.207.507,74.8,74.8,0,0,0-14.855,8.977.3.3,0,0,1-.169.056Z" transform="translate(-587.169 -850.132)" fill="#333"/>
          <path id="Trazado_1044496" data-name="Trazado 1044496" d="M850.182,483.7A9.438,9.438,0,0,1,843.5,492c-1.709.488-3.549.451-5.3.77a4.979,4.979,0,0,1-1.709-2.385c-.62-1.84-.131-3.831.019-5.765s-.244-4.188-1.934-5.146c-1.634-.939-3.963-.319-5.315-1.6-1.652-1.559-.469-4.395-1.164-6.573-.6-1.9-2.648-3.042-4.639-3.23a15.793,15.793,0,0,0-5.859,1.014c-1.521.47-3.042.958-4.582,1.427-1.709.545-3.925.939-5.014-.507-1.221-1.615.206-3.869,1.634-5.315,1.409-1.409,2.855-2.667,4.263-3.925a19.384,19.384,0,0,1,7.869-3.305c3.531-.451,7.587,1.07,8.939,4.376.545,1.315.62,2.817,1.39,4,2.347,3.643,9,1.972,11.324,5.615,1.2,1.859.676,4.3,1.108,6.479a7.562,7.562,0,0,0,5.615,5.747Z" transform="translate(-704.582 -457.108)" fill="#ffc6c5"/>
          <path id="Trazado_1044497" data-name="Trazado 1044497" d="M1082,864.209a.286.286,0,0,1-.282-.263c-.131-3.944-.263-8,.845-11.906a36.676,36.676,0,0,1,1.24-3.493,27.635,27.635,0,0,0,1.5-4.564,18.961,18.961,0,0,0-1.446-11.118,57.963,57.963,0,0,0-5.784-9.916.271.271,0,0,1,.451-.3,58.341,58.341,0,0,1,5.84,10.01,19.464,19.464,0,0,1,1.465,11.456,30.023,30.023,0,0,1-1.521,4.657c-.432,1.127-.883,2.272-1.221,3.437-1.089,3.812-.939,7.831-.808,11.737a.273.273,0,0,1-.263.282h0Z" transform="translate(-924.268 -753.672)" fill="#333"/>
          <path id="Trazado_1044498" data-name="Trazado 1044498" d="M1158.176,1072.51c-1.352,1.3-3.024,2.16-4.3.545-.019-.019-.038-.056-.075-.094a10.8,10.8,0,0,1,.939-2.761S1156.035,1071.12,1158.176,1072.51Z" transform="translate(-985.815 -954.836)" fill="#333"/>
          <path id="Trazado_1044499" data-name="Trazado 1044499" d="M504.628,901.587h0l-5.033,3.249h-.019s-2.4-8.827-2.141-15.756A26.676,26.676,0,0,0,494.9,878c.207.206.394.413.62.638.094.094.188.207.3.319,6.2,6.7,5.24,15.719,8.826,22.63Z" transform="translate(-450.655 -798.731)" fill="#333"/>
          <path id="Trazado_1044500" data-name="Trazado 1044500" d="M821.382,789.835h-.075a.269.269,0,0,1-.188-.338c1.352-4.695-.563-7.4-1.953-9.39a7.3,7.3,0,0,1-1.183-2.085c-.319-1.277.282-3.268,1.033-5.784a51.685,51.685,0,0,0,1.634-6.479c.883-5.183-1.916-11.061-2.1-11.437l-29.372-41.654a.284.284,0,0,1,.47-.319l29.372,41.672a.058.058,0,0,0,.019.038c.131.263,3.1,6.291,2.16,11.794a55.478,55.478,0,0,1-1.653,6.554c-.732,2.441-1.315,4.357-1.033,5.484a6.809,6.809,0,0,0,1.089,1.9c1.371,1.953,3.456,4.9,2.028,9.859a.3.3,0,0,1-.263.207Z" transform="translate(-689.622 -664.086)" fill="#333"/>
          <path id="Trazado_1044501" data-name="Trazado 1044501" d="M765.26,752.942a.262.262,0,0,1-.169-.056L747.231,738.2a.253.253,0,0,1-.094-.169l-1.859-9.916-20.752-16.094a.282.282,0,1,1,.338-.451l20.827,16.151a.2.2,0,0,1,.094.169l1.859,9.916,17.784,14.629a.289.289,0,0,1,.038.394.239.239,0,0,1-.207.094Z" transform="translate(-637.069 -663.513)" fill="#333"/>
          <path id="Trazado_1044502" data-name="Trazado 1044502" d="M945.846,839.175h-.075a.28.28,0,0,1-.206-.338l5.446-22.066a.28.28,0,1,1,.545.131l-5.446,22.066A.276.276,0,0,1,945.846,839.175Z" transform="translate(-816.678 -748.826)" fill="#333"/>
          <path id="Trazado_1044503" data-name="Trazado 1044503" d="M483.872,977.183a.294.294,0,0,1-.225-.113l-8.3-10.93a.282.282,0,0,1,.451-.338l8.3,10.93a.277.277,0,0,1-.056.394A.3.3,0,0,1,483.872,977.183Z" transform="translate(-434.725 -869.951)" fill="#333"/>
          <path id="Trazado_1044504" data-name="Trazado 1044504" d="M843.287,459.509a31.2,31.2,0,0,1,5.6-2.047,13.2,13.2,0,0,1,5.484-.3,10.087,10.087,0,0,1,4.432,1.916,10.419,10.419,0,0,1,2.817,4.019,5.24,5.24,0,0,0,3.249,3.117c1.653.488,3.38.225,5.089.3,2.8.113,5.934,1.9,5.972,5,.019,1.953-.657,3.85-.376,5.8a5.671,5.671,0,0,0,1.164,2.61,5.922,5.922,0,0,0,2.516,1.69c.883.376,1.352-.939.676-1.427a9.84,9.84,0,0,1-1.878-1.765,3.877,3.877,0,0,1-.6-2.535c.094-1.8.62-3.568.357-5.39-.507-3.305-3.775-5.465-6.911-5.8-1.747-.188-3.493.282-5.221.056a3.445,3.445,0,0,1-2.009-.883,7.493,7.493,0,0,1-1.39-2.366,9.879,9.879,0,0,0-7.437-5.427,13.066,13.066,0,0,0-5.9.413,14.442,14.442,0,0,0-3.024,1.183,25.033,25.033,0,0,0-2.629,1.8c-.019.019,0,.056.038.056h0Z" transform="translate(-733.594 -455.904)" fill="#ffc6c5"/>
          <path id="Trazado_1044505" data-name="Trazado 1044505" d="M707.277,542.917a10.979,10.979,0,0,1-.958,3.512,8.942,8.942,0,0,1-1.916,2.723c-1.277,1.239-2.779,2.329-3.625,3.944a6.68,6.68,0,0,0-.188,5.24c.282.9.657,1.746.939,2.648.131.432.244.845.376,1.277.15.526.131,1.07.263,1.6a.65.65,0,0,0,1.183.15,4.078,4.078,0,0,0,.244-3.117,16.809,16.809,0,0,0-1.033-2.648c-.77-1.747-1.5-3.493-.282-5.24,1.089-1.578,2.742-2.629,3.812-4.226a9.333,9.333,0,0,0,1.239-2.667,7.948,7.948,0,0,0,.094-3.193c0-.056-.094-.056-.113,0h-.038Z" transform="translate(-617.359 -526.542)" fill="#663939"/>
          <path id="Trazado_1044506" data-name="Trazado 1044506" d="M839.356,512.286a.226.226,0,0,1-.15-.038,7.476,7.476,0,0,1-3.512-5.991,17.561,17.561,0,0,1,.244-2.967c.263-1.728.488-3.343-.263-4.77a5.062,5.062,0,0,0-2.967-2.272,15.538,15.538,0,0,0-3.85-.6h-.075a5.135,5.135,0,0,1-3.305-1.07c-1.108-1.07-1.033-2.629-.977-4.132a13.376,13.376,0,0,0,0-1.5,6.047,6.047,0,0,0-3.549-5.221c-2.441-1.033-5.071-.131-6.4.507a25.782,25.782,0,0,0-4.3,2.761c-.451.319-.9.657-1.371,1a14.266,14.266,0,0,1-6.329,2.8,1.436,1.436,0,0,1-1.127-.319.625.625,0,0,1-.169-.563.276.276,0,1,1,.545.094.1.1,0,0,0,.038.094.953.953,0,0,0,.657.15,13.71,13.71,0,0,0,6.066-2.7c.451-.319.92-.657,1.352-.977a26.794,26.794,0,0,1,4.395-2.8c1.427-.676,4.207-1.634,6.855-.507a6.659,6.659,0,0,1,3.887,5.709c.019.507,0,1.052,0,1.559-.056,1.446-.113,2.836.808,3.718a4.664,4.664,0,0,0,2.967.92h.075a16.755,16.755,0,0,1,3.981.62,5.692,5.692,0,0,1,3.286,2.535c.845,1.578.582,3.362.319,5.108a16.592,16.592,0,0,0-.244,2.855,7.012,7.012,0,0,0,3.249,5.559.273.273,0,0,1-.15.507Z" transform="translate(-699.465 -477.695)" fill="#333"/>
          <path id="Trazado_1044507" data-name="Trazado 1044507" d="M933.78,1132.359a6.779,6.779,0,1,1,6.779-6.779A6.788,6.788,0,0,1,933.78,1132.359Zm0-11.606a4.845,4.845,0,1,0,4.845,4.845A4.857,4.857,0,0,0,933.78,1120.753Z" transform="translate(-801.607 -994.309)" fill="#ffd101"/>
          <path id="Trazado_1044508" data-name="Trazado 1044508" d="M969.677,1152.053h-4a.982.982,0,0,1-.977-.977.97.97,0,0,1,.977-.977h4a.982.982,0,0,1,.977.977A.97.97,0,0,1,969.677,1152.053Z" transform="translate(-832.227 -1019.731)" fill="#ffd101"/>
          <circle id="Elipse_12557" data-name="Elipse 12557" cx="2.817" cy="2.817" r="2.817" transform="translate(100.037 38.847) rotate(-13.4)" fill="#ffd101"/>
        </g>
        <g id="Grupo_1219728" data-name="Grupo 1219728" transform="translate(203.014 508.429)">
          <path id="Trazado_1044509" data-name="Trazado 1044509" d="M310.331,1233.087a3.962,3.962,0,0,0-.92-.263c-.263-.037-.488-.075-.751-.131a3.261,3.261,0,0,0-2.2.056,2,2,0,0,0-1.164,1.822,1.891,1.891,0,0,0,1.221,1.765,3.459,3.459,0,0,0,2.516-.263,14.1,14.1,0,0,0,1.465-.6,1.389,1.389,0,0,0-.188-2.4h0Z" transform="translate(-294.668 -1221.579)" fill="#fc008e"/>
          <path id="Trazado_1044510" data-name="Trazado 1044510" d="M401.175,1259.471a.337.337,0,0,0-.132-.094l.338.282a2.417,2.417,0,0,0-2.31-.751,2.528,2.528,0,0,0-1.784,1.108,1.842,1.842,0,0,0,1.484,2.817,2.526,2.526,0,0,0,1.033-.244c.094-.038.169-.075.263-.113l-.451.169c.282-.094.563-.169.845-.263l-.451.169a4.049,4.049,0,0,0,.92-.3c-.263.056-.545.132-.808.188h.15a1.587,1.587,0,0,0,.9-2.93h0Z" transform="translate(-369.155 -1242.968)" fill="#fc008e"/>
          <path id="Trazado_1044511" data-name="Trazado 1044511" d="M337.487,1298.618c-.413.169-.864.263-1.277.432a1.978,1.978,0,0,0-1.333,2.178,1.933,1.933,0,0,0,1.972,1.615,3.637,3.637,0,0,0,1.54-.432,7.354,7.354,0,0,0,.977-.732,1.841,1.841,0,0,0-1.878-3.024h0Z" transform="translate(-318.669 -1275.203)" fill="#fc008e"/>
          <path id="Trazado_1044512" data-name="Trazado 1044512" d="M263.25,1322.989a3.171,3.171,0,0,0-2.272.169,2.729,2.729,0,0,0-.808.488,2.192,2.192,0,0,0-.657.939l-.113.507c.019.62.038.676,0,.15a1.834,1.834,0,0,0,.563,1.484,1.728,1.728,0,0,0,1.54.488,2.242,2.242,0,0,0,1.2-.526l.169-.169h0l.225-.112c.282-.132.282-.132,0-.019.075-.019.15-.057.225-.075a1.752,1.752,0,0,0,1.239-1.69,1.784,1.784,0,0,0-1.315-1.615h0Z" transform="translate(-257.39 -1294.936)" fill="#fc008e"/>
          <path id="Trazado_1044513" data-name="Trazado 1044513" d="M353.793,1367.716a3.409,3.409,0,0,0-.732-.263l.695.394a2.5,2.5,0,0,0-2.892-.375,1.974,1.974,0,0,0-.977,1.183,2,2,0,0,0,.056,1.24,1.951,1.951,0,0,0,2.291,1.221,2.478,2.478,0,0,0,1.953-2.272c-.15.357-.282.714-.432,1.07a4.51,4.51,0,0,0,.488-.732,1.1,1.1,0,0,0-.451-1.484h0Z" transform="translate(-330.825 -1330.949)" fill="#fc008e"/>
          <path id="Trazado_1044514" data-name="Trazado 1044514" d="M252.3,1388.474c-.056-.019-.113-.056-.169-.075.282.15.282.169.038,0a.694.694,0,0,0-.263-.131,2.1,2.1,0,0,0-1.127-.113,2.737,2.737,0,0,0-1.69.939,1.777,1.777,0,0,0-.094,2.1,1.754,1.754,0,0,0,2.009.639,5.718,5.718,0,0,0,.939-.526,3.3,3.3,0,0,0,.319-.225l.376-.375c-.432.282-.526.375-.282.263a1.353,1.353,0,0,0,.808-1.277,1.383,1.383,0,0,0-.864-1.24h0Z" transform="translate(-248.697 -1347.951)" fill="#fc008e"/>
          <path id="Trazado_1044515" data-name="Trazado 1044515" d="M270.51,1174.255a2.911,2.911,0,0,0-.789.226,3.783,3.783,0,0,0-.714.507,2.116,2.116,0,0,0-.732,1.39,2,2,0,0,0,.451,1.446,2.011,2.011,0,0,0,2.836.282,5.034,5.034,0,0,0,.695-.732,3.811,3.811,0,0,0,.357-.864,1.782,1.782,0,0,0-.394-1.709,1.807,1.807,0,0,0-1.709-.545Z" transform="translate(-264.594 -1174.221)" fill="#fc008e"/>
        </g>
        <path id="Trazado_1044516" data-name="Trazado 1044516" d="M1177.061,912.1s-11.512,8.3-18.46,29.691c0,0,26.348,19.268,29.691,19.268s4.545-35.851,4.545-35.851L1177.042,912.1Z" transform="translate(-784.708 -452.897)" fill="#c45b5b"/>
        <g id="Grupo_1219734" data-name="Grupo 1219734" transform="translate(357.93 388.047)">
          <g id="Grupo_1219729" data-name="Grupo 1219729" transform="translate(0 74.569)">
            <path id="Trazado_1044517" data-name="Trazado 1044517" d="M1131.085,942.691c-5.465,2.779-9.428,8.132-13.371,14.085-.207.319-.413.62-.62.939-.413.638-.826,1.277-1.258,1.915-1.052,1.634-2.141,3.305-3.268,4.939h0c-.207.319-.432.62-.657.939a62.049,62.049,0,0,1-4.92,6.16l-.695.751a48.163,48.163,0,0,1-6.028,5.39c-.169.131-.357.263-.526.376-.094.075-.188.131-.282.207a29.9,29.9,0,0,1-11.587,5.108c-.319.056-.62.113-.939.169a23.36,23.36,0,0,1-3.625.263,18.5,18.5,0,0,1-2.122-.094c-3.606-3.925-6.93-6.873-6.93-6.873l-.657-10.535s.113-.075.319-.207a16.532,16.532,0,0,0,2.329,2.122,7.788,7.788,0,0,0,.808.563,11.2,11.2,0,0,0,9.315,1.465c.3-.075.6-.169.92-.282a19.641,19.641,0,0,0,4.845-2.573,30.491,30.491,0,0,0,2.817-2.31l.732-.676a43.764,43.764,0,0,0,4.169-4.733c.207-.263.413-.526.62-.808.432-.582.883-1.2,1.3-1.822,1.033-1.5,2.028-3.061,3.1-4.695.131-.207.282-.432.413-.639.188-.282.376-.582.563-.864,1.315-2.009,2.686-4.075,4.15-6.085.188-.263.394-.526.582-.789,3.85-5.146,8.432-9.991,14.573-13.108a6.564,6.564,0,0,1,5.953,11.7Z" transform="translate(-1073.6 -930.272)" fill="#fc008e"/>
            <path id="Trazado_1044518" data-name="Trazado 1044518" d="M1267.2,1004.789a64.357,64.357,0,0,1,7.118,12.827c.207-.319.413-.62.62-.939a64.307,64.307,0,0,0-7.155-12.676C1267.576,1004.263,1267.388,1004.526,1267.2,1004.789Z" transform="translate(-1230.842 -990.154)" fill="#333"/>
            <path id="Trazado_1044519" data-name="Trazado 1044519" d="M1242.1,1041.464a77.524,77.524,0,0,1,6.667,13.691c.225-.3.432-.62.657-.939a78.488,78.488,0,0,0-6.742-13.615c-.188.282-.375.582-.563.864Z" transform="translate(-1210.456 -1019.881)" fill="#333"/>
            <path id="Trazado_1044520" data-name="Trazado 1044520" d="M1213.2,1084.108a131,131,0,0,1,6.479,12.62c.225-.244.47-.488.695-.751a128.369,128.369,0,0,0-6.554-12.676c-.207.282-.413.545-.62.808Z" transform="translate(-1186.983 -1054.562)" fill="#333"/>
            <path id="Trazado_1044521" data-name="Trazado 1044521" d="M1187.832,1112.8c-.244.244-.488.47-.732.695a99.311,99.311,0,0,1,4.526,13.183c.094-.075.188-.131.282-.207.169-.131.357-.244.526-.376a100.967,100.967,0,0,0-4.62-13.277Z" transform="translate(-1165.785 -1078.522)" fill="#333"/>
            <path id="Trazado_1044522" data-name="Trazado 1044522" d="M1141.5,1142.763a87.241,87.241,0,0,1,.563,13.3c.319-.038.62-.094.939-.15a88.835,88.835,0,0,0-.582-13.409,7.475,7.475,0,0,1-.92.282Z" transform="translate(-1128.749 -1102.644)" fill="#333"/>
          </g>
          <g id="Grupo_1219732" data-name="Grupo 1219732" transform="translate(39.743 53.278)">
            <path id="Trazado_1044523" data-name="Trazado 1044523" d="M1328.007,1165.073c8.188,9.709,64.415,11.756,71.57,3.324s-20.188-22.235-20.188-22.235l-31.437-7.662-20.451,21.728.507,4.864Z" transform="translate(-1319.561 -1078.104)" fill="#d0b2b3"/>
            <path id="Trazado_1044524" data-name="Trazado 1044524" d="M1545.9,1285.333l.207,27.794h11.887V1284.6h-9.784Z" transform="translate(-1496.946 -1196.767)" fill="#fc008e"/>
            <path id="Trazado_1044525" data-name="Trazado 1044525" d="M1434.7,1252.8v34.5h11.888v-28.527H1436.8Z" transform="translate(-1406.629 -1170.939)" fill="#fc008e"/>
            <path id="Trazado_1044526" data-name="Trazado 1044526" d="M1449.919,879.307c7.869-2.216,14.367-3.136,18.93-2.93s12.9,2.441,12.9,2.441-1.521,5.071-2.141,5.784-19.1,9.859-19.1,9.859l-9.146-6.4-1.465-8.751Z" transform="translate(-1418.974 -865.185)" fill="#d0b2b3"/>
            <ellipse id="Elipse_12558" data-name="Elipse 12558" cx="32.583" cy="25.503" rx="32.583" ry="25.503" transform="translate(14.08 41.41)" fill="#303030"/>
            <path id="Trazado_1044527" data-name="Trazado 1044527" d="M1479.37,818.628l-.77,21.86,16.677-.958.375-22.63Z" transform="translate(-1442.285 -816.9)" fill="#303030"/>
            <path id="Trazado_1044528" data-name="Trazado 1044528" d="M1467.823,890.019s-8.826-4.225-17.446-3.831c-8.62.376-16.677,5.747-16.677,5.747l7.286,6.141,17.052.188Z" transform="translate(-1405.817 -873.154)" fill="#303030"/>
            <path id="Trazado_1044529" data-name="Trazado 1044529" d="M1552.96,1264.7h-.3c-8.207-.263-21.165-21.2-21.709-22.085a.423.423,0,0,1,.131-.563.418.418,0,0,1,.563.132c.131.206,13.277,21.446,21.033,21.709h.282c7.568,0,11.831-9.972,12.338-16.827a.415.415,0,0,1,.432-.375.4.4,0,0,1,.376.432C1565.58,1254.276,1561.035,1264.7,1552.96,1264.7Z" transform="translate(-1484.757 -1162.161)" fill="#bdc967"/>
            <path id="Trazado_1044530" data-name="Trazado 1044530" d="M1589.529,1280.569a6.242,6.242,0,0,1-1.521-.188c-7.644-1.84-12.32-10.78-12.508-11.155l.732-.376c.038.094,4.7,8.977,11.981,10.742a5.077,5.077,0,0,0,4.094-.676c4.019-2.573,5.577-10.141,5.577-10.216l.808.15c-.075.319-1.653,8-5.953,10.742a5.822,5.822,0,0,1-3.192.958Z" transform="translate(-1520.987 -1183.853)" fill="#ff65a1"/>
            <path id="Trazado_1044531" data-name="Trazado 1044531" d="M1373.242,896.495a253.963,253.963,0,0,0-26.4-8.395s-7.155,8.939-21.465,7.662c-6.385-.563-9.2-6.892-9.2-6.892A210.979,210.979,0,0,0,1294.1,894.8a12.492,12.492,0,0,0-8.714,11.512c-.413,14.385-.451,42.349,4.958,52.058,7.418,13.3,19.944-8.188,30.16-6.141s24.545,15.08,44.734,12.77c0,0,6.385-1.277,7.418-17.371.676-10.592,4.657-27.7,7.305-38.161a11,11,0,0,0-6.723-12.977Z" transform="translate(-1285.226 -874.729)" fill="#feb1dc"/>
            <g id="Grupo_1219731" data-name="Grupo 1219731" transform="translate(22.897 26.422)">
              <circle id="Elipse_12559" data-name="Elipse 12559" cx="13.071" cy="13.071" r="13.071" transform="translate(0 25.44) rotate(-76.7)" fill="#fff"/>
              <g id="Grupo_1219730" data-name="Grupo 1219730" transform="translate(3.011 2.434)">
                <circle id="Elipse_12560" data-name="Elipse 12560" cx="9.897" cy="9.897" r="9.897" transform="matrix(0.926, -0.378, 0.378, 0.926, 0, 7.479)" fill="#fab8e3"/>
                <path id="Trazado_1044532" data-name="Trazado 1044532" d="M1434.3,993.2a10.78,10.78,0,1,1,10.8,10.761A10.78,10.78,0,0,1,1434.3,993.2Zm1.784,0a9.014,9.014,0,1,0,9-9.033A9.029,9.029,0,0,0,1436.084,993.2Z" transform="translate(-1432.213 -980.175)" fill="#ff65a1"/>
              </g>
              <path id="Trazado_1044533" data-name="Trazado 1044533" d="M1461.991,1018.148a.229.229,0,0,1-.207-.244.217.217,0,0,1,.244-.207,7.482,7.482,0,0,0,1.3,0,.226.226,0,1,1,.037.451c-.225.019-.469.037-.714.037a4.09,4.09,0,0,1-.676-.037Zm-1.371-.282a7.765,7.765,0,0,1-1.277-.563.219.219,0,1,1,.225-.376,5.551,5.551,0,0,0,1.183.526.234.234,0,0,1,.15.282.22.22,0,0,1-.207.15h-.075Zm3.831-.15a.219.219,0,0,1,.15-.282,6.66,6.66,0,0,0,1.183-.526.219.219,0,0,1,.225.376,6,6,0,0,1-1.277.563h-.075a.2.2,0,0,1-.207-.15Zm-6.235-1.221a8.176,8.176,0,0,1-.939-1.033.229.229,0,1,1,.376-.263,5.337,5.337,0,0,0,.883.958.216.216,0,0,1,0,.319.2.2,0,0,1-.169.075A.213.213,0,0,1,1458.216,1016.5Zm8.6-.056a.254.254,0,0,1,0-.319,5.363,5.363,0,0,0,.864-.977.229.229,0,0,1,.376.263,6.14,6.14,0,0,1-.939,1.033.214.214,0,0,1-.15.056.2.2,0,0,1-.169-.075Zm-10.235-2.178a6.731,6.731,0,0,1-.432-1.314.232.232,0,0,1,.169-.263.222.222,0,0,1,.263.169,5.671,5.671,0,0,0,.413,1.24.226.226,0,0,1-.112.3c-.038,0-.057.019-.094.019a.231.231,0,0,1-.207-.131Zm11.888.075a.226.226,0,0,1-.113-.3,6.807,6.807,0,0,0,.394-1.239.221.221,0,1,1,.432.094,6.924,6.924,0,0,1-.432,1.333.231.231,0,0,1-.207.131c-.094,0-.056,0-.094-.019Zm-12.47-2.817a6.831,6.831,0,0,1,.15-1.39.232.232,0,0,1,.263-.169.217.217,0,0,1,.169.263,5.952,5.952,0,0,0-.131,1.3h0a.222.222,0,0,1-.225.244.233.233,0,0,1-.225-.244Zm12.883-.019a7.583,7.583,0,0,0-.132-1.3.221.221,0,0,1,.432-.094,6.858,6.858,0,0,1,.15,1.39.217.217,0,0,1-.225.225h0A.217.217,0,0,1,1468.883,1011.5Zm-12.207-2.4a.226.226,0,0,1-.113-.3,6.91,6.91,0,0,1,.695-1.2.229.229,0,0,1,.375.263,6.771,6.771,0,0,0-.657,1.127.231.231,0,0,1-.207.131C1456.676,1009.115,1456.714,1009.115,1456.676,1009.1Zm11.662-.113a5.7,5.7,0,0,0-.657-1.127.229.229,0,0,1,.376-.263,6.444,6.444,0,0,1,.695,1.2.226.226,0,0,1-.113.3c-.037,0-.056.019-.094.019A.231.231,0,0,1,1468.338,1008.984Zm-10.16-2.1a.254.254,0,0,1,0-.319,6.966,6.966,0,0,1,1.127-.826.219.219,0,0,1,.225.376,6.05,6.05,0,0,0-1.052.77.213.213,0,0,1-.15.056.2.2,0,0,1-.169-.075Zm8.639,0a7.2,7.2,0,0,0-1.052-.77.219.219,0,0,1,.225-.376,5.992,5.992,0,0,1,1.127.826.216.216,0,0,1,0,.319.2.2,0,0,1-.169.075.213.213,0,0,1-.15-.056Zm-6.366-1.427a.219.219,0,0,1,.15-.282,5.56,5.56,0,0,1,1.371-.282.242.242,0,0,1,.244.207.229.229,0,0,1-.207.244,5.948,5.948,0,0,0-1.277.263h-.075A.2.2,0,0,1,1460.451,1005.453Zm4.132.15a5.955,5.955,0,0,0-1.277-.263.229.229,0,0,1-.206-.244.217.217,0,0,1,.244-.207,8.455,8.455,0,0,1,1.371.282.234.234,0,0,1,.15.282.22.22,0,0,1-.207.15Z" transform="translate(-1446.826 -996.005)" fill="#303030"/>
            </g>
            <rect id="Rectángulo_419529" data-name="Rectángulo 419529" width="22.479" height="7.737" rx="3.869" transform="translate(56.616 69.56)" fill="#303030"/>
            <path id="Trazado_1044534" data-name="Trazado 1044534" d="M1597.428,1201.156a1.728,1.728,0,1,1,1.728-1.728A1.723,1.723,0,0,1,1597.428,1201.156Zm0-2.648a.92.92,0,1,0,.92.92A.922.922,0,0,0,1597.428,1198.508Z" transform="translate(-1537.394 -1126.187)" fill="#bdc967"/>
            <path id="Trazado_1044535" data-name="Trazado 1044535" d="M1626.928,1201.156a1.728,1.728,0,1,1,1.728-1.728A1.723,1.723,0,0,1,1626.928,1201.156Zm0-2.648a.92.92,0,1,0,.92.92A.922.922,0,0,0,1626.928,1198.508Z" transform="translate(-1561.353 -1126.187)" fill="#6662fa"/>
            <path id="Trazado_1044536" data-name="Trazado 1044536" d="M1655.528,1201.156a1.728,1.728,0,1,1,1.728-1.728A1.723,1.723,0,0,1,1655.528,1201.156Zm0-2.648a.92.92,0,1,0,.92.92A.922.922,0,0,0,1655.528,1198.508Z" transform="translate(-1584.583 -1126.187)" fill="#ff65a1"/>
          </g>
          <path id="Trazado_1044537" data-name="Trazado 1044537" d="M1720.526,588.282a.64.64,0,0,1-.188-.019.844.844,0,0,1-.62-1l4.469-18.63a.829.829,0,0,1,1.615.376l-4.47,18.63A.841.841,0,0,1,1720.526,588.282Z" transform="translate(-1598.363 -561.464)" fill="#fc008e"/>
          <path id="Trazado_1044538" data-name="Trazado 1044538" d="M1398.326,554.782a.639.639,0,0,1-.188-.019.844.844,0,0,1-.62-1l4.469-18.63a.829.829,0,1,1,1.615.376l-4.469,18.63A.841.841,0,0,1,1398.326,554.782Z" transform="translate(-1336.672 -534.255)" fill="#fc008e"/>
          <path id="Trazado_1044539" data-name="Trazado 1044539" d="M1355.8,568.563a35.372,35.372,0,0,1,70.744,0c0,19.531-16.7,32.207-36.227,32.207S1355.8,588.094,1355.8,568.563Z" transform="translate(-1302.803 -533.2)" fill="#feb1dc"/>
          <path id="Trazado_1044540" data-name="Trazado 1044540" d="M1706.37,666.972c.488.056,2.235.244,2.723.3,1.916.207,2.93,5.39,2.254,11.587s-2.761,11.043-4.676,10.836c-.488-.056-2.235-.244-2.723-.3-1.916-.207-2.93-5.39-2.254-11.587S1704.454,666.766,1706.37,666.972Z" transform="translate(-1583.568 -641.845)" fill="#d0b2b3"/>
          <path id="Trazado_1044541" data-name="Trazado 1044541" d="M1721.494,689.786a.323.323,0,0,1-.263-.15c-.075-.113-1.615-2.686-.695-11.737.92-9.108,3.587-10.686,3.7-10.742a.308.308,0,0,1,.413.131.3.3,0,0,1-.113.413c-.038.019-2.516,1.6-3.38,10.254-.883,8.77.6,11.324.62,11.362a.324.324,0,0,1-.094.432.3.3,0,0,1-.169.056Z" transform="translate(-1598.805 -641.973)" fill="#333"/>
          <path id="Trazado_1044542" data-name="Trazado 1044542" d="M1600.944,810.369a.32.32,0,0,1-.131-.019,16.746,16.746,0,0,1-8.075-7.85,18.238,18.238,0,0,1-1.746-5.052.313.313,0,1,1,.62-.094c0,.094,1.446,8.864,9.447,12.413a.31.31,0,0,1,.15.413.329.329,0,0,1-.282.188Z" transform="translate(-1493.824 -747.531)" fill="#333"/>
          <g id="Grupo_1219733" data-name="Grupo 1219733" transform="translate(53.843 8.924)">
            <ellipse id="Elipse_12561" data-name="Elipse 12561" cx="21.39" cy="28.865" rx="21.39" ry="28.865" transform="translate(0 42.576) rotate(-84.4)" fill="#333"/>
            <path id="Trazado_1044543" data-name="Trazado 1044543" d="M1576.027,692.412a2.332,2.332,0,0,1-.62-.075l-.976-.225a2.839,2.839,0,0,1-1.765-1.239,2.736,2.736,0,0,1-.376-2.122l1.784-8.019a2.838,2.838,0,0,1,1.239-1.765,2.736,2.736,0,0,1,2.122-.376l.977.225a2.816,2.816,0,0,1,2.141,3.362l-1.784,8.019a2.821,2.821,0,0,1-2.742,2.2Zm.808-13.014a2.071,2.071,0,0,0-1.052.3,1.912,1.912,0,0,0-.864,1.221l-1.784,8.019a1.968,1.968,0,0,0,1.484,2.329l.976.225a1.942,1.942,0,0,0,2.329-1.484l1.784-8.019a1.942,1.942,0,0,0-1.484-2.329l-.976-.225a1.707,1.707,0,0,0-.432-.056Z" transform="translate(-1532.421 -660.152)" fill="#fff"/>
            <path id="Trazado_1044544" data-name="Trazado 1044544" d="M1423.244,661.712a2.33,2.33,0,0,1-.62-.075l-.977-.225a2.816,2.816,0,0,1-2.141-3.362l1.784-8.019a2.839,2.839,0,0,1,1.239-1.765,2.736,2.736,0,0,1,2.122-.376l.977.225a2.838,2.838,0,0,1,1.765,1.24,2.736,2.736,0,0,1,.376,2.122l-1.784,8.019a2.838,2.838,0,0,1-1.24,1.765A2.869,2.869,0,0,1,1423.244,661.712Zm.807-13.014a2.071,2.071,0,0,0-1.052.3,1.912,1.912,0,0,0-.864,1.221l-1.784,8.019a1.942,1.942,0,0,0,1.484,2.329l.976.225a1.969,1.969,0,0,0,2.329-1.484l1.784-8.019a1.969,1.969,0,0,0-1.484-2.329l-.977-.225a1.7,1.7,0,0,0-.432-.056Z" transform="translate(-1408.334 -635.217)" fill="#fff"/>
            <path id="Trazado_1044545" data-name="Trazado 1044545" d="M1495.008,719.036a6.756,6.756,0,0,1-5.24-2.667.432.432,0,1,1,.714-.488c.113.169,2.817,3.944,7.737,1.446a.433.433,0,0,1,.395.77,7.913,7.913,0,0,1-3.587.939Z" transform="translate(-1465.393 -690.344)" fill="#fff"/>
          </g>
          <path id="Trazado_1044546" data-name="Trazado 1044546" d="M1376.83,780.394a.322.322,0,0,1-.3-.225.309.309,0,0,1,.207-.394c2.1-.62,6.1-5.615,6.141-5.672a.308.308,0,0,1,.488.376c-.169.207-4.15,5.2-6.46,5.878h-.094Z" transform="translate(-1319.626 -728.768)" fill="#333"/>
          <path id="Trazado_1044547" data-name="Trazado 1044547" d="M1698.656,980.975c1.146,1.728,3.756,2.592,5.371,1.3a5.847,5.847,0,0,0,1.559-2.685.4.4,0,0,1,.056-.132c1.521-4.131,3.906-8.338,4.883-12.62a.477.477,0,0,1,.038-.131c.808-3.587.244-11.662-5.747-9a7.1,7.1,0,0,0-3.249,3.775c-.15.338-.3.657-.432,1a45.716,45.716,0,0,0-3.362,11.719c-.038.263-.056.507-.094.77-.207,2.066-.169,4.282.976,6.01Z" transform="translate(-1580.4 -877.554)" fill="#333"/>
          <path id="Trazado_1044548" data-name="Trazado 1044548" d="M1520.46,1150.022h-.094a.324.324,0,0,1-.207-.394l7.606-23.531a.292.292,0,0,1,.319-.207l36.47,3.305a.311.311,0,0,1-.056.62l-36.226-3.286-7.531,23.306a.3.3,0,0,1-.3.207Z" transform="translate(-1436.288 -1014.582)" fill="#333"/>
          <path id="Trazado_1044549" data-name="Trazado 1044549" d="M1315.379,1140.681a.3.3,0,0,1-.3-.263l-3.869-22.461-21.409-.338a.31.31,0,0,1,.019-.62l21.672.357a.3.3,0,0,1,.3.263l3.925,22.7a.292.292,0,0,1-.244.357h-.094Z" transform="translate(-1248.955 -1007.363)" fill="#333"/>
          <path id="Trazado_1044550" data-name="Trazado 1044550" d="M1615.43,947.01h-.094a.3.3,0,0,1-.206-.376l12.132-42.5a.3.3,0,1,1,.582.169l-12.132,42.5a.322.322,0,0,1-.3.225Z" transform="translate(-1513.418 -834.294)" fill="#333"/>
          <path id="Trazado_1044551" data-name="Trazado 1044551" d="M1362.859,949.125a.3.3,0,0,1-.3-.3l-1.258-38.4a.31.31,0,0,1,.62-.019l1.258,38.4a.313.313,0,0,1-.3.319h0Z" transform="translate(-1307.271 -839.319)" fill="#333"/>
          <path id="Trazado_1044552" data-name="Trazado 1044552" d="M1594.27,583.435a.311.311,0,0,1-.225-.094.3.3,0,0,1,.019-.432c.3-.282,7.549-6.723,13.521-6.16a.3.3,0,0,1,.281.338.313.313,0,0,1-.338.282c-5.709-.526-12.977,5.953-13.052,6.01a.282.282,0,0,1-.207.075Z" transform="translate(-1496.239 -568.542)" fill="#333"/>
          <path id="Trazado_1044553" data-name="Trazado 1044553" d="M1461.669,558.24h-.056a.31.31,0,0,1-.244-.357,35.27,35.27,0,0,0,.357-10.235.313.313,0,0,1,.62-.094A35.6,35.6,0,0,1,1461.97,558,.3.3,0,0,1,1461.669,558.24Z" transform="translate(-1388.541 -544.643)" fill="#333"/>
        </g>
        <path id="Trazado_1044554" data-name="Trazado 1044554" d="M1703.872,1085.35l-5.033-48.753c-1.277-12.432-2.61-25.3-6.892-36.921-4.564-12.395-12.188-21.8-21.447-26.5l5-9.878c11.775,5.953,21.3,17.522,26.836,32.546,4.77,12.939,6.16,26.5,7.512,39.607l5.033,48.752-11.024,1.146Z" transform="translate(-1200.473 -494.481)" fill="#fc008e"/>
        <g id="Grupo_1219736" data-name="Grupo 1219736" transform="translate(466.698 450.435)">
          <g id="Grupo_1219735" data-name="Grupo 1219735" transform="translate(0 0)">
            <path id="Trazado_1044555" data-name="Trazado 1044555" d="M1670.548,868.564c-3.944-3.906-12.395-4.545-15.926.15-3.474,4.733-1.972,7.794,3.925,9.559,5.84,1.747,16.076-5.69,12-9.728Z" transform="translate(-1652.778 -865.411)" fill="#c45b5b"/>
            <path id="Trazado_1044556" data-name="Trazado 1044556" d="M1704.929,893.713c-3.944-3.906-12.451-4.582-15.925.169-3.531,4.714-1.972,7.775,3.869,9.521C1698.769,905.187,1708.947,897.713,1704.929,893.713Z" transform="translate(-1680.68 -885.827)" fill="#c45b5b"/>
            <path id="Trazado_1044557" data-name="Trazado 1044557" d="M1744.348,917.574c-4.939-5.127-12.395-4.545-15.925.15-3.474,4.732-1.972,7.775,3.925,9.559,5.841,1.747,17.24-4.282,12-9.728Z" transform="translate(-1712.718 -904.843)" fill="#c45b5b"/>
            <path id="Trazado_1044558" data-name="Trazado 1044558" d="M1789.987,961.535c4.977-4.845,1.371-8.639-3.23-8.075s-8.714,6.047-5.052,8.338c3.23,2.5,5.033,1.559,8.282-.263" transform="translate(-1756.348 -936.879)" fill="#c45b5b"/>
          </g>
          <path id="Trazado_1044559" data-name="Trazado 1044559" d="M1780.26,959.984a.158.158,0,0,1-.131-.038.274.274,0,0,1-.094-.375,11.444,11.444,0,0,1,8.319-5.071.274.274,0,1,1,.057.545,11.135,11.135,0,0,0-7.906,4.789.274.274,0,0,1-.244.131Z" transform="translate(-1756.105 -937.769)" fill="#303031"/>
          <path id="Trazado_1044560" data-name="Trazado 1044560" d="M1726.282,929.207h-.094a.272.272,0,0,1-.169-.357c.056-.15,1.446-3.85,9.672-7.343a.274.274,0,0,1,.206.507c-8,3.4-9.352,6.986-9.371,7.024a.283.283,0,0,1-.263.188Z" transform="translate(-1712.249 -910.955)" fill="#303031"/>
          <path id="Trazado_1044561" data-name="Trazado 1044561" d="M1697.211,896.364a.3.3,0,0,1-.207-.094.291.291,0,0,1,.019-.394c6.348-5.578,10.122-4.714,10.273-4.676a.28.28,0,1,1-.131.545c-.056,0-3.681-.808-9.784,4.545a.334.334,0,0,1-.188.075Z" transform="translate(-1688.644 -886.3)" fill="#303031"/>
        </g>
        <path id="Trazado_1044562" data-name="Trazado 1044562" d="M1343.129,1588.129c.77-12.977-1.333-25.954-4.188-38.63-.958-4.263-2.047-8.6-4.451-12.245s-6.4-6.535-10.761-6.46c-4.845.075-9.052,3.775-11.08,8.169s-2.272,9.39-2.254,14.235a173.172,173.172,0,0,0,4.9,39.4c1.578,6.648,5.972,20.17,15.268,18.4,9.333-1.765,12.132-15.268,12.583-22.855Z" transform="translate(-907.995 -955.4)" fill="#feb1dc"/>
        <path id="Trazado_1044563" data-name="Trazado 1044563" d="M1396.791,1604.49a.282.282,0,0,1-.282-.244c-2.028-14.122-3.831-28.47-5.333-42.668a7.561,7.561,0,0,1,.432-4.432c.864-1.6,2.573-2.31,4.244-2.986,1.6-.657,3.08-1.258,3.906-2.573,1.108-1.746.545-4.057-.075-6.085-2.066-6.836-4.432-13.672-6.986-20.339a.274.274,0,0,1,.507-.207c2.573,6.686,4.92,13.54,7,20.376.657,2.141,1.24,4.6,0,6.535-.92,1.465-2.573,2.141-4.169,2.8-1.653.676-3.211,1.315-3.981,2.742a7.061,7.061,0,0,0-.357,4.113c1.5,14.179,3.305,28.526,5.333,42.63a.278.278,0,0,1-.225.319h-.037Z" transform="translate(-973.508 -950.521)" fill="#333"/>
        <path id="Trazado_1044564" data-name="Trazado 1044564" d="M1309.151,1420.42c-13.991-6.5-35.663-27.607-17-41.41,4.132-3.061,9.165-4.639,14.2-5.709a82.89,82.89,0,0,1,43.081,2.4c8.6,2.854,20.7,9.54,18.4,20.395-2.329,11-13.634,21.165-23.531,25.409-11.55,4.958-23.944,4.113-35.156-1.108Z" transform="translate(-887.295 -826.039)" fill="#d0b2b3"/>
        <path id="Trazado_1044565" data-name="Trazado 1044565" d="M1567.895,1508.7s-4.939-14.085-16.47-13.728-7.887,27.663-7.887,27.663l24.357-13.953Z" transform="translate(-1096.911 -926.3)" fill="#272727"/>
        <path id="Trazado_1044566" data-name="Trazado 1044566" d="M1563.484,1595.585c.939-15.568-1.6-31.137-5.014-46.348-1.146-5.108-2.46-10.31-5.352-14.686s-7.681-7.831-12.921-7.756c-5.8.094-10.874,4.526-13.3,9.8-2.442,5.277-2.723,11.268-2.7,17.071a208.937,208.937,0,0,0,5.878,47.269c1.9,7.963,7.174,24.207,18.31,22.085C1559.6,1620.9,1562.939,1604.712,1563.484,1595.585Z" transform="translate(-1081.645 -952.152)" fill="#feb1dc"/>
        <path id="Trazado_1044567" data-name="Trazado 1044567" d="M1628.142,1615.484a.282.282,0,0,1-.282-.244c-2.441-16.939-4.582-34.161-6.4-51.175-.207-1.972-.319-3.737.507-5.277,1.014-1.9,3.08-2.742,5.071-3.568,1.822-.751,3.718-1.521,4.714-3.117,1.333-2.122.657-4.9-.094-7.343-2.5-8.188-5.315-16.413-8.376-24.395a.274.274,0,1,1,.507-.207c3.08,8,5.9,16.226,8.395,24.432.77,2.554,1.484,5.484.019,7.813-1.089,1.747-3.061,2.554-4.977,3.324-1.991.807-3.869,1.578-4.789,3.305-.751,1.408-.638,3.08-.451,4.958,1.8,17.014,3.963,34.217,6.4,51.156a.278.278,0,0,1-.225.319h-.038Z" transform="translate(-1160.519 -946.622)" fill="#333"/>
        <g id="Grupo_1219739" data-name="Grupo 1219739" transform="translate(192.452 583.676)">
          <path id="Trazado_1044568" data-name="Trazado 1044568" d="M272.159,1639.963h-65.9a1.826,1.826,0,0,1-1.784-1.427L195.8,1600.3h69.654l8.488,37.428A1.823,1.823,0,0,1,272.159,1639.963Z" transform="translate(-195.171 -1595.53)" fill="#333"/>
          <path id="Trazado_1044569" data-name="Trazado 1044569" d="M262.735,1579.67H193.08l-.582-2.535a1.833,1.833,0,0,1,1.784-2.235h65.9a1.846,1.846,0,0,1,1.784,1.427l.751,3.343Z" transform="translate(-192.452 -1574.9)" fill="#fc008e"/>
          <g id="Grupo_1219737" data-name="Grupo 1219737" transform="translate(7.649 21.578)">
            <path id="Trazado_1044570" data-name="Trazado 1044570" d="M241.354,1691.021h-7.737a.226.226,0,0,1-.225-.169l-.207-.883a.136.136,0,0,1,.15-.169h7.737a.226.226,0,0,1,.225.169l.207.883A.136.136,0,0,1,241.354,1691.021Z" transform="translate(-233.181 -1689.8)" fill="#fff"/>
            <path id="Trazado_1044571" data-name="Trazado 1044571" d="M256.354,1704.121h-7.737a.226.226,0,0,1-.225-.169l-.207-.883a.136.136,0,0,1,.15-.169h7.737a.225.225,0,0,1,.225.169l.207.883A.136.136,0,0,1,256.354,1704.121Z" transform="translate(-245.364 -1700.44)" fill="#fff"/>
            <path id="Trazado_1044572" data-name="Trazado 1044572" d="M299.2,1720.221h-26.48a.225.225,0,0,1-.225-.169l-.207-.883a.136.136,0,0,1,.15-.169h26.48a.225.225,0,0,1,.225.169l.207.883A.136.136,0,0,1,299.2,1720.221Z" transform="translate(-264.938 -1713.516)" fill="#d4a2f9"/>
            <path id="Trazado_1044573" data-name="Trazado 1044573" d="M454.5,1720.221h-26.48a.225.225,0,0,1-.225-.169l-.207-.883a.136.136,0,0,1,.15-.169h26.48a.225.225,0,0,1,.225.169l.207.883A.136.136,0,0,1,454.5,1720.221Z" transform="translate(-391.073 -1713.516)" fill="#d4a2f9"/>
            <path id="Trazado_1044574" data-name="Trazado 1044574" d="M334.6,1753.421h-26.48a.225.225,0,0,1-.225-.169l-.207-.883a.136.136,0,0,1,.15-.169h26.48a.226.226,0,0,1,.225.169l.207.883A.136.136,0,0,1,334.6,1753.421Z" transform="translate(-293.69 -1740.481)" fill="#d4a2f9"/>
            <path id="Trazado_1044575" data-name="Trazado 1044575" d="M349.289,1767.821H311.617a.225.225,0,0,1-.225-.169l-.207-.883a.136.136,0,0,1,.15-.169h37.672a.225.225,0,0,1,.225.169l.207.883A.136.136,0,0,1,349.289,1767.821Z" transform="translate(-296.533 -1752.177)" fill="#d4a2f9"/>
            <path id="Trazado_1044576" data-name="Trazado 1044576" d="M323.943,1782.221h-8.827a.225.225,0,0,1-.225-.169l-.207-.883a.136.136,0,0,1,.15-.169h8.827a.225.225,0,0,1,.225.169l.207.883A.136.136,0,0,1,323.943,1782.221Z" transform="translate(-299.375 -1763.873)" fill="#d4a2f9"/>
            <path id="Trazado_1044577" data-name="Trazado 1044577" d="M471.043,1752.721h-8.827a.225.225,0,0,1-.225-.169l-.207-.883a.136.136,0,0,1,.15-.169h8.827a.225.225,0,0,1,.225.169l.207.883A.136.136,0,0,1,471.043,1752.721Z" transform="translate(-418.85 -1739.913)" fill="#d4a2f9"/>
            <path id="Trazado_1044578" data-name="Trazado 1044578" d="M317.193,1737.221H276.817a.226.226,0,0,1-.225-.169l-.207-.883a.136.136,0,0,1,.15-.169h40.377a.225.225,0,0,1,.225.169l.207.883A.136.136,0,0,1,317.193,1737.221Z" transform="translate(-268.268 -1727.324)" fill="#d4a2f9"/>
            <path id="Trazado_1044579" data-name="Trazado 1044579" d="M296.358,1750.4a1,1,0,0,0-.939-.695.557.557,0,0,0-.6.695,1,1,0,0,0,.939.695A.557.557,0,0,0,296.358,1750.4Z" transform="translate(-283.227 -1738.451)" fill="#fff"/>
            <path id="Trazado_1044580" data-name="Trazado 1044580" d="M300.458,1767.4a1,1,0,0,0-.939-.695.557.557,0,0,0-.6.695,1,1,0,0,0,.939.695A.557.557,0,0,0,300.458,1767.4Z" transform="translate(-286.557 -1752.259)" fill="#fff"/>
            <path id="Trazado_1044581" data-name="Trazado 1044581" d="M303.658,1780.495a1,1,0,0,0-.939-.695.557.557,0,0,0-.6.695,1,1,0,0,0,.939.695A.557.557,0,0,0,303.658,1780.495Z" transform="translate(-289.156 -1762.898)" fill="#fff"/>
          </g>
          <g id="Grupo_1219738" data-name="Grupo 1219738" transform="translate(20.573 7.23)">
            <path id="Trazado_1044582" data-name="Trazado 1044582" d="M311.484,1634.185l-5.6,2.178v.038l6.667,2.178.582,2.385-10.611-3.474-.526-2.216,8.939-3.474.582,2.385Z" transform="translate(-302 -1628.344)" fill="#fff"/>
            <path id="Trazado_1044583" data-name="Trazado 1044583" d="M372.979,1613.4l2.347.62-2.5,13.653-2.329-.62Z" transform="translate(-357.636 -1613.4)" fill="#fff"/>
            <path id="Trazado_1044584" data-name="Trazado 1044584" d="M409.353,1638.48l5.6-2.179v-.037l-6.667-2.178-.582-2.385,10.611,3.474.526,2.216-8.939,3.474-.582-2.385Z" transform="translate(-387.85 -1628.264)" fill="#fff"/>
          </g>
        </g>
        <g id="Grupo_1219740" data-name="Grupo 1219740" transform="translate(473.187 525.846)">
          <path id="Trazado_1044585" data-name="Trazado 1044585" d="M1748.048,1787.419h-.056a4.152,4.152,0,0,1-4.094-4.207,80.95,80.95,0,0,1,1.3-13.465,4.151,4.151,0,0,1,8.169,1.484,74.714,74.714,0,0,0-1.164,12.094A4.152,4.152,0,0,1,1748.048,1787.419Z" transform="translate(-1733.273 -1672.554)" fill="#fc008e"/>
          <path id="Trazado_1044586" data-name="Trazado 1044586" d="M1802.336,1795.632a4.139,4.139,0,0,1-4.094-3.549,47.9,47.9,0,0,1-.188-12.7,4.152,4.152,0,0,1,8.245,1,40.091,40.091,0,0,0,.15,10.5,4.141,4.141,0,0,1-3.493,4.714A3.45,3.45,0,0,1,1802.336,1795.632Z" transform="translate(-1776.988 -1680.186)" fill="#fc008e"/>
          <path id="Trazado_1044587" data-name="Trazado 1044587" d="M1853.716,1784.84a4.148,4.148,0,0,1-4-3.042,52.351,52.351,0,0,1-1.916-14.047,4.152,4.152,0,0,1,4.15-4.15h0a4.152,4.152,0,0,1,4.15,4.15,44.418,44.418,0,0,0,1.615,11.85,4.131,4.131,0,0,1-2.892,5.108,4.626,4.626,0,0,1-1.108.15Z" transform="translate(-1817.664 -1670.333)" fill="#fc008e"/>
          <path id="Trazado_1044588" data-name="Trazado 1044588" d="M1691.491,1716.58a4.149,4.149,0,0,1-2.31-7.606c3.343-2.216,6.836-4.282,10.366-6.179a4.15,4.15,0,1,1,3.906,7.324c-3.305,1.765-6.554,3.7-9.69,5.766a4.143,4.143,0,0,1-2.291.695Z" transform="translate(-1687.328 -1620.552)" fill="#fc008e"/>
          <path id="Trazado_1044589" data-name="Trazado 1044589" d="M1766.5,1272.679a15.669,15.669,0,0,0-7.343-5.24c-9.69-3.08-15.681,9.5-17.954,16.733a158.751,158.751,0,0,0-4.864,71.72c.9,5.409,2.592,11.343,7.305,14.141,4.582,2.7,10.46,1.484,15.381-.563,9.634-4,13.822-12.338,16-22.141a123.823,123.823,0,0,0,1.69-40.17c-1.239-11.38-2.648-25.3-10.2-34.48Z" transform="translate(-1725.469 -1266.963)" fill="#feb1dc"/>
          <path id="Trazado_1044590" data-name="Trazado 1044590" d="M1857.53,1407.851a.285.285,0,0,1-.282-.263l-3-52.358c-.225-3.887-.507-8.714,1.653-12.62a23.051,23.051,0,0,1,4.939-5.6,34.575,34.575,0,0,0,3.606-3.624,16.741,16.741,0,0,0,1.3-18.479.274.274,0,0,1,.47-.282,17.21,17.21,0,0,1-1.333,19.1,35.87,35.87,0,0,1-3.662,3.7,21.918,21.918,0,0,0-4.826,5.465c-2.084,3.756-1.8,8.507-1.6,12.32l3,52.358a.3.3,0,0,1-.263.3h0Z" transform="translate(-1822.774 -1305.569)" fill="#333"/>
        </g>
        <path id="Trazado_1044591" data-name="Trazado 1044591" d="M702.3,1601.942c0-1.465,17.39-65.016,17.39-65.016l11.643-23.944,15.249-4.282Z" transform="translate(-414.1 -937.456)" fill="#333"/>
        <g id="Grupo_1219741" data-name="Grupo 1219741" transform="translate(276.651 620.493)">
          <path id="Trazado_1044592" data-name="Trazado 1044592" d="M812.279,1827.709H640.8s3.418-9.409,8-19.005c4.845-10.141,11.005-20.47,15.831-20.132,9.221.639,1,26.893.676,27.963.469-1.352,15.456-44.752,25.146-41.954,9.784,2.836-2.272,40.9-2.4,41.334.169-.319,11.212-21.428,19.249-20.338,8.094,1.089-.657,25.6-.657,25.6s22.742-38.048,33.9-38.5c11.08-.432-6.78,34.142-7,34.555.263-.3,17.353-20.113,27.343-20.564,9.841-.432-.62,16.733-1.07,17.465.77-1.108,27.926-40.264,39.569-43.062,11.737-2.817-9.578,43.813-9.841,44.4.263-.375,16.507-25.015,29.747-25.728,13.334-.732-7,37.992-7,37.992Z" transform="translate(-640.8 -1770.947)" fill="#bac437"/>
          <path id="Trazado_1044593" data-name="Trazado 1044593" d="M659.9,1987.825c.113,1.033.225,2.047.338,3.08H640.8s3.418-9.408,8-19.005C655.035,1974.1,659.148,1981.534,659.9,1987.825Z" transform="translate(-640.8 -1934.161)" fill="#5f6029"/>
          <path id="Trazado_1044594" data-name="Trazado 1044594" d="M794.319,1978.139c-.451,4.451-.9,8.883-1.352,13.334H778.6q4.366-7.831,8.939-15.531c1.089-1.822,2.873-3.925,4.883-3.23C794.375,1973.388,794.544,1976.073,794.319,1978.139Z" transform="translate(-752.721 -1934.71)" fill="#5f6029"/>
          <path id="Trazado_1044595" data-name="Trazado 1044595" d="M900.044,2003.645a4.448,4.448,0,0,1,.094,3c-.6,3-1.2,5.991-1.8,9H884.4c2.817-3.644,5.709-7.212,8.827-10.611a8.509,8.509,0,0,1,3.193-2.479,3.007,3.007,0,0,1,3.606,1.07Z" transform="translate(-838.652 -1958.902)" fill="#5f6029"/>
          <path id="Trazado_1044596" data-name="Trazado 1044596" d="M1023.936,1959.486c-.113,6.366-4.376,12.3-5.108,18.423H1005.4a22.494,22.494,0,0,0,1.3-2.385c3.268-6.686,6.348-13.859,12.207-18.442,1.033-.808,2.385-1.54,3.568-1S1023.973,1958.171,1023.936,1959.486Z" transform="translate(-936.929 -1921.165)" fill="#5f6029"/>
          <path id="Trazado_1044597" data-name="Trazado 1044597" d="M1168.058,2015.94H1096a44.213,44.213,0,0,1,24.264-13.24,15.906,15.906,0,0,1-1.69,8.9,25.776,25.776,0,0,1,20.564-3.305c1.6.432,3.136,1.014,4.77,1.315a50.119,50.119,0,0,0,5.559.507c6.535.545,12.676,2.892,18.592,5.8Z" transform="translate(-1010.514 -1959.177)" fill="#5f6029"/>
          <path id="Trazado_1044598" data-name="Trazado 1044598" d="M1496.815,1944.1a.238.238,0,0,1-.113-.019.276.276,0,0,1-.131-.376,198.361,198.361,0,0,1,14.536-25.653.271.271,0,0,1,.451.3,197.251,197.251,0,0,0-14.5,25.578.293.293,0,0,1-.244.15Z" transform="translate(-1335.834 -1890.321)" fill="#333"/>
          <path id="Trazado_1044599" data-name="Trazado 1044599" d="M1322.2,1863.759a.2.2,0,0,1-.15-.038.257.257,0,0,1-.075-.376c8.939-13.8,17.69-28,25.972-42.217a.274.274,0,0,1,.47.281c-8.3,14.217-17.052,28.414-25.991,42.236a.318.318,0,0,1-.225.131Z" transform="translate(-1194.009 -1811.597)" fill="#333"/>
          <path id="Trazado_1044600" data-name="Trazado 1044600" d="M1197,1972.948a.2.2,0,0,1-.15-.038.257.257,0,0,1-.075-.375c3.662-5.521,7.625-10.93,11.813-16.057a.28.28,0,1,1,.432.357c-4.169,5.127-8.132,10.517-11.775,16.019a.318.318,0,0,1-.225.132Z" transform="translate(-1092.321 -1921.556)" fill="#333"/>
          <path id="Trazado_1044601" data-name="Trazado 1044601" d="M1066.75,1914.578a.237.237,0,0,1-.113-.019.3.3,0,0,1-.132-.375,121.666,121.666,0,0,1,14.949-23.606.28.28,0,1,1,.432.357,121.282,121.282,0,0,0-14.892,23.512.292.292,0,0,1-.244.15Z" transform="translate(-986.542 -1868.032)" fill="#333"/>
          <path id="Trazado_1044602" data-name="Trazado 1044602" d="M938.591,1968.832h-.075a.256.256,0,0,1-.188-.338,74.465,74.465,0,0,1,6.723-16.827.277.277,0,1,1,.488.263,73.638,73.638,0,0,0-6.667,16.7.276.276,0,0,1-.263.207Z" transform="translate(-882.44 -1917.609)" fill="#333"/>
          <path id="Trazado_1044603" data-name="Trazado 1044603" d="M835.052,1871.864a.141.141,0,0,1-.094-.019.263.263,0,0,1-.15-.357,229.252,229.252,0,0,0,10.46-34.818.28.28,0,1,1,.545.131,230.228,230.228,0,0,1-10.479,34.893.266.266,0,0,1-.263.169Z" transform="translate(-798.356 -1824.153)" fill="#333"/>
          <path id="Trazado_1044604" data-name="Trazado 1044604" d="M716.986,1917.6q-3.662,12.029-6.986,24.17" transform="translate(-697.004 -1890.059)" fill="#5f6029"/>
        </g>
        <path id="Trazado_1044605" data-name="Trazado 1044605" d="M1116.53,400.967c-1.446,0-3.286-1.747-4.657-3.042-.376-.357-.714-.676-.939-.864a7.524,7.524,0,0,0-2.122-1.352,7.666,7.666,0,0,0-3.08-.113h-.131a64.639,64.639,0,0,1-6.892.357,72.088,72.088,0,0,1-22.085-3.456,6.749,6.749,0,0,1-5.8-6.742,113.138,113.138,0,0,1-.826-22.686,10.3,10.3,0,0,1,1.146-4.789c1.822-3,5.8-3.549,9.052-3.681a141.838,141.838,0,0,1,30.5,2.066c3.587.639,7.193,1.615,9.258,4.413a13.443,13.443,0,0,1,2.028,6.2,72.794,72.794,0,0,1,.488,14.442,16.369,16.369,0,0,1-1.352,6.235,6.72,6.72,0,0,1-5.183,3.906h-.056c-.376.038-.976.094-1.052.3-.037.131.094.376.169.526.526.714,4.094,5.634,2.892,7.531a1.6,1.6,0,0,1-1.164.77h-.207Zm-9.2-6.573a6.145,6.145,0,0,1,1.84.263,8.5,8.5,0,0,1,2.479,1.54c.263.207.6.545,1.014.92,1.014.958,2.873,2.742,3.869,2.742h.094c.113,0,.244-.056.376-.263.507-.789-1.108-3.944-2.873-6.291,0-.019-.038-.038-.038-.075a1.87,1.87,0,0,1-.282-1.409c.282-.939,1.315-1.014,2.009-1.089h.056a5.721,5.721,0,0,0,4.282-3.286,14.95,14.95,0,0,0,1.24-5.822,71.952,71.952,0,0,0-.488-14.216,12.178,12.178,0,0,0-1.822-5.69c-1.822-2.5-5.183-3.38-8.545-3.981a140.854,140.854,0,0,0-30.254-2.047c-2.986.113-6.592.582-8.15,3.136a9.586,9.586,0,0,0-1,4.282,113.926,113.926,0,0,0,.826,22.479,5.7,5.7,0,0,0,5.033,5.859,70.928,70.928,0,0,0,28.526,3.08h.132a12.807,12.807,0,0,1,1.69-.132Z" transform="translate(-712.552 0)" fill="#fc008e"/>
        <g id="Grupo_1219742" data-name="Grupo 1219742" transform="translate(368.953 359.764)">
          <rect id="Rectángulo_419530" data-name="Rectángulo 419530" width="30.611" height="30.705" transform="translate(0 0.808)" fill="none"/>
          <rect id="Rectángulo_419531" data-name="Rectángulo 419531" width="30.611" height="30.705" transform="translate(0 0)" fill="none"/>
          <path id="Trazado_1044606" data-name="Trazado 1044606" d="M1168.523,472.089a9.083,9.083,0,0,1-7.211-3.38,10.7,10.7,0,0,1-1.953-3.531.273.273,0,1,1,.526-.15,10.585,10.585,0,0,0,1.859,3.343,8.453,8.453,0,0,0,7.061,3.174,8.618,8.618,0,0,0,8.263-6.629.276.276,0,0,1,.545.094,9.241,9.241,0,0,1-1.615,3.455,8.745,8.745,0,0,1-7.174,3.606h-.319Z" transform="translate(-1154.269 -449.271)" fill="#303030"/>
          <path id="Trazado_1044607" data-name="Trazado 1044607" d="M1189.282,426.888a.289.289,0,0,1-.282-.282v-7.625a.282.282,0,0,1,.563,0v7.625A.289.289,0,0,1,1189.282,426.888Z" transform="translate(-1178.352 -411.92)" fill="#303030"/>
          <path id="Trazado_1044608" data-name="Trazado 1044608" d="M1228.682,426.888a.289.289,0,0,1-.282-.282v-7.625a.282.282,0,1,1,.563,0v7.625A.289.289,0,0,1,1228.682,426.888Z" transform="translate(-1210.353 -411.92)" fill="#303030"/>
        </g>
        <g id="Grupo_1219743" data-name="Grupo 1219743" transform="translate(485.623 417.855)">
          <circle id="Elipse_12562" data-name="Elipse 12562" cx="13.709" cy="13.709" r="13.709" transform="translate(0 19.388) rotate(-45)" fill="#951bf1"/>
          <path id="Trazado_1044609" data-name="Trazado 1044609" d="M1817.361,774.324h-.037a2.2,2.2,0,0,1-1.634-.751l-4.9-5.559a2.222,2.222,0,1,1,3.324-2.948l3.286,3.737,7.963-8.413a2.219,2.219,0,0,1,3.23,3.042l-9.615,10.179a2.172,2.172,0,0,1-1.615.695Z" transform="translate(-1799.585 -746.966)" fill="#fff"/>
        </g>
        <g id="Grupo_1219747" data-name="Grupo 1219747" transform="translate(345.216 528.726)">
          <path id="Trazado_1044631" data-name="Trazado 1044631" d="M23.043,0h36.9a23.043,23.043,0,0,1,0,46.086h-36.9A23.043,23.043,0,0,1,23.043,0Z" transform="translate(46.086) rotate(90)" fill="#fc008e"/>
          <path id="Trazado_1044610" data-name="Trazado 1044610" d="M1019.1,1369.841v-67.608c0-3.1,1.991-5.634,4.451-5.634h32.339c2.46,0,4.451,2.535,4.451,5.634v67.608c0,3.1-1.991,5.634-4.451,5.634h-32.339C1021.091,1375.475,1019.1,1372.94,1019.1,1369.841Zm40.827-67.589c0-2.817-1.822-5.127-4.038-5.127h-32.339c-2.235,0-4.038,2.291-4.038,5.127v67.607c0,2.817,1.822,5.127,4.038,5.127h32.339c2.235,0,4.038-2.291,4.038-5.127Z" transform="translate(-1016.621 -1293.915)" fill="#fff"/>
          <rect id="Rectángulo_419533" data-name="Rectángulo 419533" width="4.338" height="16.019" transform="translate(9.484 47.964)" fill="#fab8e3"/>
          <rect id="Rectángulo_419534" data-name="Rectángulo 419534" width="4.338" height="12.695" transform="translate(15.249 51.288)" fill="#d4a2f9"/>
          <rect id="Rectángulo_419535" data-name="Rectángulo 419535" width="4.338" height="9.822" transform="translate(26.592 54.18)" fill="#d4a2f9"/>
          <rect id="Rectángulo_419536" data-name="Rectángulo 419536" width="4.338" height="14.573" transform="translate(20.958 49.41)" fill="#fab8e3"/>
          <rect id="Rectángulo_419537" data-name="Rectángulo 419537" width="4.338" height="14.573" transform="translate(32.283 49.41)" fill="#fab8e3"/>
          <rect id="Rectángulo_419538" data-name="Rectángulo 419538" width="18.348" height="1.052" rx="0.5" transform="translate(13.953 66.387)" fill="#fff"/>
          <rect id="Rectángulo_419539" data-name="Rectángulo 419539" width="18.348" height="1.052" rx="0.5" transform="translate(13.953 73.504)" fill="#fff"/>
          <rect id="Rectángulo_419540" data-name="Rectángulo 419540" width="18.348" height="1.052" rx="0.5" transform="translate(13.953 76.115)" fill="#fff"/>
          <rect id="Rectángulo_419541" data-name="Rectángulo 419541" width="9.427" height="1.052" rx="0.5" transform="translate(13.953 68.941)" fill="#fff"/>
          <rect id="Rectángulo_419542" data-name="Rectángulo 419542" width="5.033" height="1.052" rx="0.5" transform="translate(24.545 68.941)" fill="#fff"/>
          <g id="Grupo_1219746" data-name="Grupo 1219746" transform="translate(7.474 8.432)">
            <path id="Trazado_1044611" data-name="Trazado 1044611" d="M1083.327,1358.5H1073.2a6.712,6.712,0,0,1-6.7-6.723V1344.3a6.708,6.708,0,0,1,6.7-6.7h10.122a6.708,6.708,0,0,1,6.7,6.7v7.474A6.724,6.724,0,0,1,1083.327,1358.5Zm-10.122-20.245a6.075,6.075,0,0,0-6.066,6.066v7.474a6.075,6.075,0,0,0,6.066,6.066h10.122a6.075,6.075,0,0,0,6.066-6.066v-7.474a6.075,6.075,0,0,0-6.066-6.066Z" transform="translate(-1062.594 -1335.647)" fill="#fff"/>
            <path id="Trazado_1044612" data-name="Trazado 1044612" d="M1091.6,1367.675h-9.2a5.2,5.2,0,0,1-5.2-5.2V1357.1a5.2,5.2,0,0,1,5.2-5.2h9.2a5.2,5.2,0,0,1,5.2,5.2v5.371A5.2,5.2,0,0,1,1091.6,1367.675Zm-9.2-15.1a4.548,4.548,0,0,0-4.545,4.545v5.371a4.548,4.548,0,0,0,4.545,4.545h9.2a4.548,4.548,0,0,0,4.545-4.545v-5.371a4.548,4.548,0,0,0-4.545-4.545Z" transform="translate(-1071.284 -1347.261)" fill="#fff"/>
            <path id="Trazado_1044613" data-name="Trazado 1044613" d="M1189.64,1377.433h-.695a.316.316,0,0,1-.319-.319.329.329,0,0,1,.319-.319h.695a2.557,2.557,0,0,0,2.554-2.554v-2.648a2.557,2.557,0,0,0-2.554-2.554h-.92a.317.317,0,0,1-.319-.319.329.329,0,0,1,.319-.319h.92a3.222,3.222,0,0,1,3.211,3.211v2.648a3.222,3.222,0,0,1-3.211,3.211Z" transform="translate(-1161.601 -1360.663)" fill="#fff"/>
            <path id="Trazado_1044614" data-name="Trazado 1044614" d="M1049.606,1378.771h-.695a3.222,3.222,0,0,1-3.211-3.211v-2.648a3.222,3.222,0,0,1,3.211-3.211h.92a.317.317,0,0,1,.319.319.329.329,0,0,1-.319.319h-.92a2.557,2.557,0,0,0-2.554,2.554v2.648a2.557,2.557,0,0,0,2.554,2.554h.695a.317.317,0,0,1,.319.319.329.329,0,0,1-.319.319Z" transform="translate(-1045.7 -1361.719)" fill="#fff"/>
            <g id="Grupo_1219744" data-name="Grupo 1219744" transform="translate(27.456)">
              <path id="Trazado_1044615" data-name="Trazado 1044615" d="M1193.419,1341.324a.317.317,0,0,1-.319-.319v-6.385a.317.317,0,0,1,.319-.319.329.329,0,0,1,.319.319V1341A.317.317,0,0,1,1193.419,1341.324Z" transform="translate(-1192.875 -1332.967)" fill="#fff"/>
              <circle id="Elipse_12563" data-name="Elipse 12563" cx="0.545" cy="0.545" r="0.545" fill="#fff"/>
            </g>
            <g id="Grupo_1219745" data-name="Grupo 1219745" transform="translate(2.516 0.282)">
              <path id="Trazado_1044616" data-name="Trazado 1044616" d="M1060.719,1342.824a.317.317,0,0,1-.319-.319v-6.385a.316.316,0,0,1,.319-.319.329.329,0,0,1,.319.319v6.385A.316.316,0,0,1,1060.719,1342.824Z" transform="translate(-1060.156 -1334.467)" fill="#fff"/>
              <path id="Trazado_1044617" data-name="Trazado 1044617" d="M1060.189,1329.245a.545.545,0,1,0-.545.545A.545.545,0,0,0,1060.189,1329.245Z" transform="translate(-1059.1 -1328.7)" fill="#fff"/>
            </g>
            <path id="Trazado_1044618" data-name="Trazado 1044618" d="M1155.74,1376.485c0-1.146-.413-2.085-.92-2.085s-.92.939-.92,2.085.413,2.085.92,2.085S1155.74,1377.63,1155.74,1376.485Z" transform="translate(-1133.58 -1365.536)" fill="#fff"/>
            <ellipse id="Elipse_12564" data-name="Elipse 12564" cx="0.92" cy="2.085" rx="0.92" ry="2.085" transform="translate(9.427 8.864)" fill="#fff"/>
            <path id="Trazado_1044619" data-name="Trazado 1044619" d="M1119.966,1400.942a2.222,2.222,0,0,1-1.69-.638,2.7,2.7,0,0,1-.676-1.784.3.3,0,0,1,.338-.319.321.321,0,0,1,.319.338,2.069,2.069,0,0,0,.507,1.315,1.6,1.6,0,0,0,1.221.451,1.646,1.646,0,0,0,1.239-.451,1.879,1.879,0,0,0,.451-1.221.321.321,0,0,1,.319-.338h0a.316.316,0,0,1,.319.319,2.552,2.552,0,0,1-.62,1.709,2.238,2.238,0,0,1-1.709.639Z" transform="translate(-1104.097 -1384.867)" fill="#fff"/>
          </g>
          <path id="Trazado_1044620" data-name="Trazado 1044620" d="M1075.569,1471.769h-31.437a.128.128,0,0,1-.131-.131v-11.306a.128.128,0,0,1,.131-.131h31.438a.128.128,0,0,1,.131.131v11.306A.128.128,0,0,1,1075.569,1471.769Zm-31.306-.282h31.174v-11.042h-31.174Z" transform="translate(-1036.845 -1426.791)" fill="#fff"/>
          <path id="Trazado_1044621" data-name="Trazado 1044621" d="M1061.451,1474.263h-8.62a.132.132,0,0,1,0-.263h8.62a.132.132,0,1,1,0,.263Z" transform="translate(-1043.911 -1437.999)" fill="#fff"/>
          <path id="Trazado_1044622" data-name="Trazado 1044622" d="M1133.923,1474.763h-14.292a.132.132,0,0,1,0-.263h14.292a.132.132,0,0,1,0,.263Z" transform="translate(-1098.166 -1438.405)" fill="#fff"/>
          <path id="Trazado_1044623" data-name="Trazado 1044623" d="M1075.4,1487.963h-21.672a.131.131,0,1,1,0-.263H1075.4a.131.131,0,1,1,0,.263Z" transform="translate(-1044.642 -1449.126)" fill="#fff"/>
          <path id="Trazado_1044624" data-name="Trazado 1044624" d="M1068.353,1504.363h-13.521a.132.132,0,0,1,0-.263h13.521a.132.132,0,0,1,0,.263Z" transform="translate(-1045.535 -1462.446)" fill="#fff"/>
        </g>
        <g id="Grupo_1219748" data-name="Grupo 1219748" transform="translate(359.062 410.182)">
          <path id="Trazado_1044625" data-name="Trazado 1044625" d="M1080.846,663.2a2.519,2.519,0,0,0,.507.244,1.355,1.355,0,0,0,.6.15,1.464,1.464,0,0,0,.638,0c.15-.019.3-.056.469-.075a1.887,1.887,0,0,0,.864-.488,1.961,1.961,0,0,0,.62-.732c.075-.188.15-.394.225-.582a1.6,1.6,0,0,0,0-.939,1.2,1.2,0,0,0-.188-.62,1.861,1.861,0,0,0-.563-.807,2.578,2.578,0,0,0-1.728-.657,2.659,2.659,0,0,0-1.409.394,4.554,4.554,0,0,0-.657.563,2.209,2.209,0,0,0-.563,1.9,1.591,1.591,0,0,0,.3.845,2.152,2.152,0,0,0,.883.808h0Z" transform="translate(-1079.631 -657.263)" fill="#fc008e"/>
          <path id="Trazado_1044626" data-name="Trazado 1044626" d="M1165.992,654.7a2.579,2.579,0,0,0,.864.263q-.676-.254.169.056c.6.056.657.075.188,0a.667.667,0,0,1,.188.038c.207.056.131.038-.207-.094-.15-.094-.282-.207-.432-.3a.263.263,0,0,0,.075.056c-.113-.15-.244-.282-.357-.432a3.033,3.033,0,0,0,.638.657,2.737,2.737,0,0,0,.826.376,2.125,2.125,0,0,0,1.465-3.944,1.691,1.691,0,0,0-.6-.244,1.232,1.232,0,0,0-.638-.038c.507.056.451.056-.188,0h-.188a2.767,2.767,0,0,0-1.484.413,2.441,2.441,0,0,0-.92,1.033,1.6,1.6,0,0,0,.582,2.141h0Z" transform="translate(-1149.133 -651.069)" fill="#fc008e"/>
          <path id="Trazado_1044627" data-name="Trazado 1044627" d="M1210.963,722.383a4.688,4.688,0,0,0,.883.62,4.031,4.031,0,0,0,1.146.338,3.369,3.369,0,0,0,1.559.056,1.878,1.878,0,0,0,.413-3.512,3.529,3.529,0,0,0-1.521-.338,6.32,6.32,0,0,0-1.033.019,5.124,5.124,0,0,0-1.24.432,1.514,1.514,0,0,0-.225,2.385h0Z" transform="translate(-1185.897 -706.677)" fill="#fc008e"/>
          <path id="Trazado_1044628" data-name="Trazado 1044628" d="M1215.658,796.409c.225.075-.188-.094-.037-.019l.282.113a3.056,3.056,0,0,0,.563.131c.113.019.3.131.394.113-.038,0-.319-.132-.113-.038a2.832,2.832,0,0,0,.563.188,1.583,1.583,0,0,0,1.822-1,1.54,1.54,0,0,0-.732-1.934,3.462,3.462,0,0,0-1.634-.282,2.549,2.549,0,0,0-.77.094,4.022,4.022,0,0,0-.695.357,1.265,1.265,0,0,0-.563,1.239,1.245,1.245,0,0,0,.939,1.014h0Z" transform="translate(-1189.354 -766.9)" fill="#fc008e"/>
          <path id="Trazado_1044629" data-name="Trazado 1044629" d="M1284.83,758.426l.244.169c-.15-.113-.3-.207-.451-.319a6.076,6.076,0,0,0,.751.526,2.991,2.991,0,0,0,1.5.338,2.517,2.517,0,0,0,1.728-.789,2.468,2.468,0,0,0,.62-1.408,2.405,2.405,0,0,0-1.859-2.629,2.973,2.973,0,0,0-1.408.038,4.233,4.233,0,0,0-.789.357c-.15.094-.3.206-.451.3a1.982,1.982,0,0,0-.92,1.728,1.812,1.812,0,0,0,.3.977,1.914,1.914,0,0,0,.751.695h0Z" transform="translate(-1245.454 -734.87)" fill="#fc008e"/>
          <path id="Trazado_1044630" data-name="Trazado 1044630" d="M1263.322,683.161c.075.056.131.113.206.169-.094-.094-.188-.169-.3-.263a2.146,2.146,0,0,0,.751.545,3.3,3.3,0,0,0,.62.132,1.559,1.559,0,0,0,1.2-.357,1.61,1.61,0,0,0,.582-1.07,1.665,1.665,0,0,0-1.427-1.8,2.086,2.086,0,0,0-1.127.131c-.131.056-.244.113-.376.169a1.372,1.372,0,0,0-.77,1.127,1.41,1.41,0,0,0,.6,1.239h0Z" transform="translate(-1228.304 -674.967)" fill="#fc008e"/>
        </g>
      </g>
    </g>
  </g>
</svg>
