<svg xmlns="http://www.w3.org/2000/svg" xmlns:xlink="http://www.w3.org/1999/xlink" width="103" height="103" viewBox="0 0 103 103">
  <defs>
    <filter id="Trazado_978624" x="0" y="0" width="103" height="103" filterUnits="userSpaceOnUse">
      <feOffset dy="3" input="SourceAlpha"/>
      <feGaussianBlur stdDeviation="3" result="blur"/>
      <feFlood flood-opacity="0.161"/>
      <feComposite operator="in" in2="blur"/>
      <feComposite in="SourceGraphic"/>
    </filter>
  </defs>
  <g id="Grupo_1219619" data-name="Grupo 1219619" transform="translate(-171 -5187)">
    <g id="Grupo_1203661" data-name="Grupo 1203661" transform="translate(0 2314)">
      <g id="Grupo_1176881" data-name="Grupo 1176881" transform="translate(0 7)">
        <g id="Grupo_1175148" data-name="Grupo 1175148" transform="translate(0 1580)">
          <g id="Grupo_1173798" data-name="Grupo 1173798" transform="translate(-3 -3520)">
            <g id="Grupo_1171925" data-name="Grupo 1171925" transform="translate(-22 -2246)">
              <g id="Grupo_1164524" data-name="Grupo 1164524" transform="translate(205 7058)">
                <g id="Grupo_1144123" data-name="Grupo 1144123">
                  <g transform="matrix(1, 0, 0, 1, -9, -6)" filter="url(#Trazado_978624)">
                    <g id="Trazado_978624-2" data-name="Trazado 978624" transform="translate(9 6)" fill="#e6fdfd">
                      <path d="M 42.5 83.5 C 36.96437835693359 83.5 31.59512901306152 82.41617584228516 26.54141235351562 80.27863311767578 C 21.65934181213379 78.21369171142578 17.27447128295898 75.25723266601562 13.50862312316895 71.49137878417969 C 9.742764472961426 67.72553253173828 6.786305904388428 63.34066009521484 4.721364498138428 58.45858764648438 C 2.583823442459106 53.40486907958984 1.5 48.03562164306641 1.5 42.5 C 1.5 36.96437835693359 2.583823442459106 31.59512901306152 4.721364498138428 26.54141235351562 C 6.786305904388428 21.65934181213379 9.742764472961426 17.27447128295898 13.50862312316895 13.50862312316895 C 17.27447128295898 9.742764472961426 21.65934181213379 6.786305904388428 26.54141235351562 4.721364498138428 C 31.59512901306152 2.583823442459106 36.96437835693359 1.5 42.5 1.5 C 48.03562164306641 1.5 53.40486907958984 2.583823442459106 58.45858764648438 4.721364498138428 C 63.34066009521484 6.786305904388428 67.72553253173828 9.742764472961426 71.49137878417969 13.50862312316895 C 75.25723266601562 17.27447128295898 78.21369171142578 21.65934181213379 80.27863311767578 26.54141235351562 C 82.41617584228516 31.59512901306152 83.5 36.96437835693359 83.5 42.5 C 83.5 48.03562164306641 82.41617584228516 53.40486907958984 80.27863311767578 58.45858764648438 C 78.21369171142578 63.34066009521484 75.25723266601562 67.72553253173828 71.49137878417969 71.49137878417969 C 67.72553253173828 75.25723266601562 63.34066009521484 78.21369171142578 58.45858764648438 80.27863311767578 C 53.40486907958984 82.41617584228516 48.03562164306641 83.5 42.5 83.5 Z" stroke="none"/>
                      <path d="M 42.5 3 C 37.16621398925781 3 31.99356079101562 4.043960571289062 27.125732421875 6.102882385253906 C 22.42246627807617 8.092185974121094 18.19785308837891 10.94070434570312 14.56928253173828 14.56928253173828 C 10.94070434570312 18.19785308837891 8.092185974121094 22.42246627807617 6.102882385253906 27.125732421875 C 4.043960571289062 31.99356079101562 3 37.16621398925781 3 42.5 C 3 47.83378601074219 4.043960571289062 53.00643920898438 6.102882385253906 57.87425231933594 C 8.092185974121094 62.57753372192383 10.94070434570312 66.80213165283203 14.56928253173828 70.43071746826172 C 18.19786834716797 74.05929565429688 22.42246627807617 76.90781402587891 27.125732421875 78.89711761474609 C 31.99356079101562 80.95603942871094 37.16621398925781 82 42.5 82 C 47.83378601074219 82 53.00642395019531 80.95603942871094 57.87425231933594 78.89711761474609 C 62.57753372192383 76.90781402587891 66.80213165283203 74.05929565429688 70.43071746826172 70.43071746826172 C 74.05929565429688 66.80213165283203 76.90781402587891 62.57753372192383 78.89711761474609 57.87425231933594 C 80.95603942871094 53.00642395019531 82 47.83378601074219 82 42.5 C 82 37.16621398925781 80.95603942871094 31.99356079101562 78.89711761474609 27.125732421875 C 76.90781402587891 22.42246627807617 74.05929565429688 18.19786834716797 70.43071746826172 14.56928253173828 C 66.80213165283203 10.94070434570312 62.57753372192383 8.092185974121094 57.87425231933594 6.102882385253906 C 53.00643920898438 4.043960571289062 47.83378601074219 3 42.5 3 M 42.5 0 C 65.97209167480469 0 85 19.02789306640625 85 42.5 C 85 65.97209167480469 65.97209167480469 85 42.5 85 C 19.02789306640625 85 0 65.97209167480469 0 42.5 C 0 19.02789306640625 19.02789306640625 0 42.5 0 Z" stroke="none" fill="#1bf5f5"/>
                    </g>
                  </g>
                </g>
              </g>
            </g>
          </g>
        </g>
      </g>
    </g>
    <g id="nuevas-tecnologias" transform="translate(166.102 5206)">
      <g id="Grupo_1219617" data-name="Grupo 1219617" transform="translate(31.762 0.863)">
        <path id="Trazado_1044080" data-name="Trazado 1044080" d="M190.753,279.242V288.3H185.71V277.6Z" transform="translate(-168.753 -246.508)" fill="#ffb09e"/>
        <path id="Trazado_1044081" data-name="Trazado 1044081" d="M229.52,291.87h5.043v9.058H229.52Z" transform="translate(-207.52 -259.136)" fill="#dff6fd"/>
        <path id="Trazado_1044082" data-name="Trazado 1044082" d="M89.863,160H85.415a1.98,1.98,0,0,1-1.98-1.98v-4.68a1.98,1.98,0,0,1,1.98-1.98h3.038Z" transform="translate(-78.251 -134.8)" fill="#ffb09e"/>
        <path id="Trazado_1044083" data-name="Trazado 1044083" d="M138.829,86.89v23.6h-3.257a8.541,8.541,0,0,1-8.541-8.541V86.89Z" transform="translate(-116.829 -77.751)" fill="#ffcebf"/>
        <path id="Trazado_1044084" data-name="Trazado 1044084" d="M199.521,86.89h3.453v23.6h-3.453Z" transform="translate(-180.974 -77.751)" fill="#ffb09e"/>
        <path id="Trazado_1044085" data-name="Trazado 1044085" d="M100.229,11.315V19.2s-3.019,2.559-7.408,0c0,0-1.351,4.862-4.389,4.862H85.393s-3.3-5.5-1.388-10.282c1.5-3.76,6.72-4.321,8.081-3.8C94.377,7.9,95.8,7.5,100.229,7.5Z" transform="translate(-78.229 -7.5)" fill="#c68d7a"/>
        <path id="Trazado_1044086" data-name="Trazado 1044086" d="M188.851,7.5V19.2a6.05,6.05,0,0,1-5.29.9l.035-.01a2.521,2.521,0,0,0,1.8-2.426v-10a26.981,26.981,0,0,1,3.453-.165Z" transform="translate(-166.852 -7.5)" fill="#bc7c63"/>
        <path id="Trazado_1044087" data-name="Trazado 1044087" d="M332.01,133.15h3.038a1.98,1.98,0,0,0,1.98-1.98v-8.229a1.98,1.98,0,0,0-1.98-1.98H332.01Z" transform="translate(-298.213 -107.901)" fill="#dff6fd"/>
        <path id="Trazado_1044088" data-name="Trazado 1044088" d="M60.4,370.56v15.418h-22l1.6-6.292a10.058,10.058,0,0,1,7.5-7.327l7.856-1.8Z" transform="translate(-38.4 -328.768)" fill="#dff6fd"/>
        <path id="Trazado_1044089" data-name="Trazado 1044089" d="M199.521,370.56h3.453v15.418h-3.453Z" transform="translate(-180.974 -328.768)" fill="#c8effe"/>
        <path id="Trazado_1044090" data-name="Trazado 1044090" d="M238.2,83.1H229.52V55.943H238.2a3.116,3.116,0,0,1,3.116,3.116V79.984A3.116,3.116,0,0,1,238.2,83.1Z" transform="translate(-207.52 -50.367)" fill="#8ac9fe"/>
        <path id="Trazado_1044091" data-name="Trazado 1044091" d="M281.51,59.057V79.982a3.116,3.116,0,0,1-3.116,3.116h-3.453a3.116,3.116,0,0,0,3.116-3.116V59.057a3.116,3.116,0,0,0-3.116-3.117h3.453A3.116,3.116,0,0,1,281.51,59.057Z" transform="translate(-247.713 -50.364)" fill="#60b7ff"/>
        <path id="Trazado_1044092" data-name="Trazado 1044092" d="M235.01,215.664h-5.49v-5.247h5.49a1.363,1.363,0,0,1,1.363,1.363V214.3A1.363,1.363,0,0,1,235.01,215.664Z" transform="translate(-207.52 -187.059)" fill="#dff6fd"/>
        <path id="Trazado_1044093" data-name="Trazado 1044093" d="M236.372,13.076H229.52V7.5h4.844a2.008,2.008,0,0,1,2.008,2.008v3.568Z" transform="translate(-207.52 -7.5)" fill="#dff6fd"/>
        <path id="Trazado_1044094" data-name="Trazado 1044094" d="M229.52,370.56h15.4v15.418h-15.4Z" transform="translate(-207.52 -328.768)" fill="#8ac9fe"/>
        <path id="Trazado_1044095" data-name="Trazado 1044095" d="M333.3,370.56h3.453v15.418H333.3Z" transform="translate(-299.355 -328.768)" fill="#60b7ff"/>
        <path id="Trazado_1044096" data-name="Trazado 1044096" d="M363.3,370.56a8.261,8.261,0,0,1,7.417,4.622l2.443,4.98-5.8,3.943L363.3,377.9V370.56Z" transform="translate(-325.904 -328.768)" fill="#dff6fd"/>
        <path id="Trazado_1044097" data-name="Trazado 1044097" d="M395.026,302.824h-3.6a1.65,1.65,0,0,0-1.64,1.47l-1.417,12.9a8.828,8.828,0,0,0,.188,3.013l.943,3.955a2.438,2.438,0,0,0,2.372,1.872h2.7a2.438,2.438,0,0,0,2.372-1.872l.943-3.955a8.831,8.831,0,0,0,.188-3.013l-1.417-12.9A1.65,1.65,0,0,0,395.026,302.824Z" transform="translate(-348.04 -268.829)" fill="#8ac9fe"/>
        <path id="Trazado_1044098" data-name="Trazado 1044098" d="M422.355,320.207l-.944,3.955a2.438,2.438,0,0,1-2.371,1.873h-2.705a2.367,2.367,0,0,1-.374-.029,2.437,2.437,0,0,0,2-1.844l.944-3.955a8.839,8.839,0,0,0,.188-3.012l-1.417-12.9a1.65,1.65,0,0,0-1.64-1.471h3.453a1.65,1.65,0,0,1,1.64,1.471l1.417,12.9A8.837,8.837,0,0,1,422.355,320.207Z" transform="translate(-372.5 -268.826)" fill="#60b7ff"/>
        <path id="Trazado_1044099" data-name="Trazado 1044099" d="M405.7,232.7h-3.537a1.748,1.748,0,0,1-1.748-1.748v-4.094h7.032v4.094A1.748,1.748,0,0,1,405.7,232.7Z" transform="translate(-358.743 -201.604)" fill="#8ac9fe"/>
        <g id="Grupo_1219616" data-name="Grupo 1219616" transform="translate(41.671 20.13)">
          <path id="Trazado_1044100" data-name="Trazado 1044100" d="M400.414,187.5v-4.486a.633.633,0,0,1,1.2-.277l2.313,4.762Z" transform="translate(-400.414 -182.375)" fill="#dff6fd"/>
          <path id="Trazado_1044101" data-name="Trazado 1044101" d="M434.476,187.5v-4.486a.633.633,0,0,0-1.2-.277L430.96,187.5Z" transform="translate(-427.444 -182.375)" fill="#dff6fd"/>
          <path id="Trazado_1044102" data-name="Trazado 1044102" d="M415.6,277.6h3.537v2.9H415.6Z" transform="translate(-413.848 -266.638)" fill="#dff6fd"/>
        </g>
        <path id="Trazado_1044103" data-name="Trazado 1044103" d="M160.275,339.656l-3.309,4.315,3.052,3.242a1.272,1.272,0,0,0,1.89-.042l3.41-3.958Z" transform="translate(-143.318 -301.422)" fill="#8ac9fe"/>
        <path id="Trazado_1044104" data-name="Trazado 1044104" d="M229.52,437.53h7.709v7.709H229.52Z" transform="translate(-207.52 -388.03)" fill="#fd8087"/>
      </g>
      <g id="Grupo_1219618" data-name="Grupo 1219618" transform="translate(30.898 0)">
        <path id="Trazado_1044105" data-name="Trazado 1044105" d="M170.322,160.626a.863.863,0,0,0-.863.863v2.443a.863.863,0,1,0,1.727,0v-2.443A.863.863,0,0,0,170.322,160.626Z" transform="translate(-153.509 -142.136)"/>
        <path id="Trazado_1044106" data-name="Trazado 1044106" d="M275.443,160.626a.863.863,0,0,0-.863.863v1.292a.863.863,0,0,0,1.727,0v-1.292A.863.863,0,0,0,275.443,160.626Z" transform="translate(-246.53 -142.136)"/>
        <path id="Trazado_1044107" data-name="Trazado 1044107" d="M35.244,403.5a10.937,10.937,0,0,0-2.72,4.888l-1.6,6.292a.863.863,0,1,0,1.674.425l1.6-6.292a9.208,9.208,0,0,1,2.29-4.115.863.863,0,0,0-1.243-1.2Z" transform="translate(-30.898 -356.817)"/>
        <path id="Trazado_1044108" data-name="Trazado 1044108" d="M122.481,49.149v-.011l-1.417-12.9a2.509,2.509,0,0,0-1.665-2.1V32.67a2.615,2.615,0,0,0,1.748-2.464V21.627a1.5,1.5,0,0,0-2.843-.654l-1.536,3.164-1.536-3.164a1.5,1.5,0,0,0-2.843.654v8.579a2.615,2.615,0,0,0,1.748,2.464v1.468a2.508,2.508,0,0,0-1.665,2.1l-.043.388a.863.863,0,0,0,1.716.189l.043-.388a.786.786,0,0,1,.782-.7h3.6a.786.786,0,0,1,.782.7l1.312,11.947h-7.785l.825-7.514a.863.863,0,1,0-1.716-.188l-.173,1.577a9.179,9.179,0,0,0-2.831-.452H99.484V34.46h2.775a3.984,3.984,0,0,0,3.98-3.98v-3.5h2.175a2.847,2.847,0,0,0,2.844-2.843V15.9a2.847,2.847,0,0,0-2.844-2.843h-2.175v-3.5a3.984,3.984,0,0,0-3.98-3.98h-.966v-2.7A2.875,2.875,0,0,0,98.422,0H93.578C89.136,0,87.444.456,85.2,2.39a9.386,9.386,0,0,0-6.138,1.428.863.863,0,0,0,.948,1.443,7.384,7.384,0,0,1,5.113-1.116.864.864,0,0,0,.887-.167c1.943-1.76,3.118-2.193,6.7-2.246V12.113c-.794.487-3.045,1.49-6.11-.3a.863.863,0,0,0-1.267.515,10.489,10.489,0,0,1-.967,2.223c-.54.915-1.429,2.006-2.591,2.006H79.256c-.652-1.27-2.405-5.2-1.243-8.7a.863.863,0,1,0-1.639-.543c-1.248,3.769.239,7.732,1.1,9.546A2.846,2.846,0,0,0,75.9,19.4v4.68a2.847,2.847,0,0,0,2.843,2.844H81.1a9.435,9.435,0,0,0,6.567,7.152V38.8L84.73,42.641l-4.245.972a10.969,10.969,0,0,0-1.74.555.863.863,0,1,0,.661,1.6,9.239,9.239,0,0,1,1.465-.467l4.065-.931,2.713,2.882a2.139,2.139,0,0,0,1.555.672h.047a2.139,2.139,0,0,0,1.571-.741l1.892-2.2V58.073a.863.863,0,1,0,1.727,0V51.227h5.982v6.846a.863.863,0,0,0,1.727,0V43.518h5.964V58.073a.863.863,0,0,0,1.727,0V52.888l2.407,3.676a3.288,3.288,0,0,0,3.165,2.371h2.7A3.291,3.291,0,0,0,121.33,56.4l.943-3.955a9.665,9.665,0,0,0,.208-3.3Zm-3.062-26.522V25.25h-1.274Zm-5.306,0,1.274,2.623h-1.274Zm0,4.349h5.306v3.23a.885.885,0,0,1-.884.884H115a.885.885,0,0,1-.884-.884v-3.23Zm1.748,7.018V32.818h1.81v1.177Zm-18.1,7.8H94.441V34.46h3.316Zm1.31-16.707a.5.5,0,0,1,.5.5v2.522a.5.5,0,0,1-.5.5h-1.2v-3.52h1.2ZM96.141,28.6h-1.7v-3.52h1.7Zm12.273-13.818A1.118,1.118,0,0,1,109.53,15.9v8.229a1.118,1.118,0,0,1-1.117,1.117h-2.175V14.787Zm-3.9-5.231V30.481a2.256,2.256,0,0,1-2.253,2.253H94.441v-2.4h4.626a2.228,2.228,0,0,0,2.226-2.226V25.584a2.228,2.228,0,0,0-2.226-2.226H94.441V7.3h7.818a2.256,2.256,0,0,1,2.253,2.253ZM99.567,2.872v2.7H94.441V1.727h3.981a1.146,1.146,0,0,1,1.145,1.145ZM80.917,25.2H78.742a1.118,1.118,0,0,1-1.117-1.117V19.4a1.118,1.118,0,0,1,1.117-1.117h2.175Zm1.727-.143V18.182c2.181-.53,3.451-2.985,4.013-4.395a8.063,8.063,0,0,0,3.388.784,6.945,6.945,0,0,0,2.67-.531V25.981H90.772a.863.863,0,1,0,0,1.727h1.942v5.026H90.322a7.686,7.686,0,0,1-7.678-7.678Zm7.678,9.4h2.393v6.529L89.4,38.65V34.414c.3.03.612.046.923.046Zm-.807,11.589a.409.409,0,0,1-.607.013l-2.549-2.707,2.357-3.074L92.3,42.812ZM100.424,49.5H94.441V43.518h5.982Zm9.418-5.933a7.3,7.3,0,0,1,1.774.436l-.564,5.134v.011a9.668,9.668,0,0,0,.056,2.52l-1.266-1.933Zm10.752,8.477L119.65,56a1.57,1.57,0,0,1-1.532,1.21h-2.7A1.57,1.57,0,0,1,113.881,56l-.943-3.955a7.939,7.939,0,0,1-.216-1.949h8.087A7.939,7.939,0,0,1,120.593,52.045Z" transform="translate(-70.715 0)"/>
        <path id="Trazado_1044109" data-name="Trazado 1044109" d="M98.6,450.116a.863.863,0,0,0-.863.863v5.4a.863.863,0,0,0,1.727,0v-5.4A.863.863,0,0,0,98.6,450.116Z" transform="translate(-90.039 -398.303)"/>
      </g>
    </g>
  </g>
</svg>
