<svg xmlns="http://www.w3.org/2000/svg" xmlns:xlink="http://www.w3.org/1999/xlink" width="113" height="113" viewBox="0 0 113 113">
  <defs>
    <filter id="Trazado_982547" x="0" y="0" width="113" height="113" filterUnits="userSpaceOnUse">
      <feOffset dy="3" input="SourceAlpha"/>
      <feGaussianBlur stdDeviation="3" result="blur"/>
      <feFlood flood-opacity="0.161"/>
      <feComposite operator="in" in2="blur"/>
      <feComposite in="SourceGraphic"/>
    </filter>
  </defs>
  <g id="Grupo_1219818" data-name="Grupo 1219818" transform="translate(-899 -6490.787)">
    <g id="Grupo_1203674" data-name="Grupo 1203674" transform="translate(-2 589.5)">
      <g id="Grupo_1202434" data-name="Grupo 1202434" transform="translate(-0.56 1255.773)">
        <g id="Grupo_1202053" data-name="Grupo 1202053" transform="translate(0 3240.511)">
          <g id="Grupo_1177898" data-name="Grupo 1177898" transform="translate(910.561 1411.003)">
            <g id="Grupo_1172010" data-name="Grupo 1172010" transform="translate(0)">
              <g id="Grupo_1171046" data-name="Grupo 1171046">
                <g id="Grupo_1148525" data-name="Grupo 1148525">
                  <g transform="matrix(1, 0, 0, 1, -9, -6)" filter="url(#Trazado_982547)">
                    <g id="Trazado_982547-2" data-name="Trazado 982547" transform="translate(9 6)" fill="#f3e6fd">
                      <path d="M 47.5 93.5 C 41.28937149047852 93.5 35.26533508300781 92.28397369384766 29.59518623352051 89.88570404052734 C 24.11771965026855 87.56893157958984 19.19813346862793 84.25196075439453 14.97309303283691 80.02691650390625 C 10.74804019927979 75.80186462402344 7.431066513061523 70.88229370117188 5.114293098449707 65.40481567382812 C 2.716026782989502 59.73468017578125 1.5 53.71062850952148 1.5 47.5 C 1.5 41.28937149047852 2.716026782989502 35.26533508300781 5.114293098449707 29.59518623352051 C 7.431066513061523 24.11771965026855 10.74804019927979 19.19813346862793 14.97309303283691 14.97309303283691 C 19.19813346862793 10.74804019927979 24.11771965026855 7.431066513061523 29.59518623352051 5.114293098449707 C 35.26533508300781 2.716026782989502 41.28937149047852 1.5 47.5 1.5 C 53.71062850952148 1.5 59.73468017578125 2.716026782989502 65.40481567382812 5.114293098449707 C 70.88229370117188 7.431066513061523 75.80186462402344 10.74804019927979 80.02691650390625 14.97309303283691 C 84.25196075439453 19.19813346862793 87.56893157958984 24.11771965026855 89.88570404052734 29.59518623352051 C 92.28397369384766 35.26533508300781 93.5 41.28937149047852 93.5 47.5 C 93.5 53.71062850952148 92.28397369384766 59.73468017578125 89.88570404052734 65.40481567382812 C 87.56893157958984 70.88229370117188 84.25196075439453 75.80186462402344 80.02691650390625 80.02691650390625 C 75.80186462402344 84.25196075439453 70.88229370117188 87.56893157958984 65.40481567382812 89.88570404052734 C 59.73468017578125 92.28397369384766 53.71062850952148 93.5 47.5 93.5 Z" stroke="none"/>
                      <path d="M 47.5 3 C 41.49121475219727 3 35.66376876831055 4.176155090332031 30.17950439453125 6.495796203613281 C 24.88084411621094 8.736953735351562 20.12152099609375 11.94598388671875 16.03375244140625 16.03375244140625 C 11.94598388671875 20.12152099609375 8.736953735351562 24.88084411621094 6.495796203613281 30.17950439453125 C 4.176155090332031 35.66376876831055 3 41.49121475219727 3 47.5 C 3 53.50878524780273 4.176155090332031 59.33623123168945 6.495796203613281 64.82049560546875 C 8.736953735351562 70.11915588378906 11.94598388671875 74.87847900390625 16.03375244140625 78.96624755859375 C 20.12152099609375 83.05401611328125 24.88084411621094 86.26304626464844 30.17950439453125 88.50419616699219 C 35.66376876831055 90.82384490966797 41.49121475219727 92 47.5 92 C 53.50878524780273 92 59.33623123168945 90.82384490966797 64.82049560546875 88.50419616699219 C 70.11915588378906 86.26304626464844 74.87847900390625 83.05401611328125 78.96624755859375 78.96624755859375 C 83.05401611328125 74.87847900390625 86.26304626464844 70.11915588378906 88.50419616699219 64.82049560546875 C 90.82384490966797 59.33623123168945 92 53.50878524780273 92 47.5 C 92 41.49121475219727 90.82384490966797 35.66376876831055 88.50419616699219 30.17950439453125 C 86.26304626464844 24.88084411621094 83.05401611328125 20.12152099609375 78.96624755859375 16.03375244140625 C 74.87847900390625 11.94598388671875 70.11915588378906 8.736953735351562 64.82049560546875 6.495796203613281 C 59.33623123168945 4.176155090332031 53.50878524780273 3 47.5 3 M 47.5 0 C 73.7335205078125 0 95 21.2664794921875 95 47.5 C 95 73.7335205078125 73.7335205078125 95 47.5 95 C 21.2664794921875 95 0 73.7335205078125 0 47.5 C 0 21.2664794921875 21.2664794921875 0 47.5 0 Z" stroke="none" fill="#951bf1"/>
                    </g>
                  </g>
                </g>
              </g>
            </g>
          </g>
        </g>
      </g>
    </g>
    <g id="Filled_outline" data-name="Filled outline" transform="translate(911.004 6499.691)">
      <path id="Trazado_1044152" data-name="Trazado 1044152" d="M83.643,24,56,51.643l3.167,3.167L73.158,68.8,100.8,41.158V24Zm11.439,7.626a1.9,1.9,0,1,1,1.35-.557A1.906,1.906,0,0,1,95.082,31.626Z" transform="translate(-35.238 -7.047)" fill="#348fd9"/>
      <path id="Trazado_1044153" data-name="Trazado 1044153" d="M121.557,24q-1.076,2.075-2.248,4a1.906,1.906,0,1,1-2.061,3.166C108.209,44.156,95.737,51.373,82.58,54.811L96.571,68.8l27.643-27.643V24Z" transform="translate(-58.651 -7.047)" fill="#3086cd"/>
      <path id="Trazado_1044154" data-name="Trazado 1044154" d="M254.312,95.626a2.069,2.069,0,0,0-1.277-3.792,2.135,2.135,0,0,0-3.342-2.343,2.177,2.177,0,0,0-4.132,0,2.135,2.135,0,0,0-3.342,2.343,2.069,2.069,0,0,0-1.276,3.792,2.069,2.069,0,0,0,1.277,3.792,2.135,2.135,0,0,0,3.342,2.343,2.177,2.177,0,0,0,4.132,0,2.135,2.135,0,0,0,3.342-2.343A2.069,2.069,0,0,0,254.312,95.626Z" transform="translate(-197.315 -63.421)" fill="#ffb531"/>
      <path id="Trazado_1044156" data-name="Trazado 1044156" d="M416,344h8.579v17.158H416Z" transform="translate(-352.343 -288.918)" fill="#4d5e78"/>
      <path id="Trazado_1044157" data-name="Trazado 1044157" d="M70.705,339.813v14.3H41.049a7.611,7.611,0,0,1-3.41-.805l-11.7-5.848a3.518,3.518,0,0,1,1.6-6.664l.41,0a3.516,3.516,0,0,1,1.538.368L40.2,346.485h3.813a3.813,3.813,0,0,1,0-7.626h8.261l1.887-1.062a14,14,0,0,1,14.926.755c.234.164.461.336.685.515Z" transform="translate(-7.048 -281.871)" fill="#fec9a3"/>
      <path id="Trazado_1044158" data-name="Trazado 1044158" d="M228.67,358.689v14.3H203.33a48.85,48.85,0,0,0,23.725-15.558c.234.164.461.336.685.515Z" transform="translate(-165.013 -300.748)" fill="#fec093"/>
      <path id="Trazado_1044159" data-name="Trazado 1044159" d="M59.718,56.709l1.348-1.348L50.3,44.6l26.69-26.69H92.8v3.813h-2.07a2.86,2.86,0,1,0,0,1.906H92.8V33.716L74.016,52.5l1.348,1.348L94.429,34.785a.953.953,0,0,0,.279-.674V29.345h2.86a3.813,3.813,0,1,0,0-7.626h-2.86V16.953A.953.953,0,0,0,93.754,16H76.6a.953.953,0,0,0-.674.279L48.279,43.923a.953.953,0,0,0,0,1.348ZM87.082,22.673a.954.954,0,0,1,.953-.953v1.906A.954.954,0,0,1,87.082,22.673Zm10.485.953a1.906,1.906,0,0,1,0,3.813h-2.86V23.626Z" transform="translate(-28.191)"/>
      <path id="Trazado_1044160" data-name="Trazado 1044160" d="M232.107,91.183a3.038,3.038,0,0,0,1.945,1.977,2.957,2.957,0,0,0,1.22,2.31,3.139,3.139,0,0,0,2.8.5,3.18,3.18,0,0,0,4.952,0,3.139,3.139,0,0,0,2.8-.5,2.957,2.957,0,0,0,1.22-2.31,3.038,3.038,0,0,0,1.945-1.977,2.916,2.916,0,0,0-.4-2.6,2.916,2.916,0,0,0,.4-2.6A3.038,3.038,0,0,0,247.038,84a2.957,2.957,0,0,0-1.22-2.31,3.139,3.139,0,0,0-2.8-.5,3.18,3.18,0,0,0-4.952,0,3.139,3.139,0,0,0-2.8.5,2.957,2.957,0,0,0-1.22,2.31,3.038,3.038,0,0,0-1.945,1.977,2.916,2.916,0,0,0,.4,2.6,2.916,2.916,0,0,0-.4,2.6Zm2.279-3.4a1.052,1.052,0,0,1-.46-1.235,1.155,1.155,0,0,1,1.186-.808.953.953,0,0,0,.92-1.283,1.057,1.057,0,0,1,.383-1.244,1.216,1.216,0,0,1,1.5,0,.953.953,0,0,0,1.48-.487,1.224,1.224,0,0,1,2.308,0,.953.953,0,0,0,1.48.487,1.215,1.215,0,0,1,1.5,0,1.057,1.057,0,0,1,.383,1.244.953.953,0,0,0,.92,1.283,1.158,1.158,0,0,1,1.186.808,1.052,1.052,0,0,1-.46,1.236.953.953,0,0,0,0,1.59,1.052,1.052,0,0,1,.46,1.235,1.156,1.156,0,0,1-1.186.808.953.953,0,0,0-.92,1.283,1.057,1.057,0,0,1-.383,1.244,1.216,1.216,0,0,1-1.5,0,.953.953,0,0,0-1.48.487,1.224,1.224,0,0,1-2.308,0,.953.953,0,0,0-1.48-.487,1.216,1.216,0,0,1-1.5,0,1.057,1.057,0,0,1-.383-1.244.953.953,0,0,0-.92-1.283,1.154,1.154,0,0,1-1.186-.808,1.052,1.052,0,0,1,.46-1.235.953.953,0,0,0,0-1.59Z" transform="translate(-190.233 -56.374)"/>
      <path id="Trazado_1044161" data-name="Trazado 1044161" d="M0,0H8.088V1.906H0Z" transform="translate(24.85 44.874) rotate(-45)"/>
      <path id="Trazado_1044162" data-name="Trazado 1044162" d="M0,0H8.088V1.906H0Z" transform="translate(27.709 47.734) rotate(-45)"/>
      <path id="Trazado_1044163" data-name="Trazado 1044163" d="M0,0H8.088V1.906H0Z" transform="translate(30.568 50.593) rotate(-45)"/>
      <path id="Trazado_1044164" data-name="Trazado 1044164" d="M0,0H8.088V1.906H0Z" transform="translate(33.427 53.453) rotate(-45)"/>
      <path id="Trazado_1044165" data-name="Trazado 1044165" d="M0,0H4.044V1.906H0Z" transform="translate(39.146 53.454) rotate(-45)"/>
      <path id="Trazado_1044166" data-name="Trazado 1044166" d="M0,0H1.906V3.286H0Z" transform="translate(36.288 35.739) rotate(-45)"/>
      <path id="Trazado_1044167" data-name="Trazado 1044167" d="M0,0H1.906V8.425H0Z" transform="translate(39.862 39.314) rotate(-45)"/>
      <path id="Trazado_1044169" data-name="Trazado 1044169" d="M0,0H10.167V1.906H0Z" transform="translate(54.397 49.643) rotate(-45)"/>
      <path id="Trazado_1044170" data-name="Trazado 1044170" d="M0,0H2.7V1.906H0Z" transform="translate(62.975 41.066) rotate(-45)"/>
      <path id="Trazado_1044171" data-name="Trazado 1044171" d="M72.236,328.953H63.657a.953.953,0,0,0-.953.953v.9a14.951,14.951,0,0,0-16.056-.889l-1.67.939H36.967a4.764,4.764,0,0,0-3.934,7.455l-10.167-5.051a4.5,4.5,0,0,0-1.955-.467l-.41,0a4.471,4.471,0,0,0-2.034,8.47l11.7,5.849a8.621,8.621,0,0,0,3.837.906H72.236a.953.953,0,0,0,.953-.953V329.906A.953.953,0,0,0,72.236,328.953ZM31.017,345.406l-11.7-5.848a2.565,2.565,0,0,1,1.146-4.859h.02l.41,0a2.582,2.582,0,0,1,1.121.268l10.712,5.322a.955.955,0,0,0,.424.1H45.546a.953.953,0,0,0,0-1.906H36.967a2.86,2.86,0,1,1,0-5.719h8.261a.953.953,0,0,0,.467-.122l1.887-1.062a13.048,13.048,0,0,1,14.548,1.184l.573.458v12.887H34A6.706,6.706,0,0,1,31.017,345.406Zm40.266.7H64.61V330.859h6.673Z" transform="translate(0 -274.824)"/>
      <path id="Trazado_1044172" data-name="Trazado 1044172" d="M441.43,434.86a1.43,1.43,0,1,0-1.43-1.43A1.43,1.43,0,0,0,441.43,434.86Z" transform="translate(-373.483 -366.432)"/>
      <path id="Trazado_1044173" data-name="Trazado 1044173" d="M0,0H1.906V10.785H0Z" transform="translate(34.381 39.552) rotate(-45)"/>
    </g>
  </g>
</svg>
