<svg xmlns="http://www.w3.org/2000/svg" xmlns:xlink="http://www.w3.org/1999/xlink" width="97.654" height="97.654" viewBox="0 0 97.654 97.654">
  <defs>
    <filter id="Trazado_982547" x="0" y="0" width="97.654" height="97.654" filterUnits="userSpaceOnUse">
      <feOffset dy="3" input="SourceAlpha"/>
      <feGaussianBlur stdDeviation="3" result="blur"/>
      <feFlood flood-opacity="0.161"/>
      <feComposite operator="in" in2="blur"/>
      <feComposite in="SourceGraphic"/>
    </filter>
  </defs>
  <g id="Grupo_1219661" data-name="Grupo 1219661" transform="translate(9 6)">
    <g id="Grupo_1203600" data-name="Grupo 1203600" transform="translate(0)">
      <g id="Grupo_1202430" data-name="Grupo 1202430" transform="translate(0 0)">
        <g id="Grupo_1177900" data-name="Grupo 1177900" transform="translate(0 0)">
          <g id="Grupo_1172010" data-name="Grupo 1172010" transform="translate(0)">
            <g id="Grupo_1171046" data-name="Grupo 1171046">
              <g id="Grupo_1148525" data-name="Grupo 1148525">
                <g transform="matrix(1, 0, 0, 1, -9, -6)" filter="url(#Trazado_982547)">
                  <g id="Trazado_982547-2" data-name="Trazado 982547" transform="translate(9 6)" fill="#e5f0fc">
                    <path d="M 39.82720184326172 78.15440368652344 C 34.65240097045898 78.15440368652344 29.6331901550293 77.14124298095703 24.90899085998535 75.14308166503906 C 20.34519004821777 73.21276092529297 16.24616813659668 70.44901275634766 12.72577953338623 66.92862701416016 C 9.205390930175781 63.40823364257812 6.441646099090576 59.30921173095703 4.511323928833008 54.74541473388672 C 2.513157367706299 50.02121353149414 1.500001788139343 45.00200271606445 1.500001788139343 39.82720184326172 C 1.500001788139343 34.65240097045898 2.513157367706299 29.6331901550293 4.511323928833008 24.90899085998535 C 6.441646099090576 20.34519004821777 9.205390930175781 16.24616813659668 12.72577953338623 12.72577953338623 C 16.24616813659668 9.205390930175781 20.34519004821777 6.441646099090576 24.90899085998535 4.511323928833008 C 29.6331901550293 2.513157367706299 34.65240097045898 1.500001788139343 39.82720184326172 1.500001788139343 C 45.00200271606445 1.500001788139343 50.02121353149414 2.513157367706299 54.74541473388672 4.511323928833008 C 59.30921173095703 6.441646099090576 63.40823364257812 9.205390930175781 66.92862701416016 12.72577953338623 C 70.44901275634766 16.24616813659668 73.21276092529297 20.34519004821777 75.14308166503906 24.90899085998535 C 77.14124298095703 29.6331901550293 78.15440368652344 34.65240097045898 78.15440368652344 39.82720184326172 C 78.15440368652344 45.00200271606445 77.14124298095703 50.02121353149414 75.14308166503906 54.74541473388672 C 73.21276092529297 59.30921173095703 70.44901275634766 63.40823364257812 66.92862701416016 66.92862701416016 C 63.40823364257812 70.44901275634766 59.30921173095703 73.21276092529297 54.74541473388672 75.14308166503906 C 50.02121353149414 77.14124298095703 45.00200271606445 78.15440368652344 39.82720184326172 78.15440368652344 Z" stroke="none"/>
                    <path d="M 39.82720184326172 3 C 34.85424041748047 3 30.0316162109375 3.973289489746094 25.49331283569336 5.892837524414062 C 21.10831451416016 7.747528076171875 17.16955184936523 10.40332794189453 13.78643798828125 13.78643798828125 C 10.40332794189453 17.16955184936523 7.747528076171875 21.10831451416016 5.892837524414062 25.49331283569336 C 3.973289489746094 30.0316162109375 3 34.85424041748047 3 39.82720184326172 C 3 44.80016326904297 3.973289489746094 49.62278747558594 5.892837524414062 54.16108703613281 C 7.747528076171875 58.54608917236328 10.40332794189453 62.4848518371582 13.78643798828125 65.86796569824219 C 17.16955184936523 69.25107574462891 21.10831451416016 71.90687561035156 25.49331283569336 73.76156616210938 C 30.0316162109375 75.68111419677734 34.85424041748047 76.65440368652344 39.82720184326172 76.65440368652344 C 44.80016326904297 76.65440368652344 49.62278747558594 75.68111419677734 54.16108703613281 73.76156616210938 C 58.54608917236328 71.90687561035156 62.4848518371582 69.25107574462891 65.86796569824219 65.86796569824219 C 69.25107574462891 62.4848518371582 71.90687561035156 58.54608917236328 73.76156616210938 54.16108703613281 C 75.68111419677734 49.62278747558594 76.65440368652344 44.80016326904297 76.65440368652344 39.82720184326172 C 76.65440368652344 34.85424041748047 75.68111419677734 30.0316162109375 73.76156616210938 25.49331283569336 C 71.90687561035156 21.10831451416016 69.25107574462891 17.16955184936523 65.86796569824219 13.78643798828125 C 62.4848518371582 10.40332794189453 58.54608917236328 7.747528076171875 54.16108703613281 5.892837524414062 C 49.62278747558594 3.973289489746094 44.80016326904297 3 39.82720184326172 3 M 39.82720184326172 0 C 61.82316589355469 0 79.65440368652344 17.83123779296875 79.65440368652344 39.82720184326172 C 79.65440368652344 61.82316589355469 61.82316589355469 79.65440368652344 39.82720184326172 79.65440368652344 C 17.83123779296875 79.65440368652344 0 61.82316589355469 0 39.82720184326172 C 0 17.83123779296875 17.83123779296875 0 39.82720184326172 0 Z" stroke="none" fill="#d4a2f9"/>
                  </g>
                </g>
              </g>
            </g>
          </g>
        </g>
      </g>
    </g>
    <g id="agregar-usuario" transform="translate(13.217 13.144)">
      <path id="Trazado_1044299" data-name="Trazado 1044299" d="M17.994,52.209v.834a25.012,25.012,0,1,1,37.9-9.932,9.17,9.17,0,0,0-13.55,3.26H38.006V42.744A11.68,11.68,0,0,0,44.676,32.2V23.024a5,5,0,0,0-5-5V13.852H31.335A10,10,0,0,0,21.329,23.858V32.2A11.678,11.678,0,0,0,28,42.743V46.37H23.831a5.834,5.834,0,0,0-5.837,5.838Zm0,0" transform="translate(-7.156 -7.18)" fill="#ac92ec"/>
      <path id="Trazado_1044300" data-name="Trazado 1044300" d="M233.656,8.015c-.562,0-1.116.025-1.668.061a25.008,25.008,0,0,1,0,49.906c.552.037,1.106.062,1.668.062a25.014,25.014,0,1,0,0-50.029Zm0,0" transform="translate(-207.809 -7.18)" fill="#967adc"/>
      <path id="Trazado_1044301" data-name="Trazado 1044301" d="M342.593,329.726a9.609,9.609,0,0,1,1.1.943,9.169,9.169,0,0,1-12.967,12.966,9.637,9.637,0,0,1-.941-1.092,9.174,9.174,0,0,1,12.807-12.816Zm0,0" transform="translate(-293.85 -293.795)" fill="#a0d468"/>
      <path id="Trazado_1044302" data-name="Trazado 1044302" d="M128.335,376.016h.009a9.178,9.178,0,0,0,.743,9.556,25.044,25.044,0,0,1-25.1-2.885v-.834a5.832,5.832,0,0,1,5.837-5.837h4.169l2.5,1.668,2.5-.834,2.5.834,2.5-1.668Zm0,0" transform="translate(-93.15 -336.824)" fill="#e6e9ed"/>
      <path id="Trazado_1044303" data-name="Trazado 1044303" d="M209.994,341.215v3.627l-2.5,1.668-2.5-.834-2.5.834-2.5-1.668v-3.627a11.679,11.679,0,0,0,10.006,0Zm0,0" transform="translate(-179.144 -305.651)" fill="#f5f7fa"/>
      <path id="Trazado_1044304" data-name="Trazado 1044304" d="M159.335,171.358v4.169A11.672,11.672,0,0,1,147.662,187.2a11.546,11.546,0,0,1-5-1.126,11.678,11.678,0,0,1-6.671-10.548v-4.185l3.335-3.319a21.68,21.68,0,0,0,16.677,0Zm0,0" transform="translate(-121.815 -150.511)" fill="#eac6bb"/>
      <path id="Trazado_1044305" data-name="Trazado 1044305" d="M241.994,168.016v7.5a11.68,11.68,0,0,1-6.671,10.548,11.493,11.493,0,0,1-3.335.993,11.763,11.763,0,0,0,1.668.132,11.556,11.556,0,0,0,5-1.126,11.68,11.68,0,0,0,6.671-10.548V171.35Zm0,0" transform="translate(-207.809 -150.504)" fill="#d3b1a9"/>
      <path id="Trazado_1044306" data-name="Trazado 1044306" d="M159.335,73.188v5L156,74.856a21.679,21.679,0,0,1-16.677,0l-3.335,3.319V74.022a10,10,0,0,1,10.006-10.006h8.338v4.169A5,5,0,0,1,159.335,73.188Zm0,0" transform="translate(-121.815 -57.344)" fill="#965353"/>
      <path id="Trazado_1044307" data-name="Trazado 1044307" d="M283.323,68.185V64.016h-3.335v5.837c2.767,0,5,1.4,5,4.169v.834l3.335,3.335v-5A5,5,0,0,0,283.323,68.185Zm0,0" transform="translate(-250.806 -57.344)" fill="#844646"/>
      <path id="Trazado_1044308" data-name="Trazado 1044308" d="M293.173,369.668h-4.335a.834.834,0,1,1,0-1.668h4.335a.834.834,0,0,1,0,1.668Zm0,0" transform="translate(-257.986 -329.644)"/>
      <path id="Trazado_1044309" data-name="Trazado 1044309" d="M96.838,375.5a.833.833,0,0,1-.834-.834A6.678,6.678,0,0,1,102.675,368a.834.834,0,0,1,0,1.668,5.008,5.008,0,0,0-5,5A.833.833,0,0,1,96.838,375.5Zm0,0" transform="translate(-85.998 -329.644)"/>
      <path id="Trazado_1044310" data-name="Trazado 1044310" d="M157.007,369.668h-4.169a.834.834,0,1,1,0-1.668h4.169a.834.834,0,1,1,0,1.668Zm0,0" transform="translate(-136.161 -329.644)"/>
      <path id="Trazado_1044311" data-name="Trazado 1044311" d="M96.838,427.543a.833.833,0,0,1-.834-.834v-.715a.834.834,0,0,1,1.668,0v.715A.833.833,0,0,1,96.838,427.543Zm0,0" transform="translate(-85.998 -380.846)"/>
      <path id="Trazado_1044312" data-name="Trazado 1044312" d="M192.838,338.508a.833.833,0,0,1-.834-.834v-3.626a.834.834,0,1,1,1.668,0v3.626A.833.833,0,0,1,192.838,338.508Zm0,0" transform="translate(-171.992 -298.484)"/>
      <path id="Trazado_1044313" data-name="Trazado 1044313" d="M288.838,338.508a.833.833,0,0,1-.834-.834v-3.626a.834.834,0,1,1,1.668,0v3.626A.833.833,0,0,1,288.838,338.508Zm0,0" transform="translate(-257.986 -298.484)"/>
      <path id="Trazado_1044314" data-name="Trazado 1044314" d="M140.511,245.341A12.522,12.522,0,0,1,128,232.834a.834.834,0,1,1,1.668,0,10.84,10.84,0,0,0,21.68,0,.834.834,0,1,1,1.668,0A12.522,12.522,0,0,1,140.511,245.341Zm0,0" transform="translate(-114.663 -207.819)"/>
      <path id="Trazado_1044315" data-name="Trazado 1044315" d="M128.838,161.986a.834.834,0,0,1-.834-.834v-8.319a.834.834,0,0,1,1.668,0v8.319A.834.834,0,0,1,128.838,161.986Zm0,0" transform="translate(-114.663 -136.157)"/>
      <path id="Trazado_1044316" data-name="Trazado 1044316" d="M352.838,154.848a.833.833,0,0,1-.834-.834v-9.172a.834.834,0,0,1,1.668,0v9.172A.833.833,0,0,1,352.838,154.848Zm0,0" transform="translate(-315.316 -128.998)"/>
      <path id="Trazado_1044317" data-name="Trazado 1044317" d="M309.841,102.671a.834.834,0,0,1-.834-.834,4.174,4.174,0,0,0-4.169-4.169.834.834,0,0,1,0-1.668,5.844,5.844,0,0,1,5.837,5.837A.834.834,0,0,1,309.841,102.671Zm0,0" transform="translate(-272.319 -85.994)"/>
      <path id="Trazado_1044318" data-name="Trazado 1044318" d="M304.838,61.837A.834.834,0,0,1,304,61V56.834a.834.834,0,0,1,1.668,0V61A.834.834,0,0,1,304.838,61.837Zm0,0" transform="translate(-272.319 -50.163)"/>
      <path id="Trazado_1044319" data-name="Trazado 1044319" d="M128.838,67.674A.834.834,0,0,1,128,66.84,10.852,10.852,0,0,1,138.844,56a.834.834,0,0,1,0,1.668,9.183,9.183,0,0,0-9.172,9.172A.834.834,0,0,1,128.838,67.674Zm0,0" transform="translate(-114.663 -50.163)"/>
      <path id="Trazado_1044320" data-name="Trazado 1044320" d="M324.171,165a.832.832,0,0,1-.59-.244l-3.335-3.335a.834.834,0,1,1,1.179-1.179l3.335,3.335a.834.834,0,0,1-.59,1.423Zm0,0" transform="translate(-286.648 -143.321)"/>
      <path id="Trazado_1044321" data-name="Trazado 1044321" d="M169.18,163.332a23.869,23.869,0,0,1-8.673-1.738.834.834,0,0,1,.668-1.528,20.848,20.848,0,0,0,16.01,0,.833.833,0,1,1,.667,1.528,23.867,23.867,0,0,1-8.672,1.738Zm0,0" transform="translate(-143.331 -143.32)"/>
      <path id="Trazado_1044322" data-name="Trazado 1044322" d="M128.835,164.992a.834.834,0,0,1-.589-1.424l3.335-3.325a.834.834,0,1,1,1.177,1.181l-3.335,3.325A.828.828,0,0,1,128.835,164.992Zm0,0" transform="translate(-114.66 -143.323)"/>
      <path id="Trazado_1044323" data-name="Trazado 1044323" d="M195.333,371.335a.84.84,0,0,1-.462-.14l-2.5-1.668a.834.834,0,1,1,.926-1.388l2.5,1.668a.834.834,0,0,1-.464,1.528Zm0,0" transform="translate(-171.987 -329.644)"/>
      <path id="Trazado_1044324" data-name="Trazado 1044324" d="M216.84,378.492a.834.834,0,0,1-.263-1.625l2.5-.834a.834.834,0,0,1,.528,1.582l-2.5.834A.85.85,0,0,1,216.84,378.492Zm0,0" transform="translate(-193.493 -336.801)"/>
      <path id="Trazado_1044325" data-name="Trazado 1044325" d="M264.834,371.335a.834.834,0,0,1-.464-1.528l2.5-1.668a.834.834,0,0,1,.926,1.388l-2.5,1.668A.84.84,0,0,1,264.834,371.335Zm0,0" transform="translate(-236.483 -329.644)"/>
      <path id="Trazado_1044326" data-name="Trazado 1044326" d="M243.342,378.493a.842.842,0,0,1-.263-.043l-2.5-.834a.834.834,0,0,1,.528-1.582l2.5.834a.834.834,0,0,1-.264,1.625Zm0,0" transform="translate(-214.992 -336.802)"/>
      <path id="Trazado_1044327" data-name="Trazado 1044327" d="M241.041,417.668a.834.834,0,0,1-.009-1.668h.009a.834.834,0,0,1,0,1.668Zm0,0" transform="translate(-215.167 -372.641)"/>
      <path id="Trazado_1044328" data-name="Trazado 1044328" d="M241.041,449.668a.834.834,0,0,1-.009-1.668h.009a.834.834,0,0,1,0,1.668Zm0,0" transform="translate(-215.167 -401.306)"/>
      <path id="Trazado_1044329" data-name="Trazado 1044329" d="M233.176,57.668h-8.338a.834.834,0,0,1,0-1.668h8.338a.834.834,0,0,1,0,1.668Zm0,0" transform="translate(-200.657 -50.163)"/>
      <path id="Trazado_1044330" data-name="Trazado 1044330" d="M25.853,51.7A25.829,25.829,0,1,1,49.512,36.276a.834.834,0,0,1-1.526-.672A24.162,24.162,0,1,0,35.6,47.983a.834.834,0,1,1,.672,1.526A25.651,25.651,0,0,1,25.853,51.7Zm0,0" transform="translate(-0.004 0)"/>
      <path id="Trazado_1044331" data-name="Trazado 1044331" d="M330.01,340.013a10.008,10.008,0,1,1,7.074-2.931A9.934,9.934,0,0,1,330.01,340.013Zm0-18.345a8.342,8.342,0,1,0,5.9,2.443A8.276,8.276,0,0,0,330.01,321.668Zm0,0" transform="translate(-286.651 -286.647)"/>
      <path id="Trazado_1044332" data-name="Trazado 1044332" d="M377.176,409.668h-8.338a.834.834,0,1,1,0-1.668h8.338a.834.834,0,1,1,0,1.668Zm0,0" transform="translate(-329.648 -365.475)"/>
      <path id="Trazado_1044333" data-name="Trazado 1044333" d="M408.838,378.006a.833.833,0,0,1-.834-.834v-8.338a.834.834,0,1,1,1.668,0v8.338A.833.833,0,0,1,408.838,378.006Zm0,0" transform="translate(-365.479 -329.644)"/>
    </g>
  </g>
</svg>
