<svg xmlns="http://www.w3.org/2000/svg" xmlns:xlink="http://www.w3.org/1999/xlink" width="97.654" height="97.654" viewBox="0 0 97.654 97.654">
  <defs>
    <filter id="Trazado_982547" x="0" y="0" width="97.654" height="97.654" filterUnits="userSpaceOnUse">
      <feOffset dy="3" input="SourceAlpha"/>
      <feGaussianBlur stdDeviation="3" result="blur"/>
      <feFlood flood-opacity="0.161"/>
      <feComposite operator="in" in2="blur"/>
      <feComposite in="SourceGraphic"/>
    </filter>
  </defs>
  <g id="Grupo_1219662" data-name="Grupo 1219662" transform="translate(9 6)">
    <g id="Grupo_1203624" data-name="Grupo 1203624" transform="translate(0)">
      <g id="Grupo_1202431" data-name="Grupo 1202431" transform="translate(0 0)">
        <g id="Grupo_1177900" data-name="Grupo 1177900" transform="translate(0 0)">
          <g id="Grupo_1172010" data-name="Grupo 1172010" transform="translate(0)">
            <g id="Grupo_1171046" data-name="Grupo 1171046">
              <g id="Grupo_1148525" data-name="Grupo 1148525">
                <g transform="matrix(1, 0, 0, 1, -9, -6)" filter="url(#Trazado_982547)">
                  <g id="Trazado_982547-2" data-name="Trazado 982547" transform="translate(9 6)" fill="#e5f0fc">
                    <path d="M 39.82720184326172 78.15440368652344 C 34.65240097045898 78.15440368652344 29.6331901550293 77.14124298095703 24.90899085998535 75.14308166503906 C 20.34519004821777 73.21276092529297 16.24616813659668 70.44901275634766 12.72577953338623 66.92862701416016 C 9.205390930175781 63.40823364257812 6.441646099090576 59.30921173095703 4.511323928833008 54.74541473388672 C 2.513157367706299 50.02121353149414 1.500001788139343 45.00200271606445 1.500001788139343 39.82720184326172 C 1.500001788139343 34.65240097045898 2.513157367706299 29.6331901550293 4.511323928833008 24.90899085998535 C 6.441646099090576 20.34519004821777 9.205390930175781 16.24616813659668 12.72577953338623 12.72577953338623 C 16.24616813659668 9.205390930175781 20.34519004821777 6.441646099090576 24.90899085998535 4.511323928833008 C 29.6331901550293 2.513157367706299 34.65240097045898 1.500001788139343 39.82720184326172 1.500001788139343 C 45.00200271606445 1.500001788139343 50.02121353149414 2.513157367706299 54.74541473388672 4.511323928833008 C 59.30921173095703 6.441646099090576 63.40823364257812 9.205390930175781 66.92862701416016 12.72577953338623 C 70.44901275634766 16.24616813659668 73.21276092529297 20.34519004821777 75.14308166503906 24.90899085998535 C 77.14124298095703 29.6331901550293 78.15440368652344 34.65240097045898 78.15440368652344 39.82720184326172 C 78.15440368652344 45.00200271606445 77.14124298095703 50.02121353149414 75.14308166503906 54.74541473388672 C 73.21276092529297 59.30921173095703 70.44901275634766 63.40823364257812 66.92862701416016 66.92862701416016 C 63.40823364257812 70.44901275634766 59.30921173095703 73.21276092529297 54.74541473388672 75.14308166503906 C 50.02121353149414 77.14124298095703 45.00200271606445 78.15440368652344 39.82720184326172 78.15440368652344 Z" stroke="none"/>
                    <path d="M 39.82720184326172 3 C 34.85424041748047 3 30.0316162109375 3.973289489746094 25.49331283569336 5.892837524414062 C 21.10831451416016 7.747528076171875 17.16955184936523 10.40332794189453 13.78643798828125 13.78643798828125 C 10.40332794189453 17.16955184936523 7.747528076171875 21.10831451416016 5.892837524414062 25.49331283569336 C 3.973289489746094 30.0316162109375 3 34.85424041748047 3 39.82720184326172 C 3 44.80016326904297 3.973289489746094 49.62278747558594 5.892837524414062 54.16108703613281 C 7.747528076171875 58.54608917236328 10.40332794189453 62.4848518371582 13.78643798828125 65.86796569824219 C 17.16955184936523 69.25107574462891 21.10831451416016 71.90687561035156 25.49331283569336 73.76156616210938 C 30.0316162109375 75.68111419677734 34.85424041748047 76.65440368652344 39.82720184326172 76.65440368652344 C 44.80016326904297 76.65440368652344 49.62278747558594 75.68111419677734 54.16108703613281 73.76156616210938 C 58.54608917236328 71.90687561035156 62.4848518371582 69.25107574462891 65.86796569824219 65.86796569824219 C 69.25107574462891 62.4848518371582 71.90687561035156 58.54608917236328 73.76156616210938 54.16108703613281 C 75.68111419677734 49.62278747558594 76.65440368652344 44.80016326904297 76.65440368652344 39.82720184326172 C 76.65440368652344 34.85424041748047 75.68111419677734 30.0316162109375 73.76156616210938 25.49331283569336 C 71.90687561035156 21.10831451416016 69.25107574462891 17.16955184936523 65.86796569824219 13.78643798828125 C 62.4848518371582 10.40332794189453 58.54608917236328 7.747528076171875 54.16108703613281 5.892837524414062 C 49.62278747558594 3.973289489746094 44.80016326904297 3 39.82720184326172 3 M 39.82720184326172 0 C 61.82316589355469 0 79.65440368652344 17.83123779296875 79.65440368652344 39.82720184326172 C 79.65440368652344 61.82316589355469 61.82316589355469 79.65440368652344 39.82720184326172 79.65440368652344 C 17.83123779296875 79.65440368652344 0 61.82316589355469 0 39.82720184326172 C 0 17.83123779296875 17.83123779296875 0 39.82720184326172 0 Z" stroke="none" fill="#d4a2f9"/>
                  </g>
                </g>
              </g>
            </g>
          </g>
        </g>
      </g>
    </g>
    <g id="pruebas" transform="translate(6.325 18.974)">
      <path id="Trazado_1044334" data-name="Trazado 1044334" d="M133.017,126.62v-.941l.206-.039a.583.583,0,0,0,.476-.574v-2.039l.168-.049a10.74,10.74,0,0,0,2.152-.892l.154-.084,1.441,1.441a.584.584,0,0,0,.746.067,13.224,13.224,0,0,0,3.321-3.321.584.584,0,0,0-.066-.746L140.174,118l.085-.154a10.524,10.524,0,0,0,.892-2.15l.049-.169h2.038a.584.584,0,0,0,.575-.48,13.173,13.173,0,0,0,0-4.7.584.584,0,0,0-.575-.48H141.2l-.049-.168a10.655,10.655,0,0,0-.891-2.149l-.085-.154,1.44-1.44a.584.584,0,0,0,.067-.746,13.189,13.189,0,0,0-3.321-3.324.584.584,0,0,0-.746.067l-1.441,1.441-.154-.084a10.737,10.737,0,0,0-2.152-.892l-.168-.049V100.33a.584.584,0,0,0-.479-.575l-.2-.039V98.322h39.728v28.3Zm17.145-12.843a.585.585,0,0,0-.584.584v9.328a.585.585,0,0,0,.584.584h9.328a.585.585,0,0,0,.584-.584v-9.328a.585.585,0,0,0-.584-.584Zm20.7,4.8v-1.168h-8.523v1.168Zm0-3.634v-1.168h-8.523v1.168Zm-20.7-14.276a.585.585,0,0,0-.584.584v9.331a.585.585,0,0,0,.584.584h9.328a.585.585,0,0,0,.584-.584v-9.331a.585.585,0,0,0-.584-.584Zm20.7,4.8V104.3h-8.523v1.168Zm0-3.634v-1.168h-8.523v1.168Z" transform="translate(-117.485 -93.796)" fill="#e9e9ff"/>
      <path id="Trazado_1044335" data-name="Trazado 1044335" d="M271.007,377.421h7.5v2.231h-7.5Z" transform="translate(-239.361 -340.304)" fill="#445ea0"/>
      <path id="Trazado_1044336" data-name="Trazado 1044336" d="M107.875,106.11a1.619,1.619,0,0,1-1.617-1.617v-2.311l.246.014c.253.014.5.021.732.021s.479-.007.732-.021l.247-.014v1.387a.585.585,0,0,0,.584.584h40.9a.585.585,0,0,0,.584-.584V74.1a.585.585,0,0,0-.584-.584H108.8a.585.585,0,0,0-.584.584v1.841l-.246-.014c-.243-.013-.49-.02-.734-.02s-.488.007-.73.02l-.246.014V73.179a1.619,1.619,0,0,1,1.617-1.617h42.743a1.619,1.619,0,0,1,1.617,1.617v31.313a1.619,1.619,0,0,1-1.617,1.617Z" transform="translate(-93.85 -70.16)" fill="#445ea0"/>
      <path id="Trazado_1044337" data-name="Trazado 1044337" d="M211.763,410.493v-1.978a1.983,1.983,0,0,1,1.981-1.981h17.375a1.983,1.983,0,0,1,1.981,1.981v1.978Z" transform="translate(-187.035 -366.017)" fill="#293d7c"/>
      <path id="Trazado_1044338" data-name="Trazado 1044338" d="M66.5,179.672a6.362,6.362,0,1,1,6.361-6.36A6.369,6.369,0,0,1,66.5,179.672Zm-.394-2.633,1.914-7.153-1.128-.3-1.914,7.153ZM61.223,172.9a.584.584,0,0,0,0,.826l2.36,2.356.825-.827-1.946-1.942,1.946-1.946-.826-.826Zm8.2,3.175,2.356-2.36a.585.585,0,0,0,0-.826l-2.356-2.356-.826.826,1.943,1.943L68.6,175.252Z" transform="translate(-53.116 -154.408)" fill="#e9e9ff"/>
      <path id="Trazado_1044339" data-name="Trazado 1044339" d="M23.989,142.759a12.062,12.062,0,0,1-1.457-.088l-.205-.025v-2a.581.581,0,0,0-.454-.569,9.551,9.551,0,0,1-2.964-1.229.584.584,0,0,0-.724.081l-1.414,1.414-.163-.127a12.033,12.033,0,0,1-2.061-2.059l-.127-.163,1.414-1.417a.581.581,0,0,0,.081-.724,9.5,9.5,0,0,1-1.229-2.963.581.581,0,0,0-.569-.454h-2l-.025-.206a12.361,12.361,0,0,1,0-2.912l.025-.206h2a.581.581,0,0,0,.569-.454,9.55,9.55,0,0,1,1.229-2.964.581.581,0,0,0-.082-.724l-1.414-1.414.127-.163a11.993,11.993,0,0,1,2.062-2.062l.163-.127,1.414,1.414a.584.584,0,0,0,.724.081,9.546,9.546,0,0,1,2.964-1.229.581.581,0,0,0,.454-.569v-2l.205-.025a12.061,12.061,0,0,1,2.913,0l.205.025v2a.581.581,0,0,0,.454.569,9.557,9.557,0,0,1,2.967,1.229.584.584,0,0,0,.724-.081l1.413-1.413.163.128a12.038,12.038,0,0,1,2.059,2.061l.127.163-1.414,1.414a.581.581,0,0,0-.081.725,9.471,9.471,0,0,1,1.229,2.962.581.581,0,0,0,.569.454h2l.025.205a12.013,12.013,0,0,1,0,2.913l-.025.205h-2a.581.581,0,0,0-.57.456,9.343,9.343,0,0,1-1.228,2.96.581.581,0,0,0,.08.725l1.414,1.417-.127.163a12.068,12.068,0,0,1-2.058,2.058l-.163.128L29.8,138.928a.584.584,0,0,0-.724-.081,9.557,9.557,0,0,1-2.967,1.229.581.581,0,0,0-.454.569v2l-.205.025a12.022,12.022,0,0,1-1.457.089Zm0-19.516a7.53,7.53,0,1,0,7.529,7.532,7.54,7.54,0,0,0-7.529-7.532Z" transform="translate(-10.604 -111.871)" fill="#0cb4fb"/>
      <path id="Trazado_1044340" data-name="Trazado 1044340" d="M284.84,136.589v-8.163H293v8.163Zm2.565-1.863a.582.582,0,0,0,.443.231h.022a.584.584,0,0,0,.437-.2L292,130.593l-.874-.775-3.222,3.635-1.131-1.49-.931.706Z" transform="translate(-251.579 -120.384)" fill="#43cb8e"/>
      <path id="Trazado_1044341" data-name="Trazado 1044341" d="M284.84,248.838v-8.16H293v8.16Zm2.5-1.672,1.582-1.582,1.582,1.582.826-.826-1.582-1.582,1.582-1.582-.826-.826-1.582,1.582-1.582-1.582-.826.826,1.582,1.582-1.582,1.582Z" transform="translate(-251.579 -219.528)" fill="#ed524e"/>
      <path id="Trazado_1044342" data-name="Trazado 1044342" d="M21.151,78.463a7.764,7.764,0,1,0-7.762,7.762A7.773,7.773,0,0,0,21.151,78.463Zm-13.892,0a6.129,6.129,0,1,1,6.13,6.127A6.137,6.137,0,0,1,7.259,78.463ZM53.613,67.834h-8.99V66.2h8.99Zm3.158-8.275H14.028a3.022,3.022,0,0,0-3.019,3.019v2.709l-.014,0a.817.817,0,0,0-.671.8v1.864a10.929,10.929,0,0,0-2.2.911L6.811,67.551a.818.818,0,0,0-1.044-.094,13.383,13.383,0,0,0-3.384,3.384.818.818,0,0,0,.094,1.044L3.794,73.2a10.918,10.918,0,0,0-.911,2.2H1.019a.818.818,0,0,0-.8.671,13.62,13.62,0,0,0,0,4.784.818.818,0,0,0,.8.671H2.883a10.884,10.884,0,0,0,.911,2.2l-1.318,1.32a.817.817,0,0,0-.093,1.044,13.415,13.415,0,0,0,3.383,3.38.817.817,0,0,0,1.044-.094l1.317-1.317a10.929,10.929,0,0,0,2.2.911v1.864a.818.818,0,0,0,.671.8l.014,0v2.255a3.022,3.022,0,0,0,3.019,3.019H30.247v1.764H26.712a3.387,3.387,0,0,0-3.383,3.383v2.562a.818.818,0,0,0,.818.818H46.652a.818.818,0,0,0,.818-.818v-2.562a3.387,3.387,0,0,0-3.383-3.383H40.548V96.91H56.77a3.022,3.022,0,0,0,3.019-3.019V62.578a3.022,3.022,0,0,0-3.019-3.019ZM11.323,87.536a9.312,9.312,0,0,1-2.891-1.2.818.818,0,0,0-1.013.114L6.151,87.719A11.771,11.771,0,0,1,4.13,85.7L5.4,84.429a.818.818,0,0,0,.113-1.014,9.267,9.267,0,0,1-1.2-2.89.817.817,0,0,0-.8-.636H1.722a12.124,12.124,0,0,1,0-2.857H3.515a.818.818,0,0,0,.8-.636,9.313,9.313,0,0,1,1.2-2.891A.818.818,0,0,0,5.4,72.492L4.13,71.225A11.731,11.731,0,0,1,6.151,69.2l1.267,1.267a.818.818,0,0,0,1.013.114,9.316,9.316,0,0,1,2.891-1.2.818.818,0,0,0,.636-.8V66.8a11.832,11.832,0,0,1,2.857,0v1.793a.817.817,0,0,0,.636.8,9.325,9.325,0,0,1,2.895,1.2.818.818,0,0,0,1.013-.114L20.626,69.2a11.773,11.773,0,0,1,2.019,2.021l-1.267,1.267a.817.817,0,0,0-.113,1.015,9.238,9.238,0,0,1,1.2,2.89.818.818,0,0,0,.8.636h1.793a11.776,11.776,0,0,1,0,2.857H23.259a.818.818,0,0,0-.8.638,9.111,9.111,0,0,1-1.2,2.886.818.818,0,0,0,.112,1.015l1.268,1.27a11.809,11.809,0,0,1-2.019,2.019l-1.267-1.267a.818.818,0,0,0-1.013-.114,9.323,9.323,0,0,1-2.895,1.2.818.818,0,0,0-.636.8v1.793a11.832,11.832,0,0,1-2.857,0V88.333A.817.817,0,0,0,11.323,87.536ZM24.3,85.041l-1.317-1.319a10.732,10.732,0,0,0,.911-2.2h1.862a.818.818,0,0,0,.8-.671,13.409,13.409,0,0,0,0-4.784.818.818,0,0,0-.8-.671H23.892a10.862,10.862,0,0,0-.91-2.2L24.3,71.885a.818.818,0,0,0,.094-1.044,13.423,13.423,0,0,0-3.379-3.383.817.817,0,0,0-1.045.093L18.65,68.868a10.943,10.943,0,0,0-2.2-.911V66.093a.818.818,0,0,0-.671-.8l-.011,0v-.968H55.03V92.15H15.769v-.514l.011,0a.818.818,0,0,0,.671-.8V88.965a10.94,10.94,0,0,0,2.2-.911l1.317,1.317a.818.818,0,0,0,1.045.093,13.456,13.456,0,0,0,3.379-3.379A.817.817,0,0,0,24.3,85.041Zm19.788,15.268a1.75,1.75,0,0,1,1.748,1.748V103.8H24.964v-1.744a1.75,1.75,0,0,1,1.748-1.748H44.086Zm-12.2-1.635V96.91h7.031v1.764Zm26.272-4.783a1.385,1.385,0,0,1-1.384,1.384H14.028a1.385,1.385,0,0,1-1.384-1.384V91.827c.248.014.5.021.745.021s.5-.008.745-.022v1.14a.818.818,0,0,0,.818.818h40.9a.818.818,0,0,0,.818-.818V63.5a.818.818,0,0,0-.818-.818h-40.9a.818.818,0,0,0-.818.818V65.1a13.572,13.572,0,0,0-1.49,0V62.578a1.385,1.385,0,0,1,1.384-1.384H56.771a1.385,1.385,0,0,1,1.384,1.384V93.891ZM15.194,74.872l-2.035,7.6-1.58-.423,2.035-7.6Zm-3.569,5.536L10.47,81.565l-2.525-2.52a.818.818,0,0,1,0-1.157l2.524-2.524,1.156,1.156L9.68,78.466Zm3.527-3.895,1.156-1.156,2.521,2.521a.818.818,0,0,1,0,1.156l-2.521,2.525L15.152,80.4,17.1,78.457Zm17.528.652h9.328a.818.818,0,0,0,.818-.818V67.017a.818.818,0,0,0-.818-.818H32.68a.818.818,0,0,0-.818.818v9.331A.817.817,0,0,0,32.68,77.165Zm.818-9.331H41.19v7.7H33.5Zm20.115,3.634h-8.99V69.833h8.99ZM32.68,90.27h9.328a.818.818,0,0,0,.818-.818V80.124a.818.818,0,0,0-.818-.818H32.68a.818.818,0,0,0-.818.818v9.328A.817.817,0,0,0,32.68,90.27Zm.818-9.328H41.19v7.692H33.5Zm6.585,2.264L38.5,84.788l1.582,1.582-1.156,1.156-1.582-1.582-1.582,1.582-1.156-1.156,1.582-1.582-1.582-1.582,1.156-1.156,1.582,1.582,1.582-1.582Zm13.531-2.264h-8.99V79.307h8.99Zm0,3.634h-8.99V82.941h8.99ZM39.532,68.663l1.224,1.085L36.906,74.09a.817.817,0,0,1-.612.275h-.031a.817.817,0,0,1-.62-.323l-1.7-2.243,1.3-.988,1.1,1.45Z" transform="translate(-0.003 -59.559)"/>
    </g>
  </g>
</svg>
