<svg xmlns="http://www.w3.org/2000/svg" xmlns:xlink="http://www.w3.org/1999/xlink" width="93.934" height="93.934" viewBox="0 0 93.934 93.934">
  <defs>
    <filter id="Trazado_982547" x="0" y="0" width="93.934" height="93.934" filterUnits="userSpaceOnUse">
      <feOffset dy="3" input="SourceAlpha"/>
      <feGaussianBlur stdDeviation="3" result="blur"/>
      <feFlood flood-opacity="0.161"/>
      <feComposite operator="in" in2="blur"/>
      <feComposite in="SourceGraphic"/>
    </filter>
  </defs>
  <g id="Grupo_1219803" data-name="Grupo 1219803" transform="translate(-611.066 -3457)">
    <g id="Grupo_1219542" data-name="Grupo 1219542" transform="translate(0 -4926)">
      <g id="Grupo_1219298" data-name="Grupo 1219298" transform="translate(0 1145.965)">
        <g id="Grupo_1216284" data-name="Grupo 1216284" transform="translate(0 6194.186)">
          <g id="Grupo_1215982" data-name="Grupo 1215982" transform="translate(-0.229 -2679.151)">
            <g id="Grupo_1214640" data-name="Grupo 1214640" transform="translate(0 -1406)">
              <g id="Grupo_1214433" data-name="Grupo 1214433" transform="translate(-0.771 -2738.674)">
                <g id="Grupo_1183190" data-name="Grupo 1183190" transform="translate(1 1016.674)">
                  <g id="Grupo_1179611" data-name="Grupo 1179611" transform="translate(428 4723.467)">
                    <g id="Grupo_1175227" data-name="Grupo 1175227" transform="translate(-5.967 140.533)">
                      <g id="Grupo_1167337" data-name="Grupo 1167337" transform="translate(198.033 1992)">
                        <g id="Grupo_1166720" data-name="Grupo 1166720">
                          <g id="Grupo_1164305" data-name="Grupo 1164305">
                            <g id="Grupo_1163948" data-name="Grupo 1163948">
                              <g id="Grupo_1158168" data-name="Grupo 1158168">
                                <g id="Grupo_1152576" data-name="Grupo 1152576">
                                  <g id="Grupo_1148633" data-name="Grupo 1148633">
                                    <g id="Grupo_1148525" data-name="Grupo 1148525">
                                      <g transform="matrix(1, 0, 0, 1, -9, -6)" filter="url(#Trazado_982547)">
                                        <g id="Trazado_982547-2" data-name="Trazado 982547" transform="translate(9 6)" fill="#e6fdfd">
                                          <path d="M 37.966796875 74.43359375 C 33.04315185546875 74.43359375 28.26757431030273 73.46962738037109 23.77274131774902 71.56847381591797 C 19.43047523498535 69.73184967041016 15.53040790557861 67.10224914550781 12.18087482452393 63.75271987915039 C 8.831341743469238 60.4031867980957 6.201741218566895 56.50312042236328 4.365118980407715 52.16086196899414 C 2.463963508605957 47.66601943969727 1.499996900558472 42.89044189453125 1.499996900558472 37.966796875 C 1.499996900558472 33.04315185546875 2.463963508605957 28.26757431030273 4.365118980407715 23.77274131774902 C 6.201741218566895 19.43047523498535 8.831341743469238 15.53040790557861 12.18087482452393 12.18087482452393 C 15.53040790557861 8.831341743469238 19.43047523498535 6.201741218566895 23.77274131774902 4.365118980407715 C 28.26757431030273 2.463963508605957 33.04315185546875 1.499996900558472 37.966796875 1.499996900558472 C 42.89044189453125 1.499996900558472 47.66601943969727 2.463963508605957 52.16086196899414 4.365118980407715 C 56.50312042236328 6.201741218566895 60.4031867980957 8.831341743469238 63.75271987915039 12.18087482452393 C 67.10224914550781 15.53040790557861 69.73184967041016 19.43047523498535 71.56847381591797 23.77274131774902 C 73.46962738037109 28.26757431030273 74.43359375 33.04315185546875 74.43359375 37.966796875 C 74.43359375 42.89044189453125 73.46962738037109 47.66601943969727 71.56847381591797 52.16086196899414 C 69.73184967041016 56.50313186645508 67.10224914550781 60.4031867980957 63.75271987915039 63.75271987915039 C 60.4031867980957 67.10224914550781 56.50313186645508 69.73184967041016 52.16086196899414 71.56847381591797 C 47.66601943969727 73.46962738037109 42.89044189453125 74.43359375 37.966796875 74.43359375 Z" stroke="none"/>
                                          <path d="M 37.966796875 3 C 33.2449836730957 3 28.66600799560547 3.924095153808594 24.35705947875977 5.746635437011719 C 20.19359588623047 7.507637023925781 16.45379638671875 10.02928161621094 13.24153518676758 13.24153518676758 C 10.02927398681641 16.45379638671875 7.507621765136719 20.19359588623047 5.746635437011719 24.35705947875977 C 3.924095153808594 28.66600799560547 3 33.2449836730957 3 37.966796875 C 3 42.6886100769043 3.924095153808594 47.26758575439453 5.746635437011719 51.57653427124023 C 7.507621765136719 55.73999786376953 10.02927398681641 59.47979736328125 13.24153518676758 62.69205856323242 C 16.45379638671875 65.90431976318359 20.19359588623047 68.42597198486328 24.35705947875977 70.18695831298828 C 28.66600799560547 72.00949859619141 33.2449836730957 72.93359375 37.966796875 72.93359375 C 42.6886100769043 72.93359375 47.26758575439453 72.00949859619141 51.57653427124023 70.18695831298828 C 55.73999786376953 68.42597198486328 59.47979736328125 65.90431976318359 62.69205856323242 62.69205856323242 C 65.90431976318359 59.47979736328125 68.42597198486328 55.73999786376953 70.18695831298828 51.57653427124023 C 72.00949859619141 47.26758575439453 72.93359375 42.6886100769043 72.93359375 37.966796875 C 72.93359375 33.2449836730957 72.00949859619141 28.66600799560547 70.18695831298828 24.35705947875977 C 68.42597198486328 20.19359588623047 65.90431976318359 16.45379638671875 62.69205856323242 13.24153518676758 C 59.47979736328125 10.02928161621094 55.73999786376953 7.507637023925781 51.57653427124023 5.746635437011719 C 47.26758575439453 3.924095153808594 42.6886100769043 3 37.966796875 3 M 37.966796875 0 C 58.93528366088867 0 75.93359375 16.99832153320312 75.93359375 37.966796875 C 75.93359375 58.93528366088867 58.93528366088867 75.93359375 37.966796875 75.93359375 C 16.99831008911133 75.93359375 0 58.93528366088867 0 37.966796875 C 0 16.99832153320312 16.99831008911133 0 37.966796875 0 Z" stroke="none" fill="#1bf5f5"/>
                                        </g>
                                      </g>
                                    </g>
                                  </g>
                                </g>
                              </g>
                            </g>
                          </g>
                        </g>
                      </g>
                    </g>
                  </g>
                </g>
              </g>
            </g>
          </g>
        </g>
      </g>
    </g>
    <g id="salud-mental_7_" data-name="salud-mental (7)" transform="translate(620.18 3468.627)">
      <g id="Grupo_1219801" data-name="Grupo 1219801" transform="translate(16.437 6.482)">
        <path id="Trazado_1044792" data-name="Trazado 1044792" d="M59.9,24.367A18.384,18.384,0,0,1,57.283,35.29a21.865,21.865,0,0,0-3.274,11.324V57.061a2.017,2.017,0,0,1-2.018,2.019H37.348a2.017,2.017,0,0,1-2.017-2.017V50.829a1.5,1.5,0,0,0-1.5-1.5H28.762a5.7,5.7,0,0,1-5.7-5.7V39.092a1.028,1.028,0,0,0-.921-1.023l-3.8-.4a1.218,1.218,0,0,1-.863-1.922l4.3-5.994a6.843,6.843,0,0,0,1.284-3.995v-.021A18.442,18.442,0,0,1,59.9,24.367Z" transform="translate(-17.251 -7.297)" fill="#ffd0c8"/>
        <path id="Trazado_1044793" data-name="Trazado 1044793" d="M60.829,40.586c-5.887,4.6-6.012,4.59-11.93.032-15.983-12.316-2.137-26.9,5.957-16.668C62.025,13.71,76.6,28.276,60.829,40.586Z" transform="translate(-30.449 -14.465)" fill="#ff6893"/>
        <path id="Trazado_1044794" data-name="Trazado 1044794" d="M69.36,39.616H65.552V35.809h-3.2v3.807H58.548v3.2h3.808v3.808h3.2V42.812H69.36Z" transform="translate(-39.69 -22.79)" fill="#f8fffb"/>
      </g>
      <g id="Grupo_1219802" data-name="Grupo 1219802" transform="translate(15.754 5.796)">
        <path id="Trazado_1044795" data-name="Trazado 1044795" d="M98.939,26.09a19.3,19.3,0,0,0-10.062-15.44.685.685,0,1,0-.648,1.206,17.915,17.915,0,0,1,9.345,14.333,17.682,17.682,0,0,1-2.514,10.517,22.547,22.547,0,0,0-3.374,11.681V58.834a1.335,1.335,0,0,1-1.333,1.333H89.16a.685.685,0,0,0,0,1.37h1.192a2.706,2.706,0,0,0,2.7-2.7V48.386a21.179,21.179,0,0,1,3.174-10.969A19.042,19.042,0,0,0,98.939,26.09Z" transform="translate(-54.928 -8.383)"/>
        <path id="Trazado_1044796" data-name="Trazado 1044796" d="M39.392,57.58H36.533A1.335,1.335,0,0,1,35.2,56.247V50.014a2.192,2.192,0,0,0-2.187-2.187H27.949a5.02,5.02,0,0,1-5.014-5.014V38.278a1.71,1.71,0,0,0-1.536-1.7l-3.8-.4a.53.53,0,0,1-.433-.316.524.524,0,0,1,.053-.527l4.3-6a7.507,7.507,0,0,0,1.412-4.413A17.766,17.766,0,0,1,45.327,7.779a.686.686,0,0,0,.358-1.324,19.14,19.14,0,0,0-24.121,18.49,6.132,6.132,0,0,1-1.155,3.6l-4.3,6a1.906,1.906,0,0,0,1.348,3l3.8.4a.339.339,0,0,1,.309.342v4.534A6.393,6.393,0,0,0,27.949,49.2h5.064a.818.818,0,0,1,.817.817v6.233a2.706,2.706,0,0,0,2.7,2.7h2.859a.685.685,0,0,0,0-1.37Z" transform="translate(-15.754 -5.796)"/>
        <path id="Trazado_1044797" data-name="Trazado 1044797" d="M78.089,119.2H75.815a.685.685,0,0,0,0,1.37h2.274a.685.685,0,1,0,0-1.37Z" transform="translate(-48.017 -67.416)"/>
        <path id="Trazado_1044798" data-name="Trazado 1044798" d="M67.481,25.559A8.377,8.377,0,0,0,61.143,19.1a7.35,7.35,0,0,0-7.123,2.936c-2.241-2.46-5.043-3.5-7.8-2.863a8.206,8.206,0,0,0-5.947,6.393c-.509,2.336-.806,8.452,7.4,14.773,3.077,2.37,4.737,3.556,6.389,3.556s3.311-1.2,6.38-3.591C68.5,34.018,68.05,27.9,67.481,25.559ZM59.6,39.227c-2.855,2.229-4.284,3.3-5.533,3.3h-.005c-1.248,0-2.606-1-5.551-3.274-7.586-5.843-7.351-11.314-6.9-13.4a6.835,6.835,0,0,1,4.917-5.347,5.616,5.616,0,0,1,1.27-.146,7.452,7.452,0,0,1,5.712,3.192.685.685,0,0,0,1.1-.032c1.7-2.427,3.927-3.519,6.279-3.076a7,7,0,0,1,5.261,5.434c1.068,4.4-1.319,9.26-6.549,13.342Z" transform="translate(-28.959 -12.963)"/>
        <path id="Trazado_1044799" data-name="Trazado 1044799" d="M68.545,38.116H65.422V34.994a.685.685,0,0,0-.685-.685h-3.2a.685.685,0,0,0-.685.685v3.122H57.732a.685.685,0,0,0-.685.685V42a.685.685,0,0,0,.685.685h3.123v3.123a.685.685,0,0,0,.685.685h3.2a.685.685,0,0,0,.685-.685V42.683h3.123A.685.685,0,0,0,69.229,42V38.8A.685.685,0,0,0,68.545,38.116Zm-.685,3.2H64.737a.685.685,0,0,0-.685.685v3.123H62.225V42a.685.685,0,0,0-.685-.685H58.417V39.486H61.54a.685.685,0,0,0,.685-.685V35.679h1.827V38.8a.685.685,0,0,0,.685.685H67.86Z" transform="translate(-38.191 -21.289)"/>
      </g>
    </g>
  </g>
</svg>
