<svg xmlns="http://www.w3.org/2000/svg" xmlns:xlink="http://www.w3.org/1999/xlink" width="93.934" height="93.934" viewBox="0 0 93.934 93.934">
  <defs>
    <filter id="Trazado_982547" x="0" y="0" width="93.934" height="93.934" filterUnits="userSpaceOnUse">
      <feOffset dy="3" input="SourceAlpha"/>
      <feGaussianBlur stdDeviation="3" result="blur"/>
      <feFlood flood-opacity="0.161"/>
      <feComposite operator="in" in2="blur"/>
      <feComposite in="SourceGraphic"/>
    </filter>
    <clipPath id="clip-path">
      <path id="path6927" d="M0-682.665H52.74v52.74H0Z" transform="translate(0 682.665)"/>
    </clipPath>
  </defs>
  <g id="Grupo_1219807" data-name="Grupo 1219807" transform="translate(-191 -3612)">
    <g id="Grupo_1219545" data-name="Grupo 1219545" transform="translate(0 -4926)">
      <g id="Grupo_1219300" data-name="Grupo 1219300" transform="translate(-0.295 4816)">
        <g id="Grupo_1214594" data-name="Grupo 1214594" transform="translate(0 -1406)">
          <g id="Grupo_1214432" data-name="Grupo 1214432" transform="translate(-0.771 -2738.674)">
            <g id="Grupo_1183196" data-name="Grupo 1183196" transform="translate(1 1016.674)">
              <g id="Grupo_1179610" data-name="Grupo 1179610" transform="translate(8 4723.467)">
                <g id="Grupo_1175227" data-name="Grupo 1175227" transform="translate(-5.967 140.533)">
                  <g id="Grupo_1167337" data-name="Grupo 1167337" transform="translate(198.033 1992)">
                    <g id="Grupo_1166720" data-name="Grupo 1166720">
                      <g id="Grupo_1164305" data-name="Grupo 1164305">
                        <g id="Grupo_1163948" data-name="Grupo 1163948">
                          <g id="Grupo_1158168" data-name="Grupo 1158168">
                            <g id="Grupo_1152576" data-name="Grupo 1152576">
                              <g id="Grupo_1148633" data-name="Grupo 1148633">
                                <g id="Grupo_1148525" data-name="Grupo 1148525">
                                  <g transform="matrix(1, 0, 0, 1, -9, -6)" filter="url(#Trazado_982547)">
                                    <g id="Trazado_982547-2" data-name="Trazado 982547" transform="translate(9 6)" fill="#e6fdfd">
                                      <path d="M 37.966796875 74.43359375 C 33.04315185546875 74.43359375 28.26757431030273 73.46962738037109 23.77274131774902 71.56847381591797 C 19.43047523498535 69.73184967041016 15.53040790557861 67.10224914550781 12.18087482452393 63.75271987915039 C 8.831341743469238 60.4031867980957 6.201741218566895 56.50312042236328 4.365118980407715 52.16086196899414 C 2.463963508605957 47.66601943969727 1.499996900558472 42.89044189453125 1.499996900558472 37.966796875 C 1.499996900558472 33.04315185546875 2.463963508605957 28.26757431030273 4.365118980407715 23.77274131774902 C 6.201741218566895 19.43047523498535 8.831341743469238 15.53040790557861 12.18087482452393 12.18087482452393 C 15.53040790557861 8.831341743469238 19.43047523498535 6.201741218566895 23.77274131774902 4.365118980407715 C 28.26757431030273 2.463963508605957 33.04315185546875 1.499996900558472 37.966796875 1.499996900558472 C 42.89044189453125 1.499996900558472 47.66601943969727 2.463963508605957 52.16086196899414 4.365118980407715 C 56.50312042236328 6.201741218566895 60.4031867980957 8.831341743469238 63.75271987915039 12.18087482452393 C 67.10224914550781 15.53040790557861 69.73184967041016 19.43047523498535 71.56847381591797 23.77274131774902 C 73.46962738037109 28.26757431030273 74.43359375 33.04315185546875 74.43359375 37.966796875 C 74.43359375 42.89044189453125 73.46962738037109 47.66601943969727 71.56847381591797 52.16086196899414 C 69.73184967041016 56.50313186645508 67.10224914550781 60.4031867980957 63.75271987915039 63.75271987915039 C 60.4031867980957 67.10224914550781 56.50313186645508 69.73184967041016 52.16086196899414 71.56847381591797 C 47.66601943969727 73.46962738037109 42.89044189453125 74.43359375 37.966796875 74.43359375 Z" stroke="none"/>
                                      <path d="M 37.966796875 3 C 33.2449836730957 3 28.66600799560547 3.924095153808594 24.35705947875977 5.746635437011719 C 20.19359588623047 7.507637023925781 16.45379638671875 10.02928161621094 13.24153518676758 13.24153518676758 C 10.02927398681641 16.45379638671875 7.507621765136719 20.19359588623047 5.746635437011719 24.35705947875977 C 3.924095153808594 28.66600799560547 3 33.2449836730957 3 37.966796875 C 3 42.6886100769043 3.924095153808594 47.26758575439453 5.746635437011719 51.57653427124023 C 7.507621765136719 55.73999786376953 10.02927398681641 59.47979736328125 13.24153518676758 62.69205856323242 C 16.45379638671875 65.90431976318359 20.19359588623047 68.42597198486328 24.35705947875977 70.18695831298828 C 28.66600799560547 72.00949859619141 33.2449836730957 72.93359375 37.966796875 72.93359375 C 42.6886100769043 72.93359375 47.26758575439453 72.00949859619141 51.57653427124023 70.18695831298828 C 55.73999786376953 68.42597198486328 59.47979736328125 65.90431976318359 62.69205856323242 62.69205856323242 C 65.90431976318359 59.47979736328125 68.42597198486328 55.73999786376953 70.18695831298828 51.57653427124023 C 72.00949859619141 47.26758575439453 72.93359375 42.6886100769043 72.93359375 37.966796875 C 72.93359375 33.2449836730957 72.00949859619141 28.66600799560547 70.18695831298828 24.35705947875977 C 68.42597198486328 20.19359588623047 65.90431976318359 16.45379638671875 62.69205856323242 13.24153518676758 C 59.47979736328125 10.02928161621094 55.73999786376953 7.507637023925781 51.57653427124023 5.746635437011719 C 47.26758575439453 3.924095153808594 42.6886100769043 3 37.966796875 3 M 37.966796875 0 C 58.93528366088867 0 75.93359375 16.99832153320312 75.93359375 37.966796875 C 75.93359375 58.93528366088867 58.93528366088867 75.93359375 37.966796875 75.93359375 C 16.99831008911133 75.93359375 0 58.93528366088867 0 37.966796875 C 0 16.99832153320312 16.99831008911133 0 37.966796875 0 Z" stroke="none" fill="#1bf5f5"/>
                                    </g>
                                  </g>
                                </g>
                              </g>
                            </g>
                          </g>
                        </g>
                      </g>
                    </g>
                  </g>
                </g>
              </g>
            </g>
          </g>
        </g>
      </g>
    </g>
    <g id="g6921" transform="translate(211.597 4312.849)">
      <g id="g6923" transform="translate(0 -682.665)">
        <g id="g6925" transform="translate(0 0)" clip-path="url(#clip-path)">
          <g id="g6931" transform="translate(40.548 42.409)">
            <path id="path6933" d="M-53.392-26.7a2.235,2.235,0,0,1-2.235,2.235A2.235,2.235,0,0,1-57.863-26.7a2.235,2.235,0,0,1,2.235-2.235A2.235,2.235,0,0,1-53.392-26.7" transform="translate(57.863 28.931)" fill="#ffb09e"/>
          </g>
          <g id="g6935" transform="translate(40.548 42.409)">
            <path id="path6937" d="M-53.392-26.7a2.235,2.235,0,0,1-2.235,2.235A2.235,2.235,0,0,1-57.863-26.7a2.235,2.235,0,0,1,2.235-2.235A2.235,2.235,0,0,1-53.392-26.7Z" transform="translate(57.863 28.931)" fill="none" stroke="#000" stroke-linecap="round" stroke-linejoin="round" stroke-miterlimit="10" stroke-width="1"/>
          </g>
          <g id="g6939" transform="translate(28.185 42.409)">
            <path id="path6941" d="M-53.392-26.7a2.235,2.235,0,0,1-2.235,2.235A2.235,2.235,0,0,1-57.863-26.7a2.235,2.235,0,0,1,2.235-2.235A2.235,2.235,0,0,1-53.392-26.7" transform="translate(57.863 28.931)" fill="#ffb09e"/>
          </g>
          <g id="g6943" transform="translate(28.185 42.409)">
            <path id="path6945" d="M-53.392-26.7a2.235,2.235,0,0,1-2.235,2.235A2.235,2.235,0,0,1-57.863-26.7a2.235,2.235,0,0,1,2.235-2.235A2.235,2.235,0,0,1-53.392-26.7Z" transform="translate(57.863 28.931)" fill="none" stroke="#000" stroke-linecap="round" stroke-linejoin="round" stroke-miterlimit="10" stroke-width="1"/>
          </g>
          <g id="g6947" transform="translate(30.731 35.497)">
            <path id="path6949" d="M-140.233-70.111v4.24a5.918,5.918,0,0,1-5.826,5.944,5.871,5.871,0,0,1-5.915-5.87v-4.314a5.871,5.871,0,0,1,5.871-5.87,5.852,5.852,0,0,1,4.151,1.719,5.854,5.854,0,0,1,1.719,4.151" transform="translate(151.974 75.981)" fill="#ffcebf"/>
          </g>
          <g id="g6951" transform="translate(31.719 35.497)">
            <path id="path6953" d="M-116.635-31.176a6.849,6.849,0,0,1-4.882,1.753,6.848,6.848,0,0,1-4.883-1.754,5.868,5.868,0,0,1,4.883-2.609,5.854,5.854,0,0,1,4.151,1.719,5.9,5.9,0,0,1,.731.891" transform="translate(126.4 33.787)" fill="#fee35a"/>
          </g>
          <g id="g6955" transform="translate(34.343 35.497)">
            <path id="path6957" d="M-85.3-31.176a5.4,5.4,0,0,1-2.07,1.281c-.065-.145-.136-.286-.213-.425A5.858,5.858,0,0,0-91.1-33.115a5.84,5.84,0,0,0-1.339-.22,5.828,5.828,0,0,1,2.259-.451,5.854,5.854,0,0,1,4.151,1.719,5.9,5.9,0,0,1,.731.891" transform="translate(92.44 33.787)" fill="#fed400"/>
          </g>
          <g id="g6959" transform="translate(31.719 38.106)">
            <path id="path6961" d="M-116.635-.012a6.849,6.849,0,0,1-4.882,1.753A6.848,6.848,0,0,1-126.4-.013" transform="translate(126.4 0.013)" fill="none" stroke="#000" stroke-linecap="round" stroke-linejoin="round" stroke-miterlimit="10" stroke-width="1"/>
          </g>
          <g id="g6963" transform="translate(30.731 35.497)">
            <path id="path6965" d="M-140.23-70.115v4.24a5.918,5.918,0,0,1-5.826,5.944,5.87,5.87,0,0,1-5.915-5.87v-4.313a5.87,5.87,0,0,1,5.87-5.87h0A5.87,5.87,0,0,1-140.23-70.115Z" transform="translate(151.97 75.985)" fill="none" stroke="#000" stroke-linecap="round" stroke-linejoin="round" stroke-miterlimit="10" stroke-width="1"/>
          </g>
          <g id="g6967" transform="translate(39.282 44.352)">
            <path id="path6969" d="M0,0H.008" fill="none" stroke="#000" stroke-linecap="round" stroke-linejoin="round" stroke-miterlimit="10" stroke-width="1"/>
          </g>
          <g id="g6971" transform="translate(33.913 44.352)">
            <path id="path6973" d="M0,0H.008" fill="none" stroke="#000" stroke-linecap="round" stroke-linejoin="round" stroke-miterlimit="10" stroke-width="1"/>
          </g>
          <g id="g6975" transform="translate(8.024 4.118)">
            <path id="path6977" d="M-100.441-56.9a4.51,4.51,0,0,1-4.2,4.764,4.51,4.51,0,0,1-4.2-4.764,4.51,4.51,0,0,1,4.2-4.764,4.51,4.51,0,0,1,4.2,4.764" transform="translate(108.85 61.66)" fill="#a54f3e"/>
          </g>
          <g id="g6979" transform="translate(8.024 4.118)">
            <path id="path6981" d="M-100.441-56.9a4.51,4.51,0,0,1-4.2,4.764,4.51,4.51,0,0,1-4.2-4.764,4.51,4.51,0,0,1,4.2-4.764A4.51,4.51,0,0,1-100.441-56.9Z" transform="translate(108.85 61.66)" fill="none" stroke="#000" stroke-linecap="round" stroke-linejoin="round" stroke-miterlimit="10" stroke-width="1"/>
          </g>
          <g id="g6983" transform="translate(16.93 4.118)">
            <path id="path6985" d="M-100.441-56.9a4.51,4.51,0,0,1-4.2,4.764,4.51,4.51,0,0,1-4.2-4.764,4.51,4.51,0,0,1,4.2-4.764,4.51,4.51,0,0,1,4.2,4.764" transform="translate(108.85 61.66)" fill="#a54f3e"/>
          </g>
          <g id="g6987" transform="translate(16.93 4.118)">
            <path id="path6989" d="M-95.858-33.156a4.211,4.211,0,0,0-3.821-2.776,4.51,4.51,0,0,0-4.2,4.764,4.51,4.51,0,0,0,4.2,4.764,4.256,4.256,0,0,0,3.923-3.05" transform="translate(103.884 35.932)" fill="none" stroke="#000" stroke-linecap="round" stroke-linejoin="round" stroke-miterlimit="10" stroke-width="1"/>
          </g>
          <g id="g6991" transform="translate(20.635 12.148)">
            <path id="path6993" d="M-53.392-26.7a2.235,2.235,0,0,1-2.235,2.235A2.235,2.235,0,0,1-57.863-26.7a2.235,2.235,0,0,1,2.235-2.235A2.235,2.235,0,0,1-53.392-26.7" transform="translate(57.863 28.931)" fill="#ffb09e"/>
          </g>
          <g id="g6995" transform="translate(20.635 12.148)">
            <path id="path6997" d="M-53.392-26.7a2.235,2.235,0,0,1-2.235,2.235A2.235,2.235,0,0,1-57.863-26.7a2.235,2.235,0,0,1,2.235-2.235A2.235,2.235,0,0,1-53.392-26.7Z" transform="translate(57.863 28.931)" fill="none" stroke="#000" stroke-linecap="round" stroke-linejoin="round" stroke-miterlimit="10" stroke-width="1"/>
          </g>
          <g id="g6999" transform="translate(8.272 12.148)">
            <path id="path7001" d="M-53.392-26.7a2.235,2.235,0,0,1-2.235,2.235A2.235,2.235,0,0,1-57.863-26.7a2.235,2.235,0,0,1,2.235-2.235A2.235,2.235,0,0,1-53.392-26.7" transform="translate(57.863 28.931)" fill="#ffb09e"/>
          </g>
          <g id="g7003" transform="translate(8.272 12.148)">
            <path id="path7005" d="M-53.392-26.7a2.235,2.235,0,0,1-2.235,2.235A2.235,2.235,0,0,1-57.863-26.7a2.235,2.235,0,0,1,2.235-2.235A2.235,2.235,0,0,1-53.392-26.7Z" transform="translate(57.863 28.931)" fill="none" stroke="#000" stroke-linecap="round" stroke-linejoin="round" stroke-miterlimit="10" stroke-width="1"/>
          </g>
          <g id="g7007" transform="translate(10.818 5.235)">
            <path id="path7009" d="M-140.233-70.112v4.24a5.918,5.918,0,0,1-5.826,5.944,5.871,5.871,0,0,1-5.915-5.87v-4.314a5.871,5.871,0,0,1,5.871-5.87,5.852,5.852,0,0,1,4.151,1.719,5.854,5.854,0,0,1,1.719,4.151" transform="translate(151.974 75.982)" fill="#ffcebf"/>
          </g>
          <g id="g7011" transform="translate(10.818 5.236)">
            <path id="path7013" d="M-140.23-70.114v4.24a5.918,5.918,0,0,1-5.826,5.944,5.87,5.87,0,0,1-5.915-5.87v-4.313a5.87,5.87,0,0,1,5.87-5.87A5.87,5.87,0,0,1-140.23-70.114Z" transform="translate(151.97 75.984)" fill="none" stroke="#000" stroke-linecap="round" stroke-linejoin="round" stroke-miterlimit="10" stroke-width="1"/>
          </g>
          <g id="g7015" transform="translate(19.37 14.091)">
            <path id="path7017" d="M0,0H.008" fill="none" stroke="#000" stroke-linecap="round" stroke-linejoin="round" stroke-miterlimit="10" stroke-width="1"/>
          </g>
          <g id="g7019" transform="translate(14.001 14.091)">
            <path id="path7021" d="M0,0H.008" fill="none" stroke="#000" stroke-linecap="round" stroke-linejoin="round" stroke-miterlimit="10" stroke-width="1"/>
          </g>
          <g id="g7023" transform="translate(11.925 1.189)">
            <path id="path7025" d="M-56.9-100.441a4.51,4.51,0,0,1-4.764-4.2,4.51,4.51,0,0,1,4.764-4.2,4.51,4.51,0,0,1,4.764,4.2,4.51,4.51,0,0,1-4.764,4.2" transform="translate(61.66 108.85)" fill="#bc5d4c"/>
          </g>
          <g id="g7027" transform="translate(13.761 1.195)">
            <path id="path7029" d="M-91.868-50.16a4.511,4.511,0,0,1-4.764,4.2,5.156,5.156,0,0,1-2.928-.888c.082,0,.165.005.248.005a4.51,4.51,0,0,0,4.763-4.2,4.044,4.044,0,0,0-1.836-3.317,4.477,4.477,0,0,1,4.516,4.2" transform="translate(99.56 54.36)" fill="#a54f3e"/>
          </g>
          <g id="g7031" transform="translate(11.925 1.189)">
            <path id="path7033" d="M-56.9-100.441a4.51,4.51,0,0,1-4.764-4.2,4.51,4.51,0,0,1,4.764-4.2,4.51,4.51,0,0,1,4.764,4.2A4.51,4.51,0,0,1-56.9-100.441Z" transform="translate(61.66 108.85)" fill="none" stroke="#000" stroke-linecap="round" stroke-linejoin="round" stroke-miterlimit="10" stroke-width="1"/>
          </g>
          <g id="g7035" transform="translate(39.688 12.309)">
            <path id="path7037" d="M-53.391-26.7a2.235,2.235,0,0,1-2.235,2.235A2.235,2.235,0,0,1-57.861-26.7a2.235,2.235,0,0,1,2.235-2.235A2.235,2.235,0,0,1-53.391-26.7" transform="translate(57.861 28.931)" fill="#ffb09e"/>
          </g>
          <g id="g7039" transform="translate(39.688 12.309)">
            <path id="path7041" d="M-53.391-26.7a2.235,2.235,0,0,1-2.235,2.235A2.235,2.235,0,0,1-57.861-26.7a2.235,2.235,0,0,1,2.235-2.235A2.235,2.235,0,0,1-53.391-26.7Z" transform="translate(57.861 28.931)" fill="none" stroke="#000" stroke-linecap="round" stroke-linejoin="round" stroke-miterlimit="10" stroke-width="1"/>
          </g>
          <g id="g7043" transform="translate(27.325 12.309)">
            <path id="path7045" d="M-53.392-26.7a2.235,2.235,0,0,1-2.235,2.235A2.235,2.235,0,0,1-57.863-26.7a2.235,2.235,0,0,1,2.235-2.235A2.235,2.235,0,0,1-53.392-26.7" transform="translate(57.863 28.931)" fill="#ffb09e"/>
          </g>
          <g id="g7047" transform="translate(27.325 12.309)">
            <path id="path7049" d="M-53.392-26.7a2.235,2.235,0,0,1-2.235,2.235A2.235,2.235,0,0,1-57.863-26.7a2.235,2.235,0,0,1,2.235-2.235A2.235,2.235,0,0,1-53.392-26.7Z" transform="translate(57.863 28.931)" fill="none" stroke="#000" stroke-linecap="round" stroke-linejoin="round" stroke-miterlimit="10" stroke-width="1"/>
          </g>
          <g id="g7051" transform="translate(29.871 5.397)">
            <path id="path7053" d="M-140.233-70.111v4.24a5.918,5.918,0,0,1-5.826,5.944,5.871,5.871,0,0,1-5.915-5.87v-4.314a5.871,5.871,0,0,1,5.871-5.87,5.852,5.852,0,0,1,4.151,1.719,5.854,5.854,0,0,1,1.719,4.151" transform="translate(151.974 75.981)" fill="#ffcebf"/>
          </g>
          <g id="g7055" transform="translate(30.859 5.397)">
            <path id="path7057" d="M-116.635-31.176a6.849,6.849,0,0,1-4.883,1.753,6.848,6.848,0,0,1-4.883-1.754,5.868,5.868,0,0,1,4.883-2.609,5.855,5.855,0,0,1,4.151,1.719,5.9,5.9,0,0,1,.731.891" transform="translate(126.4 33.787)" fill="#547984"/>
          </g>
          <g id="g7059" transform="translate(33.483 5.397)">
            <path id="path7061" d="M-85.3-31.176a5.4,5.4,0,0,1-2.07,1.281c-.065-.145-.136-.286-.213-.425A5.858,5.858,0,0,0-91.1-33.115a5.84,5.84,0,0,0-1.339-.22,5.828,5.828,0,0,1,2.259-.451,5.855,5.855,0,0,1,4.151,1.719,5.9,5.9,0,0,1,.731.891" transform="translate(92.44 33.787)" fill="#3e5958"/>
          </g>
          <g id="g7063" transform="translate(30.859 8.006)">
            <path id="path7065" d="M-116.635-.012a6.849,6.849,0,0,1-4.883,1.753A6.848,6.848,0,0,1-126.4-.013" transform="translate(126.4 0.013)" fill="none" stroke="#000" stroke-linecap="round" stroke-linejoin="round" stroke-miterlimit="10" stroke-width="1"/>
          </g>
          <g id="g7067" transform="translate(29.871 5.397)">
            <path id="path7069" d="M-140.23-70.114v4.24a5.918,5.918,0,0,1-5.826,5.944,5.87,5.87,0,0,1-5.915-5.87v-4.313a5.87,5.87,0,0,1,5.87-5.87h0A5.87,5.87,0,0,1-140.23-70.114Z" transform="translate(151.97 75.984)" fill="none" stroke="#000" stroke-linecap="round" stroke-linejoin="round" stroke-miterlimit="10" stroke-width="1"/>
          </g>
          <g id="g7071" transform="translate(38.423 14.252)">
            <path id="path7073" d="M0,0H.008" fill="none" stroke="#000" stroke-linecap="round" stroke-linejoin="round" stroke-miterlimit="10" stroke-width="1"/>
          </g>
          <g id="g7075" transform="translate(33.054 14.252)">
            <path id="path7077" d="M0,0H.008" fill="none" stroke="#000" stroke-linecap="round" stroke-linejoin="round" stroke-miterlimit="10" stroke-width="1"/>
          </g>
          <g id="g7079" transform="translate(13.223 28.471)">
            <path id="path7081" d="M-53.392-26.7a2.235,2.235,0,0,1-2.235,2.235A2.235,2.235,0,0,1-57.863-26.7a2.235,2.235,0,0,1,2.235-2.235A2.235,2.235,0,0,1-53.392-26.7" transform="translate(57.863 28.931)" fill="#ffb09e"/>
          </g>
          <g id="g7083" transform="translate(13.223 28.471)">
            <path id="path7085" d="M-53.392-26.7a2.235,2.235,0,0,1-2.235,2.235A2.235,2.235,0,0,1-57.863-26.7a2.235,2.235,0,0,1,2.235-2.235A2.235,2.235,0,0,1-53.392-26.7Z" transform="translate(57.863 28.931)" fill="none" stroke="#000" stroke-linecap="round" stroke-linejoin="round" stroke-miterlimit="10" stroke-width="1"/>
          </g>
          <g id="g7087" transform="translate(0.86 28.471)">
            <path id="path7089" d="M-53.392-26.7a2.235,2.235,0,0,1-2.235,2.235A2.235,2.235,0,0,1-57.863-26.7a2.235,2.235,0,0,1,2.235-2.235A2.235,2.235,0,0,1-53.392-26.7" transform="translate(57.863 28.931)" fill="#ffb09e"/>
          </g>
          <g id="g7091" transform="translate(0.86 28.471)">
            <path id="path7093" d="M-53.392-26.7a2.235,2.235,0,0,1-2.235,2.235A2.235,2.235,0,0,1-57.863-26.7a2.235,2.235,0,0,1,2.235-2.235A2.235,2.235,0,0,1-53.392-26.7Z" transform="translate(57.863 28.931)" fill="none" stroke="#000" stroke-linecap="round" stroke-linejoin="round" stroke-miterlimit="10" stroke-width="1"/>
          </g>
          <g id="g7095" transform="translate(3.406 21.559)">
            <path id="path7097" d="M-140.233-70.111v4.24a5.918,5.918,0,0,1-5.826,5.944,5.871,5.871,0,0,1-5.915-5.87v-4.314a5.87,5.87,0,0,1,5.871-5.87,5.852,5.852,0,0,1,4.151,1.719,5.854,5.854,0,0,1,1.719,4.151" transform="translate(151.974 75.981)" fill="#ffcebf"/>
          </g>
          <g id="g7099" transform="translate(3.406 21.559)">
            <path id="path7101" d="M-140.23-70.114v4.24a5.918,5.918,0,0,1-5.826,5.944,5.87,5.87,0,0,1-5.915-5.87v-4.313a5.87,5.87,0,0,1,5.87-5.87A5.87,5.87,0,0,1-140.23-70.114Z" transform="translate(151.97 75.984)" fill="none" stroke="#000" stroke-linecap="round" stroke-linejoin="round" stroke-miterlimit="10" stroke-width="1"/>
          </g>
          <g id="g7103" transform="translate(11.958 30.414)">
            <path id="path7105" d="M0,0H.008" fill="none" stroke="#000" stroke-linecap="round" stroke-linejoin="round" stroke-miterlimit="10" stroke-width="1"/>
          </g>
          <g id="g7107" transform="translate(6.588 30.414)">
            <path id="path7109" d="M0,0H.008" fill="none" stroke="#000" stroke-linecap="round" stroke-linejoin="round" stroke-miterlimit="10" stroke-width="1"/>
          </g>
          <g id="g7111" transform="translate(0.773 18.767)">
            <path id="path7113" d="M-202.235-61.188a5.766,5.766,0,0,0-3.5-4.682A5.813,5.813,0,0,0-208-66.311h-5.328a5.814,5.814,0,0,0-2.266.441,5.766,5.766,0,0,0-3.5,4.682c-.961,5.659,7.493,2.911,8.428,2.591.935.32,9.389,3.068,8.428-2.591" transform="translate(219.167 66.311)" fill="#fee97d"/>
          </g>
          <g id="g7115" transform="translate(9.261 18.768)">
            <path id="path7117" d="M-42.551-102.194c1.5-.284,2.579-1.209,2.2-3.434a5.768,5.768,0,0,0-3.5-4.683,5.821,5.821,0,0,0-2.266-.44h2.68a5.825,5.825,0,0,1,2.266.44,5.768,5.768,0,0,1,3.5,4.683c.584,3.44-2.311,3.773-4.882,3.434" transform="translate(46.113 110.75)" fill="#fed400"/>
          </g>
          <g id="g7119" transform="translate(9.277 18.767)">
            <path id="path7121" d="M0,0V4.331" fill="none" stroke="#000" stroke-linecap="round" stroke-linejoin="round" stroke-miterlimit="10" stroke-width="1"/>
          </g>
          <g id="g7123" transform="translate(7.153 22.105)">
            <path id="path7125" d="M-25.364-25.364h0a2.124,2.124,0,0,0-2.124-2.124" transform="translate(27.488 27.488)" fill="none" stroke="#000" stroke-linecap="round" stroke-linejoin="round" stroke-miterlimit="10" stroke-width="1"/>
          </g>
          <g id="g7127" transform="translate(9.277 22.105)">
            <path id="path7129" d="M0-52.263v-2.252a2.124,2.124,0,0,1,2.124-2.124" transform="translate(0 56.639)" fill="none" stroke="#000" stroke-linecap="round" stroke-linejoin="round" stroke-miterlimit="10" stroke-width="1"/>
          </g>
          <g id="g7131" transform="translate(0.773 18.767)">
            <path id="path7133" d="M-202.235-61.188a5.766,5.766,0,0,0-3.5-4.682A5.813,5.813,0,0,0-208-66.311h-5.328a5.814,5.814,0,0,0-2.266.441,5.766,5.766,0,0,0-3.5,4.682c-.961,5.659,7.493,2.911,8.428,2.591C-209.728-58.276-201.274-55.529-202.235-61.188Z" transform="translate(219.167 66.311)" fill="none" stroke="#000" stroke-linecap="round" stroke-linejoin="round" stroke-miterlimit="10" stroke-width="1"/>
          </g>
          <g id="g7135" transform="translate(14.237 16.464)">
            <path id="path7137" d="M-197.5-197.5a6.96,6.96,0,0,1-7.894,1.359l9.253-9.253a6.96,6.96,0,0,1-1.36,7.894m-9.835-9.836a6.933,6.933,0,0,1,4.918-2.034,6.968,6.968,0,0,1,2.976.674l-9.253,9.253a6.96,6.96,0,0,1,1.36-7.894m13.137-3.3a11.637,11.637,0,0,0-16.438,0,11.637,11.637,0,0,0,0,16.438,11.588,11.588,0,0,0,8.219,3.4,11.588,11.588,0,0,0,8.219-3.4,11.637,11.637,0,0,0,0-16.438" transform="translate(214.032 214.036)" fill="#fd636f"/>
          </g>
          <g id="g7139" transform="translate(24.035 16.464)">
            <path id="path7141" d="M-119.906-236.923a11.587,11.587,0,0,1-8.219,3.4,11.64,11.64,0,0,1-1.82-.143,11.551,11.551,0,0,0,6.4-3.256,11.637,11.637,0,0,0,0-16.438,11.552,11.552,0,0,0-6.4-3.256,11.615,11.615,0,0,1,10.039,3.256,11.637,11.637,0,0,1,0,16.438" transform="translate(129.945 256.759)" fill="#fe4855"/>
          </g>
          <g id="g7143" transform="translate(14.237 16.464)">
            <path id="path7145" d="M-176.742-140.211l3.1-3.1a6.96,6.96,0,0,1-1.36,7.894,6.96,6.96,0,0,1-7.894,1.36l3.539-3.539m-5.481-7.656a6.933,6.933,0,0,1,4.918-2.034,6.967,6.967,0,0,1,2.976.674l-9.253,9.253A6.96,6.96,0,0,1-184.84-145.251Zm13.136-3.3a11.637,11.637,0,0,0-16.438,0,11.637,11.637,0,0,0,0,16.438,11.588,11.588,0,0,0,8.219,3.4,11.588,11.588,0,0,0,8.219-3.4A11.637,11.637,0,0,0-171.7-148.552Z" transform="translate(191.54 151.951)" fill="none" stroke="#000" stroke-linecap="round" stroke-linejoin="round" stroke-miterlimit="10" stroke-width="1"/>
          </g>
          <g id="g7147" transform="translate(8.762 33.481)">
            <path id="path7149" d="M-100.44-56.9a4.51,4.51,0,0,1-4.2,4.764,4.51,4.51,0,0,1-4.2-4.764,4.51,4.51,0,0,1,4.2-4.764,4.51,4.51,0,0,1,4.2,4.764" transform="translate(108.849 61.659)" fill="#3e5958"/>
          </g>
          <g id="g7151" transform="translate(8.762 33.481)">
            <path id="path7153" d="M-100.44-56.9a4.51,4.51,0,0,1-4.2,4.764,4.51,4.51,0,0,1-4.2-4.764,4.51,4.51,0,0,1,4.2-4.764A4.51,4.51,0,0,1-100.44-56.9Z" transform="translate(108.849 61.659)" fill="none" stroke="#000" stroke-linecap="round" stroke-linejoin="round" stroke-miterlimit="10" stroke-width="1"/>
          </g>
          <g id="g7155" transform="translate(21.125 41.511)">
            <path id="path7157" d="M-53.392-26.7a2.235,2.235,0,0,1-2.235,2.235A2.235,2.235,0,0,1-57.863-26.7a2.235,2.235,0,0,1,2.235-2.235A2.235,2.235,0,0,1-53.392-26.7" transform="translate(57.863 28.932)" fill="#ffb09e"/>
          </g>
          <g id="g7159" transform="translate(21.125 41.511)">
            <path id="path7161" d="M-53.392-26.7a2.235,2.235,0,0,1-2.235,2.235A2.235,2.235,0,0,1-57.863-26.7a2.235,2.235,0,0,1,2.235-2.235A2.235,2.235,0,0,1-53.392-26.7Z" transform="translate(57.863 28.932)" fill="none" stroke="#000" stroke-linecap="round" stroke-linejoin="round" stroke-miterlimit="10" stroke-width="1"/>
          </g>
          <g id="g7163" transform="translate(8.762 41.511)">
            <path id="path7165" d="M-53.392-26.7a2.235,2.235,0,0,1-2.235,2.235A2.235,2.235,0,0,1-57.863-26.7a2.235,2.235,0,0,1,2.235-2.235A2.235,2.235,0,0,1-53.392-26.7" transform="translate(57.863 28.932)" fill="#ffb09e"/>
          </g>
          <g id="g7167" transform="translate(8.762 41.511)">
            <path id="path7169" d="M-53.392-26.7a2.235,2.235,0,0,1-2.235,2.235A2.235,2.235,0,0,1-57.863-26.7a2.235,2.235,0,0,1,2.235-2.235A2.235,2.235,0,0,1-53.392-26.7Z" transform="translate(57.863 28.932)" fill="none" stroke="#000" stroke-linecap="round" stroke-linejoin="round" stroke-miterlimit="10" stroke-width="1"/>
          </g>
          <g id="g7171" transform="translate(11.307 34.599)">
            <path id="path7173" d="M-140.233-70.112v4.24a5.918,5.918,0,0,1-5.826,5.944,5.871,5.871,0,0,1-5.915-5.87v-4.314a5.871,5.871,0,0,1,5.871-5.87,5.852,5.852,0,0,1,4.151,1.719,5.854,5.854,0,0,1,1.719,4.151" transform="translate(151.974 75.982)" fill="#ffcebf"/>
          </g>
          <g id="g7175" transform="translate(11.308 34.599)">
            <path id="path7177" d="M-140.23-70.115v4.24a5.918,5.918,0,0,1-5.826,5.944,5.87,5.87,0,0,1-5.915-5.87v-4.313a5.87,5.87,0,0,1,5.87-5.87A5.87,5.87,0,0,1-140.23-70.115Z" transform="translate(151.97 75.985)" fill="none" stroke="#000" stroke-linecap="round" stroke-linejoin="round" stroke-miterlimit="10" stroke-width="1"/>
          </g>
          <g id="g7179" transform="translate(19.859 43.454)">
            <path id="path7181" d="M0,0H.008" fill="none" stroke="#000" stroke-linecap="round" stroke-linejoin="round" stroke-miterlimit="10" stroke-width="1"/>
          </g>
          <g id="g7183" transform="translate(14.49 43.454)">
            <path id="path7185" d="M0,0H.008" fill="none" stroke="#000" stroke-linecap="round" stroke-linejoin="round" stroke-miterlimit="10" stroke-width="1"/>
          </g>
          <g id="g7187" transform="translate(12.659 31.167)">
            <path id="path7189" d="M-135.851-39.993c.7-.638,1.029-1.325.833-1.919-.4-1.228-9.713-2.976-11.951,1.215-1.14,2.135,1.705,5.955,4.942,6.932s6.5-.073,7.277-2.345a3.861,3.861,0,0,0-1.1-3.884" transform="translate(147.226 43.341)" fill="#547984"/>
          </g>
          <g id="g7191" transform="translate(17.195 31.28)">
            <path id="path7193" d="M-94.831-85.034c-.783,2.272-4.041,3.322-7.278,2.345a6.412,6.412,0,0,1-.662-.241c2.48.13,4.645-.9,5.264-2.7a3.616,3.616,0,0,0-.623-3.3.955.955,0,0,1,.014-1.125,1.525,1.525,0,0,0,.34-1.378c-.078-.237-.488-.493-1.114-.723,2.014.241,3.626.822,3.79,1.317.2.594-.136,1.281-.833,1.919a3.863,3.863,0,0,1,1.1,3.884" transform="translate(102.77 92.153)" fill="#3e5958"/>
          </g>
          <g id="g7195" transform="translate(12.659 31.167)">
            <path id="path7197" d="M-66.846-115.683c3.1.779,6.129-.275,6.879-2.454a3.86,3.86,0,0,0-1.1-3.884c.7-.638,1.029-1.325.833-1.919-.4-1.228-9.713-2.977-11.951,1.215-.777,1.454.3,3.689,2.082,5.276" transform="translate(72.442 125.368)" fill="none" stroke="#000" stroke-linecap="round" stroke-linejoin="round" stroke-miterlimit="10" stroke-width="1"/>
          </g>
          <g id="g7199" transform="translate(35.134 17.866)">
            <path id="path7201" d="M-100.441-56.9a4.51,4.51,0,0,1-4.2,4.764,4.51,4.51,0,0,1-4.2-4.764,4.51,4.51,0,0,1,4.2-4.764,4.51,4.51,0,0,1,4.2,4.764" transform="translate(108.85 61.66)" fill="#a54f3e"/>
          </g>
          <g id="g7203" transform="translate(35.134 17.866)">
            <path id="path7205" d="M-100.441-56.9a4.51,4.51,0,0,1-4.2,4.764,4.51,4.51,0,0,1-4.2-4.764,4.51,4.51,0,0,1,4.2-4.764A4.51,4.51,0,0,1-100.441-56.9Z" transform="translate(108.85 61.66)" fill="none" stroke="#000" stroke-linecap="round" stroke-linejoin="round" stroke-miterlimit="10" stroke-width="1"/>
          </g>
          <g id="g7207" transform="translate(47.497 25.895)">
            <path id="path7209" d="M-53.392-26.7a2.235,2.235,0,0,1-2.235,2.235A2.235,2.235,0,0,1-57.863-26.7a2.235,2.235,0,0,1,2.235-2.235A2.235,2.235,0,0,1-53.392-26.7" transform="translate(57.863 28.931)" fill="#ffb09e"/>
          </g>
          <g id="g7211" transform="translate(47.497 25.895)">
            <path id="path7213" d="M-53.392-26.7a2.235,2.235,0,0,1-2.235,2.235A2.235,2.235,0,0,1-57.863-26.7a2.235,2.235,0,0,1,2.235-2.235A2.235,2.235,0,0,1-53.392-26.7Z" transform="translate(57.863 28.931)" fill="none" stroke="#000" stroke-linecap="round" stroke-linejoin="round" stroke-miterlimit="10" stroke-width="1"/>
          </g>
          <g id="g7215" transform="translate(35.134 25.895)">
            <path id="path7217" d="M-53.392-26.7a2.235,2.235,0,0,1-2.235,2.235A2.235,2.235,0,0,1-57.863-26.7a2.235,2.235,0,0,1,2.235-2.235A2.235,2.235,0,0,1-53.392-26.7" transform="translate(57.863 28.931)" fill="#ffb09e"/>
          </g>
          <g id="g7219" transform="translate(35.134 25.895)">
            <path id="path7221" d="M-53.392-26.7a2.235,2.235,0,0,1-2.235,2.235A2.235,2.235,0,0,1-57.863-26.7a2.235,2.235,0,0,1,2.235-2.235A2.235,2.235,0,0,1-53.392-26.7Z" transform="translate(57.863 28.931)" fill="none" stroke="#000" stroke-linecap="round" stroke-linejoin="round" stroke-miterlimit="10" stroke-width="1"/>
          </g>
          <g id="g7223" transform="translate(37.68 18.983)">
            <path id="path7225" d="M-140.233-70.111v4.24a5.918,5.918,0,0,1-5.826,5.944,5.871,5.871,0,0,1-5.915-5.87v-4.314a5.87,5.87,0,0,1,5.871-5.87,5.852,5.852,0,0,1,4.151,1.719,5.854,5.854,0,0,1,1.719,4.151" transform="translate(151.974 75.981)" fill="#ffcebf"/>
          </g>
          <g id="g7227" transform="translate(37.681 18.983)">
            <path id="path7229" d="M-140.231-70.114v4.24a5.918,5.918,0,0,1-5.826,5.944,5.87,5.87,0,0,1-5.915-5.87v-4.313a5.87,5.87,0,0,1,5.87-5.87A5.87,5.87,0,0,1-140.231-70.114Z" transform="translate(151.972 75.984)" fill="none" stroke="#000" stroke-linecap="round" stroke-linejoin="round" stroke-miterlimit="10" stroke-width="1"/>
          </g>
          <g id="g7231" transform="translate(46.232 27.838)">
            <path id="path7233" d="M0,0H.008" fill="none" stroke="#000" stroke-linecap="round" stroke-linejoin="round" stroke-miterlimit="10" stroke-width="1"/>
          </g>
          <g id="g7235" transform="translate(40.863 27.838)">
            <path id="path7237" d="M0,0H.008" fill="none" stroke="#000" stroke-linecap="round" stroke-linejoin="round" stroke-miterlimit="10" stroke-width="1"/>
          </g>
          <g id="g7239" transform="translate(39.031 15.551)">
            <path id="path7241" d="M-135.851-39.992c.7-.638,1.029-1.325.833-1.919-.4-1.228-9.713-2.976-11.951,1.215-1.14,2.135,1.705,5.955,4.942,6.932s6.5-.073,7.277-2.345a3.861,3.861,0,0,0-1.1-3.884" transform="translate(147.226 43.341)" fill="#bc5d4c"/>
          </g>
          <g id="g7243" transform="translate(43.568 15.664)">
            <path id="path7245" d="M-94.83-85.034c-.783,2.272-4.041,3.322-7.278,2.345a6.378,6.378,0,0,1-.662-.241c2.48.13,4.645-.9,5.264-2.7a3.617,3.617,0,0,0-.623-3.3.955.955,0,0,1,.014-1.125,1.524,1.524,0,0,0,.34-1.378c-.078-.238-.488-.493-1.114-.723,2.014.241,3.626.822,3.79,1.317.2.594-.136,1.281-.833,1.919a3.862,3.862,0,0,1,1.1,3.884" transform="translate(102.769 92.153)" fill="#a54f3e"/>
          </g>
          <g id="g7247" transform="translate(39.031 15.551)">
            <path id="path7249" d="M-135.851-39.992c.7-.638,1.029-1.325.833-1.919-.4-1.228-9.713-2.976-11.951,1.215-1.14,2.135,1.705,5.955,4.942,6.932s6.5-.073,7.277-2.345A3.861,3.861,0,0,0-135.851-39.992Z" transform="translate(147.226 43.341)" fill="none" stroke="#000" stroke-linecap="round" stroke-linejoin="round" stroke-miterlimit="10" stroke-width="1"/>
          </g>
        </g>
      </g>
    </g>
  </g>
</svg>
