<svg xmlns="http://www.w3.org/2000/svg" xmlns:xlink="http://www.w3.org/1999/xlink" width="93.934" height="93.934" viewBox="0 0 93.934 93.934">
  <defs>
    <filter id="Trazado_982547" x="0" y="0" width="93.934" height="93.934" filterUnits="userSpaceOnUse">
      <feOffset dy="3" input="SourceAlpha"/>
      <feGaussianBlur stdDeviation="3" result="blur"/>
      <feFlood flood-opacity="0.161"/>
      <feComposite operator="in" in2="blur"/>
      <feComposite in="SourceGraphic"/>
    </filter>
  </defs>
  <g id="Grupo_1219809" data-name="Grupo 1219809" transform="translate(-611 -3612)">
    <g id="Grupo_1219552" data-name="Grupo 1219552" transform="translate(0 -4926)">
      <g id="Grupo_1219301" data-name="Grupo 1219301" transform="translate(419.705 4816)">
        <g id="Grupo_1214594" data-name="Grupo 1214594" transform="translate(0 -1406)">
          <g id="Grupo_1214432" data-name="Grupo 1214432" transform="translate(-0.771 -2738.674)">
            <g id="Grupo_1183196" data-name="Grupo 1183196" transform="translate(1 1016.674)">
              <g id="Grupo_1179610" data-name="Grupo 1179610" transform="translate(8 4723.467)">
                <g id="Grupo_1175227" data-name="Grupo 1175227" transform="translate(-5.967 140.533)">
                  <g id="Grupo_1167337" data-name="Grupo 1167337" transform="translate(198.033 1992)">
                    <g id="Grupo_1166720" data-name="Grupo 1166720">
                      <g id="Grupo_1164305" data-name="Grupo 1164305">
                        <g id="Grupo_1163948" data-name="Grupo 1163948">
                          <g id="Grupo_1158168" data-name="Grupo 1158168">
                            <g id="Grupo_1152576" data-name="Grupo 1152576">
                              <g id="Grupo_1148633" data-name="Grupo 1148633">
                                <g id="Grupo_1148525" data-name="Grupo 1148525">
                                  <g transform="matrix(1, 0, 0, 1, -9, -6)" filter="url(#Trazado_982547)">
                                    <g id="Trazado_982547-2" data-name="Trazado 982547" transform="translate(9 6)" fill="#e6fdfd">
                                      <path d="M 37.966796875 74.43359375 C 33.04315185546875 74.43359375 28.26757431030273 73.46962738037109 23.77274131774902 71.56847381591797 C 19.43047523498535 69.73184967041016 15.53040790557861 67.10224914550781 12.18087482452393 63.75271987915039 C 8.831341743469238 60.4031867980957 6.201741218566895 56.50312042236328 4.365118980407715 52.16086196899414 C 2.463963508605957 47.66601943969727 1.499996900558472 42.89044189453125 1.499996900558472 37.966796875 C 1.499996900558472 33.04315185546875 2.463963508605957 28.26757431030273 4.365118980407715 23.77274131774902 C 6.201741218566895 19.43047523498535 8.831341743469238 15.53040790557861 12.18087482452393 12.18087482452393 C 15.53040790557861 8.831341743469238 19.43047523498535 6.201741218566895 23.77274131774902 4.365118980407715 C 28.26757431030273 2.463963508605957 33.04315185546875 1.499996900558472 37.966796875 1.499996900558472 C 42.89044189453125 1.499996900558472 47.66601943969727 2.463963508605957 52.16086196899414 4.365118980407715 C 56.50312042236328 6.201741218566895 60.4031867980957 8.831341743469238 63.75271987915039 12.18087482452393 C 67.10224914550781 15.53040790557861 69.73184967041016 19.43047523498535 71.56847381591797 23.77274131774902 C 73.46962738037109 28.26757431030273 74.43359375 33.04315185546875 74.43359375 37.966796875 C 74.43359375 42.89044189453125 73.46962738037109 47.66601943969727 71.56847381591797 52.16086196899414 C 69.73184967041016 56.50313186645508 67.10224914550781 60.4031867980957 63.75271987915039 63.75271987915039 C 60.4031867980957 67.10224914550781 56.50313186645508 69.73184967041016 52.16086196899414 71.56847381591797 C 47.66601943969727 73.46962738037109 42.89044189453125 74.43359375 37.966796875 74.43359375 Z" stroke="none"/>
                                      <path d="M 37.966796875 3 C 33.2449836730957 3 28.66600799560547 3.924095153808594 24.35705947875977 5.746635437011719 C 20.19359588623047 7.507637023925781 16.45379638671875 10.02928161621094 13.24153518676758 13.24153518676758 C 10.02927398681641 16.45379638671875 7.507621765136719 20.19359588623047 5.746635437011719 24.35705947875977 C 3.924095153808594 28.66600799560547 3 33.2449836730957 3 37.966796875 C 3 42.6886100769043 3.924095153808594 47.26758575439453 5.746635437011719 51.57653427124023 C 7.507621765136719 55.73999786376953 10.02927398681641 59.47979736328125 13.24153518676758 62.69205856323242 C 16.45379638671875 65.90431976318359 20.19359588623047 68.42597198486328 24.35705947875977 70.18695831298828 C 28.66600799560547 72.00949859619141 33.2449836730957 72.93359375 37.966796875 72.93359375 C 42.6886100769043 72.93359375 47.26758575439453 72.00949859619141 51.57653427124023 70.18695831298828 C 55.73999786376953 68.42597198486328 59.47979736328125 65.90431976318359 62.69205856323242 62.69205856323242 C 65.90431976318359 59.47979736328125 68.42597198486328 55.73999786376953 70.18695831298828 51.57653427124023 C 72.00949859619141 47.26758575439453 72.93359375 42.6886100769043 72.93359375 37.966796875 C 72.93359375 33.2449836730957 72.00949859619141 28.66600799560547 70.18695831298828 24.35705947875977 C 68.42597198486328 20.19359588623047 65.90431976318359 16.45379638671875 62.69205856323242 13.24153518676758 C 59.47979736328125 10.02928161621094 55.73999786376953 7.507637023925781 51.57653427124023 5.746635437011719 C 47.26758575439453 3.924095153808594 42.6886100769043 3 37.966796875 3 M 37.966796875 0 C 58.93528366088867 0 75.93359375 16.99832153320312 75.93359375 37.966796875 C 75.93359375 58.93528366088867 58.93528366088867 75.93359375 37.966796875 75.93359375 C 16.99831008911133 75.93359375 0 58.93528366088867 0 37.966796875 C 0 16.99832153320312 16.99831008911133 0 37.966796875 0 Z" stroke="none" fill="#1bf5f5"/>
                                    </g>
                                  </g>
                                </g>
                              </g>
                            </g>
                          </g>
                        </g>
                      </g>
                    </g>
                  </g>
                </g>
              </g>
            </g>
          </g>
        </g>
      </g>
    </g>
    <g id="nino" transform="translate(623.307 3626.972)">
      <path id="Trazado_1044816" data-name="Trazado 1044816" d="M55.455,102.435l-.852-8A5.345,5.345,0,0,0,50.529,89.8l-3.38-.807H24.233l-3.38.807a5.345,5.345,0,0,0-4.073,4.633l-.852,8Z" transform="translate(-1.031 -49.722)" fill="#a5cdff"/>
      <path id="Trazado_1044817" data-name="Trazado 1044817" d="M61.491,73.908a14.953,14.953,0,0,1-2.039,1.259,5.423,5.423,0,0,1-4.93,0,14.952,14.952,0,0,1-2.04-1.259h0l-.393,4.634a15.629,15.629,0,0,0,4.9,5.188,15.629,15.629,0,0,0,4.9-5.188l-.394-4.634Z" transform="translate(-22.325 -40.84)" fill="#f7d291"/>
      <path id="Trazado_1044818" data-name="Trazado 1044818" d="M69.729,71.46l-.02.016a14.149,14.149,0,0,1-1.187.978l-.015.012L68.9,77.1A15.629,15.629,0,0,1,64,82.289s8.5.319,11.459-3.622A6.957,6.957,0,0,0,69.729,71.46Z" transform="translate(-29.34 -39.398)" fill="#8cb4eb"/>
      <path id="Trazado_1044819" data-name="Trazado 1044819" d="M42.678,77.1l.393-4.634-.015-.013a14.207,14.207,0,0,1-1.187-.978l-.02-.016a6.957,6.957,0,0,0-5.729,7.207c2.955,3.941,11.459,3.622,11.459,3.622A15.629,15.629,0,0,1,42.678,77.1Z" transform="translate(-12.919 -39.398)" fill="#8cb4eb"/>
      <path id="Trazado_1044820" data-name="Trazado 1044820" d="M57.417,11.081c3.448,3.4.382,11.048.382,11.048l-1.665-1.679a5.016,5.016,0,0,1-1.413-2.889l-.342-2.638a29.317,29.317,0,0,1-6.758.72,29.317,29.317,0,0,1-6.758-.72l-.342,2.638a5.018,5.018,0,0,1-1.413,2.889l-1.665,1.679S33.782,13.01,38.95,10.257c0,0,.392-3.95,6.7-3.95s8.992,1.676,12.355,0A4.088,4.088,0,0,1,57.417,11.081Z" transform="translate(-12.959 -1.031)" fill="#cd916e"/>
      <path id="Trazado_1044821" data-name="Trazado 1044821" d="M34.612,44.364s-2.3-1.1-3.072.931a3.062,3.062,0,0,0,3.744,3.944H54.3A3.062,3.062,0,0,0,58.042,45.3c-.773-2.033-3.072-.931-3.072-.931Z" transform="translate(-10.131 -23.266)" fill="#f7d291"/>
      <path id="Trazado_1044822" data-name="Trazado 1044822" d="M56.52,29.9l-.342-2.638a29.317,29.317,0,0,1-6.758.72,29.317,29.317,0,0,1-6.758-.72L42.319,29.9a5.019,5.019,0,0,1-1.413,2.889L39.241,34.47c0,8.006,4.7,11.69,7.714,13.23a5.423,5.423,0,0,0,4.93,0C54.9,46.16,59.6,42.476,59.6,34.47l-1.665-1.679A5.016,5.016,0,0,1,56.52,29.9Z" transform="translate(-14.76 -13.372)" fill="#ffe1a0"/>
      <g id="Grupo_1219808" data-name="Grupo 1219808" transform="translate(14.177 4.557)">
        <path id="Trazado_1044823" data-name="Trazado 1044823" d="M55.887,61.59a.719.719,0,0,0,.272.981,7.235,7.235,0,0,0,6.017,0,.719.719,0,1,0-.7-1.255,5.875,5.875,0,0,1-4.6,0A.719.719,0,0,0,55.887,61.59Z" transform="translate(-38.684 -37.927)"/>
        <path id="Trazado_1044824" data-name="Trazado 1044824" d="M110.955,113.048l-.56-5.262a.719.719,0,1,0-1.431.153l.56,5.262a.719.719,0,0,0,.715.643.705.705,0,0,0,.077,0,.719.719,0,0,0,.639-.792Z" transform="translate(-69.993 -64.968)"/>
        <path id="Trazado_1044825" data-name="Trazado 1044825" d="M107.567,97.254a.719.719,0,0,0,.488-.893,6.031,6.031,0,0,0-.914-1.858.719.719,0,1,0-1.163.846,4.618,4.618,0,0,1,.7,1.417.719.719,0,0,0,.893.488Z" transform="translate(-68.156 -57.35)"/>
        <path id="Trazado_1044826" data-name="Trazado 1044826" d="M49.493,39.335,46.829,38.7a7.585,7.585,0,0,0-5.067-7.007,14.055,14.055,0,0,0,2.906-4.933c.12.009.239.018.356.018a3.6,3.6,0,0,0,2.858-1.266,3.918,3.918,0,0,0,.7-3.738,2.514,2.514,0,0,0-1.406-1.509,2.81,2.81,0,0,0-1.23-.176c.7-2.292,1.768-7.115-.532-10.043a4.824,4.824,0,0,0,.263-5.12.72.72,0,0,0-.946-.288c-1.873.932-3.524.716-6.021.389A43.542,43.542,0,0,0,32.7,4.557c-5.668,0-7.03,3.086-7.336,4.2a5.437,5.437,0,0,0-1.765,1.727.72.72,0,0,0,1.213.775,4.034,4.034,0,0,1,1.521-1.4.733.733,0,0,0,.377-.557C26.721,9.171,27.166,6,32.693,6a41.74,41.74,0,0,1,5.826.452c2.294.3,4.156.546,6.148-.218a3.155,3.155,0,0,1-.719,3.311.719.719,0,0,0,0,1.022c2.352,2.322,1.24,7.084.583,9.207l-.85-.857a4.325,4.325,0,0,1-1.21-2.475L42.129,13.8a.719.719,0,0,0-.89-.606,28.784,28.784,0,0,1-6.578.7,28.989,28.989,0,0,1-6.578-.7.719.719,0,0,0-.9.6l-.342,2.638a4.325,4.325,0,0,1-1.211,2.475l-.849.858a17.209,17.209,0,0,1-.837-5.225.72.72,0,0,0-.7-.74.706.706,0,0,0-.738.7,18.373,18.373,0,0,0,.866,5.58,2.812,2.812,0,0,0-1.233.176,2.514,2.514,0,0,0-1.407,1.509,3.919,3.919,0,0,0,.7,3.738A3.6,3.6,0,0,0,24.3,26.775c.117,0,.236-.009.356-.018a14.066,14.066,0,0,0,2.905,4.933A7.587,7.587,0,0,0,22.491,38.7l-2.837.678a6.075,6.075,0,0,0-4.621,5.257l-.852,8a.719.719,0,0,0,.64.791.7.7,0,0,0,.077,0,.72.72,0,0,0,.715-.643l.852-8a4.633,4.633,0,0,1,3.524-4.009l2.943-.7c1.771,2.007,4.845,2.885,7.409,3.264v6.679a.719.719,0,1,0,1.439,0V43.508c1.013.092,1.858.111,2.373.111.266,0,.438,0,.508-.007s.242.007.507.007c.516,0,1.36-.019,2.374-.111v6.508a.719.719,0,1,0,1.439,0V43.337c2.563-.379,5.638-1.257,7.409-3.264l2.77.661a.71.71,0,0,0,.167.02.719.719,0,0,0,.164-1.42ZM46.643,21.6a1.087,1.087,0,0,1,.6.684,2.486,2.486,0,0,1-.46,2.3,2.171,2.171,0,0,1-1.7.751,17.891,17.891,0,0,0,.467-3.73,1.836,1.836,0,0,1,1.093-.007ZM26.657,19.926a5.773,5.773,0,0,0,1.616-3.3l.241-1.859a32.294,32.294,0,0,0,6.146.568,32.294,32.294,0,0,0,6.146-.568l.241,1.858a5.767,5.767,0,0,0,1.616,3.3l1.453,1.464C44,28.883,39.5,32.308,36.8,33.688a4.714,4.714,0,0,1-4.276,0c-2.7-1.38-7.2-4.805-7.318-12.3Zm-4.117,4.661a2.486,2.486,0,0,1-.459-2.3,1.089,1.089,0,0,1,.591-.682,1.824,1.824,0,0,1,1.1.006,17.909,17.909,0,0,0,.468,3.728A2.176,2.176,0,0,1,22.541,24.587ZM23.913,39.01a6.117,6.117,0,0,1,4.82-6.164q.335.294.67.553l-.361,4.243a.726.726,0,0,0,.077.391,15.531,15.531,0,0,0,3.356,4.082C29.927,41.938,25.8,41.294,23.913,39.01Zm10.747,3a15.368,15.368,0,0,1-4.165-4.47l.272-3.2c.386.239.757.446,1.1.622a6.15,6.15,0,0,0,5.585,0c.344-.176.715-.383,1.1-.622l.272,3.2A15.366,15.366,0,0,1,34.66,42.014Zm2.185.1A15.531,15.531,0,0,0,40.2,38.033a.726.726,0,0,0,.077-.391l-.36-4.243q.333-.26.669-.553a6.151,6.151,0,0,1,4.819,6.167C43.519,41.293,39.393,41.938,36.845,42.114Z" transform="translate(-14.177 -4.557)"/>
        <path id="Trazado_1044827" data-name="Trazado 1044827" d="M49.708,40.986a2.2,2.2,0,0,1,2.323,0,.72.72,0,1,0,.957-1.074,3.575,3.575,0,0,0-4.237,0,.712.712,0,0,0-.054,1,.727.727,0,0,0,1.01.075Z" transform="translate(-34.401 -24.966)"/>
        <path id="Trazado_1044828" data-name="Trazado 1044828" d="M53.809,46.784a.993.993,0,1,0-.993.992.993.993,0,0,0,.993-.992Z" transform="translate(-36.346 -28.839)"/>
        <path id="Trazado_1044829" data-name="Trazado 1044829" d="M69.232,40.989a2.2,2.2,0,0,1,2.324,0,.719.719,0,1,0,.957-1.074,3.577,3.577,0,0,0-4.237,0,.712.712,0,0,0-.053,1A.726.726,0,0,0,69.232,40.989Z" transform="translate(-45.898 -24.969)"/>
        <path id="Trazado_1044830" data-name="Trazado 1044830" d="M72.339,45.792a.993.993,0,1,0,.992.993.993.993,0,0,0-.992-.993Z" transform="translate(-47.843 -28.84)"/>
      </g>
    </g>
  </g>
</svg>
