<svg xmlns="http://www.w3.org/2000/svg" xmlns:xlink="http://www.w3.org/1999/xlink" width="113" height="113" viewBox="0 0 113 113">
  <defs>
    <filter id="Trazado_982547" x="0" y="0" width="113" height="113" filterUnits="userSpaceOnUse">
      <feOffset dy="3" input="SourceAlpha"/>
      <feGaussianBlur stdDeviation="3" result="blur"/>
      <feFlood flood-opacity="0.161"/>
      <feComposite operator="in" in2="blur"/>
      <feComposite in="SourceGraphic"/>
    </filter>
  </defs>
  <g id="Grupo_1219820" data-name="Grupo 1219820" transform="translate(-269.425 -6490.5)">
    <g id="Grupo_1203672" data-name="Grupo 1203672" transform="translate(-2.575 589.5)">
      <g id="Grupo_1202432" data-name="Grupo 1202432" transform="translate(0 1255.486)">
        <g id="Grupo_1202055" data-name="Grupo 1202055" transform="translate(0 3240.511)">
          <g id="Grupo_1177900" data-name="Grupo 1177900" transform="translate(281 1411.003)">
            <g id="Grupo_1172010" data-name="Grupo 1172010" transform="translate(0)">
              <g id="Grupo_1171046" data-name="Grupo 1171046">
                <g id="Grupo_1148525" data-name="Grupo 1148525">
                  <g transform="matrix(1, 0, 0, 1, -9, -6)" filter="url(#Trazado_982547)">
                    <g id="Trazado_982547-2" data-name="Trazado 982547" transform="translate(9 6)" fill="#f3e6fd">
                      <path d="M 47.5 93.5 C 41.28937149047852 93.5 35.26533508300781 92.28397369384766 29.59518623352051 89.88570404052734 C 24.11771965026855 87.56893157958984 19.19813346862793 84.25196075439453 14.97309303283691 80.02691650390625 C 10.74804019927979 75.80186462402344 7.431066513061523 70.88229370117188 5.114293098449707 65.40481567382812 C 2.716026782989502 59.73468017578125 1.5 53.71062850952148 1.5 47.5 C 1.5 41.28937149047852 2.716026782989502 35.26533508300781 5.114293098449707 29.59518623352051 C 7.431066513061523 24.11771965026855 10.74804019927979 19.19813346862793 14.97309303283691 14.97309303283691 C 19.19813346862793 10.74804019927979 24.11771965026855 7.431066513061523 29.59518623352051 5.114293098449707 C 35.26533508300781 2.716026782989502 41.28937149047852 1.5 47.5 1.5 C 53.71062850952148 1.5 59.73468017578125 2.716026782989502 65.40481567382812 5.114293098449707 C 70.88229370117188 7.431066513061523 75.80186462402344 10.74804019927979 80.02691650390625 14.97309303283691 C 84.25196075439453 19.19813346862793 87.56893157958984 24.11771965026855 89.88570404052734 29.59518623352051 C 92.28397369384766 35.26533508300781 93.5 41.28937149047852 93.5 47.5 C 93.5 53.71062850952148 92.28397369384766 59.73468017578125 89.88570404052734 65.40481567382812 C 87.56893157958984 70.88229370117188 84.25196075439453 75.80186462402344 80.02691650390625 80.02691650390625 C 75.80186462402344 84.25196075439453 70.88229370117188 87.56893157958984 65.40481567382812 89.88570404052734 C 59.73468017578125 92.28397369384766 53.71062850952148 93.5 47.5 93.5 Z" stroke="none"/>
                      <path d="M 47.5 3 C 41.49121475219727 3 35.66376876831055 4.176155090332031 30.17950439453125 6.495796203613281 C 24.88084411621094 8.736953735351562 20.12152099609375 11.94598388671875 16.03375244140625 16.03375244140625 C 11.94598388671875 20.12152099609375 8.736953735351562 24.88084411621094 6.495796203613281 30.17950439453125 C 4.176155090332031 35.66376876831055 3 41.49121475219727 3 47.5 C 3 53.50878524780273 4.176155090332031 59.33623123168945 6.495796203613281 64.82049560546875 C 8.736953735351562 70.11915588378906 11.94598388671875 74.87847900390625 16.03375244140625 78.96624755859375 C 20.12152099609375 83.05401611328125 24.88084411621094 86.26304626464844 30.17950439453125 88.50419616699219 C 35.66376876831055 90.82384490966797 41.49121475219727 92 47.5 92 C 53.50878524780273 92 59.33623123168945 90.82384490966797 64.82049560546875 88.50419616699219 C 70.11915588378906 86.26304626464844 74.87847900390625 83.05401611328125 78.96624755859375 78.96624755859375 C 83.05401611328125 74.87847900390625 86.26304626464844 70.11915588378906 88.50419616699219 64.82049560546875 C 90.82384490966797 59.33623123168945 92 53.50878524780273 92 47.5 C 92 41.49121475219727 90.82384490966797 35.66376876831055 88.50419616699219 30.17950439453125 C 86.26304626464844 24.88084411621094 83.05401611328125 20.12152099609375 78.96624755859375 16.03375244140625 C 74.87847900390625 11.94598388671875 70.11915588378906 8.736953735351562 64.82049560546875 6.495796203613281 C 59.33623123168945 4.176155090332031 53.50878524780273 3 47.5 3 M 47.5 0 C 73.7335205078125 0 95 21.2664794921875 95 47.5 C 95 73.7335205078125 73.7335205078125 95 47.5 95 C 21.2664794921875 95 0 73.7335205078125 0 47.5 C 0 21.2664794921875 21.2664794921875 0 47.5 0 Z" stroke="none" fill="#951bf1"/>
                    </g>
                  </g>
                </g>
              </g>
            </g>
          </g>
        </g>
      </g>
    </g>
    <g id="database" transform="translate(295.075 6513.15)">
      <path id="Trazado_1044110" data-name="Trazado 1044110" d="M37.62,28v9.617c0,2.654-7.751,4.808-17.31,4.808S3,40.271,3,37.617V28c0,2.654,7.751,4.808,17.31,4.808S37.62,30.654,37.62,28Z" transform="translate(-0.038 -0.997)" fill="#c0ab91"/>
      <path id="Trazado_1044111" data-name="Trazado 1044111" d="M60.157,29.463v5.77l-4.385.731a12.584,12.584,0,0,1-.942,2.289l2.577,3.616-4.077,4.077-3.068-2.183a1.937,1.937,0,0,0,1.241-1.8V34.272a1.894,1.894,0,0,0-.106-.625,8.25,8.25,0,0,0,.106-1.3,7.693,7.693,0,0,0-12.5-6V20.808a12.51,12.51,0,0,1,1.192-.423L40.923,16h5.77l.731,4.385a12.584,12.584,0,0,1,2.289.942l3.616-2.577,4.077,4.077-2.577,3.616a12.584,12.584,0,0,1,.942,2.289Z" transform="translate(-1.419 -0.537)" fill="#ffeb99"/>
      <rect id="Rect치ngulo_419526" data-name="Rect치ngulo 419526" width="38" height="12" rx="2" transform="translate(11.7 46.7)" fill="#57a4ff"/>
      <path id="Trazado_1044112" data-name="Trazado 1044112" d="M51.77,50.923v7.693a1.929,1.929,0,0,1-1.923,1.923H46a1.929,1.929,0,0,0,1.923-1.923V50.923A1.929,1.929,0,0,0,46,49h3.847A1.929,1.929,0,0,1,51.77,50.923Z" transform="translate(-1.687 -1.802)" fill="#2488ff"/>
      <path id="Trazado_1044113" data-name="Trazado 1044113" d="M51.5,32.693a8.251,8.251,0,0,1-.106,1.3,1.936,1.936,0,0,0-1.818-1.3H39v-6a7.693,7.693,0,0,1,12.5,6Z" transform="translate(-1.419 -0.882)" fill="#c6c5ca"/>
      <path id="Trazado_1044114" data-name="Trazado 1044114" d="M51.617,32.693a8.251,8.251,0,0,1-.106,1.3,1.936,1.936,0,0,0-1.818-1.3H47.771A7.71,7.71,0,0,0,42.02,25.24a7.693,7.693,0,0,1,9.6,7.453Z" transform="translate(-1.534 -0.882)" fill="#acabb1"/>
      <path id="Trazado_1044115" data-name="Trazado 1044115" d="M42,45h5.77v3.847H42Z" transform="translate(-1.534 -1.649)" fill="#c6c5ca"/>
      <path id="Trazado_1044116" data-name="Trazado 1044116" d="M37.62,18v9.617c0,2.654-7.751,4.808-17.31,4.808S3,30.271,3,27.617V18c0,2.654,7.751,4.808,17.31,4.808S37.62,20.654,37.62,18Z" transform="translate(-0.038 -0.613)" fill="#c0ab91"/>
      <path id="Trazado_1044117" data-name="Trazado 1044117" d="M37.62,8v9.617c0,2.654-7.751,4.808-17.31,4.808S3,20.271,3,17.617V8c0,2.654,7.751,4.808,17.31,4.808S37.62,10.654,37.62,8Z" transform="translate(-0.038 -0.23)" fill="#c0ab91"/>
      <ellipse id="Elipse_12540" data-name="Elipse 12540" cx="17.5" cy="5" rx="17.5" ry="5" transform="translate(2.7 2.7)" fill="#ffcd00"/>
      <g id="Grupo_1219620" data-name="Grupo 1219620" transform="translate(18.348 7.77)">
        <path id="Trazado_1044118" data-name="Trazado 1044118" d="M38.233,28v9.617c0,2.654-7.751,4.808-17.31,4.808-.654,0-1.289-.01-1.923-.038,8.655-.26,15.387-2.3,15.387-4.77v-6.6C36.791,30.193,38.233,29.144,38.233,28Z" transform="translate(-19 -8.767)" fill="#b39a7c"/>
        <path id="Trazado_1044119" data-name="Trazado 1044119" d="M38.847,18v9.617c0,1.144-1.442,2.193-3.847,3.02V21.02C37.4,20.193,38.847,19.144,38.847,18Z" transform="translate(-19.613 -8.383)" fill="#b39a7c"/>
        <path id="Trazado_1044120" data-name="Trazado 1044120" d="M38.847,8v9.617c0,1.144-1.442,2.193-3.847,3.02V11.02c2.4-.827,3.847-1.875,3.847-3.02Z" transform="translate(-19.613 -8)" fill="#b39a7c"/>
      </g>
      <path id="Trazado_1044121" data-name="Trazado 1044121" d="M38.233,7.808c0,2.654-7.751,4.808-17.31,4.808-.654,0-1.289-.01-1.923-.038,8.655-.26,15.387-2.3,15.387-4.77S27.655,3.3,19,3.038C19.635,3.01,20.269,3,20.923,3,30.482,3,38.233,5.154,38.233,7.808Z" transform="translate(-0.652 -0.038)" fill="#ebbf00"/>
      <path id="Trazado_1044122" data-name="Trazado 1044122" d="M24,53h3.847v3.847H24Z" transform="translate(-0.843 -1.955)" fill="#ffeb99"/>
      <rect id="Rect치ngulo_419527" data-name="Rect치ngulo 419527" width="38" height="12" rx="2" transform="translate(11.7 31.7)" fill="#57a4ff"/>
      <path id="Trazado_1044123" data-name="Trazado 1044123" d="M51.77,34.923v7.693a1.929,1.929,0,0,1-1.923,1.923H46a1.929,1.929,0,0,0,1.923-1.923V34.923A1.929,1.929,0,0,0,46,33h3.847A1.929,1.929,0,0,1,51.77,34.923Z" transform="translate(-1.687 -1.188)" fill="#2488ff"/>
      <path id="Trazado_1044124" data-name="Trazado 1044124" d="M24,37h3.847v3.847H24Z" transform="translate(-0.843 -1.342)" fill="#ffeb99"/>
      <path id="Trazado_1044125" data-name="Trazado 1044125" d="M16,45h5.77v3.847H16Z" transform="translate(-0.537 -1.649)" fill="#c6c5ca"/>
      <path id="Trazado_1044126" data-name="Trazado 1044126" d="M16,53h3.847v3.847H16Z" transform="translate(-0.537 -1.955)" fill="#ffeb99"/>
      <path id="Trazado_1044127" data-name="Trazado 1044127" d="M16,37h3.847v3.847H16Z" transform="translate(-0.537 -1.342)" fill="#ffeb99"/>
      <path id="Trazado_1044128" data-name="Trazado 1044128" d="M19.808,36H15.962a.962.962,0,0,0-.962.962v3.847a.962.962,0,0,0,.962.962h3.847a.962.962,0,0,0,.962-.962V36.962A.962.962,0,0,0,19.808,36Zm-.962,3.847H16.923V37.923h1.923Z" transform="translate(-0.498 -1.303)"/>
      <path id="Trazado_1044129" data-name="Trazado 1044129" d="M27.808,36H23.962a.962.962,0,0,0-.962.962v3.847a.962.962,0,0,0,.962.962h3.847a.962.962,0,0,0,.962-.962V36.962A.962.962,0,0,0,27.808,36Zm-.962,3.847H24.923V37.923h1.923Z" transform="translate(-0.805 -1.303)"/>
      <path id="Trazado_1044130" data-name="Trazado 1044130" d="M31,36H44.463v1.923H31Z" transform="translate(-1.112 -1.303)"/>
      <path id="Trazado_1044131" data-name="Trazado 1044131" d="M47,36h1.923v1.923H47Z" transform="translate(-1.725 -1.303)"/>
      <path id="Trazado_1044132" data-name="Trazado 1044132" d="M31,40H44.463v1.923H31Z" transform="translate(-1.112 -1.457)"/>
      <path id="Trazado_1044133" data-name="Trazado 1044133" d="M47,40h1.923v1.923H47Z" transform="translate(-1.725 -1.457)"/>
      <path id="Trazado_1044134" data-name="Trazado 1044134" d="M15.962,57.77h3.847a.962.962,0,0,0,.962-.962V52.962A.962.962,0,0,0,19.808,52H15.962a.962.962,0,0,0-.962.962v3.847A.962.962,0,0,0,15.962,57.77Zm.962-3.847h1.923v1.923H16.923Z" transform="translate(-0.498 -1.917)"/>
      <path id="Trazado_1044135" data-name="Trazado 1044135" d="M23.962,57.77h3.847a.962.962,0,0,0,.962-.962V52.962A.962.962,0,0,0,27.808,52H23.962a.962.962,0,0,0-.962.962v3.847A.962.962,0,0,0,23.962,57.77Zm.962-3.847h1.923v1.923H24.923Z" transform="translate(-0.805 -1.917)"/>
      <path id="Trazado_1044136" data-name="Trazado 1044136" d="M31,52H44.463v1.923H31Z" transform="translate(-1.112 -1.917)"/>
      <path id="Trazado_1044137" data-name="Trazado 1044137" d="M47,52h1.923v1.923H47Z" transform="translate(-1.725 -1.917)"/>
      <path id="Trazado_1044138" data-name="Trazado 1044138" d="M31,56H44.463v1.923H31Z" transform="translate(-1.112 -2.07)"/>
      <path id="Trazado_1044139" data-name="Trazado 1044139" d="M47,56h1.923v1.923H47Z" transform="translate(-1.725 -2.07)"/>
      <path id="Trazado_1044140" data-name="Trazado 1044140" d="M58.892,27.974l-3.808-.635a11.013,11.013,0,0,0-.558-1.346l2.241-3.145a.962.962,0,0,0-.1-1.241l-4.077-4.077a.962.962,0,0,0-1.241-.1l-3.145,2.241a13.681,13.681,0,0,0-1.346-.558l-.635-3.808a.962.962,0,0,0-.952-.808H39.5a.962.962,0,0,0-.952.808l-.01.077V7.77C38.543,3.981,29.35,2,20.272,2S2,3.981,2,7.77V36.62c0,2.914,5.116,4.337,8.674,4.981a2.876,2.876,0,0,0,2.866,2.712H14.5v1.923H13.54a2.894,2.894,0,0,0-2.885,2.885v7.693A2.894,2.894,0,0,0,13.54,59.7H48.16a2.894,2.894,0,0,0,2.885-2.885V49.121a2.894,2.894,0,0,0-2.885-2.885H47.2V44.313h.962a2.629,2.629,0,0,0,.481-.048L51.352,46.2a1,1,0,0,0,.558.173.985.985,0,0,0,.683-.279l4.077-4.077a.962.962,0,0,0,.1-1.241L54.526,37.63a11.012,11.012,0,0,0,.558-1.346l3.808-.635A.962.962,0,0,0,59.7,34.7v-5.77a.962.962,0,0,0-.808-.952ZM38.543,26.32a6.692,6.692,0,0,1,10.53,4.693,2.9,2.9,0,0,0-.914-.163H38.543ZM20.272,3.923C30.85,3.923,36.62,6.462,36.62,7.77s-5.77,3.847-16.348,3.847S3.923,9.078,3.923,7.77,9.693,3.923,20.272,3.923ZM3.923,10.482c3.164,2.01,9.77,3.058,16.348,3.058s13.184-1.048,16.348-3.058v6.9c0,1.308-5.77,3.847-16.348,3.847S3.923,18.694,3.923,17.387Zm6.732,23.253v5.9c-4.876-.923-6.732-2.318-6.732-3.02v-6.9a20.658,20.658,0,0,0,7.27,2.346,2.871,2.871,0,0,0-.539,1.673ZM3.923,27V20.1c3.164,2.01,9.77,3.058,16.348,3.058S33.456,22.108,36.62,20.1V27c0,1.308-5.77,3.847-16.348,3.847S3.923,28.311,3.923,27Zm32.7,2.712V30.85H34.235a11.991,11.991,0,0,0,2.385-1.135ZM48.16,48.16a.962.962,0,0,1,.962.962v7.693a.962.962,0,0,1-.962.962H13.54a.962.962,0,0,1-.962-.962V49.121a.962.962,0,0,1,.962-.962ZM16.425,46.236V44.313h3.847v1.923Zm5.77,0V44.313H39.5v1.923Zm19.233,0V44.313h3.847v1.923Zm7.693-4.808a.962.962,0,0,1-.962.962H13.54a.962.962,0,0,1-.962-.962V33.735a.962.962,0,0,1,.962-.962H48.16a.962.962,0,0,1,.962.962Zm8.655-7.549-3.577.6a.986.986,0,0,0-.769.673,11.357,11.357,0,0,1-.866,2.116.939.939,0,0,0,.067,1.01l2.1,2.952L51.8,44.15l-1.366-.971a2.858,2.858,0,0,0,.606-1.75V33.735a2.735,2.735,0,0,0-.1-.692,8.961,8.961,0,0,0,.1-1.231,8.636,8.636,0,0,0-12.5-7.741V20.954a4.739,4.739,0,0,1,.519-.183A.989.989,0,0,0,39.726,20l.6-3.577h4.135l.6,3.577a.986.986,0,0,0,.673.769,11.636,11.636,0,0,1,2.116.865.962.962,0,0,0,1.01-.067l2.952-2.1L54.728,22.4l-2.1,2.952a.939.939,0,0,0-.067,1.01,11.357,11.357,0,0,1,.865,2.116.986.986,0,0,0,.769.673l3.577.6Z" transform="translate(0 0)"/>
      <path id="Trazado_1044141" data-name="Trazado 1044141" d="M5.923,48H4v7.693a.962.962,0,0,0,.962.962H8.808V54.732H5.923Z" transform="translate(-0.077 -1.764)"/>
      <path id="Trazado_1044142" data-name="Trazado 1044142" d="M60.387,4H45V5.923H59.425v9.218l-2.6,2.6,1.36,1.36,2.885-2.885a.962.962,0,0,0,.282-.68V4.962A.962.962,0,0,0,60.387,4Z" transform="translate(-1.649 -0.077)"/>
      <path id="Trazado_1044143" data-name="Trazado 1044143" d="M41,4h1.923V5.923H41Z" transform="translate(-1.495 -0.077)"/>
      <path id="Trazado_1044144" data-name="Trazado 1044144" d="M4,44H5.923v1.923H4Z" transform="translate(-0.077 -1.61)"/>
    </g>
  </g>
</svg>
