<svg xmlns="http://www.w3.org/2000/svg" xmlns:xlink="http://www.w3.org/1999/xlink" width="113" height="113" viewBox="0 0 113 113">
  <defs>
    <filter id="Trazado_982547" x="0" y="0" width="113" height="113" filterUnits="userSpaceOnUse">
      <feOffset dy="3" input="SourceAlpha"/>
      <feGaussianBlur stdDeviation="3" result="blur"/>
      <feFlood flood-opacity="0.161"/>
      <feComposite operator="in" in2="blur"/>
      <feComposite in="SourceGraphic"/>
    </filter>
  </defs>
  <g id="Grupo_1219819" data-name="Grupo 1219819" transform="translate(-583 -6491)">
    <g id="Grupo_1203673" data-name="Grupo 1203673" transform="translate(-3 589.713)">
      <g id="Grupo_1202433" data-name="Grupo 1202433" transform="translate(-0.56 1255.773)">
        <g id="Grupo_1202054" data-name="Grupo 1202054" transform="translate(0 3240.511)">
          <g id="Grupo_1177897" data-name="Grupo 1177897" transform="translate(595.561 1411.003)">
            <g id="Grupo_1172010" data-name="Grupo 1172010" transform="translate(0)">
              <g id="Grupo_1171046" data-name="Grupo 1171046">
                <g id="Grupo_1148525" data-name="Grupo 1148525">
                  <g transform="matrix(1, 0, 0, 1, -9, -6)" filter="url(#Trazado_982547)">
                    <g id="Trazado_982547-2" data-name="Trazado 982547" transform="translate(9 6)" fill="#f3e6fd">
                      <path d="M 47.5 93.5 C 41.28937149047852 93.5 35.26533508300781 92.28397369384766 29.59518623352051 89.88570404052734 C 24.11771965026855 87.56893157958984 19.19813346862793 84.25196075439453 14.97309303283691 80.02691650390625 C 10.74804019927979 75.80186462402344 7.431066513061523 70.88229370117188 5.114293098449707 65.40481567382812 C 2.716026782989502 59.73468017578125 1.5 53.71062850952148 1.5 47.5 C 1.5 41.28937149047852 2.716026782989502 35.26533508300781 5.114293098449707 29.59518623352051 C 7.431066513061523 24.11771965026855 10.74804019927979 19.19813346862793 14.97309303283691 14.97309303283691 C 19.19813346862793 10.74804019927979 24.11771965026855 7.431066513061523 29.59518623352051 5.114293098449707 C 35.26533508300781 2.716026782989502 41.28937149047852 1.5 47.5 1.5 C 53.71062850952148 1.5 59.73468017578125 2.716026782989502 65.40481567382812 5.114293098449707 C 70.88229370117188 7.431066513061523 75.80186462402344 10.74804019927979 80.02691650390625 14.97309303283691 C 84.25196075439453 19.19813346862793 87.56893157958984 24.11771965026855 89.88570404052734 29.59518623352051 C 92.28397369384766 35.26533508300781 93.5 41.28937149047852 93.5 47.5 C 93.5 53.71062850952148 92.28397369384766 59.73468017578125 89.88570404052734 65.40481567382812 C 87.56893157958984 70.88229370117188 84.25196075439453 75.80186462402344 80.02691650390625 80.02691650390625 C 75.80186462402344 84.25196075439453 70.88229370117188 87.56893157958984 65.40481567382812 89.88570404052734 C 59.73468017578125 92.28397369384766 53.71062850952148 93.5 47.5 93.5 Z" stroke="none"/>
                      <path d="M 47.5 3 C 41.49121475219727 3 35.66376876831055 4.176155090332031 30.17950439453125 6.495796203613281 C 24.88084411621094 8.736953735351562 20.12152099609375 11.94598388671875 16.03375244140625 16.03375244140625 C 11.94598388671875 20.12152099609375 8.736953735351562 24.88084411621094 6.495796203613281 30.17950439453125 C 4.176155090332031 35.66376876831055 3 41.49121475219727 3 47.5 C 3 53.50878524780273 4.176155090332031 59.33623123168945 6.495796203613281 64.82049560546875 C 8.736953735351562 70.11915588378906 11.94598388671875 74.87847900390625 16.03375244140625 78.96624755859375 C 20.12152099609375 83.05401611328125 24.88084411621094 86.26304626464844 30.17950439453125 88.50419616699219 C 35.66376876831055 90.82384490966797 41.49121475219727 92 47.5 92 C 53.50878524780273 92 59.33623123168945 90.82384490966797 64.82049560546875 88.50419616699219 C 70.11915588378906 86.26304626464844 74.87847900390625 83.05401611328125 78.96624755859375 78.96624755859375 C 83.05401611328125 74.87847900390625 86.26304626464844 70.11915588378906 88.50419616699219 64.82049560546875 C 90.82384490966797 59.33623123168945 92 53.50878524780273 92 47.5 C 92 41.49121475219727 90.82384490966797 35.66376876831055 88.50419616699219 30.17950439453125 C 86.26304626464844 24.88084411621094 83.05401611328125 20.12152099609375 78.96624755859375 16.03375244140625 C 74.87847900390625 11.94598388671875 70.11915588378906 8.736953735351562 64.82049560546875 6.495796203613281 C 59.33623123168945 4.176155090332031 53.50878524780273 3 47.5 3 M 47.5 0 C 73.7335205078125 0 95 21.2664794921875 95 47.5 C 95 73.7335205078125 73.7335205078125 95 47.5 95 C 21.2664794921875 95 0 73.7335205078125 0 47.5 C 0 21.2664794921875 21.2664794921875 0 47.5 0 Z" stroke="none" fill="#951bf1"/>
                    </g>
                  </g>
                </g>
              </g>
            </g>
          </g>
        </g>
      </g>
    </g>
    <g id="personas_1_" data-name="personas (1)" transform="translate(608 6512)">
      <path id="Trazado_1044145" data-name="Trazado 1044145" d="M71.217,256A30.609,30.609,0,1,1,10,256Z" transform="translate(-8.756 -224.147)" fill="#ccf5fc"/>
      <path id="Trazado_1044146" data-name="Trazado 1044146" d="M16.8,275.23l3.116-5.553a2.416,2.416,0,0,0,.309-1.182v-3.2a2.416,2.416,0,0,1,.71-1.711l1.677-1.672a2.416,2.416,0,0,0,.231-3.155L20.783,256H10A30.478,30.478,0,0,0,16.8,275.23Z" transform="translate(-8.756 -224.147)" fill="#a0e5a5"/>
      <g id="Grupo_1219622" data-name="Grupo 1219622" transform="translate(6.47 1.244)">
        <path id="XMLID_1072_" d="M199.01,120.7h-5.1A5.913,5.913,0,0,0,188,126.614v5.752h16.922v-5.752A5.913,5.913,0,0,0,199.01,120.7Z" transform="translate(-171.079 -106.927)" fill="#ff7d97"/>
        <path id="XMLID_1071_" d="M229.066,48.574a3.828,3.828,0,0,0-3.828,3.828v1.319a3.828,3.828,0,1,0,7.655,0V52.4A3.828,3.828,0,0,0,229.066,48.574Z" transform="translate(-203.683 -43.774)" fill="#cc9081"/>
        <path id="XMLID_1069_" d="M161.066,10a3.828,3.828,0,0,0-3.828,3.828v1.319a3.828,3.828,0,0,0,7.655,0V13.828A3.828,3.828,0,0,0,161.066,10Z" transform="translate(-144.144 -10)" fill="#f2b394"/>
        <path id="XMLID_1067_" d="M297.066,10a3.828,3.828,0,0,1,3.828,3.828v1.319a3.828,3.828,0,1,1-7.655,0V13.828A3.828,3.828,0,0,1,297.066,10Z" transform="translate(-263.222 -10)" fill="#ffd0c7"/>
        <path id="XMLID_1064_" d="M63.009,120.7h-5.1A5.913,5.913,0,0,0,52,126.614v5.752H68.922v-5.752A5.913,5.913,0,0,0,63.009,120.7Z" transform="translate(-52 -106.927)" fill="#66e0f7"/>
        <path id="XMLID_1063_" d="M93.066,48.574A3.828,3.828,0,0,0,89.238,52.4v1.319a3.828,3.828,0,1,0,7.655,0V52.4A3.828,3.828,0,0,0,93.066,48.574Z" transform="translate(-84.605 -43.774)" fill="#ffd0c7"/>
        <path id="XMLID_1060_" d="M329.913,120.7h5.1a5.913,5.913,0,0,1,5.913,5.913v5.752H324v-5.752A5.913,5.913,0,0,1,329.913,120.7Z" transform="translate(-290.156 -106.927)" fill="#ffda8f"/>
        <path id="XMLID_1059_" d="M365.066,48.574a3.828,3.828,0,0,1,3.828,3.828v1.319a3.828,3.828,0,1,1-7.655,0V52.4A3.828,3.828,0,0,1,365.066,48.574Z" transform="translate(-322.761 -43.774)" fill="#f2b394"/>
      </g>
      <path id="Trazado_1044147" data-name="Trazado 1044147" d="M301.287,256.715l2.549,3.889a1.581,1.581,0,0,0,.586.533l2.237,1.178a1.582,1.582,0,0,1,.779,1.852l-1.3,4.345a1.582,1.582,0,0,1-1.516,1.13h-.3a1.582,1.582,0,0,0-1.385.817l-2.974,5.383a1.582,1.582,0,0,0-.2.765v.115a1.529,1.529,0,0,1-2.516,1.167l-.643-.545a1.582,1.582,0,0,1-.549-1.02L295,267.484a1.582,1.582,0,0,0-.59-1.053l-2.2-1.737a1.582,1.582,0,0,1-.6-1.241v-5.87A1.582,1.582,0,0,1,293.2,256h6.766A1.582,1.582,0,0,1,301.287,256.715Z" transform="translate(-255.332 -224.147)" fill="#a0e5a5"/>
      <path id="Trazado_1044148" data-name="Trazado 1044148" d="M157.835,343.569c-.4,0-.895-.006-1.253-.011a2.071,2.071,0,0,0-.929.206l-2.933,1.418a2.072,2.072,0,0,0-1.17,1.865v1.179a2.072,2.072,0,0,0,2.072,2.072h2.8a2.072,2.072,0,0,1,1.479.621,2.072,2.072,0,0,0,2.932.026l1.39-1.369a2.072,2.072,0,0,0-.124-3.065l-2.938-2.459A2.07,2.07,0,0,0,157.835,343.569Z" transform="translate(-132.693 -300.81)" fill="#a0e5a5"/>
      <g id="Grupo_1219623" data-name="Grupo 1219623" transform="translate(0 0)">
        <path id="Trazado_1044149" data-name="Trazado 1044149" d="M62.461,246H30.1a1.244,1.244,0,1,0,0,2.488h4.961a2.828,2.828,0,0,0-.021.338v5.87a2.811,2.811,0,0,0,1.074,2.217l2.2,1.737a.336.336,0,0,1,.126.225l1.057,8.841a2.817,2.817,0,0,0,.98,1.822l.643.545a2.753,2.753,0,0,0,1.784.661,2.788,2.788,0,0,0,1.174-.262,2.746,2.746,0,0,0,1.606-2.516v-.115a.339.339,0,0,1,.042-.163L48.7,262.3a.338.338,0,0,1,.3-.174h.3A2.844,2.844,0,0,0,52,260.112l1.3-4.345a2.832,2.832,0,0,0-1.391-3.308L49.67,251.28a.338.338,0,0,1-.125-.114l-1.755-2.678h13.4a29.365,29.365,0,0,1-50.1,19.519q-.809-.809-1.546-1.67l2.7-4.808a3.668,3.668,0,0,0,.468-1.791v-3.2a1.179,1.179,0,0,1,.345-.83l1.677-1.672a3.679,3.679,0,0,0,.35-4.78l-.573-.769H18.9a1.244,1.244,0,1,0,0-2.488H1.244A1.244,1.244,0,0,0,0,247.244a31.853,31.853,0,0,0,54.376,22.523,31.644,31.644,0,0,0,9.33-22.523A1.244,1.244,0,0,0,62.461,246Zm-17.547,2.641,2.548,3.889a2.833,2.833,0,0,0,1.047.951l2.237,1.178a.338.338,0,0,1,.166.4l-1.3,4.345a.34.34,0,0,1-.324.241h-.3a2.827,2.827,0,0,0-2.474,1.46l-2.974,5.383a2.833,2.833,0,0,0-.352,1.367v.115a.284.284,0,0,1-.468.217l-.643-.545a.336.336,0,0,1-.117-.218l-1.057-8.841a2.809,2.809,0,0,0-1.054-1.882l-2.2-1.737a.336.336,0,0,1-.128-.265v-5.87a.338.338,0,0,1,.338-.338h6.766A.337.337,0,0,1,44.915,248.641ZM11.4,248.488l1.683,2.257a1.178,1.178,0,0,1-.112,1.53L11.3,253.947a3.685,3.685,0,0,0-1.076,2.592v3.2a1.175,1.175,0,0,1-.15.573l-2.19,3.9a29.106,29.106,0,0,1-5.367-15.726Z" transform="translate(0 -215.391)"/>
        <path id="Trazado_1044150" data-name="Trazado 1044150" d="M43.244,27.927H94.01a1.244,1.244,0,0,0,1.244-1.244V20.931a7.168,7.168,0,0,0-5.47-6.954,5.041,5.041,0,0,0,.837-2.786V9.871A5.069,5.069,0,0,0,82.16,6.1V5.072a5.072,5.072,0,0,0-10.144,0V6.1a5.06,5.06,0,0,0-6.778,0V5.072a5.072,5.072,0,0,0-10.144,0V6.1a5.069,5.069,0,0,0-8.461,3.769v1.319a5.042,5.042,0,0,0,.837,2.786A7.168,7.168,0,0,0,42,20.931v5.752a1.244,1.244,0,0,0,1.244,1.244Zm12.7-13.951a5.041,5.041,0,0,0,.837-2.786V10.16a5.06,5.06,0,0,0,6.778,0v1.03a5.042,5.042,0,0,0,.837,2.786A7.178,7.178,0,0,0,60.166,16.9,7.176,7.176,0,0,0,55.94,13.977Zm5.47,6.954a4.674,4.674,0,0,1,4.668-4.668h5.1a4.674,4.674,0,0,1,4.668,4.668v4.508H61.41ZM73.7,11.191V10.16a5.061,5.061,0,0,0,6.778,0v1.03a5.042,5.042,0,0,0,.837,2.786A7.178,7.178,0,0,0,77.088,16.9a7.177,7.177,0,0,0-4.226-2.927,5.04,5.04,0,0,0,.837-2.786Zm19.067,9.74v4.508H78.332V20.931A4.674,4.674,0,0,1,83,16.262h5.1A4.674,4.674,0,0,1,92.765,20.931Zm-9.8-11.06a2.583,2.583,0,0,1,5.167,0v1.319a2.583,2.583,0,0,1-5.167,0ZM74.5,5.072a2.583,2.583,0,0,1,5.167,0V6.391a2.583,2.583,0,0,1-5.167,0Zm-8.461,4.8a2.583,2.583,0,0,1,5.167,0v1.319a2.583,2.583,0,0,1-5.167,0Zm-8.461-4.8a2.583,2.583,0,1,1,5.167,0V6.391a2.583,2.583,0,0,1-5.167,0Zm-8.461,4.8a2.583,2.583,0,0,1,5.167,0v1.319a2.583,2.583,0,0,1-5.167,0Zm-4.633,11.06a4.674,4.674,0,0,1,4.668-4.668h5.1a4.674,4.674,0,0,1,4.668,4.668v4.508H44.489Z" transform="translate(-36.774 0)"/>
        <path id="Trazado_1044151" data-name="Trazado 1044151" d="M143.423,335.307a3.335,3.335,0,0,0-1.872,2.985v1.179a3.32,3.32,0,0,0,3.316,3.316h2.8a.833.833,0,0,1,.591.248,3.294,3.294,0,0,0,2.338.993h.03a3.294,3.294,0,0,0,2.326-.953l1.39-1.369a3.316,3.316,0,0,0-.2-4.906l-2.938-2.459a3.319,3.319,0,0,0-2.12-.773c-.4,0-.885-.006-1.238-.011a3.343,3.343,0,0,0-1.488.33Zm4.377.739h.011c.362,0,.859.01,1.267.011h0a.825.825,0,0,1,.527.193l2.938,2.459a.828.828,0,0,1,.049,1.224L151.2,341.3a.842.842,0,0,1-.588.238.822.822,0,0,1-.584-.248,3.336,3.336,0,0,0-2.367-.994h-2.8a.829.829,0,0,1-.828-.828v-1.179a.833.833,0,0,1,.467-.745l2.933-1.418A.835.835,0,0,1,147.8,336.047Z" transform="translate(-123.939 -292.055)"/>
        <circle id="Elipse_12541" data-name="Elipse 12541" cx="1.244" cy="1.244" r="1.244" transform="translate(23.256 30.609)"/>
      </g>
    </g>
  </g>
</svg>
