<svg xmlns="http://www.w3.org/2000/svg" xmlns:xlink="http://www.w3.org/1999/xlink" width="113" height="113" viewBox="0 0 113 113">
  <defs>
    <filter id="Trazado_982547" x="0" y="0" width="113" height="113" filterUnits="userSpaceOnUse">
      <feOffset dy="3" input="SourceAlpha"/>
      <feGaussianBlur stdDeviation="3" result="blur"/>
      <feFlood flood-opacity="0.161"/>
      <feComposite operator="in" in2="blur"/>
      <feComposite in="SourceGraphic"/>
    </filter>
  </defs>
  <g id="Grupo_1219817" data-name="Grupo 1219817" transform="translate(-1213 -6491)">
    <g id="Grupo_1203675" data-name="Grupo 1203675" transform="translate(-3 590)">
      <g id="Grupo_1202435" data-name="Grupo 1202435" transform="translate(-0.56 1255.486)">
        <g id="Grupo_1202052" data-name="Grupo 1202052" transform="translate(1225.561 4651.514)">
          <g id="Grupo_1172010" data-name="Grupo 1172010" transform="translate(0)">
            <g id="Grupo_1171046" data-name="Grupo 1171046">
              <g id="Grupo_1148525" data-name="Grupo 1148525">
                <g transform="matrix(1, 0, 0, 1, -9, -6)" filter="url(#Trazado_982547)">
                  <g id="Trazado_982547-2" data-name="Trazado 982547" transform="translate(9 6)" fill="#f3e6fd">
                    <path d="M 47.5 93.5 C 41.28937149047852 93.5 35.26533508300781 92.28397369384766 29.59518623352051 89.88570404052734 C 24.11771965026855 87.56893157958984 19.19813346862793 84.25196075439453 14.97309303283691 80.02691650390625 C 10.74804019927979 75.80186462402344 7.431066513061523 70.88229370117188 5.114293098449707 65.40481567382812 C 2.716026782989502 59.73468017578125 1.5 53.71062850952148 1.5 47.5 C 1.5 41.28937149047852 2.716026782989502 35.26533508300781 5.114293098449707 29.59518623352051 C 7.431066513061523 24.11771965026855 10.74804019927979 19.19813346862793 14.97309303283691 14.97309303283691 C 19.19813346862793 10.74804019927979 24.11771965026855 7.431066513061523 29.59518623352051 5.114293098449707 C 35.26533508300781 2.716026782989502 41.28937149047852 1.5 47.5 1.5 C 53.71062850952148 1.5 59.73468017578125 2.716026782989502 65.40481567382812 5.114293098449707 C 70.88229370117188 7.431066513061523 75.80186462402344 10.74804019927979 80.02691650390625 14.97309303283691 C 84.25196075439453 19.19813346862793 87.56893157958984 24.11771965026855 89.88570404052734 29.59518623352051 C 92.28397369384766 35.26533508300781 93.5 41.28937149047852 93.5 47.5 C 93.5 53.71062850952148 92.28397369384766 59.73468017578125 89.88570404052734 65.40481567382812 C 87.56893157958984 70.88229370117188 84.25196075439453 75.80186462402344 80.02691650390625 80.02691650390625 C 75.80186462402344 84.25196075439453 70.88229370117188 87.56893157958984 65.40481567382812 89.88570404052734 C 59.73468017578125 92.28397369384766 53.71062850952148 93.5 47.5 93.5 Z" stroke="none"/>
                    <path d="M 47.5 3 C 41.49121475219727 3 35.66376876831055 4.176155090332031 30.17950439453125 6.495796203613281 C 24.88084411621094 8.736953735351562 20.12152099609375 11.94598388671875 16.03375244140625 16.03375244140625 C 11.94598388671875 20.12152099609375 8.736953735351562 24.88084411621094 6.495796203613281 30.17950439453125 C 4.176155090332031 35.66376876831055 3 41.49121475219727 3 47.5 C 3 53.50878524780273 4.176155090332031 59.33623123168945 6.495796203613281 64.82049560546875 C 8.736953735351562 70.11915588378906 11.94598388671875 74.87847900390625 16.03375244140625 78.96624755859375 C 20.12152099609375 83.05401611328125 24.88084411621094 86.26304626464844 30.17950439453125 88.50419616699219 C 35.66376876831055 90.82384490966797 41.49121475219727 92 47.5 92 C 53.50878524780273 92 59.33623123168945 90.82384490966797 64.82049560546875 88.50419616699219 C 70.11915588378906 86.26304626464844 74.87847900390625 83.05401611328125 78.96624755859375 78.96624755859375 C 83.05401611328125 74.87847900390625 86.26304626464844 70.11915588378906 88.50419616699219 64.82049560546875 C 90.82384490966797 59.33623123168945 92 53.50878524780273 92 47.5 C 92 41.49121475219727 90.82384490966797 35.66376876831055 88.50419616699219 30.17950439453125 C 86.26304626464844 24.88084411621094 83.05401611328125 20.12152099609375 78.96624755859375 16.03375244140625 C 74.87847900390625 11.94598388671875 70.11915588378906 8.736953735351562 64.82049560546875 6.495796203613281 C 59.33623123168945 4.176155090332031 53.50878524780273 3 47.5 3 M 47.5 0 C 73.7335205078125 0 95 21.2664794921875 95 47.5 C 95 73.7335205078125 73.7335205078125 95 47.5 95 C 21.2664794921875 95 0 73.7335205078125 0 47.5 C 0 21.2664794921875 21.2664794921875 0 47.5 0 Z" stroke="none" fill="#951bf1"/>
                  </g>
                </g>
              </g>
            </g>
          </g>
        </g>
      </g>
    </g>
    <g id="automatizacion_2_" data-name="automatizacion (2)" transform="translate(1238 6509.991)">
      <g id="Grupo_1219640" data-name="Grupo 1219640" transform="translate(0.937 2.946)">
        <g id="Grupo_1219637" data-name="Grupo 1219637">
          <g id="Grupo_1219629" data-name="Grupo 1219629" transform="translate(9.482)">
            <g id="Grupo_1219626" data-name="Grupo 1219626" transform="translate(10.488 10.099)">
              <path id="Trazado_1044174" data-name="Trazado 1044174" d="M167.364,102.316v-1.783a1.029,1.029,0,0,1,.711-.979l1.121-.364a1.035,1.035,0,0,0,.665-.649,8.978,8.978,0,0,1,.476-1.147,1.017,1.017,0,0,0-.01-.914l-.539-1.059a1.03,1.03,0,0,1,.189-1.2l1.261-1.261a1.03,1.03,0,0,1,1.2-.189l1.059.539a1.017,1.017,0,0,0,.914.01,8.983,8.983,0,0,1,1.147-.476,1.034,1.034,0,0,0,.649-.665l.364-1.121a1.03,1.03,0,0,1,.979-.711h1.783a1.029,1.029,0,0,1,.979.711l.364,1.121a1.035,1.035,0,0,0,.649.665,8.983,8.983,0,0,1,1.147.476,1.017,1.017,0,0,0,.914-.01l1.059-.539a1.03,1.03,0,0,1,1.2.189l1.261,1.261a1.03,1.03,0,0,1,.189,1.2l-.539,1.059a1.017,1.017,0,0,0-.01.914,8.987,8.987,0,0,1,.476,1.147,1.034,1.034,0,0,0,.665.649l1.121.364a1.03,1.03,0,0,1,.711.979v1.783a1.029,1.029,0,0,1-.711.979l-1.121.364a1.035,1.035,0,0,0-.665.649,8.985,8.985,0,0,1-.476,1.147,1.017,1.017,0,0,0,.01.914l.539,1.059a1.03,1.03,0,0,1-.189,1.2l-1.261,1.261a1.03,1.03,0,0,1-1.2.189l-1.059-.539a1.017,1.017,0,0,0-.914-.01,8.983,8.983,0,0,1-1.147.476,1.034,1.034,0,0,0-.649.665l-.364,1.121a1.03,1.03,0,0,1-.979.711h-1.783a1.029,1.029,0,0,1-.979-.711l-.364-1.121a1.035,1.035,0,0,0-.649-.665,8.983,8.983,0,0,1-1.147-.476,1.017,1.017,0,0,0-.914.01l-1.059.539a1.03,1.03,0,0,1-1.2-.189l-1.261-1.261a1.03,1.03,0,0,1-.189-1.2l.539-1.059a1.017,1.017,0,0,0,.01-.914,8.978,8.978,0,0,1-.476-1.147,1.034,1.034,0,0,0-.665-.649l-1.121-.364A1.029,1.029,0,0,1,167.364,102.316Z" transform="translate(-167.364 -90.352)" fill="#c5d3dd"/>
            </g>
            <g id="Grupo_1219627" data-name="Grupo 1219627" transform="translate(16.714 16.298)">
              <circle id="Elipse_12542" data-name="Elipse 12542" cx="4.06" cy="4.06" r="4.06" transform="translate(0 7.925) rotate(-77.297)" fill="#9facba"/>
            </g>
            <path id="Trazado_1044175" data-name="Trazado 1044175" d="M235.769,146.7a4.058,4.058,0,0,1-3.407,6.819,4.059,4.059,0,1,0,3.407-6.819Z" transform="translate(-213.754 -129.56)" fill="#8d9ca8"/>
            <g id="Grupo_1219628" data-name="Grupo 1219628">
              <path id="Trazado_1044176" data-name="Trazado 1044176" d="M101.505,13.819a21.174,21.174,0,0,1,25.609,0,21.384,21.384,0,0,1,6.585,8.36.376.376,0,0,0,.485.2l1.17-.476a.375.375,0,0,1,.513.4l-.9,6.524a.375.375,0,0,1-.6.245l-5.2-4.04a.375.375,0,0,1,.089-.643l.956-.389a.376.376,0,0,0,.2-.5,17.816,17.816,0,0,0-5.439-6.855,17.634,17.634,0,0,0-21.322,0A17.78,17.78,0,0,0,97.5,25.362a.376.376,0,0,1-.463.25l-2.679-.785a.374.374,0,0,1-.254-.469,21.344,21.344,0,0,1,7.406-10.54Z" transform="translate(-92.749 -9.509)" fill="#5de1c4"/>
              <path id="Trazado_1044177" data-name="Trazado 1044177" d="M117.771,206.59a21.174,21.174,0,0,1-25.609,0,21.383,21.383,0,0,1-6.585-8.36.376.376,0,0,0-.485-.2l-1.17.476a.375.375,0,0,1-.513-.4l.9-6.524a.375.375,0,0,1,.6-.245l5.2,4.04a.375.375,0,0,1-.089.643l-.956.389a.376.376,0,0,0-.2.5,17.816,17.816,0,0,0,5.439,6.855,17.634,17.634,0,0,0,21.323,0,17.78,17.78,0,0,0,6.153-8.725.376.376,0,0,1,.463-.25l2.679.785a.374.374,0,0,1,.254.469,21.347,21.347,0,0,1-7.406,10.54Z" transform="translate(-83.406 -168.556)" fill="#fd8087"/>
            </g>
          </g>
          <g id="Grupo_1219636" data-name="Grupo 1219636" transform="translate(0 33.284)">
            <path id="Trazado_1044178" data-name="Trazado 1044178" d="M105.43,289.431V277.514a1.569,1.569,0,0,0-1.569-1.569H91.435a1.569,1.569,0,0,0-1.569,1.569v11.916Z" transform="translate(-79.577 -275.945)" fill="#ffe177"/>
            <path id="Trazado_1044179" data-name="Trazado 1044179" d="M103.861,275.945h-1.656v9.011a1.249,1.249,0,0,1-1.249,1.249H89.866v3.225H105.43V277.514A1.569,1.569,0,0,0,103.861,275.945Z" transform="translate(-79.577 -275.945)" fill="#ffd15b"/>
            <path id="Trazado_1044180" data-name="Trazado 1044180" d="M129.551,317.278v-2.511a.628.628,0,0,1,.628-.628h4.394a.628.628,0,0,1,.628.628v2.511a.628.628,0,0,1-.628.628h-4.394A.628.628,0,0,1,129.551,317.278Z" transform="translate(-114.304 -309.369)" fill="#fff"/>
            <path id="Trazado_1044181" data-name="Trazado 1044181" d="M313.106,289.431V277.514a1.569,1.569,0,0,0-1.569-1.569H299.111a1.569,1.569,0,0,0-1.569,1.569v11.916Z" transform="translate(-261.309 -275.945)" fill="#ffe177"/>
            <path id="Trazado_1044182" data-name="Trazado 1044182" d="M311.537,275.945h-1.656v9.011a1.249,1.249,0,0,1-1.249,1.249h-11.09v3.225h15.564V277.514A1.569,1.569,0,0,0,311.537,275.945Z" transform="translate(-261.309 -275.945)" fill="#ffd15b"/>
            <path id="Trazado_1044183" data-name="Trazado 1044183" d="M337.227,317.278v-2.511a.628.628,0,0,1,.628-.628h4.394a.628.628,0,0,1,.628.628v2.511a.628.628,0,0,1-.628.628h-4.394A.628.628,0,0,1,337.227,317.278Z" transform="translate(-296.036 -309.368)" fill="#fff"/>
            <path id="Trazado_1044184" data-name="Trazado 1044184" d="M342.249,314.139h-1.136v1.375a.628.628,0,0,1-.628.628h-3.258v1.136a.628.628,0,0,0,.628.628h4.394a.628.628,0,0,0,.628-.628v-2.511A.628.628,0,0,0,342.249,314.139Z" transform="translate(-296.036 -309.368)" fill="#f5f8f9"/>
            <path id="Trazado_1044185" data-name="Trazado 1044185" d="M134.572,314.139h-1.136v1.375a.628.628,0,0,1-.628.628H129.55v1.136a.628.628,0,0,0,.628.628h4.394a.628.628,0,0,0,.628-.628v-2.511A.628.628,0,0,0,134.572,314.139Z" transform="translate(-114.303 -309.368)" fill="#f5f8f9"/>
            <path id="Trazado_1044186" data-name="Trazado 1044186" d="M69.556,390.521a9.5,9.5,0,0,0-9.3-7.624H16.833a9.5,9.5,0,0,0-9.3,7.624,1.566,1.566,0,0,0,1.542,1.863H11.5a5.335,5.335,0,0,1,5.329-5.329h43.42a5.335,5.335,0,0,1,5.329,5.329h2.432A1.566,1.566,0,0,0,69.556,390.521Z" transform="translate(-7.5 -369.536)" fill="#c5d3dd"/>
            <path id="Trazado_1044187" data-name="Trazado 1044187" d="M451.012,391.595a9.514,9.514,0,0,0-7.6-7.471v4.285a5.337,5.337,0,0,1,3.627,5.048h2.432A1.566,1.566,0,0,0,451.012,391.595Z" transform="translate(-388.956 -370.61)" fill="#b6c4cf"/>
            <path id="Trazado_1044188" data-name="Trazado 1044188" d="M44.013,426.088a5.454,5.454,0,0,1,0-10.907h43.42a5.454,5.454,0,0,1,0,10.907Z" transform="translate(-34.679 -397.787)" fill="#ffe177"/>
            <path id="Trazado_1044189" data-name="Trazado 1044189" d="M89.278,417.369a5.459,5.459,0,0,1-5.45,5.637H38.723a5.46,5.46,0,0,0,5.433,5h43.42a5.453,5.453,0,0,0,1.7-10.634Z" transform="translate(-34.823 -399.702)" fill="#ffd15b"/>
            <g id="Grupo_1219635" data-name="Grupo 1219635" transform="translate(8.554 20.65)">
              <g id="Grupo_1219630" data-name="Grupo 1219630">
                <circle id="Elipse_12543" data-name="Elipse 12543" cx="2.197" cy="2.197" r="2.197" fill="#fff"/>
              </g>
              <g id="Grupo_1219631" data-name="Grupo 1219631" transform="translate(10.146)">
                <circle id="Elipse_12544" data-name="Elipse 12544" cx="2.197" cy="2.197" r="2.197" fill="#fff"/>
              </g>
              <g id="Grupo_1219632" data-name="Grupo 1219632" transform="translate(20.293)">
                <circle id="Elipse_12545" data-name="Elipse 12545" cx="2.197" cy="2.197" r="2.197" fill="#fff"/>
              </g>
              <g id="Grupo_1219633" data-name="Grupo 1219633" transform="translate(30.439)">
                <circle id="Elipse_12546" data-name="Elipse 12546" cx="2.197" cy="2.197" r="2.197" fill="#fff"/>
              </g>
              <g id="Grupo_1219634" data-name="Grupo 1219634" transform="translate(40.586)">
                <circle id="Elipse_12547" data-name="Elipse 12547" cx="2.197" cy="2.197" r="2.197" fill="#fff"/>
              </g>
            </g>
          </g>
        </g>
        <g id="Grupo_1219638" data-name="Grupo 1219638" transform="translate(8.602 54.774)">
          <path id="Trazado_1044190" data-name="Trazado 1044190" d="M324.318,462.492h-4.3a2.2,2.2,0,0,0,4.3,0Z" transform="translate(-289.582 -460.678)" fill="#f5f8f9"/>
          <path id="Trazado_1044191" data-name="Trazado 1044191" d="M405.58,449.328a2.186,2.186,0,0,0-.472-1.357,5.439,5.439,0,0,1-3.875,1.809,2.2,2.2,0,0,0,4.347-.452Z" transform="translate(-360.648 -447.971)" fill="#f5f8f9"/>
          <path id="Trazado_1044192" data-name="Trazado 1044192" d="M243.1,462.492h-4.3a2.2,2.2,0,0,0,4.3,0Z" transform="translate(-218.507 -460.678)" fill="#f5f8f9"/>
          <path id="Trazado_1044193" data-name="Trazado 1044193" d="M161.875,462.492h-4.3a2.2,2.2,0,0,0,4.3,0Z" transform="translate(-147.432 -460.678)" fill="#f5f8f9"/>
          <path id="Trazado_1044194" data-name="Trazado 1044194" d="M76.357,462.492a2.2,2.2,0,0,0,4.3,0Z" transform="translate(-76.357 -460.678)" fill="#f5f8f9"/>
        </g>
        <g id="Grupo_1219639" data-name="Grupo 1219639" transform="translate(27.72 12.41)">
          <path id="Trazado_1044195" data-name="Trazado 1044195" d="M243.081,115.744l-1.121-.364a1.035,1.035,0,0,1-.665-.649,8.981,8.981,0,0,0-.476-1.147,1.017,1.017,0,0,1,.01-.914l.539-1.059a1.03,1.03,0,0,0-.189-1.2l-1.261-1.261a1.03,1.03,0,0,0-1.2-.189l-.921.469a10.784,10.784,0,0,1-8.406,16.594c.145.057.291.112.439.162a1.035,1.035,0,0,1,.649.665l.364,1.121a1.03,1.03,0,0,0,.979.711h1.783a1.029,1.029,0,0,0,.979-.711l.364-1.121a1.035,1.035,0,0,1,.649-.665,8.981,8.981,0,0,0,1.147-.476,1.017,1.017,0,0,1,.914.01l1.059.539a1.03,1.03,0,0,0,1.2-.189l1.261-1.261a1.029,1.029,0,0,0,.189-1.2l-.539-1.059a1.017,1.017,0,0,1-.01-.914,8.971,8.971,0,0,0,.476-1.147,1.034,1.034,0,0,1,.665-.649l1.121-.364a1.03,1.03,0,0,0,.711-.979v-1.783A1.03,1.03,0,0,0,243.081,115.744Z" transform="translate(-229.396 -108.853)" fill="#b6c4cf"/>
        </g>
      </g>
      <g id="Grupo_1219641" data-name="Grupo 1219641" transform="translate(0 2.009)">
        <path id="Trazado_1044196" data-name="Trazado 1044196" d="M221,138.99a5,5,0,1,0,5,5A5,5,0,0,0,221,138.99Zm0,8.12a3.123,3.123,0,1,1,3.123-3.123A3.127,3.127,0,0,1,221,147.11Z" transform="translate(-189.017 -121.878)"/>
        <path id="Trazado_1044197" data-name="Trazado 1044197" d="M181.334,98.046a.1.1,0,0,1,.066-.056l1.121-.364a1.962,1.962,0,0,0,1.359-1.87V93.972a1.962,1.962,0,0,0-1.359-1.87l-1.121-.364a.1.1,0,0,1-.066-.056,9.981,9.981,0,0,0-.526-1.267.085.085,0,0,1,.007-.071l.539-1.059A1.961,1.961,0,0,0,180.992,87l-1.261-1.261a1.961,1.961,0,0,0-2.283-.362l-1.059.539a.084.084,0,0,1-.071.007,9.936,9.936,0,0,0-1.267-.526.1.1,0,0,1-.056-.066l-.364-1.121a1.962,1.962,0,0,0-1.87-1.359h-1.783a1.961,1.961,0,0,0-1.87,1.359l-.364,1.121a.1.1,0,0,1-.056.066,9.964,9.964,0,0,0-1.267.526.084.084,0,0,1-.071-.007l-1.059-.539a1.962,1.962,0,0,0-2.283.362L162.747,87a1.962,1.962,0,0,0-.362,2.283l.539,1.059a.084.084,0,0,1,.007.071,9.977,9.977,0,0,0-.526,1.267.1.1,0,0,1-.066.056l-1.121.364a1.962,1.962,0,0,0-1.359,1.87v1.783a1.962,1.962,0,0,0,1.359,1.87l1.121.364a.1.1,0,0,1,.066.056,9.969,9.969,0,0,0,.526,1.267.085.085,0,0,1-.007.071l-.539,1.059a1.961,1.961,0,0,0,.362,2.283l1.261,1.261a1.962,1.962,0,0,0,2.283.362l1.059-.539a.085.085,0,0,1,.071-.007,9.976,9.976,0,0,0,1.267.526.1.1,0,0,1,.056.066l.364,1.121a1.962,1.962,0,0,0,1.87,1.359h1.783a1.962,1.962,0,0,0,1.87-1.359l.364-1.121a.1.1,0,0,1,.056-.066,9.963,9.963,0,0,0,1.267-.526.085.085,0,0,1,.071.007l1.059.539a1.961,1.961,0,0,0,2.283-.362l1.26-1.26a1.962,1.962,0,0,0,.362-2.283l-.539-1.058a.085.085,0,0,1-.007-.071A9.907,9.907,0,0,0,181.334,98.046Zm-1.776-.6a8.08,8.08,0,0,1-.427,1.028,1.961,1.961,0,0,0,.014,1.757l.539,1.059a.092.092,0,0,1-.017.108l-1.26,1.26a.093.093,0,0,1-.108.017l-1.058-.539a1.958,1.958,0,0,0-1.758-.014,8.1,8.1,0,0,1-1.028.426,1.979,1.979,0,0,0-1.241,1.263l-.364,1.121a.093.093,0,0,1-.088.064h-1.783a.093.093,0,0,1-.088-.064l-.364-1.121a1.978,1.978,0,0,0-1.242-1.263,8.1,8.1,0,0,1-1.028-.426,1.93,1.93,0,0,0-.861-.2,1.974,1.974,0,0,0-.9.215l-1.059.539a.093.093,0,0,1-.108-.017l-1.261-1.261a.092.092,0,0,1-.017-.107l.539-1.059a1.961,1.961,0,0,0,.014-1.758,8.072,8.072,0,0,1-.426-1.028,1.978,1.978,0,0,0-1.263-1.241l-1.121-.364a.093.093,0,0,1-.064-.088V93.972a.092.092,0,0,1,.064-.088l1.121-.364a1.978,1.978,0,0,0,1.263-1.241,8.092,8.092,0,0,1,.426-1.028,1.96,1.96,0,0,0-.014-1.758l-.539-1.059a.092.092,0,0,1,.017-.108l1.261-1.261a.092.092,0,0,1,.108-.017l1.059.539a1.96,1.96,0,0,0,1.757.014,8.045,8.045,0,0,1,1.028-.426,1.979,1.979,0,0,0,1.241-1.263l.364-1.121a.092.092,0,0,1,.088-.064h1.783a.093.093,0,0,1,.088.064l.364,1.121a1.978,1.978,0,0,0,1.242,1.263,8.04,8.04,0,0,1,1.027.426,1.96,1.96,0,0,0,1.758-.014l1.059-.539a.092.092,0,0,1,.107.017l1.261,1.261a.092.092,0,0,1,.017.107l-.539,1.059a1.961,1.961,0,0,0-.014,1.757,8.086,8.086,0,0,1,.427,1.028,1.978,1.978,0,0,0,1.263,1.241l1.121.364a.092.092,0,0,1,.064.088v1.783a.093.093,0,0,1-.064.088l-1.121.364A1.979,1.979,0,0,0,179.558,97.449Z" transform="translate(-139.89 -72.755)"/>
        <path id="Trazado_1044198" data-name="Trazado 1044198" d="M63.912,216.085a10.45,10.45,0,0,0-10.222-8.377h-.019V196.853a2.509,2.509,0,0,0-2.506-2.506h-.113a21.933,21.933,0,0,0,2.033-4.573,1.3,1.3,0,0,0-.1-1.007,1.321,1.321,0,0,0-.789-.641l-2.679-.784a1.305,1.305,0,0,0-1.62.867,16.838,16.838,0,0,1-3.528,6.139H38.739a2.509,2.509,0,0,0-2.506,2.506v2.47a16.889,16.889,0,0,1-8.505,0v-2.47a2.509,2.509,0,0,0-2.506-2.506H19.589a16.837,16.837,0,0,1-2.608-3.846l.407-.166a1.312,1.312,0,0,0,.31-2.251l-5.2-4.04a1.312,1.312,0,0,0-2.1.857l-.9,6.524a1.312,1.312,0,0,0,1.794,1.394l.67-.273q.432.918.953,1.8H12.8a2.509,2.509,0,0,0-2.506,2.506v2.916a.937.937,0,1,0,1.874,0v-2.916a.633.633,0,0,1,.632-.632H25.221a.633.633,0,0,1,.632.632v10.854H12.163v-3.567a.937.937,0,0,0-1.874,0v3.567h-.019A10.45,10.45,0,0,0,.049,216.085a2.477,2.477,0,0,0,.517,2.063,2.5,2.5,0,0,0,1.944.92h1.44a6.4,6.4,0,0,0,6.321,5.453H53.69a6.4,6.4,0,0,0,6.321-5.453h1.44a2.5,2.5,0,0,0,1.944-.92A2.477,2.477,0,0,0,63.912,216.085ZM15.12,194.347a20.392,20.392,0,0,1-1.673-3.051,1.306,1.306,0,0,0-1.7-.689l-.268.109.633-4.595,3.663,2.846-.053.022a1.313,1.313,0,0,0-.7,1.756,18.649,18.649,0,0,0,2.132,3.6Zm34.395-5.055,1.6.469a20.194,20.194,0,0,1-2.274,4.586H46.8A18.692,18.692,0,0,0,49.515,189.292Zm-11.408,7.561a.633.633,0,0,1,.632-.632H51.165a.633.633,0,0,1,.632.632v10.854H38.107Zm-10.379,4.4a18.822,18.822,0,0,0,8.505,0v1.709a20.656,20.656,0,0,1-8.505,0Zm0,3.619a22.361,22.361,0,0,0,8.505,0v2.835H27.728ZM61.946,216.96a.637.637,0,0,1-.494.234h-1.44a6.4,6.4,0,0,0-6.321-5.454H49.2a.937.937,0,1,0,0,1.874H53.69a4.517,4.517,0,0,1,0,9.033H10.271a4.517,4.517,0,0,1,0-9.033H44.83a.937.937,0,0,0,0-1.874H10.271a6.4,6.4,0,0,0-6.321,5.454H2.509a.637.637,0,0,1-.494-.234.605.605,0,0,1-.129-.508,8.571,8.571,0,0,1,8.384-6.871H53.69a8.571,8.571,0,0,1,8.384,6.871.6.6,0,0,1-.129.508Z" transform="translate(0 -161.063)"/>
        <path id="Trazado_1044199" data-name="Trazado 1044199" d="M71.606,433.75a3.134,3.134,0,1,0,3.134,3.134A3.137,3.137,0,0,0,71.606,433.75Zm0,4.394a1.26,1.26,0,1,1,1.26-1.26A1.261,1.261,0,0,1,71.606,438.144Z" transform="translate(-59.918 -379.816)"/>
        <path id="Trazado_1044200" data-name="Trazado 1044200" d="M152.827,433.75a3.134,3.134,0,1,0,3.134,3.134A3.137,3.137,0,0,0,152.827,433.75Zm0,4.394a1.26,1.26,0,1,1,1.26-1.26A1.261,1.261,0,0,1,152.827,438.144Z" transform="translate(-130.993 -379.816)"/>
        <path id="Trazado_1044201" data-name="Trazado 1044201" d="M234.048,433.75a3.134,3.134,0,1,0,3.134,3.134A3.137,3.137,0,0,0,234.048,433.75Zm0,4.394a1.26,1.26,0,1,1,1.26-1.26A1.261,1.261,0,0,1,234.048,438.144Z" transform="translate(-202.068 -379.816)"/>
        <path id="Trazado_1044202" data-name="Trazado 1044202" d="M315.269,433.75a3.134,3.134,0,1,0,3.134,3.134A3.137,3.137,0,0,0,315.269,433.75Zm0,4.394a1.26,1.26,0,1,1,1.26-1.26A1.262,1.262,0,0,1,315.269,438.144Z" transform="translate(-273.142 -379.816)"/>
        <path id="Trazado_1044203" data-name="Trazado 1044203" d="M396.49,440.018a3.134,3.134,0,1,0-3.134-3.134A3.138,3.138,0,0,0,396.49,440.018Zm0-4.394a1.26,1.26,0,1,1-1.26,1.26A1.261,1.261,0,0,1,396.49,435.624Z" transform="translate(-344.217 -379.816)"/>
        <path id="Trazado_1044204" data-name="Trazado 1044204" d="M128.009,312.28a1.566,1.566,0,0,0,1.565-1.565V308.2a1.566,1.566,0,0,0-1.565-1.565h-4.394a1.566,1.566,0,0,0-1.565,1.565v2.511a1.566,1.566,0,0,0,1.565,1.565Zm-4.085-3.766H127.7v1.892h-3.775Z" transform="translate(-106.804 -268.585)"/>
        <path id="Trazado_1044205" data-name="Trazado 1044205" d="M335.686,306.64h-4.394a1.566,1.566,0,0,0-1.565,1.565v2.511a1.566,1.566,0,0,0,1.565,1.565h4.394a1.566,1.566,0,0,0,1.565-1.565V308.2A1.566,1.566,0,0,0,335.686,306.64Zm-.309,3.766H331.6v-1.892h3.775Z" transform="translate(-288.537 -268.585)"/>
        <path id="Trazado_1044206" data-name="Trazado 1044206" d="M87.522,19.164l2.679.784a1.3,1.3,0,0,0,1.62-.867,16.873,16.873,0,0,1,5.827-8.262,16.7,16.7,0,0,1,20.188,0,16.847,16.847,0,0,1,4.9,5.969l-.407.166a1.312,1.312,0,0,0-.31,2.251l5.2,4.04a1.312,1.312,0,0,0,2.1-.857l.9-6.524a1.312,1.312,0,0,0-1.794-1.394l-.67.273A22.424,22.424,0,0,0,122.1,7.308a.937.937,0,0,0-1.219,1.423,20.527,20.527,0,0,1,5.395,7.263,1.307,1.307,0,0,0,1.7.688l.268-.109-.633,4.595-3.663-2.846L124,18.3a1.313,1.313,0,0,0,.7-1.756,18.731,18.731,0,0,0-5.726-7.217,18.572,18.572,0,0,0-22.457,0A18.782,18.782,0,0,0,90.208,18l-1.6-.469A20.455,20.455,0,0,1,95.505,8a20.256,20.256,0,0,1,21.938-1.648.937.937,0,0,0,.9-1.643,22.131,22.131,0,0,0-23.975,1.8,22.327,22.327,0,0,0-7.733,11.006,1.3,1.3,0,0,0,.1,1.007A1.323,1.323,0,0,0,87.522,19.164Z" transform="translate(-75.762 -2.009)"/>
      </g>
    </g>
  </g>
</svg>
