<svg xmlns="http://www.w3.org/2000/svg" xmlns:xlink="http://www.w3.org/1999/xlink" width="97.654" height="97.654" viewBox="0 0 97.654 97.654">
  <defs>
    <filter id="Trazado_982547" x="0" y="0" width="97.654" height="97.654" filterUnits="userSpaceOnUse">
      <feOffset dy="3" input="SourceAlpha"/>
      <feGaussianBlur stdDeviation="3" result="blur"/>
      <feFlood flood-opacity="0.161"/>
      <feComposite operator="in" in2="blur"/>
      <feComposite in="SourceGraphic"/>
    </filter>
  </defs>
  <g id="Grupo_1219656" data-name="Grupo 1219656" transform="translate(9 6)">
    <g id="Grupo_1203591" data-name="Grupo 1203591" transform="translate(0)">
      <g id="Grupo_1202428" data-name="Grupo 1202428" transform="translate(0 0)">
        <g id="Grupo_1177900" data-name="Grupo 1177900" transform="translate(0 0)">
          <g id="Grupo_1172010" data-name="Grupo 1172010" transform="translate(0)">
            <g id="Grupo_1171046" data-name="Grupo 1171046">
              <g id="Grupo_1148525" data-name="Grupo 1148525">
                <g transform="matrix(1, 0, 0, 1, -9, -6)" filter="url(#Trazado_982547)">
                  <g id="Trazado_982547-2" data-name="Trazado 982547" transform="translate(9 6)" fill="#e5f0fc">
                    <path d="M 39.82720184326172 78.15440368652344 C 34.65240097045898 78.15440368652344 29.6331901550293 77.14124298095703 24.90899085998535 75.14308166503906 C 20.34519004821777 73.21276092529297 16.24616813659668 70.44901275634766 12.72577953338623 66.92862701416016 C 9.205390930175781 63.40823364257812 6.441646099090576 59.30921173095703 4.511323928833008 54.74541473388672 C 2.513157367706299 50.02121353149414 1.500001788139343 45.00200271606445 1.500001788139343 39.82720184326172 C 1.500001788139343 34.65240097045898 2.513157367706299 29.6331901550293 4.511323928833008 24.90899085998535 C 6.441646099090576 20.34519004821777 9.205390930175781 16.24616813659668 12.72577953338623 12.72577953338623 C 16.24616813659668 9.205390930175781 20.34519004821777 6.441646099090576 24.90899085998535 4.511323928833008 C 29.6331901550293 2.513157367706299 34.65240097045898 1.500001788139343 39.82720184326172 1.500001788139343 C 45.00200271606445 1.500001788139343 50.02121353149414 2.513157367706299 54.74541473388672 4.511323928833008 C 59.30921173095703 6.441646099090576 63.40823364257812 9.205390930175781 66.92862701416016 12.72577953338623 C 70.44901275634766 16.24616813659668 73.21276092529297 20.34519004821777 75.14308166503906 24.90899085998535 C 77.14124298095703 29.6331901550293 78.15440368652344 34.65240097045898 78.15440368652344 39.82720184326172 C 78.15440368652344 45.00200271606445 77.14124298095703 50.02121353149414 75.14308166503906 54.74541473388672 C 73.21276092529297 59.30921173095703 70.44901275634766 63.40823364257812 66.92862701416016 66.92862701416016 C 63.40823364257812 70.44901275634766 59.30921173095703 73.21276092529297 54.74541473388672 75.14308166503906 C 50.02121353149414 77.14124298095703 45.00200271606445 78.15440368652344 39.82720184326172 78.15440368652344 Z" stroke="none"/>
                    <path d="M 39.82720184326172 3 C 34.85424041748047 3 30.0316162109375 3.973289489746094 25.49331283569336 5.892837524414062 C 21.10831451416016 7.747528076171875 17.16955184936523 10.40332794189453 13.78643798828125 13.78643798828125 C 10.40332794189453 17.16955184936523 7.747528076171875 21.10831451416016 5.892837524414062 25.49331283569336 C 3.973289489746094 30.0316162109375 3 34.85424041748047 3 39.82720184326172 C 3 44.80016326904297 3.973289489746094 49.62278747558594 5.892837524414062 54.16108703613281 C 7.747528076171875 58.54608917236328 10.40332794189453 62.4848518371582 13.78643798828125 65.86796569824219 C 17.16955184936523 69.25107574462891 21.10831451416016 71.90687561035156 25.49331283569336 73.76156616210938 C 30.0316162109375 75.68111419677734 34.85424041748047 76.65440368652344 39.82720184326172 76.65440368652344 C 44.80016326904297 76.65440368652344 49.62278747558594 75.68111419677734 54.16108703613281 73.76156616210938 C 58.54608917236328 71.90687561035156 62.4848518371582 69.25107574462891 65.86796569824219 65.86796569824219 C 69.25107574462891 62.4848518371582 71.90687561035156 58.54608917236328 73.76156616210938 54.16108703613281 C 75.68111419677734 49.62278747558594 76.65440368652344 44.80016326904297 76.65440368652344 39.82720184326172 C 76.65440368652344 34.85424041748047 75.68111419677734 30.0316162109375 73.76156616210938 25.49331283569336 C 71.90687561035156 21.10831451416016 69.25107574462891 17.16955184936523 65.86796569824219 13.78643798828125 C 62.4848518371582 10.40332794189453 58.54608917236328 7.747528076171875 54.16108703613281 5.892837524414062 C 49.62278747558594 3.973289489746094 44.80016326904297 3 39.82720184326172 3 M 39.82720184326172 0 C 61.82316589355469 0 79.65440368652344 17.83123779296875 79.65440368652344 39.82720184326172 C 79.65440368652344 61.82316589355469 61.82316589355469 79.65440368652344 39.82720184326172 79.65440368652344 C 17.83123779296875 79.65440368652344 0 61.82316589355469 0 39.82720184326172 C 0 17.83123779296875 17.83123779296875 0 39.82720184326172 0 Z" stroke="none" fill="#d4a2f9"/>
                  </g>
                </g>
              </g>
            </g>
          </g>
        </g>
      </g>
    </g>
    <g id="limite-de-tiempo_3_" data-name="limite-de-tiempo (3)" transform="translate(12.467 14.765)">
      <g id="Grupo_1219654" data-name="Grupo 1219654" transform="translate(0.803 5.015)">
        <g id="Grupo_1219643" data-name="Grupo 1219643" transform="translate(8.631)">
          <path id="Trazado_1044207" data-name="Trazado 1044207" d="M149.174,68.43a18.331,18.331,0,0,0-13.212,5.6l1.945,3.37A14.686,14.686,0,0,1,162.38,93.245a9.939,9.939,0,0,1,4.16-.373A18.4,18.4,0,0,0,149.174,68.43Z" transform="translate(-130.865 -68.43)" fill="#fe646f"/>
          <path id="Trazado_1044208" data-name="Trazado 1044208" d="M113.216,267.615A14.689,14.689,0,0,1,91.99,256.2H88.268a18.4,18.4,0,0,0,24.641,15.587,9.922,9.922,0,0,1,.307-4.167Z" transform="translate(-88.268 -236.127)" fill="#fe646f"/>
        </g>
        <g id="Grupo_1219646" data-name="Grupo 1219646" transform="translate(33.069 24.261)">
          <g id="Grupo_1219644" data-name="Grupo 1219644">
            <path id="Trazado_1044209" data-name="Trazado 1044209" d="M326.953,295.426a10.016,10.016,0,0,0-3.027.466,14.675,14.675,0,0,1-6.576,6.681,10.025,10.025,0,1,0,9.6-7.147Z" transform="translate(-316.93 -295.426)" fill="#05e39c"/>
          </g>
          <g id="Grupo_1219645" data-name="Grupo 1219645" transform="translate(7.783)">
            <path id="Trazado_1044210" data-name="Trazado 1044210" d="M391.991,295.426a10.051,10.051,0,0,0-2.241.252,10.026,10.026,0,0,1,0,19.544,10.024,10.024,0,1,0,2.241-19.8Z" transform="translate(-389.75 -295.426)" fill="#0ed290"/>
          </g>
        </g>
        <g id="Grupo_1219649" data-name="Grupo 1219649" transform="translate(12.353 3.703)">
          <g id="Grupo_1219647" data-name="Grupo 1219647">
            <path id="Trazado_1044211" data-name="Trazado 1044211" d="M137.681,103.077a14.653,14.653,0,0,0-11.267,5.268l4.5,7.79A2.2,2.2,0,0,1,129,119.442h-5.909a14.684,14.684,0,1,0,14.588-16.365Z" transform="translate(-123.093 -103.077)" fill="#fff"/>
          </g>
          <g id="Grupo_1219648" data-name="Grupo 1219648" transform="translate(12.345 0)">
            <path id="Trazado_1044212" data-name="Trazado 1044212" d="M240.839,103.077a14.8,14.8,0,0,0-2.243.17,14.686,14.686,0,0,1,0,29.027,14.685,14.685,0,1,0,2.243-29.2Z" transform="translate(-238.596 -103.077)" fill="#f3f0f3"/>
          </g>
        </g>
        <g id="Grupo_1219650" data-name="Grupo 1219650" transform="translate(25.153 16.599)">
          <ellipse id="Elipse_12548" data-name="Elipse 12548" cx="1.788" cy="1.788" rx="1.788" ry="1.788" fill="#fe646f"/>
        </g>
        <g id="Grupo_1219653" data-name="Grupo 1219653" transform="translate(0 1.74)">
          <g id="Grupo_1219651" data-name="Grupo 1219651" transform="translate(0 0)">
            <path id="Trazado_1044213" data-name="Trazado 1044213" d="M15.8,85.865,7.827,99.677a2.311,2.311,0,0,0,2,3.467H25.778a2.311,2.311,0,0,0,2-3.467L19.805,85.865A2.311,2.311,0,0,0,15.8,85.865Z" transform="translate(-7.514 -84.709)" fill="#ffd15b"/>
          </g>
          <g id="Grupo_1219652" data-name="Grupo 1219652" transform="translate(8.072)">
            <path id="Trazado_1044214" data-name="Trazado 1044214" d="M95.23,99.677,87.255,85.865a2.311,2.311,0,0,0-4,0l-.216.374,7.758,13.438a2.311,2.311,0,0,1-2,3.467h4.435A2.311,2.311,0,0,0,95.23,99.677Z" transform="translate(-83.036 -84.709)" fill="#ffc344"/>
          </g>
        </g>
      </g>
      <g id="Grupo_1219655" data-name="Grupo 1219655" transform="translate(0 0)">
        <path id="Trazado_1044215" data-name="Trazado 1044215" d="M345.459,44.484c.368.181.736.374,1.094.575a.8.8,0,1,0,.786-1.4c-.383-.216-.779-.423-1.174-.617a.8.8,0,1,0-.705,1.44Z" transform="translate(-308.136 -40.669)"/>
        <path id="Trazado_1044216" data-name="Trazado 1044216" d="M380.942,66.485c.326.25.649.512.96.78a.8.8,0,1,0,1.046-1.215c-.334-.287-.68-.568-1.03-.837a.8.8,0,1,0-.976,1.272Z" transform="translate(-339.948 -60.394)"/>
        <path id="Trazado_1044217" data-name="Trazado 1044217" d="M306.329,29.944c.4.1.8.22,1.187.347a.8.8,0,0,0,.494-1.525c-.42-.136-.848-.261-1.275-.373a.8.8,0,1,0-.406,1.551Z" transform="translate(-273.054 -27.633)"/>
        <path id="Trazado_1044218" data-name="Trazado 1044218" d="M436.289,130.119a.8.8,0,1,0,1.434-.718c-.2-.394-.409-.788-.629-1.171a.8.8,0,1,0-1.39.8c.2.356.4.723.585,1.09Z" transform="translate(-389.042 -116.464)"/>
        <path id="Trazado_1044219" data-name="Trazado 1044219" d="M462.713,248.928a.8.8,0,0,0-.859.74c-.031.41-.073.824-.127,1.23a.8.8,0,0,0,.69.9.81.81,0,0,0,.106.007.8.8,0,0,0,.794-.7c.058-.436.1-.881.136-1.321a.8.8,0,0,0-.74-.859Z" transform="translate(-412.372 -224.62)"/>
        <path id="Trazado_1044220" data-name="Trazado 1044220" d="M412.209,95.992a.8.8,0,0,0,1.264-.987c-.271-.348-.556-.692-.846-1.023a.8.8,0,1,0-1.206,1.056C411.691,95.347,411.956,95.668,412.209,95.992Z" transform="translate(-367.272 -85.992)"/>
        <path id="Trazado_1044221" data-name="Trazado 1044221" d="M462.674,207.02a.8.8,0,0,0-.7.893c.05.407.089.821.116,1.231a.8.8,0,0,0,.8.749l.053,0a.8.8,0,0,0,.747-.852c-.029-.44-.071-.885-.124-1.321A.8.8,0,0,0,462.674,207.02Z" transform="translate(-412.596 -187.187)"/>
        <path id="Trazado_1044222" data-name="Trazado 1044222" d="M452.8,167.154c.13.39.25.789.357,1.185a.8.8,0,1,0,1.547-.419c-.115-.426-.245-.854-.384-1.273a.8.8,0,1,0-1.521.507Z" transform="translate(-404.366 -150.645)"/>
        <path id="Trazado_1044223" data-name="Trazado 1044223" d="M50.073,51.921q.106-.338.2-.678a.8.8,0,0,0-1.544-.433c-.025.091-.054.182-.081.272a10.743,10.743,0,0,0-2.468-.858A19.214,19.214,0,0,0,42.866,33.1a.8.8,0,0,0-1.263.988A17.612,17.612,0,0,1,44.578,50c-.226-.014-.453-.022-.683-.022a10.815,10.815,0,0,0-1.561.113A15.484,15.484,0,0,0,16.7,34.056l-1.084-1.878a17.579,17.579,0,0,1,23.51-.676.8.8,0,0,0,1.038-1.222,19.184,19.184,0,0,0-25.371.471l-1-1.737a3.178,3.178,0,0,0-.382-.527,21.7,21.7,0,0,1,14.337-5.379.8.8,0,0,0,0-1.6A23.3,23.3,0,0,0,12,27.592a3.151,3.151,0,0,0-.909-.134,3.081,3.081,0,0,0-2.7,1.556L5.357,34.277a.8.8,0,0,0,1.388.8l3.038-5.262a1.51,1.51,0,0,1,2.615,0l7.974,13.812a1.51,1.51,0,0,1-1.307,2.265H3.117A1.51,1.51,0,0,1,1.81,43.629l3.066-5.31a.8.8,0,1,0-1.388-.8L.421,42.827a3.113,3.113,0,0,0,2.7,4.669H4.484A23.4,23.4,0,0,0,27.743,68.309a.8.8,0,0,0,0-1.6A21.8,21.8,0,0,1,6.1,47.5H8.73A19.2,19.2,0,0,0,33.35,63.261,10.756,10.756,0,0,0,35,66.97a.8.8,0,1,0,1.317-.914A9.166,9.166,0,0,1,34.673,60.8a9.262,9.262,0,0,1,.261-2.186,15.592,15.592,0,0,0,6.633-6.739,9.223,9.223,0,1,1-2.8,16.592.8.8,0,0,0-.892,1.332,10.823,10.823,0,0,0,12.2-17.882ZM33.1,61.659A17.591,17.591,0,0,1,10.348,47.5h2.125A15.487,15.487,0,0,0,33.16,59.414a10.919,10.919,0,0,0-.09,1.39q0,.43.034.854ZM27.743,58.79A13.888,13.888,0,0,1,14.1,47.5h4.963a3.113,3.113,0,0,0,2.7-4.669L17.534,35.5A13.882,13.882,0,1,1,27.743,58.79Z" transform="translate(0.001 -21.505)"/>
        <path id="Trazado_1044224" data-name="Trazado 1044224" d="M364.166,357.405h.013a.8.8,0,0,0,.593-.277l5.869-6.792a.8.8,0,0,0-1.213-1.048l-5.282,6.113-3.348-3.627a.8.8,0,1,0-1.178,1.087l3.957,4.286A.8.8,0,0,0,364.166,357.405Z" transform="translate(-320.996 -314.007)"/>
        <path id="Trazado_1044225" data-name="Trazado 1044225" d="M252.886,124.7a.8.8,0,0,0,.8-.8v-.638a.8.8,0,0,0-1.6,0v.638A.8.8,0,0,0,252.886,124.7Z" transform="translate(-225.142 -111.668)"/>
        <path id="Trazado_1044226" data-name="Trazado 1044226" d="M252.886,337.506a.8.8,0,0,0-.8.8v.638a.8.8,0,0,0,1.6,0v-.638A.8.8,0,0,0,252.886,337.506Z" transform="translate(-225.142 -303.733)"/>
        <path id="Trazado_1044227" data-name="Trazado 1044227" d="M356.622,233.771a.8.8,0,0,0,.8.8h.638a.8.8,0,1,0,0-1.6h-.638A.8.8,0,0,0,356.622,233.771Z" transform="translate(-318.507 -210.368)"/>
        <path id="Trazado_1044228" data-name="Trazado 1044228" d="M198.324,137.663a.8.8,0,0,0-1.388.8l.319.553a.8.8,0,1,0,1.388-.8Z" transform="translate(-175.792 -124.891)"/>
        <path id="Trazado_1044229" data-name="Trazado 1044229" d="M305.848,323.9a.8.8,0,1,0-1.388.8l.319.553a.8.8,0,0,0,1.388-.8Z" transform="translate(-271.824 -291.223)"/>
        <path id="Trazado_1044230" data-name="Trazado 1044230" d="M157.332,285.343l-.553.319a.8.8,0,1,0,.8,1.388l.553-.319a.8.8,0,0,0-.8-1.388Z" transform="translate(-139.665 -257.049)"/>
        <path id="Trazado_1044231" data-name="Trazado 1044231" d="M342.722,179.234a.8.8,0,0,0,1.1.293l.553-.319a.8.8,0,1,0-.8-1.388l-.553.319A.8.8,0,0,0,342.722,179.234Z" transform="translate(-305.997 -161.017)"/>
        <path id="Trazado_1044232" data-name="Trazado 1044232" d="M344.37,285.662l-.553-.319a.8.8,0,0,0-.8,1.388l.553.319a.8.8,0,1,0,.8-1.388Z" transform="translate(-305.997 -257.049)"/>
        <path id="Trazado_1044233" data-name="Trazado 1044233" d="M198.349,323.607a.8.8,0,0,0-1.1.293l-.319.553a.8.8,0,1,0,1.388.8l.319-.553A.8.8,0,0,0,198.349,323.607Z" transform="translate(-175.791 -291.223)"/>
        <path id="Trazado_1044234" data-name="Trazado 1044234" d="M304.753,139.312a.8.8,0,0,0,1.095-.293l.319-.553a.8.8,0,1,0-1.388-.8l-.319.553A.8.8,0,0,0,304.753,139.312Z" transform="translate(-271.824 -124.891)"/>
        <path id="Trazado_1044235" data-name="Trazado 1044235" d="M97.087,129.038a.8.8,0,0,0,.8-.8v-6.055a.8.8,0,0,0-1.6,0v6.055A.8.8,0,0,0,97.087,129.038Z" transform="translate(-85.994 -110.706)"/>
        <path id="Trazado_1044236" data-name="Trazado 1044236" d="M96.285,209.157a.8.8,0,1,0,1.6,0v-.738a.8.8,0,0,0-1.6,0Z" transform="translate(-85.994 -187.727)"/>
        <path id="Trazado_1044237" data-name="Trazado 1044237" d="M244.715,162.545h-4.306a2.6,2.6,0,0,0-1.66-1.66V154.92a.8.8,0,0,0-1.6,0v5.966a2.589,2.589,0,1,0,3.263,3.263h4.306a.8.8,0,0,0,0-1.6Zm-6.767,1.788a.986.986,0,1,1,.986-.986A.987.987,0,0,1,237.947,164.333Z" transform="translate(-210.204 -139.945)"/>
      </g>
    </g>
  </g>
</svg>
