<svg xmlns="http://www.w3.org/2000/svg" xmlns:xlink="http://www.w3.org/1999/xlink" width="97.654" height="97.654" viewBox="0 0 97.654 97.654">
  <defs>
    <filter id="Trazado_982547" x="0" y="0" width="97.654" height="97.654" filterUnits="userSpaceOnUse">
      <feOffset dy="3" input="SourceAlpha"/>
      <feGaussianBlur stdDeviation="3" result="blur"/>
      <feFlood flood-opacity="0.161"/>
      <feComposite operator="in" in2="blur"/>
      <feComposite in="SourceGraphic"/>
    </filter>
  </defs>
  <g id="Grupo_1219660" data-name="Grupo 1219660" transform="translate(9 6)">
    <g id="Grupo_1203593" data-name="Grupo 1203593" transform="translate(0)">
      <g id="Grupo_1202429" data-name="Grupo 1202429" transform="translate(0 0)">
        <g id="Grupo_1177900" data-name="Grupo 1177900" transform="translate(0 0)">
          <g id="Grupo_1172010" data-name="Grupo 1172010" transform="translate(0)">
            <g id="Grupo_1171046" data-name="Grupo 1171046">
              <g id="Grupo_1148525" data-name="Grupo 1148525">
                <g transform="matrix(1, 0, 0, 1, -9, -6)" filter="url(#Trazado_982547)">
                  <g id="Trazado_982547-2" data-name="Trazado 982547" transform="translate(9 6)" fill="#e5f0fc">
                    <path d="M 39.82720184326172 78.15440368652344 C 34.65240097045898 78.15440368652344 29.6331901550293 77.14124298095703 24.90899085998535 75.14308166503906 C 20.34519004821777 73.21276092529297 16.24616813659668 70.44901275634766 12.72577953338623 66.92862701416016 C 9.205390930175781 63.40823364257812 6.441646099090576 59.30921173095703 4.511323928833008 54.74541473388672 C 2.513157367706299 50.02121353149414 1.500001788139343 45.00200271606445 1.500001788139343 39.82720184326172 C 1.500001788139343 34.65240097045898 2.513157367706299 29.6331901550293 4.511323928833008 24.90899085998535 C 6.441646099090576 20.34519004821777 9.205390930175781 16.24616813659668 12.72577953338623 12.72577953338623 C 16.24616813659668 9.205390930175781 20.34519004821777 6.441646099090576 24.90899085998535 4.511323928833008 C 29.6331901550293 2.513157367706299 34.65240097045898 1.500001788139343 39.82720184326172 1.500001788139343 C 45.00200271606445 1.500001788139343 50.02121353149414 2.513157367706299 54.74541473388672 4.511323928833008 C 59.30921173095703 6.441646099090576 63.40823364257812 9.205390930175781 66.92862701416016 12.72577953338623 C 70.44901275634766 16.24616813659668 73.21276092529297 20.34519004821777 75.14308166503906 24.90899085998535 C 77.14124298095703 29.6331901550293 78.15440368652344 34.65240097045898 78.15440368652344 39.82720184326172 C 78.15440368652344 45.00200271606445 77.14124298095703 50.02121353149414 75.14308166503906 54.74541473388672 C 73.21276092529297 59.30921173095703 70.44901275634766 63.40823364257812 66.92862701416016 66.92862701416016 C 63.40823364257812 70.44901275634766 59.30921173095703 73.21276092529297 54.74541473388672 75.14308166503906 C 50.02121353149414 77.14124298095703 45.00200271606445 78.15440368652344 39.82720184326172 78.15440368652344 Z" stroke="none"/>
                    <path d="M 39.82720184326172 3 C 34.85424041748047 3 30.0316162109375 3.973289489746094 25.49331283569336 5.892837524414062 C 21.10831451416016 7.747528076171875 17.16955184936523 10.40332794189453 13.78643798828125 13.78643798828125 C 10.40332794189453 17.16955184936523 7.747528076171875 21.10831451416016 5.892837524414062 25.49331283569336 C 3.973289489746094 30.0316162109375 3 34.85424041748047 3 39.82720184326172 C 3 44.80016326904297 3.973289489746094 49.62278747558594 5.892837524414062 54.16108703613281 C 7.747528076171875 58.54608917236328 10.40332794189453 62.4848518371582 13.78643798828125 65.86796569824219 C 17.16955184936523 69.25107574462891 21.10831451416016 71.90687561035156 25.49331283569336 73.76156616210938 C 30.0316162109375 75.68111419677734 34.85424041748047 76.65440368652344 39.82720184326172 76.65440368652344 C 44.80016326904297 76.65440368652344 49.62278747558594 75.68111419677734 54.16108703613281 73.76156616210938 C 58.54608917236328 71.90687561035156 62.4848518371582 69.25107574462891 65.86796569824219 65.86796569824219 C 69.25107574462891 62.4848518371582 71.90687561035156 58.54608917236328 73.76156616210938 54.16108703613281 C 75.68111419677734 49.62278747558594 76.65440368652344 44.80016326904297 76.65440368652344 39.82720184326172 C 76.65440368652344 34.85424041748047 75.68111419677734 30.0316162109375 73.76156616210938 25.49331283569336 C 71.90687561035156 21.10831451416016 69.25107574462891 17.16955184936523 65.86796569824219 13.78643798828125 C 62.4848518371582 10.40332794189453 58.54608917236328 7.747528076171875 54.16108703613281 5.892837524414062 C 49.62278747558594 3.973289489746094 44.80016326904297 3 39.82720184326172 3 M 39.82720184326172 0 C 61.82316589355469 0 79.65440368652344 17.83123779296875 79.65440368652344 39.82720184326172 C 79.65440368652344 61.82316589355469 61.82316589355469 79.65440368652344 39.82720184326172 79.65440368652344 C 17.83123779296875 79.65440368652344 0 61.82316589355469 0 39.82720184326172 C 0 17.83123779296875 17.83123779296875 0 39.82720184326172 0 Z" stroke="none" fill="#d4a2f9"/>
                  </g>
                </g>
              </g>
            </g>
          </g>
        </g>
      </g>
    </g>
    <g id="igualdad-social_2_" data-name="igualdad-social (2)" transform="translate(13.178 12.827)">
      <g id="Grupo_1219657" data-name="Grupo 1219657" transform="translate(0.649 0.781)">
        <path id="Trazado_1044238" data-name="Trazado 1044238" d="M243.244,42.021h-.65a1.253,1.253,0,0,1-1.249-1.249V9.343a1.253,1.253,0,0,1,.79-1.161c.142-.057.333.03.495.03l.415.235c.687,0,1.257.188,1.257.875l.079,31.508A1.112,1.112,0,0,1,243.244,42.021Z" transform="translate(-216.871 -8.094)" fill="#ffd15b"/>
        <path id="Trazado_1044239" data-name="Trazado 1044239" d="M251.292,8.749V40.177a1.253,1.253,0,0,1-1.249,1.249h-.65a1.23,1.23,0,0,1-.459-.088,1.252,1.252,0,0,0,.791-1.161V8.749a1.252,1.252,0,0,0-.791-1.161,1.23,1.23,0,0,1,.459-.088h.65A1.253,1.253,0,0,1,251.292,8.749Z" transform="translate(-223.67 -7.5)" fill="#ffc143"/>
        <path id="Trazado_1044240" data-name="Trazado 1044240" d="M215.37,284.518l-3.019-.1h-4.577a1.253,1.253,0,0,0-1.249,1.249v1.459a1.251,1.251,0,0,0,1.249,1.247l4.165.836,3.443-.986a1.132,1.132,0,0,0,1.249-1.1v-1.459A1.181,1.181,0,0,0,215.37,284.518Z" transform="translate(-185.675 -255.591)" fill="#ffe177"/>
        <path id="Trazado_1044241" data-name="Trazado 1044241" d="M264.432,285.666v1.459a1.25,1.25,0,0,1-1.248,1.247l-1.775.5-1.854-.5a1.251,1.251,0,0,0,1.249-1.247v-1.459a1.253,1.253,0,0,0-1.249-1.249h3.628A1.253,1.253,0,0,1,264.432,285.666Z" transform="translate(-233.185 -255.59)" fill="#ffd15b"/>
        <path id="Trazado_1044242" data-name="Trazado 1044242" d="M166.123,327.425v-3.576a1.431,1.431,0,0,1,1.431-1.43h7.9l7.781.137a1.3,1.3,0,0,1,1.412,1.293l-.08,4.578c0,.79-.273,1.43-1.064,1.43H170.7Z" transform="translate(-149.479 -289.636)" fill="#ffd15b"/>
        <path id="Trazado_1044243" data-name="Trazado 1044243" d="M262.671,323.85v4.577a1.431,1.431,0,0,1-1.43,1.431h-8.346a1.431,1.431,0,0,0,1.43-1.431V323.85a1.43,1.43,0,0,0-1.43-1.43h8.346A1.43,1.43,0,0,1,262.671,323.85Z" transform="translate(-227.218 -289.637)" fill="#ffc143"/>
        <path id="Trazado_1044244" data-name="Trazado 1044244" d="M395.966,356.4l4.252-1.077a2.084,2.084,0,0,1,2.721,1.947,2.192,2.192,0,0,1-1.481,2.074l-3.96,1.665Z" transform="translate(-355.396 -319.049)" fill="#c46255"/>
        <path id="Trazado_1044245" data-name="Trazado 1044245" d="M50.771,357.977l1.882.877c.594.006,3.18-1.654,3.756-1.8l5.118-1.307a2.435,2.435,0,0,1,1.533,4.609l-9.717,4.017a8.135,8.135,0,0,1-3.108.617h-9.5a5.422,5.422,0,0,0-4.878,3.055l-.881,1.694a.727.727,0,0,1-.646.392l-11.364-.006a.3.3,0,0,1-.244-.469l4.973-7.129a5.4,5.4,0,0,0,.971-3.019,5.042,5.042,0,0,1,2.034-3.982h0a5.1,5.1,0,0,1,3.051-1.007Z" transform="translate(-20.957 -318.394)" fill="#ce7165"/>
        <path id="Trazado_1044246" data-name="Trazado 1044246" d="M185.734,383.807l-11.151.41a1.14,1.14,0,0,1-1.229-1.04c0-.032,0-.063,0-.1a1.14,1.14,0,0,1,1.044-1.134l9.189-.991,1.8-1.159h1.47a6.855,6.855,0,0,0,1.763-.211l2.788-.71C191.5,381.045,189.6,383.807,185.734,383.807Z" transform="translate(-155.954 -340.217)" fill="#c46255"/>
        <path id="Trazado_1044247" data-name="Trazado 1044247" d="M129.131,354.518H145.1a2.275,2.275,0,0,1,.172,4.543l-10.567.8Z" transform="translate(-116.338 -318.394)" fill="#ce7165"/>
        <path id="Trazado_1044248" data-name="Trazado 1044248" d="M79.153,63.384h36.916v3.29H79.153Z" transform="translate(-71.562 -57.567)" fill="#ffc143"/>
        <path id="Trazado_1044249" data-name="Trazado 1044249" d="M8.808,175.8a8.987,8.987,0,0,1-1.256-1.294c-.029-.046-.12-.115-.148-.161A7.96,7.96,0,0,1,18.349,163.4c.064.039.137.172.2.213a8.378,8.378,0,0,1,1.149,1.209,7.224,7.224,0,0,1-.089,10.624c-3.1,3.1-7.7,3.46-10.8.355Z" transform="translate(-6.236 -146.128)" fill="#f2fbff"/>
        <path id="Trazado_1044250" data-name="Trazado 1044250" d="M29.874,185.874a7.967,7.967,0,0,1-1.209.993,29.242,29.242,0,0,1-4.362.653,26.009,26.009,0,0,1-4.486-.66A8,8,0,0,1,17.45,184.4,7.96,7.96,0,0,0,28.4,173.449a7.971,7.971,0,0,1,1.478,12.425Z" transform="translate(-16.283 -156.174)" fill="#dff6fd"/>
        <path id="Trazado_1044251" data-name="Trazado 1044251" d="M39.3,249.325v-.505a2.02,2.02,0,0,1,1.483-1.947l1.107-.239c.029-.008.089-.163.116-.175a.558.558,0,0,0,.327-.508v-2.238H45.3v2.238a.56.56,0,0,0,.33.51.644.644,0,0,0,.08.046l1.148.365a2.02,2.02,0,0,1,1.483,1.947v.505H39.3Z" transform="translate(-35.858 -219.125)" fill="#c46255"/>
        <path id="Trazado_1044252" data-name="Trazado 1044252" d="M57.663,198.151l.345.2a1.8,1.8,0,0,0,1.777,0l.345-.2a3.022,3.022,0,0,0,1.531-2.629v-.768a2.765,2.765,0,0,0-5.529,0v.768A3.022,3.022,0,0,0,57.663,198.151Z" transform="translate(-50.938 -172.789)" fill="#ce7165"/>
        <path id="Trazado_1044253" data-name="Trazado 1044253" d="M357.171,176.737c-.39-.39-1-.66-1.29-1.1-.043-.065-.2-.2-.243-.262a7.845,7.845,0,0,1,10.787-10.788c.062.038.122.123.184.162a6.626,6.626,0,0,1,1.044,1.05,7.283,7.283,0,0,1-.044,10.613C364.55,179.468,360.232,179.8,357.171,176.737Z" transform="translate(-318.235 -147.201)" fill="#f2fbff"/>
        <path id="Trazado_1044254" data-name="Trazado 1044254" d="M377.785,186.729a7.846,7.846,0,0,1-1.177.968l-4.379-.135-4.35.141a7.886,7.886,0,0,1-2.337-2.431,7.845,7.845,0,0,0,10.787-10.788,7.855,7.855,0,0,1,1.456,12.245Z" transform="translate(-328.138 -157.101)" fill="#dff6fd"/>
        <path id="Trazado_1044255" data-name="Trazado 1044255" d="M386.536,249.325v-.505a2.02,2.02,0,0,1,1.483-1.947l1.15-.342c.032-.009.043-.057.072-.072a.586.586,0,0,0,.327-.508v-2.238h2.969v2.238a.559.559,0,0,0,.33.51c.026.012.048.082.077.089l1.151.322a2.02,2.02,0,0,1,1.483,1.947v.505h-9.041Z" transform="translate(-346.948 -219.125)" fill="#ffcebe"/>
        <path id="Trazado_1044256" data-name="Trazado 1044256" d="M404.9,198.151l.345.2a1.8,1.8,0,0,0,1.777,0l.345-.2a3.022,3.022,0,0,0,1.531-2.629v-.768a2.765,2.765,0,0,0-5.529,0v.768A3.022,3.022,0,0,0,404.9,198.151Z" transform="translate(-362.027 -172.789)" fill="#ffdfcf"/>
        <path id="Trazado_1044257" data-name="Trazado 1044257" d="M391.835,270.387a7.307,7.307,0,0,1-4.681,4.015h0a6.793,6.793,0,0,1-2.687-1.416l-.241-.65a1.879,1.879,0,0,1,.6-1.322,2.02,2.02,0,0,1,.883-.511l1.383-.382a.475.475,0,0,0,.083-.031l.074.168a1.968,1.968,0,0,0,3.476,0l.076-.165a.544.544,0,0,0,.081.029Z" transform="translate(-344.874 -242.755)" fill="#b3dafe"/>
        <path id="Trazado_1044258" data-name="Trazado 1044258" d="M407.782,53.925a2.568,2.568,0,0,1-2.6,2.757,2.825,2.825,0,0,1-2.714-1.67c0-.008-.023-.023-.026-.031A2.854,2.854,0,0,1,405.1,51.1a2.665,2.665,0,0,1,1.025.191,2.71,2.71,0,0,1,1.654,2.631Z" transform="translate(-361.026 -46.563)" fill="#ffe177"/>
        <path id="Trazado_1044259" data-name="Trazado 1044259" d="M408.757,57.617a2.853,2.853,0,0,1-4.034,0,2.82,2.82,0,0,1-.646-.99,2.852,2.852,0,0,0,3.688-3.687,2.819,2.819,0,0,1,.992.644A2.853,2.853,0,0,1,408.757,57.617Z" transform="translate(-362.663 -48.209)" fill="#ffd15b"/>
        <path id="Trazado_1044260" data-name="Trazado 1044260" d="M210.035,54.491l-2.913.215h-4.488a2.148,2.148,0,0,1-2.148-2.148V50.416a2.148,2.148,0,0,1,2.148-2.148h4.445L210,48.38a1.938,1.938,0,0,1,2.005,2.037v2.1A1.862,1.862,0,0,1,210.035,54.491Z" transform="translate(-180.264 -44.024)" fill="#ffe177"/>
        <path id="Trazado_1044261" data-name="Trazado 1044261" d="M266.844,50.418v2.141a2.148,2.148,0,0,1-2.149,2.149h-3.15a2.148,2.148,0,0,0,2.148-2.149V50.418a2.148,2.148,0,0,0-2.148-2.148h3.15A2.148,2.148,0,0,1,266.844,50.418Z" transform="translate(-234.968 -44.026)" fill="#ffd15b"/>
        <path id="Trazado_1044262" data-name="Trazado 1044262" d="M44.6,270.388a7.313,7.313,0,0,1-4.686,4.014h0a7.081,7.081,0,0,1-2.773-1.386l-.155-.686a1.875,1.875,0,0,1,.6-1.317,2.021,2.021,0,0,1,.883-.511l1.383-.382a.475.475,0,0,0,.083-.031l.074.168a1.968,1.968,0,0,0,3.476,0l.076-.165a.546.546,0,0,0,.081.029Z" transform="translate(-33.78 -242.755)" fill="#b3dafe"/>
        <path id="Trazado_1044263" data-name="Trazado 1044263" d="M46.471,275.012v1.5a8.592,8.592,0,0,1-9.522-.008v-1.494q0-.059,0-.119a8.565,8.565,0,0,0,7.618-1.944l.418.116a2.021,2.021,0,0,1,1.482,1.947Z" transform="translate(-33.752 -245.317)" fill="#8ac9fe"/>
        <path id="Trazado_1044264" data-name="Trazado 1044264" d="M393.713,275V276.5a8.581,8.581,0,0,1-9.522.007V275c0-.039,0-.075,0-.113a8.554,8.554,0,0,0,7.613-1.95l.424.117A2.021,2.021,0,0,1,393.713,275Z" transform="translate(-344.847 -245.308)" fill="#8ac9fe"/>
        <path id="Trazado_1044265" data-name="Trazado 1044265" d="M61.4,53.925a2.568,2.568,0,0,1-2.6,2.757,2.825,2.825,0,0,1-2.714-1.67c0-.008-.023-.023-.026-.031A2.854,2.854,0,0,1,58.725,51.1a2.665,2.665,0,0,1,1.025.191A2.71,2.71,0,0,1,61.4,53.925Z" transform="translate(-50.705 -46.563)" fill="#ffe177"/>
        <path id="Trazado_1044266" data-name="Trazado 1044266" d="M62.38,57.617a2.853,2.853,0,0,1-4.034,0,2.82,2.82,0,0,1-.646-.99,2.852,2.852,0,0,0,3.688-3.687,2.819,2.819,0,0,1,.992.644A2.852,2.852,0,0,1,62.38,57.617Z" transform="translate(-52.344 -48.209)" fill="#ffd15b"/>
      </g>
      <g id="Grupo_1219658" data-name="Grupo 1219658" transform="translate(0.649 0.781)">
        <path id="Trazado_1044267" data-name="Trazado 1044267" d="M243.244,42.021h-.65a1.253,1.253,0,0,1-1.249-1.249V9.343a1.253,1.253,0,0,1,.79-1.161c.142-.057.333.03.495.03l.415.235c.687,0,1.257.188,1.257.875l.079,31.508A1.112,1.112,0,0,1,243.244,42.021Z" transform="translate(-216.871 -8.094)" fill="#ffd15b"/>
        <path id="Trazado_1044268" data-name="Trazado 1044268" d="M251.292,8.749V40.177a1.253,1.253,0,0,1-1.249,1.249h-.65a1.23,1.23,0,0,1-.459-.088,1.252,1.252,0,0,0,.791-1.161V8.749a1.252,1.252,0,0,0-.791-1.161,1.23,1.23,0,0,1,.459-.088h.65A1.253,1.253,0,0,1,251.292,8.749Z" transform="translate(-223.67 -7.5)" fill="#ffc143"/>
        <path id="Trazado_1044269" data-name="Trazado 1044269" d="M215.37,284.518l-3.019-.1h-4.577a1.253,1.253,0,0,0-1.249,1.249v1.459a1.251,1.251,0,0,0,1.249,1.247l4.165.836,3.443-.986a1.132,1.132,0,0,0,1.249-1.1v-1.459A1.181,1.181,0,0,0,215.37,284.518Z" transform="translate(-185.675 -255.591)" fill="#ffe177"/>
        <path id="Trazado_1044270" data-name="Trazado 1044270" d="M264.432,285.666v1.459a1.25,1.25,0,0,1-1.248,1.247l-1.775.5-1.854-.5a1.251,1.251,0,0,0,1.249-1.247v-1.459a1.253,1.253,0,0,0-1.249-1.249h3.628A1.253,1.253,0,0,1,264.432,285.666Z" transform="translate(-233.185 -255.59)" fill="#ffd15b"/>
        <path id="Trazado_1044271" data-name="Trazado 1044271" d="M166.123,327.425v-3.576a1.431,1.431,0,0,1,1.431-1.43h7.9l7.781.137a1.3,1.3,0,0,1,1.412,1.293l-.08,4.578c0,.79-.273,1.43-1.064,1.43H170.7Z" transform="translate(-149.479 -289.636)" fill="#ffd15b"/>
        <path id="Trazado_1044272" data-name="Trazado 1044272" d="M262.671,323.85v4.577a1.431,1.431,0,0,1-1.43,1.431h-8.346a1.431,1.431,0,0,0,1.43-1.431V323.85a1.43,1.43,0,0,0-1.43-1.43h8.346A1.43,1.43,0,0,1,262.671,323.85Z" transform="translate(-227.218 -289.637)" fill="#ffc143"/>
        <path id="Trazado_1044273" data-name="Trazado 1044273" d="M395.966,356.4l4.252-1.077a2.084,2.084,0,0,1,2.721,1.947,2.192,2.192,0,0,1-1.481,2.074l-3.96,1.665Z" transform="translate(-355.396 -319.049)" fill="#c46255"/>
        <path id="Trazado_1044274" data-name="Trazado 1044274" d="M50.771,357.977l1.882.877c.594.006,3.18-1.654,3.756-1.8l5.118-1.307a2.435,2.435,0,0,1,1.533,4.609l-9.717,4.017a8.135,8.135,0,0,1-3.108.617h-9.5a5.422,5.422,0,0,0-4.878,3.055l-.881,1.694a.727.727,0,0,1-.646.392l-11.364-.006a.3.3,0,0,1-.244-.469l4.973-7.129a5.4,5.4,0,0,0,.971-3.019,5.042,5.042,0,0,1,2.034-3.982h0a5.1,5.1,0,0,1,3.051-1.007Z" transform="translate(-20.957 -318.394)" fill="#ce7165"/>
        <path id="Trazado_1044275" data-name="Trazado 1044275" d="M185.734,383.807l-11.151.41a1.14,1.14,0,0,1-1.229-1.04c0-.032,0-.063,0-.1a1.14,1.14,0,0,1,1.044-1.134l9.189-.991,1.8-1.159h1.47a6.855,6.855,0,0,0,1.763-.211l2.788-.71C191.5,381.045,189.6,383.807,185.734,383.807Z" transform="translate(-155.954 -340.217)" fill="#c46255"/>
        <path id="Trazado_1044276" data-name="Trazado 1044276" d="M129.131,354.518H145.1a2.275,2.275,0,0,1,.172,4.543l-10.567.8Z" transform="translate(-116.338 -318.394)" fill="#ce7165"/>
        <path id="Trazado_1044277" data-name="Trazado 1044277" d="M79.153,63.384h36.916v3.29H79.153Z" transform="translate(-71.562 -57.567)" fill="#ffc143"/>
        <path id="Trazado_1044278" data-name="Trazado 1044278" d="M8.808,175.8a8.987,8.987,0,0,1-1.256-1.294c-.029-.046-.12-.115-.148-.161A7.96,7.96,0,0,1,18.349,163.4c.064.039.137.172.2.213a8.378,8.378,0,0,1,1.149,1.209,7.224,7.224,0,0,1-.089,10.624c-3.1,3.1-7.7,3.46-10.8.355Z" transform="translate(-6.236 -146.128)" fill="#f2fbff"/>
        <path id="Trazado_1044279" data-name="Trazado 1044279" d="M29.874,185.874a7.967,7.967,0,0,1-1.209.993,29.242,29.242,0,0,1-4.362.653,26.009,26.009,0,0,1-4.486-.66A8,8,0,0,1,17.45,184.4,7.96,7.96,0,0,0,28.4,173.449a7.971,7.971,0,0,1,1.478,12.425Z" transform="translate(-16.283 -156.174)" fill="#dff6fd"/>
        <path id="Trazado_1044280" data-name="Trazado 1044280" d="M39.3,249.325v-.505a2.02,2.02,0,0,1,1.483-1.947l1.107-.239c.029-.008.089-.163.116-.175a.558.558,0,0,0,.327-.508v-2.238H45.3v2.238a.56.56,0,0,0,.33.51.644.644,0,0,0,.08.046l1.148.365a2.02,2.02,0,0,1,1.483,1.947v.505H39.3Z" transform="translate(-35.858 -219.125)" fill="#c46255"/>
        <path id="Trazado_1044281" data-name="Trazado 1044281" d="M57.663,198.151l.345.2a1.8,1.8,0,0,0,1.777,0l.345-.2a3.022,3.022,0,0,0,1.531-2.629v-.768a2.765,2.765,0,0,0-5.529,0v.768A3.022,3.022,0,0,0,57.663,198.151Z" transform="translate(-50.938 -172.789)" fill="#ce7165"/>
        <path id="Trazado_1044282" data-name="Trazado 1044282" d="M357.171,176.737c-.39-.39-1-.66-1.29-1.1-.043-.065-.2-.2-.243-.262a7.845,7.845,0,0,1,10.787-10.788c.062.038.122.123.184.162a6.626,6.626,0,0,1,1.044,1.05,7.283,7.283,0,0,1-.044,10.613C364.55,179.468,360.232,179.8,357.171,176.737Z" transform="translate(-318.235 -147.201)" fill="#f2fbff"/>
        <path id="Trazado_1044283" data-name="Trazado 1044283" d="M377.785,186.729a7.846,7.846,0,0,1-1.177.968l-4.379-.135-4.35.141a7.886,7.886,0,0,1-2.337-2.431,7.845,7.845,0,0,0,10.787-10.788,7.855,7.855,0,0,1,1.456,12.245Z" transform="translate(-328.138 -157.101)" fill="#dff6fd"/>
        <path id="Trazado_1044284" data-name="Trazado 1044284" d="M386.536,249.325v-.505a2.02,2.02,0,0,1,1.483-1.947l1.15-.342c.032-.009.043-.057.072-.072a.586.586,0,0,0,.327-.508v-2.238h2.969v2.238a.559.559,0,0,0,.33.51c.026.012.048.082.077.089l1.151.322a2.02,2.02,0,0,1,1.483,1.947v.505h-9.041Z" transform="translate(-346.948 -219.125)" fill="#ffcebe"/>
        <path id="Trazado_1044285" data-name="Trazado 1044285" d="M404.9,198.151l.345.2a1.8,1.8,0,0,0,1.777,0l.345-.2a3.022,3.022,0,0,0,1.531-2.629v-.768a2.765,2.765,0,0,0-5.529,0v.768A3.022,3.022,0,0,0,404.9,198.151Z" transform="translate(-362.027 -172.789)" fill="#ffdfcf"/>
        <path id="Trazado_1044286" data-name="Trazado 1044286" d="M391.835,270.387a7.307,7.307,0,0,1-4.681,4.015h0a6.793,6.793,0,0,1-2.687-1.416l-.241-.65a1.879,1.879,0,0,1,.6-1.322,2.02,2.02,0,0,1,.883-.511l1.383-.382a.475.475,0,0,0,.083-.031l.074.168a1.968,1.968,0,0,0,3.476,0l.076-.165a.544.544,0,0,0,.081.029Z" transform="translate(-344.874 -242.755)" fill="#b3dafe"/>
        <path id="Trazado_1044287" data-name="Trazado 1044287" d="M407.782,53.925a2.568,2.568,0,0,1-2.6,2.757,2.825,2.825,0,0,1-2.714-1.67c0-.008-.023-.023-.026-.031A2.854,2.854,0,0,1,405.1,51.1a2.665,2.665,0,0,1,1.025.191,2.71,2.71,0,0,1,1.654,2.631Z" transform="translate(-361.026 -46.563)" fill="#ffe177"/>
        <path id="Trazado_1044288" data-name="Trazado 1044288" d="M408.757,57.617a2.853,2.853,0,0,1-4.034,0,2.82,2.82,0,0,1-.646-.99,2.852,2.852,0,0,0,3.688-3.687,2.819,2.819,0,0,1,.992.644A2.853,2.853,0,0,1,408.757,57.617Z" transform="translate(-362.663 -48.209)" fill="#ffd15b"/>
        <path id="Trazado_1044289" data-name="Trazado 1044289" d="M210.035,54.491l-2.913.215h-4.488a2.148,2.148,0,0,1-2.148-2.148V50.416a2.148,2.148,0,0,1,2.148-2.148h4.445L210,48.38a1.938,1.938,0,0,1,2.005,2.037v2.1A1.862,1.862,0,0,1,210.035,54.491Z" transform="translate(-180.264 -44.024)" fill="#ffe177"/>
        <path id="Trazado_1044290" data-name="Trazado 1044290" d="M266.844,50.418v2.141a2.148,2.148,0,0,1-2.149,2.149h-3.15a2.148,2.148,0,0,0,2.148-2.149V50.418a2.148,2.148,0,0,0-2.148-2.148h3.15A2.148,2.148,0,0,1,266.844,50.418Z" transform="translate(-234.968 -44.026)" fill="#ffd15b"/>
        <path id="Trazado_1044291" data-name="Trazado 1044291" d="M44.6,270.388a7.313,7.313,0,0,1-4.686,4.014h0a7.081,7.081,0,0,1-2.773-1.386l-.155-.686a1.875,1.875,0,0,1,.6-1.317,2.021,2.021,0,0,1,.883-.511l1.383-.382a.475.475,0,0,0,.083-.031l.074.168a1.968,1.968,0,0,0,3.476,0l.076-.165a.546.546,0,0,0,.081.029Z" transform="translate(-33.78 -242.755)" fill="#b3dafe"/>
        <path id="Trazado_1044292" data-name="Trazado 1044292" d="M46.471,275.012v1.5a8.592,8.592,0,0,1-9.522-.008v-1.494q0-.059,0-.119a8.565,8.565,0,0,0,7.618-1.944l.418.116a2.021,2.021,0,0,1,1.482,1.947Z" transform="translate(-33.752 -245.317)" fill="#8ac9fe"/>
        <path id="Trazado_1044293" data-name="Trazado 1044293" d="M393.713,275V276.5a8.581,8.581,0,0,1-9.522.007V275c0-.039,0-.075,0-.113a8.554,8.554,0,0,0,7.613-1.95l.424.117A2.021,2.021,0,0,1,393.713,275Z" transform="translate(-344.847 -245.308)" fill="#8ac9fe"/>
        <path id="Trazado_1044294" data-name="Trazado 1044294" d="M61.4,53.925a2.568,2.568,0,0,1-2.6,2.757,2.825,2.825,0,0,1-2.714-1.67c0-.008-.023-.023-.026-.031A2.854,2.854,0,0,1,58.725,51.1a2.665,2.665,0,0,1,1.025.191A2.71,2.71,0,0,1,61.4,53.925Z" transform="translate(-50.705 -46.563)" fill="#ffe177"/>
        <path id="Trazado_1044295" data-name="Trazado 1044295" d="M62.38,57.617a2.853,2.853,0,0,1-4.034,0,2.82,2.82,0,0,1-.646-.99,2.852,2.852,0,0,0,3.688-3.687,2.819,2.819,0,0,1,.992.644A2.852,2.852,0,0,1,62.38,57.617Z" transform="translate(-52.344 -48.209)" fill="#ffd15b"/>
      </g>
      <g id="Grupo_1219659" data-name="Grupo 1219659" transform="translate(0 0)">
        <path id="Trazado_1044296" data-name="Trazado 1044296" d="M16.088,461.81A.781.781,0,0,0,15,462l-2.561,3.671a.781.781,0,0,0,1.281.893l2.561-3.671A.781.781,0,0,0,16.088,461.81Z" transform="translate(-11.019 -413.611)"/>
        <path id="Trazado_1044297" data-name="Trazado 1044297" d="M153.385,429.292l-3.135,1.3a7.318,7.318,0,0,1-2.81.558h-9.5a6.239,6.239,0,0,0-5.576,3.485l-1.08,2.076a.781.781,0,1,0,1.385.721l1.085-2.086.01-.02a4.668,4.668,0,0,1,4.176-2.615h9.5a8.871,8.871,0,0,0,3.407-.677l3.135-1.3a.781.781,0,1,0-.6-1.443Z" transform="translate(-117.539 -384.55)"/>
        <path id="Trazado_1044298" data-name="Trazado 1044298" d="M36.939,21.229a8.582,8.582,0,1,0,15.557,0c0-.01-.008-.021-.012-.031L47.528,10.451a3.631,3.631,0,0,0-5.59-4.633h-8.99a2.931,2.931,0,0,0-2.6-1.574H29.027V2.03A2.032,2.032,0,0,0,27,0h-.649a2.032,2.032,0,0,0-2.03,2.03V4.244H22.994a2.931,2.931,0,0,0-2.6,1.574H18.256a.781.781,0,0,0,0,1.561h1.809V9.108h-7.91a3.619,3.619,0,0,0,.035-1.729h2.343a.781.781,0,1,0,0-1.561H11.408a3.631,3.631,0,0,0-5.619,4.6L.817,21.2a8.582,8.582,0,1,0,15.532,0l-4.855-10.53h8.9a2.931,2.931,0,0,0,2.6,1.574h1.324V28.8H22.723a2.032,2.032,0,0,0-2.03,2.03v1.952H18.7a2.214,2.214,0,0,0-2.212,2.211v1.13H13.409A5.918,5.918,0,0,0,9.9,37.285a5.857,5.857,0,0,0-2.349,4.6,4.6,4.6,0,0,1-.83,2.583l-.625.9a.781.781,0,0,0,1.281.893L8,45.36A6.155,6.155,0,0,0,9.113,41.9a4.287,4.287,0,0,1,1.719-3.366,4.346,4.346,0,0,1,2.577-.853H29.387a1.494,1.494,0,0,1,.113,2.983l-10.567.8a.781.781,0,0,0,.118,1.557l10.567-.8a3.053,3.053,0,0,0,2.1-1.084,7.576,7.576,0,0,0,1.76-.235l7.906-2.017a1.654,1.654,0,0,1,2.063,1.6,1.671,1.671,0,0,1-1.137,1.576l-3.137,1.3a.781.781,0,1,0,.6,1.443c1.781-.729,5.407-2.248,7.194-3A2.974,2.974,0,0,0,48.949,39,2.71,2.71,0,0,0,47.9,36.821a3.06,3.06,0,0,0-2.646-.522c-2.112.533-6.288,1.6-8.4,2.135v-3.44a2.214,2.214,0,0,0-2.212-2.211H32.652V30.831a2.032,2.032,0,0,0-2.03-2.03H29.028V25.3a.781.781,0,1,0-1.561,0v3.5H25.88V12.243h1.586v9.333a.781.781,0,1,0,1.561,0V12.243h1.324a2.931,2.931,0,0,0,2.6-1.574h8.859L36.951,21.2c0,.01-.008.021-.012.031ZM8.644,6.1A2.071,2.071,0,1,1,6.572,8.172,2.074,2.074,0,0,1,8.644,6.1Zm3.919,24.522a7,7,0,0,1-7.961,0v-.147a1.239,1.239,0,0,1,.91-1.194l.893-.247a2.747,2.747,0,0,0,4.356,0l.893.247a1.239,1.239,0,0,1,.91,1.194v.147ZM9.425,28.2a1.19,1.19,0,0,1-1.685,0,1.332,1.332,0,0,0,.139-.59v-.355a2.575,2.575,0,0,0,1.407,0v.355a1.333,1.333,0,0,0,.139.59Zm-.339-2.539a1.025,1.025,0,0,1-1.006,0l-.345-.2A2.246,2.246,0,0,1,6.6,23.514v-.768a1.984,1.984,0,0,1,3.968,0v.768a2.246,2.246,0,0,1-1.136,1.95Zm6.517-.811a6.981,6.981,0,0,1-1.692,4.561,2.791,2.791,0,0,0-1.842-1.631l-1.221-.337V26.357a3.81,3.81,0,0,0,1.28-2.844v-.768a3.545,3.545,0,0,0-7.091,0v.768a3.81,3.81,0,0,0,1.28,2.844V27.44L5.1,27.777a2.792,2.792,0,0,0-1.842,1.631A7.016,7.016,0,1,1,15.6,24.848ZM12.9,17.436a8.556,8.556,0,0,0-8.624,0L7.04,11.43a3.623,3.623,0,0,0,3.108.047Zm32.74,20.377a1.529,1.529,0,0,1,1.3.237,1.16,1.16,0,0,1,.448.952,1.412,1.412,0,0,1-.954,1.335c-.06.02-1.4.587-1.454.609a3.242,3.242,0,0,0,.033-.455,3.191,3.191,0,0,0-.949-2.281ZM25.879,2.03a.475.475,0,0,1,.468-.468H27a.475.475,0,0,1,.468.468V4.244H25.879ZM35.3,34.994v3.839l-2.2.562a6.043,6.043,0,0,1-.674.131,3.048,3.048,0,0,0-3.035-3.4H18.049v-1.13a.651.651,0,0,1,.65-.65H34.646a.651.651,0,0,1,.65.65Zm-4.674-4.631a.475.475,0,0,1,.468.468v1.952H22.255V30.831a.475.475,0,0,1,.468-.468Zm1.1-21.049a1.369,1.369,0,0,1-1.368,1.368H22.994a1.369,1.369,0,0,1-1.368-1.368V7.173a1.369,1.369,0,0,1,1.368-1.368h7.358a1.369,1.369,0,0,1,1.368,1.368Zm1.561-.206V7.379h7.875a3.619,3.619,0,0,0,.035,1.729h-7.91ZM48.7,30.623a7,7,0,0,1-7.961,0v-.147a1.239,1.239,0,0,1,.91-1.194l.893-.247a2.746,2.746,0,0,0,4.356,0l.893.247a1.239,1.239,0,0,1,.91,1.194ZM45.56,28.2a1.19,1.19,0,0,1-1.685,0,1.331,1.331,0,0,0,.139-.59v-.355a2.575,2.575,0,0,0,1.407,0v.355a1.332,1.332,0,0,0,.139.59Zm-.339-2.539a1.025,1.025,0,0,1-1.006,0l-.345-.2a2.246,2.246,0,0,1-1.136-1.95v-.768a1.984,1.984,0,0,1,3.968,0v.768a2.246,2.246,0,0,1-1.136,1.95ZM44.7,6.1a2.071,2.071,0,1,1-2.072,2.071A2.074,2.074,0,0,1,44.7,6.1Zm-1.541,5.36a3.627,3.627,0,0,0,3.108-.012l2.761,5.988a8.556,8.556,0,0,0-8.624,0Zm1.557,6.371a7.01,7.01,0,0,1,5.328,11.577A2.791,2.791,0,0,0,48.2,27.777l-1.221-.337V26.357a3.81,3.81,0,0,0,1.28-2.844v-.768a3.545,3.545,0,0,0-7.091,0v.768a3.81,3.81,0,0,0,1.28,2.844V27.44l-1.221.337a2.791,2.791,0,0,0-1.842,1.632,7.009,7.009,0,0,1,5.328-11.577Z" transform="translate(-0.001 0)"/>
      </g>
    </g>
  </g>
</svg>
