<svg xmlns="http://www.w3.org/2000/svg" xmlns:xlink="http://www.w3.org/1999/xlink" width="113" height="113" viewBox="0 0 113 113">
  <defs>
    <filter id="Trazado_982547" x="0" y="0" width="113" height="113" filterUnits="userSpaceOnUse">
      <feOffset dy="3" input="SourceAlpha"/>
      <feGaussianBlur stdDeviation="3" result="blur"/>
      <feFlood flood-opacity="0.161"/>
      <feComposite operator="in" in2="blur"/>
      <feComposite in="SourceGraphic"/>
    </filter>
  </defs>
  <g id="Grupo_1219822" data-name="Grupo 1219822" transform="translate(-585.425 -1792.36)">
    <g id="Grupo_1203717" data-name="Grupo 1203717" transform="translate(-0.575 -4108.927)">
      <g id="Grupo_1202433" data-name="Grupo 1202433" transform="translate(-0.56 1255.773)">
        <g id="Grupo_1202054" data-name="Grupo 1202054" transform="translate(0 3240.511)">
          <g id="Grupo_1177897" data-name="Grupo 1177897" transform="translate(595.561 1411.003)">
            <g id="Grupo_1172010" data-name="Grupo 1172010" transform="translate(0)">
              <g id="Grupo_1171046" data-name="Grupo 1171046">
                <g id="Grupo_1148525" data-name="Grupo 1148525">
                  <g transform="matrix(1, 0, 0, 1, -9, -6)" filter="url(#Trazado_982547)">
                    <g id="Trazado_982547-2" data-name="Trazado 982547" transform="translate(9 6)" fill="#f3e6fd">
                      <path d="M 47.5 93.5 C 41.28937149047852 93.5 35.26533508300781 92.28397369384766 29.59518623352051 89.88570404052734 C 24.11771965026855 87.56893157958984 19.19813346862793 84.25196075439453 14.97309303283691 80.02691650390625 C 10.74804019927979 75.80186462402344 7.431066513061523 70.88229370117188 5.114293098449707 65.40481567382812 C 2.716026782989502 59.73468017578125 1.5 53.71062850952148 1.5 47.5 C 1.5 41.28937149047852 2.716026782989502 35.26533508300781 5.114293098449707 29.59518623352051 C 7.431066513061523 24.11771965026855 10.74804019927979 19.19813346862793 14.97309303283691 14.97309303283691 C 19.19813346862793 10.74804019927979 24.11771965026855 7.431066513061523 29.59518623352051 5.114293098449707 C 35.26533508300781 2.716026782989502 41.28937149047852 1.5 47.5 1.5 C 53.71062850952148 1.5 59.73468017578125 2.716026782989502 65.40481567382812 5.114293098449707 C 70.88229370117188 7.431066513061523 75.80186462402344 10.74804019927979 80.02691650390625 14.97309303283691 C 84.25196075439453 19.19813346862793 87.56893157958984 24.11771965026855 89.88570404052734 29.59518623352051 C 92.28397369384766 35.26533508300781 93.5 41.28937149047852 93.5 47.5 C 93.5 53.71062850952148 92.28397369384766 59.73468017578125 89.88570404052734 65.40481567382812 C 87.56893157958984 70.88229370117188 84.25196075439453 75.80186462402344 80.02691650390625 80.02691650390625 C 75.80186462402344 84.25196075439453 70.88229370117188 87.56893157958984 65.40481567382812 89.88570404052734 C 59.73468017578125 92.28397369384766 53.71062850952148 93.5 47.5 93.5 Z" stroke="none"/>
                      <path d="M 47.5 3 C 41.49121475219727 3 35.66376876831055 4.176155090332031 30.17950439453125 6.495796203613281 C 24.88084411621094 8.736953735351562 20.12152099609375 11.94598388671875 16.03375244140625 16.03375244140625 C 11.94598388671875 20.12152099609375 8.736953735351562 24.88084411621094 6.495796203613281 30.17950439453125 C 4.176155090332031 35.66376876831055 3 41.49121475219727 3 47.5 C 3 53.50878524780273 4.176155090332031 59.33623123168945 6.495796203613281 64.82049560546875 C 8.736953735351562 70.11915588378906 11.94598388671875 74.87847900390625 16.03375244140625 78.96624755859375 C 20.12152099609375 83.05401611328125 24.88084411621094 86.26304626464844 30.17950439453125 88.50419616699219 C 35.66376876831055 90.82384490966797 41.49121475219727 92 47.5 92 C 53.50878524780273 92 59.33623123168945 90.82384490966797 64.82049560546875 88.50419616699219 C 70.11915588378906 86.26304626464844 74.87847900390625 83.05401611328125 78.96624755859375 78.96624755859375 C 83.05401611328125 74.87847900390625 86.26304626464844 70.11915588378906 88.50419616699219 64.82049560546875 C 90.82384490966797 59.33623123168945 92 53.50878524780273 92 47.5 C 92 41.49121475219727 90.82384490966797 35.66376876831055 88.50419616699219 30.17950439453125 C 86.26304626464844 24.88084411621094 83.05401611328125 20.12152099609375 78.96624755859375 16.03375244140625 C 74.87847900390625 11.94598388671875 70.11915588378906 8.736953735351562 64.82049560546875 6.495796203613281 C 59.33623123168945 4.176155090332031 53.50878524780273 3 47.5 3 M 47.5 0 C 73.7335205078125 0 95 21.2664794921875 95 47.5 C 95 73.7335205078125 73.7335205078125 95 47.5 95 C 21.2664794921875 95 0 73.7335205078125 0 47.5 C 0 21.2664794921875 21.2664794921875 0 47.5 0 Z" stroke="none" fill="#951bf1"/>
                    </g>
                  </g>
                </g>
              </g>
            </g>
          </g>
        </g>
      </g>
    </g>
    <g id="seguridad-social_3_" data-name="seguridad-social (3)" transform="translate(608.729 1802.503)">
      <g id="Grupo_1219683" data-name="Grupo 1219683" transform="translate(0.973 12.649)">
        <g id="Grupo_1219666" data-name="Grupo 1219666" transform="translate(21.239 0)">
          <path id="Trazado_1044352" data-name="Trazado 1044352" d="M183.037,43.229l7.55-5.485a6.484,6.484,0,0,0,2.673-5.245V22.418a3.242,3.242,0,0,0-3.242-3.242H174.532a3.242,3.242,0,0,0-3.242,3.242V32.5a6.483,6.483,0,0,0,2.673,5.245l7.55,5.485A1.3,1.3,0,0,0,183.037,43.229Z" transform="translate(-171.29 -19.176)" fill="#a2e62e"/>
          <path id="Trazado_1044353" data-name="Trazado 1044353" d="M236.771,19.176H235.4V30.012a6.484,6.484,0,0,1-2.673,5.245l-7.716,5.606,3.256,2.366a1.3,1.3,0,0,0,1.524,0l7.55-5.485a6.484,6.484,0,0,0,2.673-5.245V22.418a3.242,3.242,0,0,0-3.242-3.242Z" transform="translate(-218.044 -19.176)" fill="#97d729"/>
          <g id="Grupo_1219665" data-name="Grupo 1219665" transform="translate(3.855 5.683)">
            <path id="Trazado_1044354" data-name="Trazado 1044354" d="M206.94,73.3a1.96,1.96,0,0,1-1.386-.574l-3.964-3.964a1.96,1.96,0,1,1,2.772-2.772l2.578,2.578,4.989-4.989a1.96,1.96,0,0,1,2.772,2.772l-6.375,6.376A1.961,1.961,0,0,1,206.94,73.3Z" transform="translate(-201.016 -63)" fill="#fff"/>
          </g>
        </g>
        <g id="Grupo_1219671" data-name="Grupo 1219671" transform="translate(14.016 23.987)">
          <g id="Grupo_1219668" data-name="Grupo 1219668" transform="translate(23.307)">
            <path id="Trazado_1044355" data-name="Trazado 1044355" d="M303.885,286.5h-4a4.555,4.555,0,0,0-4.555,4.555v1.927a4.411,4.411,0,0,1,1.276,3.105v5.649h4.7V300.1a5.064,5.064,0,0,1,1.493-3.6l5.638-5.638A4.555,4.555,0,0,0,303.885,286.5Z" transform="translate(-295.327 -275.824)" fill="#26a6fe"/>
            <g id="Grupo_1219667" data-name="Grupo 1219667" transform="translate(1.276 10.682)">
              <path id="Trazado_1044356" data-name="Trazado 1044356" d="M363.094,294.952l4.057-4.057a4.554,4.554,0,0,0-4.36-4.356,4.541,4.541,0,0,1,.3,1.632Z" transform="translate(-355.32 -286.539)" fill="#0593fc"/>
              <path id="Trazado_1044357" data-name="Trazado 1044357" d="M305.167,381.5v2.918h4.7v-1.633a5.124,5.124,0,0,1,.163-1.285Z" transform="translate(-305.167 -369.185)" fill="#0593fc"/>
            </g>
            <circle id="Elipse_12549" data-name="Elipse 12549" cx="3.72" cy="3.72" r="3.72" transform="translate(2.836 0)" fill="#ffb09e"/>
            <path id="Trazado_1044358" data-name="Trazado 1044358" d="M327.239,204.158c-.094,0-.186,0-.279.011a3.718,3.718,0,0,1-2.5,6.181,3.72,3.72,0,1,0,2.779-6.192Z" transform="translate(-320.682 -204.158)" fill="#f89580"/>
          </g>
          <g id="Grupo_1219669" data-name="Grupo 1219669" transform="translate(0 0)">
            <path id="Trazado_1044359" data-name="Trazado 1044359" d="M127.316,301.738v-5.649a4.412,4.412,0,0,1,1.379-3.205v-1.827a4.555,4.555,0,0,0-4.555-4.555h-4a4.555,4.555,0,0,0-4.55,4.361l5.638,5.638a5.064,5.064,0,0,1,1.493,3.6v1.633Z" transform="translate(-115.586 -275.824)" fill="#26a6fe"/>
            <path id="Trazado_1044360" data-name="Trazado 1044360" d="M174.081,301.766v-5.649a4.412,4.412,0,0,1,1.379-3.205v-1.827a4.554,4.554,0,0,0-4.394-4.551,4.542,4.542,0,0,1,.3,1.633v9.384a1.3,1.3,0,0,1-1.3,1.3h-.753a5.13,5.13,0,0,1,.163,1.285v1.633Z" transform="translate(-162.351 -275.852)" fill="#0593fc"/>
            <circle id="Elipse_12550" data-name="Elipse 12550" cx="3.72" cy="3.72" r="3.72" transform="translate(2.832)" fill="#ffb09e"/>
          </g>
          <g id="Grupo_1219670" data-name="Grupo 1219670" transform="translate(11.6 5.032)">
            <path id="Trazado_1044361" data-name="Trazado 1044361" d="M218.155,335.513v-5.649a4.555,4.555,0,0,0-4.555-4.555h-4a4.555,4.555,0,0,0-4.555,4.555v5.649Z" transform="translate(-205.042 -314.632)" fill="#8ac9fe"/>
            <path id="Trazado_1044362" data-name="Trazado 1044362" d="M214.79,326.53a4.546,4.546,0,0,1,.247,1.479v4.352a1.3,1.3,0,0,1-1.3,1.3h-8.7v2.918h13.113v-5.649A4.556,4.556,0,0,0,214.79,326.53Z" transform="translate(-205.042 -315.694)" fill="#60b7ff"/>
            <circle id="Elipse_12551" data-name="Elipse 12551" cx="3.72" cy="3.72" r="3.72" transform="translate(2.836)" fill="#ffb09e"/>
          </g>
        </g>
        <g id="Grupo_1219681" data-name="Grupo 1219681" transform="translate(0 20.495)">
          <g id="Grupo_1219676" data-name="Grupo 1219676" transform="translate(0 0)">
            <g id="Grupo_1219675" data-name="Grupo 1219675">
              <g id="Grupo_1219674" data-name="Grupo 1219674">
                <g id="Grupo_1219673" data-name="Grupo 1219673">
                  <path id="Trazado_1044363" data-name="Trazado 1044363" d="M28.776,217.507V205a5.227,5.227,0,0,0-1.531-3.7l-10.1-10.1a1.44,1.44,0,0,0-2.031-.009,4.411,4.411,0,0,0-.5.6v-9.518a5.042,5.042,0,0,0-5.018-5.042A2.081,2.081,0,0,0,7.5,179.309v17.617a5.556,5.556,0,0,0,1.627,3.928l9.057,9.057a3.267,3.267,0,0,1,.957,2.31v5.287a.648.648,0,0,0,.648.648h8.339A.649.649,0,0,0,28.776,217.507Z" transform="translate(-7.5 -177.233)" fill="#ffb09e"/>
                  <g id="Grupo_1219672" data-name="Grupo 1219672" transform="translate(11.641 22.031)">
                    <path id="Trazado_1044364" data-name="Trazado 1044364" d="M106.906,352.871a5.227,5.227,0,0,0-1.531-3.7l-2.045-2.045v13.6a1.945,1.945,0,0,1-1.945,1.945H97.271v2.7a.648.648,0,0,0,.648.648h8.339a.648.648,0,0,0,.648-.648Z" transform="translate(-97.271 -347.13)" fill="#f89580"/>
                  </g>
                </g>
              </g>
            </g>
          </g>
          <g id="Grupo_1219680" data-name="Grupo 1219680" transform="translate(43.17)">
            <g id="Grupo_1219679" data-name="Grupo 1219679">
              <g id="Grupo_1219678" data-name="Grupo 1219678">
                <g id="Grupo_1219677" data-name="Grupo 1219677">
                  <path id="Trazado_1044365" data-name="Trazado 1044365" d="M340.422,217.507V205a5.227,5.227,0,0,1,1.531-3.7l10.1-10.1a1.44,1.44,0,0,1,2.031-.009,4.409,4.409,0,0,1,.5.6v-9.518a5.042,5.042,0,0,1,5.018-5.042,2.082,2.082,0,0,1,2.094,2.076v17.617a5.556,5.556,0,0,1-1.627,3.928l-9.057,9.057a3.267,3.267,0,0,0-.957,2.31v5.287a.648.648,0,0,1-.648.648H341.07A.649.649,0,0,1,340.422,217.507Z" transform="translate(-340.422 -177.233)" fill="#ffb09e"/>
                  <path id="Trazado_1044366" data-name="Trazado 1044366" d="M361.7,179.308a2.071,2.071,0,0,0-2.054-2.076,5.047,5.047,0,0,0-1.252.154v16.191a5.556,5.556,0,0,1-1.627,3.928l-9.057,9.057a3.267,3.267,0,0,0-.957,2.31v3.99a1.945,1.945,0,0,1-1.945,1.945h-4.384v2.7a.648.648,0,0,0,.648.648h8.339a.648.648,0,0,0,.648-.648V212.22a3.267,3.267,0,0,1,.957-2.31l9.057-9.057a5.555,5.555,0,0,0,1.627-3.928Z" transform="translate(-340.422 -177.232)" fill="#f89580"/>
                </g>
              </g>
            </g>
          </g>
        </g>
        <g id="Grupo_1219682" data-name="Grupo 1219682" transform="translate(17.788 23.987)">
          <path id="Trazado_1044367" data-name="Trazado 1044367" d="M236.954,242.966c-.094,0-.186,0-.279.011a3.718,3.718,0,0,1-2.5,6.181,3.72,3.72,0,1,0,2.779-6.192Z" transform="translate(-222.57 -237.934)" fill="#f89580"/>
          <path id="Trazado_1044368" data-name="Trazado 1044368" d="M147.461,204.158c-.094,0-.186,0-.279.011a3.718,3.718,0,0,1-2.5,6.181,3.72,3.72,0,1,0,2.779-6.192Z" transform="translate(-144.682 -204.158)" fill="#f89580"/>
        </g>
      </g>
      <g id="Grupo_1219684" data-name="Grupo 1219684" transform="translate(0 11.676)">
        <path id="Trazado_1044369" data-name="Trazado 1044369" d="M166.863,32l7.55,5.485a2.263,2.263,0,0,0,2.668,0L184.63,32a7.478,7.478,0,0,0,3.073-6.032V15.89a4.219,4.219,0,0,0-4.214-4.214H168a4.219,4.219,0,0,0-4.214,4.214v3.738a.973.973,0,0,0,1.945,0V15.89A2.272,2.272,0,0,1,168,13.621h15.485a2.272,2.272,0,0,1,2.269,2.269V25.971a5.527,5.527,0,0,1-2.272,4.459l-7.55,5.485a.323.323,0,0,1-.381,0l-7.55-5.485a5.528,5.528,0,0,1-2.272-4.459v-1.8a.973.973,0,1,0-1.945,0v1.8A7.479,7.479,0,0,0,166.863,32Z" transform="translate(-142.55 -11.676)"/>
        <path id="Trazado_1044370" data-name="Trazado 1044370" d="M198.338,66.892a2.933,2.933,0,0,0,4.148,0l6.375-6.376a2.933,2.933,0,0,0-4.148-4.147l-4.3,4.3-1.89-1.89a2.933,2.933,0,1,0-4.147,4.147Zm-2.588-6.736a.987.987,0,0,1,1.4,0l2.578,2.578a.973.973,0,0,0,1.375,0l4.989-4.989a.988.988,0,1,1,1.4,1.4l-6.375,6.376a.987.987,0,0,1-1.4,0l-3.964-3.964a.988.988,0,0,1,0-1.4Z" transform="translate(-168.422 -49.827)"/>
        <path id="Trazado_1044371" data-name="Trazado 1044371" d="M65.494,170.622a3.04,3.04,0,0,0-2.159-.891H63.32a6.027,6.027,0,0,0-5.986,6.014v7.6a2.431,2.431,0,0,0-.539-.062,2.4,2.4,0,0,0-1.708.707l-3.19,3.19a5.56,5.56,0,0,0-5.045-3.28h-4a5.533,5.533,0,0,0-5.526,5.48,5.5,5.5,0,0,0-2.178-.448h-4a5.5,5.5,0,0,0-2.076.406,5.533,5.533,0,0,0-5.525-5.438h-4a5.56,5.56,0,0,0-5.045,3.28l-3.19-3.19a2.4,2.4,0,0,0-2.246-.645v-7.6a6.027,6.027,0,0,0-5.986-6.014,3.056,3.056,0,0,0-2.174.891A3.023,3.023,0,0,0,0,172.78V190.4a6.485,6.485,0,0,0,1.912,4.616l1.933,1.933A.973.973,0,1,0,5.22,195.57l-1.933-1.933a4.553,4.553,0,0,1-1.342-3.24V172.78A1.092,1.092,0,0,1,2.27,172a1.108,1.108,0,0,1,.787-.325h.005a4.078,4.078,0,0,1,4.05,4.069v9.229a5.363,5.363,0,0,0,.776,6.588l4.374,4.374a.973.973,0,0,0,1.375-1.375l-4.374-4.374a3.41,3.41,0,0,1,0-4.822.47.47,0,0,1,.664,0l10.1,10.1a4.226,4.226,0,0,1,1.246,3.008v12.179h-7.69v-4.963a4.212,4.212,0,0,0-1.242-3l-3.915-3.915a.973.973,0,1,0-1.375,1.375l3.915,3.915a2.279,2.279,0,0,1,.672,1.622v5.287a1.623,1.623,0,0,0,1.621,1.621H21.6a1.623,1.623,0,0,0,1.621-1.621v-9.9H43.17v1.232a.973.973,0,0,0,1.945,0v-3.838a4.226,4.226,0,0,1,1.246-3.008l10.1-10.1a.47.47,0,0,1,.664,0,3.41,3.41,0,0,1,0,4.822l-4.374,4.374a.973.973,0,0,0,1.375,1.375l4.374-4.374a5.363,5.363,0,0,0,.776-6.588v-9.229a4.078,4.078,0,0,1,4.05-4.069h.005a1.108,1.108,0,0,1,.787.325,1.092,1.092,0,0,1,.325.779V190.4a4.553,4.553,0,0,1-1.342,3.24l-9.057,9.057a4.212,4.212,0,0,0-1.242,3v4.963h-7.69v-3.8a.973.973,0,0,0-1.945,0v4.127a1.623,1.623,0,0,0,1.621,1.621h8.339a1.623,1.623,0,0,0,1.621-1.621v-5.287a2.279,2.279,0,0,1,.672-1.622l9.057-9.057a6.485,6.485,0,0,0,1.912-4.616V172.78A3.023,3.023,0,0,0,65.494,170.622Zm-38.37,20.049a5.506,5.506,0,0,0-1.508,3.789v4.676H23.221v-.661a6.159,6.159,0,0,0-1.816-4.384l-5.376-5.376a3.6,3.6,0,0,1,3.509-2.871h4a3.587,3.587,0,0,1,3.583,3.583Zm11.6,8.465H27.56V194.46a3.587,3.587,0,0,1,3.582-3.583h4a3.587,3.587,0,0,1,3.583,3.583Zm6.258-5.044a6.159,6.159,0,0,0-1.816,4.384v.661h-2.5V194.46a5.5,5.5,0,0,0-1.406-3.678v-1.355a3.587,3.587,0,0,1,3.582-3.582h4a3.6,3.6,0,0,1,3.509,2.871Z" transform="translate(0 -149.236)"/>
        <path id="Trazado_1044372" data-name="Trazado 1044372" d="M309.7,201.351a4.693,4.693,0,1,0,4.693-4.693A4.7,4.7,0,0,0,309.7,201.351Zm7.44,0a2.747,2.747,0,1,1-2.747-2.747A2.751,2.751,0,0,1,317.141,201.351Z" transform="translate(-269.542 -172.671)"/>
        <path id="Trazado_1044373" data-name="Trazado 1044373" d="M134.615,206.043a4.693,4.693,0,1,0-4.693-4.693A4.7,4.7,0,0,0,134.615,206.043Zm0-7.44a2.747,2.747,0,1,1-2.747,2.747A2.751,2.751,0,0,1,134.615,198.6Z" transform="translate(-113.076 -172.671)"/>
        <path id="Trazado_1044374" data-name="Trazado 1044374" d="M219.417,240.158a4.693,4.693,0,1,0,4.693-4.693A4.7,4.7,0,0,0,219.417,240.158Zm7.44,0a2.747,2.747,0,1,1-2.747-2.747A2.751,2.751,0,0,1,226.857,240.158Z" transform="translate(-190.965 -206.447)"/>
      </g>
    </g>
  </g>
</svg>
