<svg xmlns="http://www.w3.org/2000/svg" xmlns:xlink="http://www.w3.org/1999/xlink" width="102.977" height="102.977" viewBox="0 0 102.977 102.977">
  <defs>
    <filter id="Trazado_904820" x="0" y="0" width="102.977" height="102.977" filterUnits="userSpaceOnUse">
      <feOffset dy="3" input="SourceAlpha"/>
      <feGaussianBlur stdDeviation="3" result="blur"/>
      <feFlood flood-opacity="0.161"/>
      <feComposite operator="in" in2="blur"/>
      <feComposite in="SourceGraphic"/>
    </filter>
  </defs>
  <g id="Grupo_1219614" data-name="Grupo 1219614" transform="translate(9 6)">
    <g id="Grupo_1202685" data-name="Grupo 1202685" transform="translate(0 0)">
      <g id="Grupo_1173585" data-name="Grupo 1173585">
        <g id="Grupo_1173428" data-name="Grupo 1173428">
          <g id="Grupo_1171958" data-name="Grupo 1171958">
            <g id="Grupo_1167341" data-name="Grupo 1167341">
              <g id="Grupo_1166792" data-name="Grupo 1166792">
                <g transform="matrix(1, 0, 0, 1, -9, -6)" filter="url(#Trazado_904820)">
                  <g id="Trazado_904820-2" data-name="Trazado 904820" transform="translate(9 6)" fill="#f3e6fd">
                    <path d="M 42.48837280273438 83.47673034667969 C 36.95431518554688 83.47673034667969 31.58659553527832 82.39321899414062 26.5343017578125 80.25628662109375 C 21.65361976623535 78.19192504882812 17.26999664306641 75.23631286621094 13.50520801544189 71.47151947021484 C 9.740431785583496 67.70673370361328 6.784808158874512 63.3231201171875 4.720455169677734 58.44242858886719 C 2.583513975143433 53.39014434814453 1.499996304512024 48.02242660522461 1.499996304512024 42.48836898803711 C 1.499996304512024 36.95431137084961 2.583513975143433 31.58659172058105 4.720455169677734 26.53430938720703 C 6.784808158874512 21.65361595153809 9.740431785583496 17.27000427246094 13.50520801544189 13.50521564483643 C 17.26999664306641 9.74042797088623 21.65361976623535 6.784816265106201 26.5343017578125 4.720451354980469 C 31.58659553527832 2.583521842956543 36.95431518554688 1.500004291534424 42.48837280273438 1.500004291534424 C 48.02243041992188 1.500004291534424 53.3901481628418 2.583521842956543 58.44244384765625 4.720451354980469 C 63.32312393188477 6.784816265106201 67.70674896240234 9.74042797088623 71.47153472900391 13.50521564483643 C 75.23631286621094 17.27000427246094 78.19194030761719 21.65361595153809 80.25629425048828 26.53430938720703 C 82.39323425292969 31.58659172058105 83.47674560546875 36.95431137084961 83.47674560546875 42.48836898803711 C 83.47674560546875 48.02242660522461 82.39323425292969 53.39014434814453 80.25629425048828 58.44242858886719 C 78.19194030761719 63.3231201171875 75.23631286621094 67.70673370361328 71.47153472900391 71.47151947021484 C 67.70674896240234 75.23631286621094 63.32312393188477 78.19192504882812 58.44244384765625 80.25628662109375 C 53.3901481628418 82.39321899414062 48.02243041992188 83.47673034667969 42.48837280273438 83.47673034667969 Z" stroke="none"/>
                    <path d="M 42.48837280273438 2.999992370605469 C 37.15615844726562 2.999992370605469 31.98502731323242 4.043647766113281 27.1186408996582 6.101959228515625 C 22.41674423217773 8.090690612792969 18.19338989257812 10.9383544921875 14.56587982177734 14.56587219238281 C 10.93836212158203 18.19338226318359 8.090690612792969 22.41674041748047 6.101959228515625 27.11863708496094 C 4.043655395507812 31.98502349853516 3 37.15615463256836 3 42.48836898803711 C 3 47.82058334350586 4.043655395507812 52.99171447753906 6.101959228515625 57.85810089111328 C 8.090690612792969 62.55999755859375 10.93836212158203 66.78335571289062 14.56587982177734 70.41085815429688 C 18.19338989257812 74.03838348388672 22.41674423217773 76.88604736328125 27.1186408996582 78.87477874755859 C 31.98502731323242 80.93309020996094 37.15615844726562 81.97674560546875 42.48837280273438 81.97674560546875 C 47.82058715820312 81.97674560546875 52.99172210693359 80.93309020996094 57.85810852050781 78.87477874755859 C 62.55999755859375 76.88604736328125 66.78335571289062 74.03838348388672 70.41086578369141 70.41085815429688 C 74.03838348388672 66.78335571289062 76.88605499267578 62.55999755859375 78.87478637695312 57.85810089111328 C 80.93309020996094 52.99171447753906 81.97674560546875 47.82058334350586 81.97674560546875 42.48836898803711 C 81.97674560546875 37.15615463256836 80.93309020996094 31.98502349853516 78.87478637695312 27.11863708496094 C 76.88605499267578 22.41674041748047 74.03838348388672 18.19338226318359 70.41086578369141 14.56587219238281 C 66.78335571289062 10.9383544921875 62.55999755859375 8.090690612792969 57.85810852050781 6.101959228515625 C 52.99172210693359 4.043647766113281 47.82058715820312 2.999992370605469 42.48837280273438 2.999992370605469 M 42.48837280273438 -7.62939453125e-06 C 65.95405578613281 -7.62939453125e-06 84.97674560546875 19.02268981933594 84.97674560546875 42.48836898803711 C 84.97674560546875 65.95404815673828 65.95405578613281 84.97674560546875 42.48837280273438 84.97674560546875 C 19.02268981933594 84.97674560546875 0 65.95404815673828 0 42.48836898803711 C 0 19.02268981933594 19.02268981933594 -7.62939453125e-06 42.48837280273438 -7.62939453125e-06 Z" stroke="none" fill="#510e84"/>
                  </g>
                </g>
              </g>
            </g>
          </g>
        </g>
      </g>
    </g>
    <g id="servicios-digitales_1_" data-name="servicios-digitales (1)" transform="translate(16.648 16.648)">
      <path id="Trazado_1044039" data-name="Trazado 1044039" d="M21,27.839V8.667A1.667,1.667,0,0,1,22.667,7H51.008a1.667,1.667,0,0,1,1.667,1.667V27.839Z" transform="translate(-4.329 -1.999)" fill="#c8cded"/>
      <path id="Trazado_1044040" data-name="Trazado 1044040" d="M25,11H50.007V28.5H25Z" transform="translate(-4.994 -2.664)" fill="#e2e7f6"/>
      <path id="Trazado_1044041" data-name="Trazado 1044041" d="M16,55.337h6.669l5,3.334,26.674-5.835V52a3.334,3.334,0,0,0-3.334-3.334H31v-.217a1.667,1.667,0,0,0-.4-1.084L26,42H16Z" transform="translate(-3.497 -7.824)" fill="#fbe1ca"/>
      <path id="Trazado_1044042" data-name="Trazado 1044042" d="M2,40H8.669V58.338H2Z" transform="translate(-1.166 -7.491)" fill="#d5883e"/>
      <path id="Trazado_1044043" data-name="Trazado 1044043" d="M10,40h5V56.671H10Z" transform="translate(-2.498 -7.491)" fill="#f0ae42"/>
      <path id="Trazado_1044044" data-name="Trazado 1044044" d="M13.334,53.337V40H10V55h1.667A1.667,1.667,0,0,0,13.334,53.337Z" transform="translate(-2.498 -7.491)" fill="#f9d266"/>
      <path id="Trazado_1044045" data-name="Trazado 1044045" d="M18,32H54.677v3.334A1.667,1.667,0,0,1,53.01,37H19.667A1.667,1.667,0,0,1,18,35.334Z" transform="translate(-3.829 -6.159)" fill="#9da1bf"/>
      <path id="Trazado_1044046" data-name="Trazado 1044046" d="M47.338,12.836V9.5h-1.86a7.455,7.455,0,0,0-.964-2.321l1.316-1.316L43.474,3.507,42.158,4.823a7.455,7.455,0,0,0-2.321-.964V2H36.5V3.86a7.455,7.455,0,0,0-2.321.964L32.864,3.507,30.507,5.864l1.316,1.316A7.455,7.455,0,0,0,30.86,9.5H29v3.334h1.86a7.455,7.455,0,0,0,.964,2.321l-1.316,1.316,2.357,2.357,1.316-1.316a7.454,7.454,0,0,0,2.321.964v1.86h3.334v-1.86a7.454,7.454,0,0,0,2.321-.964l1.316,1.316,2.357-2.357-1.316-1.316a7.455,7.455,0,0,0,.964-2.321Z" transform="translate(-5.66 -1.166)" fill="#5e87ca"/>
      <ellipse id="Elipse_12538" data-name="Elipse 12538" cx="4.249" cy="4.249" rx="4.249" ry="4.249" transform="translate(28.076 5.665)" fill="#e2e7f6"/>
      <path id="Trazado_1044047" data-name="Trazado 1044047" d="M2,16H22.006V26H2Z" transform="translate(-1.166 -3.497)" fill="#3b5892"/>
      <path id="Trazado_1044048" data-name="Trazado 1044048" d="M2,16H19.749v7.5H2Z" transform="translate(-1.166 -3.497)" fill="#4c6cb5"/>
      <g id="Grupo_1219613" data-name="Grupo 1219613" transform="translate(3.334 13.801)">
        <path id="Trazado_1044049" data-name="Trazado 1044049" d="M7.745,24.473l-2.5-2.5a.834.834,0,0,1,0-1.179l2.5-2.5,1.179,1.179L7.012,21.383l1.911,1.911Z" transform="translate(-5 -17.679)" fill="#5e87ca"/>
        <path id="Trazado_1044050" data-name="Trazado 1044050" d="M19.472,24.473l-1.179-1.179L20.2,21.383l-1.911-1.911,1.179-1.179,2.5,2.5a.834.834,0,0,1,0,1.179Z" transform="translate(-7.213 -17.679)" fill="#5e87ca"/>
        <path id="Trazado_1044051" data-name="Trazado 1044051" d="M0,0H7.452V1.666H0Z" transform="matrix(0.447, -0.894, 0.894, 0.447, 5.08, 6.665)" fill="#5e87ca"/>
      </g>
      <path id="Trazado_1044052" data-name="Trazado 1044052" d="M48.513,47.336H29.258a2.506,2.506,0,0,0-.515-1.01l-4.6-5.366a.834.834,0,0,0-.633-.292H14.337v-.834A.834.834,0,0,0,13.5,39H1.834A.834.834,0,0,0,1,39.834V58.172a.834.834,0,0,0,.834.834H8.5a.834.834,0,0,0,.834-.834v-.834H13.5a.834.834,0,0,0,.834-.834v-.834h5.585l4.791,3.194a.834.834,0,0,0,.46.14.865.865,0,0,0,.178-.019l26.674-5.835a.834.834,0,0,0,.655-.814V51.5a4.173,4.173,0,0,0-4.168-4.168Zm-40.845,10h-5V40.667h5Zm5-1.667H9.336v-15H12.67Zm38.344-4L25.34,57.283l-4.706-3.138a.839.839,0,0,0-.462-.14H14.337V42.334h8.786l4.35,5.076a.834.834,0,0,1,.2.543V49a.834.834,0,0,1-.834.834h-.976a.834.834,0,0,1-.59-.244l-3.679-3.679-1.179,1.179L24.1,50.771a2.482,2.482,0,0,0,1.769.733h.976a2.5,2.5,0,0,0,2.5-2.5H48.513a2.5,2.5,0,0,1,2.5,2.5Z" transform="translate(-1 -7.325)"/>
      <path id="Trazado_1044053" data-name="Trazado 1044053" d="M51.847,26.007H50.18V7.669a2.5,2.5,0,0,0-2.5-2.5H41.8a.66.66,0,0,0-.039-.059L39.4,2.75a.834.834,0,0,0-1.179,0l-.865.865a8.286,8.286,0,0,0-1.35-.56V1.834A.834.834,0,0,0,35.176,1H31.842a.834.834,0,0,0-.834.834V3.056a8.286,8.286,0,0,0-1.35.56l-.865-.865a.834.834,0,0,0-1.179,0L25.257,5.109a.661.661,0,0,0-.038.059h-5.88a2.5,2.5,0,0,0-2.5,2.5v5h-15A.834.834,0,0,0,1,13.5v10a.834.834,0,0,0,.834.834h15v1.667H15.171a.834.834,0,0,0-.834.834v3.334a2.5,2.5,0,0,0,2.5,2.5H50.18a2.5,2.5,0,0,0,2.5-2.5V26.841A.834.834,0,0,0,51.847,26.007ZM48.513,7.669V26.007H46.846V9.336a.834.834,0,0,0-.834-.834H41.456a8.286,8.286,0,0,0-.56-1.35l.318-.318H47.68a.834.834,0,0,1,.834.834ZM22.673,23.506v-10a.834.834,0,0,0-.834-.834v-2.5h1.667v2.5a.834.834,0,0,0,.834.834h1.222a8.287,8.287,0,0,0,.56,1.35l-.865.865a.834.834,0,0,0,0,1.179l2.358,2.358a.834.834,0,0,0,1.179,0l.865-.865a8.278,8.278,0,0,0,1.35.56v1.222a.834.834,0,0,0,.834.834h3.334a.834.834,0,0,0,.834-.834V18.95a8.278,8.278,0,0,0,1.35-.561l.865.866a.834.834,0,0,0,1.179,0L41.761,16.9a.834.834,0,0,0,0-1.179l-.864-.865a8.286,8.286,0,0,0,.559-1.35h1.222a.834.834,0,0,0,.834-.834v-2.5h1.667V26.007H21.839V24.34A.834.834,0,0,0,22.673,23.506Zm4.34-13.986a6.6,6.6,0,0,1,.856-2.061.834.834,0,0,0-.116-1.034L27.026,5.7,28.2,4.519l.727.727a.834.834,0,0,0,1.034.116,6.6,6.6,0,0,1,2.061-.856.834.834,0,0,0,.649-.814V2.667h1.667V3.692a.834.834,0,0,0,.649.814,6.6,6.6,0,0,1,2.061.856.834.834,0,0,0,1.034-.116l.727-.727L39.993,5.7l-.727.727a.834.834,0,0,0-.116,1.034,6.6,6.6,0,0,1,.856,2.061.834.834,0,0,0,.814.649h1.025v1.667H40.819a.834.834,0,0,0-.814.649,6.6,6.6,0,0,1-.856,2.061.834.834,0,0,0,.116,1.034l.727.727-1.179,1.179-.727-.727a.834.834,0,0,0-1.034-.116,6.613,6.613,0,0,1-2.061.856.834.834,0,0,0-.649.813v1.026H32.675V18.312a.834.834,0,0,0-.649-.813,6.613,6.613,0,0,1-2.061-.856.834.834,0,0,0-1.034.116l-.727.727-1.179-1.179.727-.727a.834.834,0,0,0,.116-1.034,6.6,6.6,0,0,1-.856-2.061.834.834,0,0,0-.814-.649H25.173V10.169H26.2a.834.834,0,0,0,.814-.649ZM18.5,7.669a.834.834,0,0,1,.834-.834H25.8l.318.318a8.286,8.286,0,0,0-.56,1.35H21.006a.834.834,0,0,0-.834.834V12.67H18.5ZM2.667,14.337H21.006v8.336H2.667Zm15.838,10h1.667v1.667H18.5Zm32.509,5.835a.834.834,0,0,1-.834.834H16.838A.834.834,0,0,1,16,30.175v-2.5h35.01Z" transform="translate(-1 -1)"/>
      <path id="Trazado_1044054" data-name="Trazado 1044054" d="M39,17a5,5,0,1,0-5-5A5,5,0,0,0,39,17Zm0-8.336A3.334,3.334,0,1,1,35.667,12,3.334,3.334,0,0,1,39,8.667Z" transform="translate(-6.492 -1.999)"/>
      <path id="Trazado_1044055" data-name="Trazado 1044055" d="M7.745,18.293l-2.5,2.5a.834.834,0,0,0,0,1.179l2.5,2.5,1.179-1.179L7.012,21.383l1.911-1.911Z" transform="translate(-1.666 -3.878)"/>
      <path id="Trazado_1044056" data-name="Trazado 1044056" d="M19.472,18.293l-1.179,1.179L20.2,21.383l-1.911,1.911,1.179,1.179,2.5-2.5a.834.834,0,0,0,0-1.179Z" transform="translate(-3.878 -3.878)"/>
      <path id="Trazado_1044057" data-name="Trazado 1044057" d="M0,0H7.452V1.666H0Z" transform="matrix(0.447, -0.894, 0.894, 0.447, 8.415, 20.466)"/>
    </g>
  </g>
</svg>
