<svg xmlns="http://www.w3.org/2000/svg" xmlns:xlink="http://www.w3.org/1999/xlink" width="118" height="118" viewBox="0 0 118 118">
  <defs>
    <filter id="Trazado_982547" x="0" y="0" width="118" height="118" filterUnits="userSpaceOnUse">
      <feOffset dy="3" input="SourceAlpha"/>
      <feGaussianBlur stdDeviation="3" result="blur"/>
      <feFlood flood-opacity="0.161"/>
      <feComposite operator="in" in2="blur"/>
      <feComposite in="SourceGraphic"/>
    </filter>
  </defs>
  <g id="Grupo_1219814" data-name="Grupo 1219814" transform="translate(-322 -1255)">
    <g id="Grupo_1202657" data-name="Grupo 1202657" transform="translate(333.5 1263.5)">
      <g id="Grupo_1174813" data-name="Grupo 1174813" transform="translate(-2.5 -2.5)">
        <g id="Grupo_1201680" data-name="Grupo 1201680">
          <g id="Grupo_1201330" data-name="Grupo 1201330">
            <g id="Grupo_1172010" data-name="Grupo 1172010">
              <g id="Grupo_1171046" data-name="Grupo 1171046">
                <g id="Grupo_1148525" data-name="Grupo 1148525">
                  <g transform="matrix(1, 0, 0, 1, -9, -6)" filter="url(#Trazado_982547)">
                    <g id="Trazado_982547-2" data-name="Trazado 982547" transform="translate(9 6)" fill="#f3e6fd">
                      <path d="M 50 98.5 C 43.45188522338867 98.5 37.10042953491211 97.21787261962891 31.12207221984863 94.68923950195312 C 25.34691429138184 92.24655914306641 20.15997123718262 88.74931335449219 15.70532894134521 84.29468536376953 C 11.2506856918335 79.84004211425781 7.753442764282227 74.65309906005859 5.310757160186768 68.8779296875 C 2.782128572463989 62.89957046508789 1.5 56.54811477661133 1.5 50 C 1.5 43.45188522338867 2.782128572463989 37.10042953491211 5.310757160186768 31.12207221984863 C 7.753442764282227 25.34691429138184 11.2506856918335 20.15997123718262 15.70532894134521 15.70532894134521 C 20.15997123718262 11.2506856918335 25.34691429138184 7.753442764282227 31.12207221984863 5.310757160186768 C 37.10042953491211 2.782128572463989 43.45188522338867 1.5 50 1.5 C 56.54811477661133 1.5 62.89957046508789 2.782128572463989 68.8779296875 5.310757160186768 C 74.65309906005859 7.753442764282227 79.84004211425781 11.2506856918335 84.29468536376953 15.70532894134521 C 88.74931335449219 20.15997123718262 92.24655914306641 25.34691429138184 94.68923950195312 31.12207221984863 C 97.21787261962891 37.10042953491211 98.5 43.45188522338867 98.5 50 C 98.5 56.54811477661133 97.21787261962891 62.89957046508789 94.68923950195312 68.8779296875 C 92.24655914306641 74.65309906005859 88.74931335449219 79.84004211425781 84.29468536376953 84.29468536376953 C 79.84004211425781 88.74931335449219 74.65309906005859 92.24655914306641 68.8779296875 94.68923950195312 C 62.89957046508789 97.21787261962891 56.54811477661133 98.5 50 98.5 Z" stroke="none"/>
                      <path d="M 50 3 C 43.65372467041016 3 37.49886322021484 4.242263793945312 31.70639801025391 6.6922607421875 C 26.11003112792969 9.059326171875 21.08335113525391 12.44861602783203 16.76598358154297 16.76598358154297 C 12.44861602783203 21.08335113525391 9.059326171875 26.11003112792969 6.6922607421875 31.70639801025391 C 4.242263793945312 37.49886322021484 3 43.65372467041016 3 50 C 3 56.34627532958984 4.242263793945312 62.50113677978516 6.6922607421875 68.29360198974609 C 9.059326171875 73.88996887207031 12.44861602783203 78.91666412353516 16.76598358154297 83.23401641845703 C 21.08335113525391 87.55138397216797 26.11003112792969 90.940673828125 31.70639801025391 93.3077392578125 C 37.49886322021484 95.75773620605469 43.65372467041016 97 50 97 C 56.34627532958984 97 62.50113677978516 95.75773620605469 68.29360198974609 93.3077392578125 C 73.88996887207031 90.940673828125 78.91666412353516 87.55138397216797 83.23401641845703 83.23401641845703 C 87.55138397216797 78.91666412353516 90.940673828125 73.88996887207031 93.3077392578125 68.29360198974609 C 95.75773620605469 62.50113677978516 97 56.34627532958984 97 50 C 97 43.65372467041016 95.75773620605469 37.49886322021484 93.3077392578125 31.70639801025391 C 90.940673828125 26.11003112792969 87.55138397216797 21.08335113525391 83.23401641845703 16.76598358154297 C 78.91666412353516 12.44861602783203 73.88996887207031 9.059326171875 68.29360198974609 6.6922607421875 C 62.50113677978516 4.242263793945312 56.34627532958984 3 50 3 M 50 0 C 77.61424255371094 0 100 22.38577270507812 100 50 C 100 77.61424255371094 77.61424255371094 100 50 100 C 22.38577270507812 100 0 77.61424255371094 0 50 C 0 22.38577270507812 22.38577270507812 0 50 0 Z" stroke="none" fill="#951bf1"/>
                    </g>
                  </g>
                </g>
              </g>
            </g>
          </g>
        </g>
      </g>
    </g>
    <g id="automatizacion_1_" data-name="automatizacion (1)" transform="translate(346.666 1279.478)">
      <path id="Trazado_1043839" data-name="Trazado 1043839" d="M54.735,7.311V31.023H3V7.311A4.31,4.31,0,0,1,7.311,3H50.424A4.31,4.31,0,0,1,54.735,7.311Z" transform="translate(0.078 0.078)" fill="#edfcfc"/>
      <path id="Trazado_1043840" data-name="Trazado 1043840" d="M9,7H47.8V30.712H9Z" transform="translate(0.545 0.389)" fill="#d5dbdb"/>
      <path id="Trazado_1043841" data-name="Trazado 1043841" d="M9,7H47.8v8.622H9Z" transform="translate(0.545 0.389)" fill="#fda22e"/>
      <path id="Trazado_1043842" data-name="Trazado 1043842" d="M26.912,49.945l.442-.41a16.258,16.258,0,0,1-.873-3.233l-3.374-.787a19.3,19.3,0,0,1,0-4.074l3.374-.787a15.656,15.656,0,0,1,.636-2.565c.075-.226.151-.453.237-.668l-2.522-2.36a19.724,19.724,0,0,1,2.037-3.524l3.287.992a17.606,17.606,0,0,1,2.371-2.371l-.2-.69-.787-2.6a20.449,20.449,0,0,1,3.524-2.048l2.36,2.533a16.258,16.258,0,0,1,3.233-.873l.787-3.374a19.3,19.3,0,0,1,4.074,0l.787,3.374a16.258,16.258,0,0,1,3.233.873l2.36-2.522c.442.194.862.41,1.283.636a18.562,18.562,0,0,1,2.242,1.4l-.992,3.287A17.6,17.6,0,0,1,56.8,32.528l3.287-.992a20.45,20.45,0,0,1,2.048,3.524L59.6,37.421a16.258,16.258,0,0,1,.873,3.233l3.374.787a19.3,19.3,0,0,1,0,4.074l-3.374.787a16.258,16.258,0,0,1-.873,3.233l2.522,2.36a19.724,19.724,0,0,1-2.037,3.524L56.8,54.429A17.605,17.605,0,0,1,54.429,56.8l.992,3.287A20.449,20.449,0,0,1,51.9,62.135L49.536,59.6a16.258,16.258,0,0,1-3.233.873l-.787,3.374a19.3,19.3,0,0,1-4.074,0l-.787-3.374a16.258,16.258,0,0,1-3.233-.873l-2.36,2.522a19.724,19.724,0,0,1-3.524-2.037l.992-3.287a17.606,17.606,0,0,1-2.371-2.371l-3.287.992c-.269-.377-.539-.765-.776-1.164a20.667,20.667,0,0,1-1.272-2.36Zm23.033-6.467a6.467,6.467,0,1,0-6.467,6.467A6.472,6.472,0,0,0,49.945,43.478Z" transform="translate(1.634 1.634)" fill="#f82f45"/>
      <path id="Trazado_1043843" data-name="Trazado 1043843" d="M42.622,34a8.622,8.622,0,1,0,8.622,8.622A8.623,8.623,0,0,0,42.622,34Zm0,15.089a6.467,6.467,0,1,1,6.467-6.467A6.466,6.466,0,0,1,42.622,49.089Z" transform="translate(2.49 2.49)" fill="#d22435"/>
      <path id="Trazado_1043844" data-name="Trazado 1043844" d="M28,48l-2.091,1.951a20.667,20.667,0,0,0,1.272,2.36H13.311A4.31,4.31,0,0,1,9,48Z" transform="translate(0.545 3.579)" fill="#4bbee5"/>
      <path id="Trazado_1043845" data-name="Trazado 1043845" d="M27.1,45.213a16.258,16.258,0,0,0,.873,3.233l-.442.41H15L19.311,37H27.74a15.657,15.657,0,0,0-.636,2.565l-3.374.787a19.3,19.3,0,0,0,0,4.074Z" transform="translate(1.011 2.723)" fill="#3c7eb0"/>
      <path id="Trazado_1043846" data-name="Trazado 1043846" d="M3,29H33.879l.2.69a17.6,17.6,0,0,0-2.371,2.371l-3.287-.992a19.724,19.724,0,0,0-2.037,3.524l2.522,2.36c-.086.216-.162.442-.237.668H7.311A4.31,4.31,0,0,1,3,33.311Z" transform="translate(0.078 2.101)" fill="#4bbee5"/>
      <g id="Grupo_1219558" data-name="Grupo 1219558" transform="translate(2 2)">
        <path id="Trazado_1043847" data-name="Trazado 1043847" d="M65.733,42.027l-2.7-.629a18.267,18.267,0,0,0-.545-2.038L64.5,37.476a1.079,1.079,0,0,0,.246-1.231A21.613,21.613,0,0,0,62.6,32.536a1.076,1.076,0,0,0-1.189-.4l-2.613.793a18.286,18.286,0,0,0-1.5-1.5l.8-2.612a1.078,1.078,0,0,0-.4-1.188q-.87-.627-1.8-1.165V7.389A5.4,5.4,0,0,0,50.5,2H7.389A5.4,5.4,0,0,0,2,7.389V35.412A5.4,5.4,0,0,0,7.389,40.8h11.4l-3.528,9.7H9.545a1.078,1.078,0,0,0-1.078,1.078,5.4,5.4,0,0,0,5.389,5.389H27.161c.157.238.3.487.466.719a1.075,1.075,0,0,0,1.189.4l2.613-.793a18.286,18.286,0,0,0,1.5,1.5l-.8,2.612a1.078,1.078,0,0,0,.4,1.188,21.466,21.466,0,0,0,3.71,2.149,1.074,1.074,0,0,0,1.231-.246l1.882-2.009a18.038,18.038,0,0,0,2.039.545l.629,2.7a1.078,1.078,0,0,0,.944.828c.726.072,1.447.109,2.141.109s1.414-.037,2.142-.108a1.078,1.078,0,0,0,.944-.828l.629-2.7a18.1,18.1,0,0,0,2.039-.545L52.749,64.5a1.077,1.077,0,0,0,1.231.246A21.55,21.55,0,0,0,57.687,62.6a1.078,1.078,0,0,0,.4-1.189L57.295,58.8a18.455,18.455,0,0,0,1.5-1.5l2.613.794a1.079,1.079,0,0,0,1.189-.4,21.6,21.6,0,0,0,2.148-3.709,1.076,1.076,0,0,0-.246-1.231l-2.008-1.883a18.222,18.222,0,0,0,.545-2.039l2.7-.629a1.077,1.077,0,0,0,.828-.943c.07-.724.107-1.445.107-2.141s-.037-1.416-.109-2.143a1.076,1.076,0,0,0-.827-.943ZM7.389,4.156H50.5a3.237,3.237,0,0,1,3.233,3.233V25.411a1.071,1.071,0,0,0-.986.313l-1.882,2.009a18.038,18.038,0,0,0-2.039-.545l-.629-2.7a1.078,1.078,0,0,0-.944-.828,21.4,21.4,0,0,0-4.284,0,1.078,1.078,0,0,0-.944.828l-.629,2.7a18.1,18.1,0,0,0-2.039.545l-1.882-2.009a1.079,1.079,0,0,0-1.231-.246,21.55,21.55,0,0,0-3.708,2.149,1.078,1.078,0,0,0-.4,1.189l.369,1.207H10.622V17.089H21.4V14.934H10.622V8.467H47.268V21.4h2.156V7.389a1.078,1.078,0,0,0-1.078-1.078H9.545A1.078,1.078,0,0,0,8.467,7.389V30.023H4.156V7.389A3.237,3.237,0,0,1,7.389,4.156Zm24.79,28.023c-.25.25-.516.486-.751.75l-2.469-.75ZM4.156,35.412V32.179H28.093a1.063,1.063,0,0,0-.466.358,21.6,21.6,0,0,0-2.148,3.709,1.076,1.076,0,0,0,.246,1.231l1.248,1.169H7.389a3.237,3.237,0,0,1-3.233-3.233ZM21.077,40.8h6.251c-.049.2-.1.4-.141.6l-2.7.629a1.077,1.077,0,0,0-.828.943c-.071.726-.108,1.447-.108,2.143s.037,1.415.109,2.143a1.077,1.077,0,0,0,.828.943l2.7.629c.116.566.278,1.121.447,1.674H17.551ZM13.856,54.813a3.24,3.24,0,0,1-3.049-2.156H25.822l-.1.092a1.079,1.079,0,0,0-.246,1.231c.128.283.288.555.429.833Zm50.62-8.534-2.616.611a1.077,1.077,0,0,0-.818.874,16.1,16.1,0,0,1-.811,3.03,1.077,1.077,0,0,0,.273,1.165l1.947,1.825A19.373,19.373,0,0,1,61.284,55.8l-2.534-.771a1.074,1.074,0,0,0-1.146.346,16.27,16.27,0,0,1-2.23,2.23,1.079,1.079,0,0,0-.346,1.146l.771,2.534a19.724,19.724,0,0,1-2.015,1.168L51.96,60.5a1.077,1.077,0,0,0-1.165-.272,16.117,16.117,0,0,1-3.031.811,1.077,1.077,0,0,0-.874.818l-.61,2.616a18.712,18.712,0,0,1-2.332,0l-.61-2.616a1.076,1.076,0,0,0-.874-.818,16.221,16.221,0,0,1-3.031-.811,1.077,1.077,0,0,0-1.165.272l-1.824,1.948a19.286,19.286,0,0,1-2.017-1.168l.772-2.533a1.081,1.081,0,0,0-.346-1.146,16.27,16.27,0,0,1-2.23-2.23,1.077,1.077,0,0,0-1.146-.346l-2.534.77a19.5,19.5,0,0,1-1.168-2.015l1.948-1.825a1.077,1.077,0,0,0,.273-1.165,16.128,16.128,0,0,1-.811-3.031,1.076,1.076,0,0,0-.818-.874l-2.616-.611c-.026-.394-.039-.785-.039-1.165s.013-.771.037-1.166l2.616-.611a1.077,1.077,0,0,0,.818-.874,16.052,16.052,0,0,1,.811-3.03,1.077,1.077,0,0,0-.272-1.166L27.774,36.44a19.485,19.485,0,0,1,1.167-2.015l2.534.77a1.08,1.08,0,0,0,1.146-.346,16.33,16.33,0,0,1,2.23-2.23,1.079,1.079,0,0,0,.346-1.146l-.771-2.534a19.724,19.724,0,0,1,2.016-1.168l1.824,1.948a1.077,1.077,0,0,0,1.165.272,16.117,16.117,0,0,1,3.031-.811,1.077,1.077,0,0,0,.874-.818l.61-2.616a18.712,18.712,0,0,1,2.332,0l.61,2.616a1.076,1.076,0,0,0,.874.818,16.221,16.221,0,0,1,3.031.811,1.08,1.08,0,0,0,1.165-.272l1.824-1.948A19.286,19.286,0,0,1,55.8,28.939l-.772,2.533a1.081,1.081,0,0,0,.346,1.146,16.27,16.27,0,0,1,2.23,2.23,1.075,1.075,0,0,0,1.146.346l2.534-.77a19.5,19.5,0,0,1,1.168,2.015L60.5,38.264a1.078,1.078,0,0,0-.273,1.165,16.128,16.128,0,0,1,.811,3.031,1.076,1.076,0,0,0,.818.874l2.616.611c.026.4.039.787.039,1.167s-.013.771-.037,1.166Z" transform="translate(-2 -2)" fill="#171526"/>
        <path id="Trazado_1043848" data-name="Trazado 1043848" d="M50.089,42.545a7.545,7.545,0,1,0-7.545,7.545A7.554,7.554,0,0,0,50.089,42.545Zm-7.545,5.389a5.389,5.389,0,1,1,5.389-5.389A5.4,5.4,0,0,1,42.545,47.934Z" transform="translate(0.568 0.568)" fill="#171526"/>
        <path id="Trazado_1043849" data-name="Trazado 1043849" d="M34.107,36.233l-1.745-1.264a12.9,12.9,0,0,0-1.187,1.992l1.943.932A10.79,10.79,0,0,1,34.107,36.233Z" transform="translate(0.27 0.565)" fill="#171526"/>
        <path id="Trazado_1043850" data-name="Trazado 1043850" d="M41.694,32.167l-.1-2.153a13.057,13.057,0,0,0-2.3.315l.484,2.1A10.905,10.905,0,0,1,41.694,32.167Z" transform="translate(0.902 0.18)" fill="#171526"/>
        <path id="Trazado_1043851" data-name="Trazado 1043851" d="M49.548,32.593l-1.341,1.688a10.93,10.93,0,0,1,1.4,1.332l1.617-1.425a13.2,13.2,0,0,0-1.679-1.6Z" transform="translate(1.595 0.38)" fill="#171526"/>
        <path id="Trazado_1043852" data-name="Trazado 1043852" d="M32.514,44.681l-2.078.573a12.712,12.712,0,0,0,.818,2.17l1.941-.939a10.683,10.683,0,0,1-.681-1.8Z" transform="translate(0.213 1.321)" fill="#171526"/>
        <path id="Trazado_1043853" data-name="Trazado 1043853" d="M37.452,33.341l-1.029-1.895a13.111,13.111,0,0,0-1.928,1.283l1.349,1.681a10.794,10.794,0,0,1,1.608-1.069Z" transform="translate(0.528 0.291)" fill="#171526"/>
        <path id="Trazado_1043854" data-name="Trazado 1043854" d="M51.841,43.928l2.122.383a13.058,13.058,0,0,0,.2-2.308v-.046L52.012,42A10.891,10.891,0,0,1,51.841,43.928Z" transform="translate(1.878 1.109)" fill="#171526"/>
        <path id="Trazado_1043855" data-name="Trazado 1043855" d="M42.459,52.009l.1,2.153a13.05,13.05,0,0,0,2.3-.31l-.48-2.1a10.872,10.872,0,0,1-1.915.259Z" transform="translate(1.148 1.871)" fill="#171526"/>
        <path id="Trazado_1043856" data-name="Trazado 1043856" d="M50.094,47.995l1.743,1.269a12.931,12.931,0,0,0,1.19-1.99l-1.941-.936a10.951,10.951,0,0,1-.992,1.657Z" transform="translate(1.742 1.45)" fill="#171526"/>
        <path id="Trazado_1043857" data-name="Trazado 1043857" d="M51.68,39.5l2.078-.577a12.671,12.671,0,0,0-.825-2.17L51,37.7A10.532,10.532,0,0,1,51.68,39.5Z" transform="translate(1.812 0.704)" fill="#171526"/>
        <path id="Trazado_1043858" data-name="Trazado 1043858" d="M46.745,50.882l1.023,1.9A12.878,12.878,0,0,0,49.7,51.5l-1.345-1.684a10.905,10.905,0,0,1-1.61,1.066Z" transform="translate(1.482 1.72)" fill="#171526"/>
        <path id="Trazado_1043859" data-name="Trazado 1043859" d="M37.3,53.186A12.842,12.842,0,0,0,39.5,53.9l.473-2.1a10.6,10.6,0,0,1-1.836-.594Z" transform="translate(0.746 1.828)" fill="#171526"/>
        <path id="Trazado_1043860" data-name="Trazado 1043860" d="M34.6,48.59l-1.621,1.421a13.009,13.009,0,0,0,1.678,1.6l1.341-1.687a10.684,10.684,0,0,1-1.4-1.333Z" transform="translate(0.41 1.625)" fill="#171526"/>
        <path id="Trazado_1043861" data-name="Trazado 1043861" d="M46.877,31a12.782,12.782,0,0,0-2.21-.709l-.472,2.1a10.608,10.608,0,0,1,1.837.591Z" transform="translate(1.283 0.201)" fill="#171526"/>
        <path id="Trazado_1043862" data-name="Trazado 1043862" d="M32.323,40.261,30.2,39.883a13,13,0,0,0-.2,2.282v.024l2.156-.024A10.991,10.991,0,0,1,32.323,40.261Z" transform="translate(0.179 0.948)" fill="#171526"/>
        <path id="Trazado_1043863" data-name="Trazado 1043863" d="M39.007,11.293l-1.524,1.524,2.471,2.471H26.389A5.4,5.4,0,0,0,21,20.677v6.467h2.156V20.677a3.237,3.237,0,0,1,3.233-3.233H39.954l-2.471,2.471,1.524,1.524,4.311-4.311a1.077,1.077,0,0,0,0-1.524Z" transform="translate(-0.522 -1.277)" fill="#171526"/>
        <path id="Trazado_1043864" data-name="Trazado 1043864" d="M12,10h2.156v2.156H12Z" transform="translate(-1.222 -1.378)" fill="#171526"/>
        <path id="Trazado_1043865" data-name="Trazado 1043865" d="M16,10h2.156v2.156H16Z" transform="translate(-0.911 -1.378)" fill="#171526"/>
        <path id="Trazado_1043866" data-name="Trazado 1043866" d="M20,10h2.156v2.156H20Z" transform="translate(-0.599 -1.378)" fill="#171526"/>
      </g>
    </g>
  </g>
</svg>
