<svg xmlns="http://www.w3.org/2000/svg" xmlns:xlink="http://www.w3.org/1999/xlink" width="102.977" height="102.977" viewBox="0 0 102.977 102.977">
  <defs>
    <filter id="Trazado_904820" x="0" y="0" width="102.977" height="102.977" filterUnits="userSpaceOnUse">
      <feOffset dy="3" input="SourceAlpha"/>
      <feGaussianBlur stdDeviation="3" result="blur"/>
      <feFlood flood-opacity="0.161"/>
      <feComposite operator="in" in2="blur"/>
      <feComposite in="SourceGraphic"/>
    </filter>
  </defs>
  <g id="Grupo_1219615" data-name="Grupo 1219615" transform="translate(9 6)">
    <g id="Grupo_1202686" data-name="Grupo 1202686" transform="translate(0 0)">
      <g id="Grupo_1173585" data-name="Grupo 1173585">
        <g id="Grupo_1173428" data-name="Grupo 1173428">
          <g id="Grupo_1171958" data-name="Grupo 1171958">
            <g id="Grupo_1167341" data-name="Grupo 1167341">
              <g id="Grupo_1166792" data-name="Grupo 1166792">
                <g transform="matrix(1, 0, 0, 1, -9, -6)" filter="url(#Trazado_904820)">
                  <g id="Trazado_904820-2" data-name="Trazado 904820" transform="translate(9 6)" fill="#f3e6fd">
                    <path d="M 42.48837280273438 83.47673034667969 C 36.95431518554688 83.47673034667969 31.58659553527832 82.39321899414062 26.5343017578125 80.25628662109375 C 21.65361976623535 78.19192504882812 17.26999664306641 75.23631286621094 13.50520801544189 71.47151947021484 C 9.740431785583496 67.70673370361328 6.784808158874512 63.3231201171875 4.720455169677734 58.44242858886719 C 2.583513975143433 53.39014434814453 1.499996304512024 48.02242660522461 1.499996304512024 42.48836898803711 C 1.499996304512024 36.95431137084961 2.583513975143433 31.58659172058105 4.720455169677734 26.53430938720703 C 6.784808158874512 21.65361595153809 9.740431785583496 17.27000427246094 13.50520801544189 13.50521564483643 C 17.26999664306641 9.74042797088623 21.65361976623535 6.784816265106201 26.5343017578125 4.720451354980469 C 31.58659553527832 2.583521842956543 36.95431518554688 1.500004291534424 42.48837280273438 1.500004291534424 C 48.02243041992188 1.500004291534424 53.3901481628418 2.583521842956543 58.44244384765625 4.720451354980469 C 63.32312393188477 6.784816265106201 67.70674896240234 9.74042797088623 71.47153472900391 13.50521564483643 C 75.23631286621094 17.27000427246094 78.19194030761719 21.65361595153809 80.25629425048828 26.53430938720703 C 82.39323425292969 31.58659172058105 83.47674560546875 36.95431137084961 83.47674560546875 42.48836898803711 C 83.47674560546875 48.02242660522461 82.39323425292969 53.39014434814453 80.25629425048828 58.44242858886719 C 78.19194030761719 63.3231201171875 75.23631286621094 67.70673370361328 71.47153472900391 71.47151947021484 C 67.70674896240234 75.23631286621094 63.32312393188477 78.19192504882812 58.44244384765625 80.25628662109375 C 53.3901481628418 82.39321899414062 48.02243041992188 83.47673034667969 42.48837280273438 83.47673034667969 Z" stroke="none"/>
                    <path d="M 42.48837280273438 2.999992370605469 C 37.15615844726562 2.999992370605469 31.98502731323242 4.043647766113281 27.1186408996582 6.101959228515625 C 22.41674423217773 8.090690612792969 18.19338989257812 10.9383544921875 14.56587982177734 14.56587219238281 C 10.93836212158203 18.19338226318359 8.090690612792969 22.41674041748047 6.101959228515625 27.11863708496094 C 4.043655395507812 31.98502349853516 3 37.15615463256836 3 42.48836898803711 C 3 47.82058334350586 4.043655395507812 52.99171447753906 6.101959228515625 57.85810089111328 C 8.090690612792969 62.55999755859375 10.93836212158203 66.78335571289062 14.56587982177734 70.41085815429688 C 18.19338989257812 74.03838348388672 22.41674423217773 76.88604736328125 27.1186408996582 78.87477874755859 C 31.98502731323242 80.93309020996094 37.15615844726562 81.97674560546875 42.48837280273438 81.97674560546875 C 47.82058715820312 81.97674560546875 52.99172210693359 80.93309020996094 57.85810852050781 78.87477874755859 C 62.55999755859375 76.88604736328125 66.78335571289062 74.03838348388672 70.41086578369141 70.41085815429688 C 74.03838348388672 66.78335571289062 76.88605499267578 62.55999755859375 78.87478637695312 57.85810089111328 C 80.93309020996094 52.99171447753906 81.97674560546875 47.82058334350586 81.97674560546875 42.48836898803711 C 81.97674560546875 37.15615463256836 80.93309020996094 31.98502349853516 78.87478637695312 27.11863708496094 C 76.88605499267578 22.41674041748047 74.03838348388672 18.19338226318359 70.41086578369141 14.56587219238281 C 66.78335571289062 10.9383544921875 62.55999755859375 8.090690612792969 57.85810852050781 6.101959228515625 C 52.99172210693359 4.043647766113281 47.82058715820312 2.999992370605469 42.48837280273438 2.999992370605469 M 42.48837280273438 -7.62939453125e-06 C 65.95405578613281 -7.62939453125e-06 84.97674560546875 19.02268981933594 84.97674560546875 42.48836898803711 C 84.97674560546875 65.95404815673828 65.95405578613281 84.97674560546875 42.48837280273438 84.97674560546875 C 19.02268981933594 84.97674560546875 0 65.95404815673828 0 42.48836898803711 C 0 19.02268981933594 19.02268981933594 -7.62939453125e-06 42.48837280273438 -7.62939453125e-06 Z" stroke="none" fill="#510e84"/>
                  </g>
                </g>
              </g>
            </g>
          </g>
        </g>
      </g>
    </g>
    <g id="Medical_Online" data-name="Medical Online" transform="translate(23.647 12.486)">
      <path id="Trazado_1044058" data-name="Trazado 1044058" d="M56.191,79.7l-1.485.791a8.83,8.83,0,0,1-10.169-1.326L37.69,72.79l13.8-14.6,12.7,12.7" transform="translate(-23.728 -21.219)" fill="#fb9c88"/>
      <path id="Trazado_1044059" data-name="Trazado 1044059" d="M50.2,81.812a9.455,9.455,0,0,1-6.452-2.55l-6.854-6.35a.638.638,0,0,1,0-.905L50.67,57.4a.638.638,0,0,1,.912,0L64.307,70.082a.638.638,0,1,1-.905.9L51.148,58.753,38.238,72.415l6.375,5.929a8.2,8.2,0,0,0,9.436,1.23l1.485-.791a.639.639,0,0,1,.6,1.128c-1.957,1.039-3.341,1.9-5.935,1.9Z" transform="translate(-23.371 -20.864)" fill="#302d3d"/>
      <rect id="Rectángulo_419522" data-name="Rectángulo 419522" width="31.635" height="53.19" rx="3.79" transform="translate(0.612 0.638)" fill="#52527b"/>
      <path id="Trazado_1044060" data-name="Trazado 1044060" d="M19.393,4.566a.727.727,0,0,1,.708-.727H38.883a1.32,1.32,0,1,0,0-2.639H19.176A2.416,2.416,0,0,0,16.76,3.623v8.562a1.317,1.317,0,0,0,2.633,0Z" transform="translate(-16.142 -0.562)" fill="#5275b7"/>
      <path id="Trazado_1044061" data-name="Trazado 1044061" d="M19.176,1.2A2.416,2.416,0,0,0,16.76,3.623V6.428a1.32,1.32,0,0,0,2.633,0V4.566a.727.727,0,0,1,.708-.727H28.1a1.32,1.32,0,1,0,0-2.639Z" transform="translate(-16.142 -0.562)" fill="#5ca2da"/>
      <path id="Trazado_1044062" data-name="Trazado 1044062" d="M52.015,64.105a.727.727,0,0,1-.727.727H35.35a1.32,1.32,0,1,0,0,2.639H52.238a2.416,2.416,0,0,0,2.416-2.416V38.61a1.275,1.275,0,0,0-.689-1.154,1.313,1.313,0,0,0-1.951,1.154Z" transform="translate(-22.401 -13.644)" fill="#393462"/>
      <path id="Trazado_1044063" data-name="Trazado 1044063" d="M45.62,54.665H18.844A3.06,3.06,0,0,1,15.79,51.6V3.26A3.06,3.06,0,0,1,18.818.2H45.595a3.06,3.06,0,0,1,3.079,3.06V51.6a3.06,3.06,0,0,1-3.054,3.06Zm-26.8-53.19A1.779,1.779,0,0,0,17.04,3.26V51.6a1.785,1.785,0,0,0,1.779,1.785H45.595A1.785,1.785,0,0,0,47.374,51.6V3.26A1.779,1.779,0,0,0,45.62,1.475Z" transform="translate(-15.79 -0.2)" fill="#302d3d"/>
      <rect id="Rectángulo_419523" data-name="Rectángulo 419523" width="47.917" height="26.362" rx="1.14" transform="translate(29.614 3.271) rotate(90)" fill="#c8ebff"/>
      <path id="Trazado_1044064" data-name="Trazado 1044064" d="M46.152,61.607V68.8A1.492,1.492,0,0,1,44.66,70.29H26.382A1.492,1.492,0,0,1,24.89,68.8V60.2a.8.8,0,0,1,1.511-.4l2.62,4.667a2.741,2.741,0,0,0,2.4,1.409h8.836a2.716,2.716,0,0,0,2.6-1.913l1.116-3.7a.867.867,0,0,1,1.441-.363,2.423,2.423,0,0,1,.733,1.7Z" transform="translate(-19.088 -21.653)" fill="#78a5ff"/>
      <path id="Trazado_1044065" data-name="Trazado 1044065" d="M46.152,10.347V31.794a1.275,1.275,0,0,1-1.473,1.275A1.275,1.275,0,0,0,43.257,34l-2.671,9.219a1.8,1.8,0,0,1-1.728,1.275H31.546a1.7,1.7,0,0,1-1.434-.8l-4.335-7.013a5.98,5.98,0,0,1-.886-3.137V10.347A1.007,1.007,0,0,1,25.9,9.34h1.275A.975.975,0,0,1,28,9.792a5,5,0,0,0,4.335,2.467c5.891,0,8.766.638,10.647-2.455a.975.975,0,0,1,.842-.465H45.1a1.014,1.014,0,0,1,1.052,1.007Z" transform="translate(-19.088 -3.512)" fill="#fff"/>
      <path id="Trazado_1044066" data-name="Trazado 1044066" d="M46.146,53.526H21.224a1.364,1.364,0,0,1-1.364-1.364V5.7A1.364,1.364,0,0,1,21.224,4.34H46.146A1.364,1.364,0,0,1,47.516,5.7V52.162a1.364,1.364,0,0,1-1.371,1.364ZM21.224,5.615c-.14,0-.089-1.913-.089,46.54,0,.14-1.607.089,24.991.089.147,0,.1,1.913.1-46.54.019-.14,1.645-.089-25-.089Z" transform="translate(-17.265 -1.701)" fill="#302d3d"/>
      <ellipse id="Elipse_12539" data-name="Elipse 12539" cx="7.446" cy="7.446" rx="7.446" ry="7.446" transform="translate(8.983 10.825)" fill="#f74867"/>
      <path id="Trazado_1044067" data-name="Trazado 1044067" d="M36.964,32.348a8.084,8.084,0,1,1,8.084-8.084,8.084,8.084,0,0,1-8.084,8.084Zm0-14.893a6.809,6.809,0,1,0,6.809,6.809A6.809,6.809,0,0,0,36.964,17.455Z" transform="translate(-20.535 -5.992)" fill="#302d3d"/>
      <path id="Trazado_1044068" data-name="Trazado 1044068" d="M43.018,25.868H40.71V23.56H38.568v2.308H36.26V28.01h2.308v2.308H40.71V28.01h2.308Z" transform="translate(-23.21 -8.667)" fill="#fff"/>
      <path id="Trazado_1044069" data-name="Trazado 1044069" d="M40.348,30.6H38.205a.638.638,0,0,1-.638-.638V28.285H35.9a.638.638,0,0,1-.638-.638V25.512a.638.638,0,0,1,.638-.638h1.67V23.2a.638.638,0,0,1,.638-.638h2.142a.638.638,0,0,1,.638.638v1.677h1.67a.638.638,0,0,1,.638.638v2.136a.638.638,0,0,1-.638.638h-1.67v1.677A.638.638,0,0,1,40.348,30.6Zm-1.5-1.275h.867V27.648a.638.638,0,0,1,.638-.638h1.67v-.861h-1.67a.638.638,0,0,1-.638-.638V23.835h-.867v1.677a.638.638,0,0,1-.638.638h-1.67v.861h1.67a.638.638,0,0,1,.638.638Z" transform="translate(-22.847 -8.305)" fill="#302d3d"/>
      <path id="Trazado_1044070" data-name="Trazado 1044070" d="M41.2,8.26H34.871a2.506,2.506,0,0,1-2.206-1.332L31.83,5.34H44.243l-.829,1.587A2.486,2.486,0,0,1,41.2,8.26Z" transform="translate(-21.604 -2.063)" fill="#52527b"/>
      <path id="Trazado_1044071" data-name="Trazado 1044071" d="M40.832,8.535H34.508a3.143,3.143,0,0,1-2.773-1.67L30.9,5.271a.638.638,0,0,1,.567-.931H43.88a.638.638,0,0,1,.561.931l-.835,1.594A3.13,3.13,0,0,1,40.832,8.535Zm-8.288-2.92.344.638A1.862,1.862,0,0,0,34.508,7.26h6.324a1.855,1.855,0,0,0,1.645-.995l.344-.638Z" transform="translate(-21.241 -1.701)" fill="#302d3d"/>
      <path id="Trazado_1044072" data-name="Trazado 1044072" d="M70.153,65.022,58.722,71.27l-.682-1.039a12.751,12.751,0,0,1-1.2-11.546L58.7,53.871a1.913,1.913,0,0,0-.261-1.849l-3.494-4.616a3.87,3.87,0,0,1,.351-5.1,1.046,1.046,0,0,1,1.511,0l6.554,7.236a10.838,10.838,0,0,1,2.805,7.332c0,.274,0-.159-.051,2.735a3.7,3.7,0,0,0,1.2,2.786c3.844,3.57,2.569,2.372,2.831,2.627Z" transform="translate(-29.695 -15.345)" fill="#fbc4ab"/>
      <path id="Trazado_1044073" data-name="Trazado 1044073" d="M66.68,56.89l-1.575-.5a2.34,2.34,0,0,1-1.549-1.7l-.771-3.366a2.3,2.3,0,0,0-.567-1.1l-6.375-6.516a.969.969,0,0,1,0-1.358,1.052,1.052,0,0,1,1.524,0l6.509,7.2A10.838,10.838,0,0,1,66.68,56.89Z" transform="translate(-30.207 -15.361)" fill="#fbe7dd"/>
      <path id="Trazado_1044074" data-name="Trazado 1044074" d="M71.181,70.723,59.757,76.977l-.682-1.039a12.7,12.7,0,0,1-1.2-11.546l1.868-4.813a1.913,1.913,0,0,0-.261-1.849l1.275,1.689a3.825,3.825,0,0,1,.752,2.786l-.567,4.565a2.027,2.027,0,0,0,2.015,2.282H64.29a2.046,2.046,0,0,0,1.823-1.109l1.09-2.1a3.685,3.685,0,0,0,1.109,2.212c.057.045-.115-.108,2.869,2.665Z" transform="translate(-30.73 -21.052)" fill="#fb9c88"/>
      <path id="Trazado_1044075" data-name="Trazado 1044075" d="M58.368,71.568a.638.638,0,0,1-.536-.287l-.682-1.046a13.35,13.35,0,0,1-1.275-12.113l1.862-4.813a1.275,1.275,0,0,0-.172-1.237l-3.481-4.616a4.533,4.533,0,0,1,.408-5.916,1.677,1.677,0,0,1,2.429.057l6.56,7.172a11.476,11.476,0,0,1,2.971,7.969l-.051,2.55a3.054,3.054,0,0,0,.969,2.3l2.837,2.639a.638.638,0,1,1-.867.931L66.5,62.521a4.348,4.348,0,0,1-1.326-3.264l.051-2.55a10.2,10.2,0,0,0-2.665-7.083c-7.013-7.65-6.592-7.3-6.847-7.306a.427.427,0,0,0-.3.121,3.251,3.251,0,0,0-.293,4.24l3.5,4.609a2.55,2.55,0,0,1,.319,2.48l-1.868,4.813a12.113,12.113,0,0,0,1.148,10.966l.676,1.039a.638.638,0,0,1-.529.982Z" transform="translate(-29.341 -15.006)" fill="#302d3d"/>
      <rect id="Rectángulo_419524" data-name="Rectángulo 419524" width="14.23" height="4.195" rx="1.51" transform="translate(8.983 34.618)" fill="#49d293"/>
      <path id="Trazado_1044076" data-name="Trazado 1044076" d="M42.537,58.09H33.765a.695.695,0,1,1,0-1.39h8.773a.695.695,0,0,1,0,1.39Z" transform="translate(-22.053 -20.679)" fill="#c6e693"/>
      <path id="Trazado_1044077" data-name="Trazado 1044077" d="M42.778,58.97H30.487a1.6,1.6,0,0,1-1.607-1.6V55.094A1.607,1.607,0,0,1,30.487,53.5H42.778a1.607,1.607,0,0,1,1.607,1.594v2.263a1.6,1.6,0,0,1-1.607,1.613ZM30.487,54.775a.332.332,0,0,0-.332.332V57.37a.325.325,0,0,0,.332.325H42.778a.325.325,0,0,0,.332-.325V55.094a.332.332,0,0,0-.332-.332Z" transform="translate(-20.535 -19.519)" fill="#302d3d"/>
      <rect id="Rectángulo_419525" data-name="Rectángulo 419525" width="14.23" height="4.195" rx="1.51" transform="translate(8.983 42.479)" fill="#ffc732"/>
      <path id="Trazado_1044078" data-name="Trazado 1044078" d="M42.778,71.306H30.487A1.607,1.607,0,0,1,28.88,69.7V67.437a1.607,1.607,0,0,1,1.607-1.607H42.778a1.607,1.607,0,0,1,1.607,1.607V69.7A1.607,1.607,0,0,1,42.778,71.306Zm-12.292-4.2a.332.332,0,0,0-.332.332V69.7a.332.332,0,0,0,.332.332H42.778a.332.332,0,0,0,.332-.332V67.437a.332.332,0,0,0-.332-.332Z" transform="translate(-20.535 -23.988)" fill="#302d3d"/>
      <path id="Trazado_1044079" data-name="Trazado 1044079" d="M42.572,70.426H33.8a.7.7,0,0,1,0-1.4h8.773a.7.7,0,0,1,0,1.4Z" transform="translate(-22.088 -25.148)" fill="#fffe82"/>
    </g>
  </g>
</svg>
