<svg xmlns="http://www.w3.org/2000/svg" xmlns:xlink="http://www.w3.org/1999/xlink" width="118" height="118" viewBox="0 0 118 118">
  <defs>
    <filter id="Trazado_982547" x="0" y="0" width="118" height="118" filterUnits="userSpaceOnUse">
      <feOffset dy="3" input="SourceAlpha"/>
      <feGaussianBlur stdDeviation="3" result="blur"/>
      <feFlood flood-opacity="0.161"/>
      <feComposite operator="in" in2="blur"/>
      <feComposite in="SourceGraphic"/>
    </filter>
  </defs>
  <g id="Grupo_1219815" data-name="Grupo 1219815" transform="translate(-741 -1254.743)">
    <g id="Grupo_1202658" data-name="Grupo 1202658" transform="translate(752.5 1263.243)">
      <g id="Grupo_1174813" data-name="Grupo 1174813" transform="translate(-2.5 -2.5)">
        <g id="Grupo_1201680" data-name="Grupo 1201680">
          <g id="Grupo_1201330" data-name="Grupo 1201330">
            <g id="Grupo_1172010" data-name="Grupo 1172010">
              <g id="Grupo_1171046" data-name="Grupo 1171046">
                <g id="Grupo_1148525" data-name="Grupo 1148525">
                  <g transform="matrix(1, 0, 0, 1, -9, -6)" filter="url(#Trazado_982547)">
                    <g id="Trazado_982547-2" data-name="Trazado 982547" transform="translate(9 6)" fill="#f3e6fd">
                      <path d="M 50 98.5 C 43.45188522338867 98.5 37.10042953491211 97.21787261962891 31.12207221984863 94.68923950195312 C 25.34691429138184 92.24655914306641 20.15997123718262 88.74931335449219 15.70532894134521 84.29468536376953 C 11.2506856918335 79.84004211425781 7.753442764282227 74.65309906005859 5.310757160186768 68.8779296875 C 2.782128572463989 62.89957046508789 1.5 56.54811477661133 1.5 50 C 1.5 43.45188522338867 2.782128572463989 37.10042953491211 5.310757160186768 31.12207221984863 C 7.753442764282227 25.34691429138184 11.2506856918335 20.15997123718262 15.70532894134521 15.70532894134521 C 20.15997123718262 11.2506856918335 25.34691429138184 7.753442764282227 31.12207221984863 5.310757160186768 C 37.10042953491211 2.782128572463989 43.45188522338867 1.5 50 1.5 C 56.54811477661133 1.5 62.89957046508789 2.782128572463989 68.8779296875 5.310757160186768 C 74.65309906005859 7.753442764282227 79.84004211425781 11.2506856918335 84.29468536376953 15.70532894134521 C 88.74931335449219 20.15997123718262 92.24655914306641 25.34691429138184 94.68923950195312 31.12207221984863 C 97.21787261962891 37.10042953491211 98.5 43.45188522338867 98.5 50 C 98.5 56.54811477661133 97.21787261962891 62.89957046508789 94.68923950195312 68.8779296875 C 92.24655914306641 74.65309906005859 88.74931335449219 79.84004211425781 84.29468536376953 84.29468536376953 C 79.84004211425781 88.74931335449219 74.65309906005859 92.24655914306641 68.8779296875 94.68923950195312 C 62.89957046508789 97.21787261962891 56.54811477661133 98.5 50 98.5 Z" stroke="none"/>
                      <path d="M 50 3 C 43.65372467041016 3 37.49886322021484 4.242263793945312 31.70639801025391 6.6922607421875 C 26.11003112792969 9.059326171875 21.08335113525391 12.44861602783203 16.76598358154297 16.76598358154297 C 12.44861602783203 21.08335113525391 9.059326171875 26.11003112792969 6.6922607421875 31.70639801025391 C 4.242263793945312 37.49886322021484 3 43.65372467041016 3 50 C 3 56.34627532958984 4.242263793945312 62.50113677978516 6.6922607421875 68.29360198974609 C 9.059326171875 73.88996887207031 12.44861602783203 78.91666412353516 16.76598358154297 83.23401641845703 C 21.08335113525391 87.55138397216797 26.11003112792969 90.940673828125 31.70639801025391 93.3077392578125 C 37.49886322021484 95.75773620605469 43.65372467041016 97 50 97 C 56.34627532958984 97 62.50113677978516 95.75773620605469 68.29360198974609 93.3077392578125 C 73.88996887207031 90.940673828125 78.91666412353516 87.55138397216797 83.23401641845703 83.23401641845703 C 87.55138397216797 78.91666412353516 90.940673828125 73.88996887207031 93.3077392578125 68.29360198974609 C 95.75773620605469 62.50113677978516 97 56.34627532958984 97 50 C 97 43.65372467041016 95.75773620605469 37.49886322021484 93.3077392578125 31.70639801025391 C 90.940673828125 26.11003112792969 87.55138397216797 21.08335113525391 83.23401641845703 16.76598358154297 C 78.91666412353516 12.44861602783203 73.88996887207031 9.059326171875 68.29360198974609 6.6922607421875 C 62.50113677978516 4.242263793945312 56.34627532958984 3 50 3 M 50 0 C 77.61424255371094 0 100 22.38577270507812 100 50 C 100 77.61424255371094 77.61424255371094 100 50 100 C 22.38577270507812 100 0 77.61424255371094 0 50 C 0 22.38577270507812 22.38577270507812 0 50 0 Z" stroke="none" fill="#951bf1"/>
                    </g>
                  </g>
                </g>
              </g>
            </g>
          </g>
        </g>
      </g>
    </g>
    <g id="algoritmo_1_" data-name="algoritmo (1)" transform="translate(768.935 1281.005)">
      <path id="Trazado_1043867" data-name="Trazado 1043867" d="M43.229,76.8v33.7H27.369a1,1,0,0,0-.991.991v6.938H10.518a1.988,1.988,0,0,1-1.982-1.982V76.8Zm0,0" transform="translate(-7.544 -67.88)" fill="#cfd8dc"/>
      <path id="Trazado_1043868" data-name="Trazado 1043868" d="M40.256,76.8v33.7H26.873a.994.994,0,0,0-.991.991v6.938H10.518a1.988,1.988,0,0,1-1.982-1.982V76.8Zm0,0" transform="translate(-7.544 -67.88)" fill="#f5f5f5"/>
      <path id="Trazado_1043869" data-name="Trazado 1043869" d="M43.229,10.518v5.947H8.535V10.518a1.988,1.988,0,0,1,1.982-1.982H41.246a1.988,1.988,0,0,1,1.982,1.982Zm0,0" transform="translate(-7.544 -7.544)" fill="#00695c"/>
      <path id="Trazado_1043870" data-name="Trazado 1043870" d="M40.256,10.518v5.947H8.536V10.518a1.988,1.988,0,0,1,1.982-1.982H38.274a1.988,1.988,0,0,1,1.982,1.982Zm0,0" transform="translate(-7.545 -7.544)" fill="#009688"/>
      <path id="Trazado_1043871" data-name="Trazado 1043871" d="M43.659,110.934h1.982a.991.991,0,0,1,.991.991v9.912H42.668v-9.912a.991.991,0,0,1,.991-.991Zm0,0" transform="translate(-37.712 -98.048)" fill="#02a9f4"/>
      <path id="Trazado_1043872" data-name="Trazado 1043872" d="M111.925,162.133h1.983a.991.991,0,0,1,.991.991v3.965h-3.965v-3.965A.991.991,0,0,1,111.925,162.133Zm0,0" transform="translate(-98.047 -143.299)" fill="#60a917"/>
      <path id="Trazado_1043873" data-name="Trazado 1043873" d="M180.19,128h1.982a.991.991,0,0,1,.991.991v7.93H179.2v-7.93A.991.991,0,0,1,180.19,128Zm0,0" transform="translate(-158.383 -113.131)" fill="#f44335"/>
      <path id="Trazado_1043874" data-name="Trazado 1043874" d="M257.379,169.371l-5.65,6.354a1.8,1.8,0,0,1-2.716,0l-.129-.149-5.521-6.205a1.817,1.817,0,0,1,0-2.419l5.521-6.205.129-.148a1.8,1.8,0,0,1,2.716,0l5.65,6.354a1.818,1.818,0,0,1,0,2.419Zm0,0" transform="translate(-214.685 -141.397)" fill="#f57c00"/>
      <path id="Trazado_1043875" data-name="Trazado 1043875" d="M254.405,175.2l-5.521,6.205-5.521-6.205a1.817,1.817,0,0,1,0-2.419l5.521-6.205,5.521,6.205A1.817,1.817,0,0,1,254.405,175.2Zm0,0" transform="translate(-214.685 -147.222)" fill="#ff9801"/>
      <path id="Trazado_1043876" data-name="Trazado 1043876" d="M163.124,366.934h31.72a.991.991,0,0,1,.991.991V381.8a.991.991,0,0,1-.991.991h-31.72a.991.991,0,0,1-.991-.991V367.925A.991.991,0,0,1,163.124,366.934Zm0,0" transform="translate(-143.299 -324.31)" fill="#0377bc"/>
      <path id="Trazado_1043877" data-name="Trazado 1043877" d="M163.124,366.934h28.746a.991.991,0,0,1,.991.991V381.8a.991.991,0,0,1-.991.991H163.124a.991.991,0,0,1-.991-.991V367.925A.991.991,0,0,1,163.124,366.934Zm0,0" transform="translate(-143.299 -324.31)" fill="#02a9f4"/>
      <path id="Trazado_1043878" data-name="Trazado 1043878" d="M417.531,106.366a3.964,3.964,0,0,1-3.965,3.965,3.728,3.728,0,0,1-1.487-.3,3.953,3.953,0,0,1,0-7.336,3.72,3.72,0,0,1,1.487-.3,3.964,3.964,0,0,1,3.965,3.965Zm0,0" transform="translate(-362.021 -90.506)" fill="#fec108"/>
      <path id="Trazado_1043879" data-name="Trazado 1043879" d="M414.558,108.629c0-2.026-1.109-3.668-2.478-3.668s-2.478,1.642-2.478,3.668,1.109,3.668,2.478,3.668S414.558,110.654,414.558,108.629Zm0,0" transform="translate(-362.021 -92.768)" fill="#ffdc00"/>
      <path id="Trazado_1043880" data-name="Trazado 1043880" d="M239.323,165.005a.99.99,0,0,1-.741-.333l-7.93-8.921a.99.99,0,0,1,0-1.316l7.93-8.921a1.021,1.021,0,0,1,1.481,0l7.93,8.921a.991.991,0,0,1,0,1.316l-7.93,8.921A.989.989,0,0,1,239.323,165.005Zm-6.6-9.912,6.6,7.429,6.6-7.429-6.6-7.43Zm0,0" transform="translate(-203.638 -128.329)"/>
      <path id="Trazado_1043881" data-name="Trazado 1043881" d="M187.3,376.245h-31.72a1.985,1.985,0,0,1-1.982-1.982V360.385a1.985,1.985,0,0,1,1.982-1.983H187.3a1.985,1.985,0,0,1,1.982,1.983v13.877A1.985,1.985,0,0,1,187.3,376.245Zm-31.72-15.86v13.877h31.722l0-13.877Zm0,0" transform="translate(-135.759 -316.769)"/>
      <path id="Trazado_1043882" data-name="Trazado 1043882" d="M204.586,394.518h-15.86a.991.991,0,0,1,0-1.982h15.86a.991.991,0,0,1,0,1.982Zm0,0" transform="translate(-165.927 -346.937)"/>
      <path id="Trazado_1043883" data-name="Trazado 1043883" d="M214.5,428.65H188.726a.991.991,0,0,1,0-1.983H214.5a.991.991,0,1,1,0,1.983Zm0,0" transform="translate(-165.927 -377.105)"/>
      <path id="Trazado_1043884" data-name="Trazado 1043884" d="M197.646,462.783h-8.921a.991.991,0,0,1,0-1.982h8.921a.991.991,0,1,1,0,1.982Zm0,0" transform="translate(-165.926 -407.273)"/>
      <path id="Trazado_1043885" data-name="Trazado 1043885" d="M299.659,307.59a.991.991,0,0,1-.991-.991v-6.939a.991.991,0,0,1,1.982,0V306.6A.991.991,0,0,1,299.659,307.59Zm0,0" transform="translate(-263.974 -263.974)"/>
      <path id="Trazado_1043886" data-name="Trazado 1043886" d="M378.12,247.64h-1.274a.991.991,0,0,1,0-1.982h1.274a.991.991,0,0,1,0,1.982Zm3.881-.4a.991.991,0,0,1-.595-1.785.98.98,0,0,0,.4-.793v-.141a.991.991,0,1,1,1.982,0v.141a2.989,2.989,0,0,1-1.191,2.38A.99.99,0,0,1,382,247.244Zm.793-5.693a.991.991,0,0,1-.991-.991v-1.982a.991.991,0,1,1,1.982,0v1.982a.99.99,0,0,1-.991.991Zm0-5.947a.991.991,0,0,1-.991-.991v-1.983a.991.991,0,0,1,1.982,0v1.983a.99.99,0,0,1-.991.991Zm0-5.947a.992.992,0,0,1-.991-.991v-1.982a.991.991,0,0,1,1.982,0v1.982a.99.99,0,0,1-.991.991Zm-1.033-5.564a.984.984,0,0,1-.473-.121.99.99,0,0,0-.477-.121h-.991a.991.991,0,1,1,0-1.982h.991a2.99,2.99,0,0,1,1.425.363.991.991,0,0,1-.476,1.861Zm-5.906-.242h-1.983a.991.991,0,1,1,0-1.982h1.983a.991.991,0,0,1,0,1.982Zm-5.947,0h-1.983a.991.991,0,0,1,0-1.982h1.983a.991.991,0,0,1,0,1.982Zm0,0" transform="translate(-324.309 -196.094)"/>
      <path id="Trazado_1043887" data-name="Trazado 1043887" d="M406.022,103.779a4.956,4.956,0,1,1,4.956-4.956A4.956,4.956,0,0,1,406.022,103.779Zm0-7.93A2.974,2.974,0,1,0,409,98.823,2.974,2.974,0,0,0,406.022,95.849Zm0,0" transform="translate(-354.477 -82.963)"/>
      <path id="Trazado_1043888" data-name="Trazado 1043888" d="M65.467,201.222a.989.989,0,0,1-.7-.29l-2.683-2.683H43.659a.991.991,0,0,1,0-1.983H62.493a.991.991,0,0,1,.7.291l2.974,2.974a.991.991,0,0,1-.7,1.692Zm0,0" transform="translate(-37.712 -173.467)"/>
      <path id="Trazado_1043889" data-name="Trazado 1043889" d="M36.115,35.124a.991.991,0,1,1-.991-.991A.991.991,0,0,1,36.115,35.124Zm0,0" transform="translate(-30.168 -30.168)"/>
      <path id="Trazado_1043890" data-name="Trazado 1043890" d="M70.248,35.124a.991.991,0,1,1-.991-.991A.991.991,0,0,1,70.248,35.124Zm0,0" transform="translate(-60.336 -30.168)"/>
      <path id="Trazado_1043891" data-name="Trazado 1043891" d="M104.381,35.124a.991.991,0,1,1-.991-.991A.991.991,0,0,1,104.381,35.124Zm0,0" transform="translate(-90.504 -30.168)"/>
      <path id="Trazado_1043892" data-name="Trazado 1043892" d="M39.089,115.289H35.124a.991.991,0,0,1-.991-.991v-9.912a1.985,1.985,0,0,1,1.982-1.982H38.1a1.985,1.985,0,0,1,1.982,1.982V114.3A.991.991,0,0,1,39.089,115.289Zm-2.974-1.983H38.1v-8.921H36.115Zm0,0" transform="translate(-30.168 -90.507)"/>
      <path id="Trazado_1043893" data-name="Trazado 1043893" d="M107.355,160.541H103.39a.991.991,0,0,1-.991-.991v-3.965a1.985,1.985,0,0,1,1.982-1.982h1.983a1.985,1.985,0,0,1,1.982,1.982v3.965A.991.991,0,0,1,107.355,160.541Zm-2.974-1.983h1.983v-2.974h-1.983Zm0,0" transform="translate(-90.503 -135.759)"/>
      <path id="Trazado_1043894" data-name="Trazado 1043894" d="M175.624,130.373h-3.965a.991.991,0,0,1-.991-.991v-7.93a1.985,1.985,0,0,1,1.982-1.982h1.983a1.985,1.985,0,0,1,1.982,1.982v7.93a.991.991,0,0,1-.991.991Zm-2.974-1.983h1.982v-6.939H172.65Zm0,0" transform="translate(-150.843 -105.591)"/>
      <path id="Trazado_1043895" data-name="Trazado 1043895" d="M18.834,51.546H2.974A2.977,2.977,0,0,1,0,48.572V2.974A2.977,2.977,0,0,1,2.974,0H33.7a2.977,2.977,0,0,1,2.974,2.974V17.843a.99.99,0,0,1-.251.658l-7.344,8.263,7.344,8.263a.988.988,0,0,1,.251.658v6.939a.991.991,0,0,1-.991.991H19.826v6.939a.991.991,0,0,1-.991.991ZM2.974,1.982a.992.992,0,0,0-.991.991v45.6a.992.992,0,0,0,.991.991H17.843V43.616a1.985,1.985,0,0,1,1.982-1.982H34.695V36.062l-7.68-8.64a.991.991,0,0,1,0-1.317l7.68-8.64V2.974a.992.992,0,0,0-.991-.991Zm0,0" transform="translate(0)"/>
      <path id="Trazado_1043896" data-name="Trazado 1043896" d="M35.685,9.913H.991A.991.991,0,0,1,0,8.921V2.974A2.977,2.977,0,0,1,2.974,0H33.7a2.977,2.977,0,0,1,2.974,2.974V8.921a.991.991,0,0,1-.991.991ZM1.982,7.93H34.694V2.974a.992.992,0,0,0-.991-.991H2.974a.992.992,0,0,0-.991.991Zm0,0" transform="translate(0 0)"/>
      <path id="Trazado_1043897" data-name="Trazado 1043897" d="M45.037,394.518H35.124a.991.991,0,1,1,0-1.982h9.912a.991.991,0,1,1,0,1.982Zm0,0" transform="translate(-30.168 -346.937)"/>
      <path id="Trazado_1043898" data-name="Trazado 1043898" d="M40.08,360.385H35.124a.991.991,0,1,1,0-1.982H40.08a.991.991,0,1,1,0,1.982Zm0,0" transform="translate(-30.168 -316.769)"/>
      <path id="Trazado_1043899" data-name="Trazado 1043899" d="M49.993,326.249H35.124a.991.991,0,1,1,0-1.983H49.993a.991.991,0,0,1,0,1.983Zm0,0" transform="translate(-30.168 -286.598)"/>
      <path id="Trazado_1043900" data-name="Trazado 1043900" d="M53.958,292.115H35.124a.991.991,0,1,1,0-1.982H53.958a.991.991,0,0,1,0,1.982Zm0,0" transform="translate(-30.168 -256.43)"/>
      <path id="Trazado_1043901" data-name="Trazado 1043901" d="M55.941,257.982H35.124a.991.991,0,1,1,0-1.983H55.941a.991.991,0,0,1,0,1.983Zm0,0" transform="translate(-30.168 -226.262)"/>
      <path id="Trazado_1043902" data-name="Trazado 1043902" d="M436.19,167.089a.991.991,0,0,1-.991-.991v-2.974a.991.991,0,1,1,1.982,0V166.1A.991.991,0,0,1,436.19,167.089Zm0,0" transform="translate(-384.645 -143.299)"/>
    </g>
  </g>
</svg>
