<svg xmlns="http://www.w3.org/2000/svg" xmlns:xlink="http://www.w3.org/1999/xlink" width="118" height="118" viewBox="0 0 118 118">
  <defs>
    <filter id="Trazado_982547" x="0" y="0" width="118" height="118" filterUnits="userSpaceOnUse">
      <feOffset dy="3" input="SourceAlpha"/>
      <feGaussianBlur stdDeviation="3" result="blur"/>
      <feFlood flood-opacity="0.161"/>
      <feComposite operator="in" in2="blur"/>
      <feComposite in="SourceGraphic"/>
    </filter>
  </defs>
  <g id="Grupo_1219816" data-name="Grupo 1219816" transform="translate(-1160.75 -1254.743)">
    <g id="Grupo_1202659" data-name="Grupo 1202659" transform="translate(1172.25 1263.243)">
      <g id="Grupo_1174813" data-name="Grupo 1174813" transform="translate(-2.5 -2.5)">
        <g id="Grupo_1201680" data-name="Grupo 1201680">
          <g id="Grupo_1201330" data-name="Grupo 1201330">
            <g id="Grupo_1172010" data-name="Grupo 1172010">
              <g id="Grupo_1171046" data-name="Grupo 1171046">
                <g id="Grupo_1148525" data-name="Grupo 1148525">
                  <g transform="matrix(1, 0, 0, 1, -9, -6)" filter="url(#Trazado_982547)">
                    <g id="Trazado_982547-2" data-name="Trazado 982547" transform="translate(9 6)" fill="#f3e6fd">
                      <path d="M 50 98.5 C 43.45188522338867 98.5 37.10042953491211 97.21787261962891 31.12207221984863 94.68923950195312 C 25.34691429138184 92.24655914306641 20.15997123718262 88.74931335449219 15.70532894134521 84.29468536376953 C 11.2506856918335 79.84004211425781 7.753442764282227 74.65309906005859 5.310757160186768 68.8779296875 C 2.782128572463989 62.89957046508789 1.5 56.54811477661133 1.5 50 C 1.5 43.45188522338867 2.782128572463989 37.10042953491211 5.310757160186768 31.12207221984863 C 7.753442764282227 25.34691429138184 11.2506856918335 20.15997123718262 15.70532894134521 15.70532894134521 C 20.15997123718262 11.2506856918335 25.34691429138184 7.753442764282227 31.12207221984863 5.310757160186768 C 37.10042953491211 2.782128572463989 43.45188522338867 1.5 50 1.5 C 56.54811477661133 1.5 62.89957046508789 2.782128572463989 68.8779296875 5.310757160186768 C 74.65309906005859 7.753442764282227 79.84004211425781 11.2506856918335 84.29468536376953 15.70532894134521 C 88.74931335449219 20.15997123718262 92.24655914306641 25.34691429138184 94.68923950195312 31.12207221984863 C 97.21787261962891 37.10042953491211 98.5 43.45188522338867 98.5 50 C 98.5 56.54811477661133 97.21787261962891 62.89957046508789 94.68923950195312 68.8779296875 C 92.24655914306641 74.65309906005859 88.74931335449219 79.84004211425781 84.29468536376953 84.29468536376953 C 79.84004211425781 88.74931335449219 74.65309906005859 92.24655914306641 68.8779296875 94.68923950195312 C 62.89957046508789 97.21787261962891 56.54811477661133 98.5 50 98.5 Z" stroke="none"/>
                      <path d="M 50 3 C 43.65372467041016 3 37.49886322021484 4.242263793945312 31.70639801025391 6.6922607421875 C 26.11003112792969 9.059326171875 21.08335113525391 12.44861602783203 16.76598358154297 16.76598358154297 C 12.44861602783203 21.08335113525391 9.059326171875 26.11003112792969 6.6922607421875 31.70639801025391 C 4.242263793945312 37.49886322021484 3 43.65372467041016 3 50 C 3 56.34627532958984 4.242263793945312 62.50113677978516 6.6922607421875 68.29360198974609 C 9.059326171875 73.88996887207031 12.44861602783203 78.91666412353516 16.76598358154297 83.23401641845703 C 21.08335113525391 87.55138397216797 26.11003112792969 90.940673828125 31.70639801025391 93.3077392578125 C 37.49886322021484 95.75773620605469 43.65372467041016 97 50 97 C 56.34627532958984 97 62.50113677978516 95.75773620605469 68.29360198974609 93.3077392578125 C 73.88996887207031 90.940673828125 78.91666412353516 87.55138397216797 83.23401641845703 83.23401641845703 C 87.55138397216797 78.91666412353516 90.940673828125 73.88996887207031 93.3077392578125 68.29360198974609 C 95.75773620605469 62.50113677978516 97 56.34627532958984 97 50 C 97 43.65372467041016 95.75773620605469 37.49886322021484 93.3077392578125 31.70639801025391 C 90.940673828125 26.11003112792969 87.55138397216797 21.08335113525391 83.23401641845703 16.76598358154297 C 78.91666412353516 12.44861602783203 73.88996887207031 9.059326171875 68.29360198974609 6.6922607421875 C 62.50113677978516 4.242263793945312 56.34627532958984 3 50 3 M 50 0 C 77.61424255371094 0 100 22.38577270507812 100 50 C 100 77.61424255371094 77.61424255371094 100 50 100 C 22.38577270507812 100 0 77.61424255371094 0 50 C 0 22.38577270507812 22.38577270507812 0 50 0 Z" stroke="none" fill="#951bf1"/>
                    </g>
                  </g>
                </g>
              </g>
            </g>
          </g>
        </g>
      </g>
    </g>
    <g id="ia-global" transform="translate(1183.338 1271.64)">
      <g id="Grupo_1219574" data-name="Grupo 1219574" transform="translate(2.341 2.421)">
        <g id="Grupo_1219562" data-name="Grupo 1219562" transform="translate(0 0)">
          <g id="Grupo_1219561" data-name="Grupo 1219561">
            <path id="Trazado_1043903" data-name="Trazado 1043903" d="M33.683,65.142A31.368,31.368,0,0,1,12.12,11.018,31.362,31.362,0,1,1,33.683,65.142Zm0-60.606A29.252,29.252,0,0,0,13.577,55.011,29.246,29.246,0,1,0,33.683,4.536Z" transform="translate(-2.341 -2.421)"/>
          </g>
        </g>
        <g id="Grupo_1219567" data-name="Grupo 1219567" transform="translate(9.449 0)">
          <g id="Grupo_1219564" data-name="Grupo 1219564">
            <g id="Grupo_1219563" data-name="Grupo 1219563">
              <path id="Trazado_1043904" data-name="Trazado 1043904" d="M30.934,21.15a31.168,31.168,0,0,1-21.563-8.6,1.058,1.058,0,0,1,0-1.534,31.364,31.364,0,0,1,43.144,0,1.058,1.058,0,0,1,0,1.536,31.268,31.268,0,0,1-21.581,8.6ZM11.666,11.785a29.057,29.057,0,0,0,19.267,7.249,29.154,29.154,0,0,0,19.284-7.249,29.252,29.252,0,0,0-38.551,0Z" transform="translate(-9.042 -2.421)"/>
            </g>
          </g>
          <g id="Grupo_1219566" data-name="Grupo 1219566" transform="translate(0 43.993)">
            <g id="Grupo_1219565" data-name="Grupo 1219565">
              <path id="Trazado_1043905" data-name="Trazado 1043905" d="M30.934,52.344a31.168,31.168,0,0,1-21.563-8.6,1.058,1.058,0,0,1,0-1.534,31.364,31.364,0,0,1,43.144,0,1.058,1.058,0,0,1,0,1.536,31.268,31.268,0,0,1-21.581,8.6ZM11.666,42.98a29.252,29.252,0,0,0,38.551,0,29.252,29.252,0,0,0-38.551,0Z" transform="translate(-9.042 -33.615)"/>
            </g>
          </g>
        </g>
        <g id="Grupo_1219569" data-name="Grupo 1219569" transform="translate(13.035)">
          <g id="Grupo_1219568" data-name="Grupo 1219568">
            <path id="Trazado_1043906" data-name="Trazado 1043906" d="M29.888,65.142c-10.092,0-18.3-14.068-18.3-31.361S19.8,2.421,29.888,2.421,48.2,16.489,48.2,33.782,39.987,65.142,29.888,65.142Zm0-60.606C20.962,4.536,13.7,17.656,13.7,33.782s7.262,29.245,16.188,29.245,16.2-13.119,16.2-29.245S38.82,4.536,29.888,4.536Z" transform="translate(-11.584 -2.421)"/>
          </g>
        </g>
        <g id="Grupo_1219571" data-name="Grupo 1219571" transform="translate(30.287 0.054)">
          <g id="Grupo_1219570" data-name="Grupo 1219570">
            <path id="Trazado_1043907" data-name="Trazado 1043907" d="M24.875,64.96A1.058,1.058,0,0,1,23.817,63.9V3.517a1.058,1.058,0,0,1,2.115,0V63.9A1.058,1.058,0,0,1,24.875,64.96Z" transform="translate(-23.817 -2.459)"/>
          </g>
        </g>
        <g id="Grupo_1219573" data-name="Grupo 1219573" transform="translate(0.094 30.247)">
          <g id="Grupo_1219572" data-name="Grupo 1219572">
            <path id="Trazado_1043908" data-name="Trazado 1043908" d="M63.851,25.984H3.465a1.058,1.058,0,1,1,0-2.115H63.851a1.058,1.058,0,1,1,0,2.115Z" transform="translate(-2.408 -23.868)"/>
          </g>
        </g>
      </g>
      <g id="Grupo_1219577" data-name="Grupo 1219577" transform="translate(38.272 42.357)">
        <g id="Grupo_1219575" data-name="Grupo 1219575" transform="translate(1.057 1.058)">
          <path id="Trazado_1043909" data-name="Trazado 1043909" d="M36.849,32.121l-7.74,8.255a2,2,0,0,0-.541,1.368V55.353a2,2,0,0,0,2,2h26.1a2,2,0,0,0,2-2V33.489a2,2,0,0,0-2-2H38.308A2,2,0,0,0,36.849,32.121Z" transform="translate(-28.569 -31.489)" fill="#ffd364"/>
        </g>
        <g id="Grupo_1219576" data-name="Grupo 1219576">
          <path id="Trazado_1043910" data-name="Trazado 1043910" d="M56.972,58.719h-26.1a3.061,3.061,0,0,1-3.057-3.058V42.052a3.046,3.046,0,0,1,.826-2.091l7.74-8.256a3.07,3.07,0,0,1,2.231-.966H56.972A3.061,3.061,0,0,1,60.029,33.8V55.661a3.061,3.061,0,0,1-3.057,3.058ZM37.928,33.152l-7.74,8.255a.943.943,0,0,0-.253.645V55.661a.944.944,0,0,0,.942.943h26.1a.944.944,0,0,0,.942-.943V33.8a.944.944,0,0,0-.942-.943H38.616a.949.949,0,0,0-.689.3Z" transform="translate(-27.819 -30.739)"/>
        </g>
      </g>
      <g id="Grupo_1219588" data-name="Grupo 1219588" transform="translate(46.297 50.112)">
        <g id="Grupo_1219579" data-name="Grupo 1219579">
          <g id="Grupo_1219578" data-name="Grupo 1219578">
            <path id="Trazado_1043911" data-name="Trazado 1043911" d="M41.017,48.708a1.058,1.058,0,0,1-1.058-1.058V40.509A2.1,2.1,0,0,0,39.331,39a2.167,2.167,0,0,0-3.706,1.514V47.65a1.058,1.058,0,1,1-2.115,0V40.509a4.282,4.282,0,0,1,7.31-3.016,4.186,4.186,0,0,1,1.255,3.016V47.65a1.058,1.058,0,0,1-1.058,1.058Z" transform="translate(-33.509 -36.238)"/>
          </g>
        </g>
        <g id="Grupo_1219581" data-name="Grupo 1219581" transform="translate(13.925 0.672)">
          <g id="Grupo_1219580" data-name="Grupo 1219580">
            <path id="Trazado_1043912" data-name="Trazado 1043912" d="M44.441,48.147a1.058,1.058,0,0,1-1.058-1.058V37.772a1.058,1.058,0,1,1,2.115,0v9.317A1.058,1.058,0,0,1,44.441,48.147Z" transform="translate(-43.383 -36.714)"/>
          </g>
        </g>
        <g id="Grupo_1219583" data-name="Grupo 1219583" transform="translate(11.994 0.672)">
          <g id="Grupo_1219582" data-name="Grupo 1219582">
            <path id="Trazado_1043913" data-name="Trazado 1043913" d="M46.934,38.83H43.072a1.058,1.058,0,1,1,0-2.115h3.862a1.058,1.058,0,1,1,0,2.115Z" transform="translate(-42.014 -36.714)"/>
          </g>
        </g>
        <g id="Grupo_1219585" data-name="Grupo 1219585" transform="translate(11.994 9.989)">
          <g id="Grupo_1219584" data-name="Grupo 1219584">
            <path id="Trazado_1043914" data-name="Trazado 1043914" d="M46.934,45.436H43.072a1.058,1.058,0,1,1,0-2.115h3.862a1.058,1.058,0,1,1,0,2.115Z" transform="translate(-42.014 -43.321)"/>
          </g>
        </g>
        <g id="Grupo_1219587" data-name="Grupo 1219587" transform="translate(0 5.772)">
          <g id="Grupo_1219586" data-name="Grupo 1219586">
            <path id="Trazado_1043915" data-name="Trazado 1043915" d="M41.017,42.446h-6.45a1.058,1.058,0,0,1,0-2.115h6.45a1.058,1.058,0,1,1,0,2.115Z" transform="translate(-33.509 -40.331)"/>
          </g>
        </g>
      </g>
      <g id="Grupo_1219591" data-name="Grupo 1219591" transform="translate(45.731 20.356)">
        <g id="Grupo_1219589" data-name="Grupo 1219589" transform="translate(1.058 1.058)">
          <path id="Trazado_1043916" data-name="Trazado 1043916" d="M41.445,19.7a3.794,3.794,0,1,1-3.794-3.808A3.795,3.795,0,0,1,41.445,19.7Z" transform="translate(-33.858 -15.889)" fill="#ff6f5c"/>
        </g>
        <g id="Grupo_1219590" data-name="Grupo 1219590">
          <path id="Trazado_1043917" data-name="Trazado 1043917" d="M37.959,24.856A4.859,4.859,0,1,1,42.81,20,4.856,4.856,0,0,1,37.959,24.856Zm0-7.6A2.743,2.743,0,1,0,40.7,20,2.746,2.746,0,0,0,37.959,17.254Z" transform="translate(-33.108 -15.139)"/>
        </g>
      </g>
      <g id="Grupo_1219594" data-name="Grupo 1219594" transform="translate(12.27 36.564)">
        <g id="Grupo_1219592" data-name="Grupo 1219592" transform="translate(1.058 1.058)">
          <path id="Trazado_1043918" data-name="Trazado 1043918" d="M17.719,31.189a3.794,3.794,0,1,1-3.794-3.808,3.795,3.795,0,0,1,3.794,3.808Z" transform="translate(-10.132 -27.381)" fill="#9fd25a"/>
        </g>
        <g id="Grupo_1219593" data-name="Grupo 1219593">
          <path id="Trazado_1043919" data-name="Trazado 1043919" d="M14.233,36.348A4.859,4.859,0,1,1,19.084,31.5a4.857,4.857,0,0,1-4.851,4.851Zm0-7.6a2.743,2.743,0,1,0,2.735,2.75,2.746,2.746,0,0,0-2.735-2.75Z" transform="translate(-9.381 -26.631)"/>
        </g>
      </g>
    </g>
  </g>
</svg>
