<svg xmlns="http://www.w3.org/2000/svg" xmlns:xlink="http://www.w3.org/1999/xlink" width="400" height="285" viewBox="0 0 400 285">
  <defs>
    <clipPath id="clip-path">
      <rect id="Rectángulo_419558" data-name="Rectángulo 419558" width="400" height="285" transform="translate(180 2588)" fill="#fff" stroke="#707070" stroke-width="1"/>
    </clipPath>
  </defs>
  <g id="Enmascarar_grupo_1098815" data-name="Enmascarar grupo 1098815" transform="translate(-180 -2588)" clip-path="url(#clip-path)">
    <g id="Grupo_1219770" data-name="Grupo 1219770">
      <rect id="Rectángulo_419559" data-name="Rectángulo 419559" width="177" height="265" rx="12" transform="translate(265 2619)" fill="#1bf5f5"/>
      <g id="Grupo_1219769" data-name="Grupo 1219769" transform="translate(-8528 -953.915)">
        <g id="Grupo_1219768" data-name="Grupo 1219768" transform="translate(8801 3559.126)">
          <g id="Grupo_1219751" data-name="Grupo 1219751" transform="translate(125.802 65.164)">
            <path id="Trazado_1044653" data-name="Trazado 1044653" d="M1218.21,945.963c-.107.366-.213.732-.335,1.1-.091.289-.183.564-.29.853a41.672,41.672,0,0,1-10.3,16.414,33.809,33.809,0,0,1-7.544,5.563c-.335.183-.671.35-1.006.518a29.558,29.558,0,0,1-9.6,2.865,28.694,28.694,0,0,1-3.414.2,34.161,34.161,0,0,1-4.389-.32c-.381-.061-.762-.122-1.143-.2a36.182,36.182,0,0,1-14.052-6.188c-.122-.076-.229-.168-.35-.244l-.64-.457a55.38,55.38,0,0,1-7.3-6.523c-.274-.3-.564-.594-.838-.9a75.776,75.776,0,0,1-5.974-7.468c-.259-.366-.518-.747-.792-1.128v-.015c-1.357-1.981-2.682-4.024-3.963-5.99l-1.509-2.332c-.244-.381-.5-.762-.747-1.143-4.77-7.224-9.586-13.716-16.216-17.084a7.951,7.951,0,1,1,7.209-14.173c7.453,3.795,13,9.647,17.664,15.9.244.32.472.64.716.96,1.783,2.454,3.444,4.953,5.044,7.376l.686,1.052.5.777c1.28,1.981,2.5,3.856,3.749,5.685.518.762,1.051,1.493,1.585,2.21.244.336.488.656.747.976a55.925,55.925,0,0,0,5.06,5.73c.289.29.579.564.884.838a32.686,32.686,0,0,0,3.414,2.789,23.425,23.425,0,0,0,5.868,3.124c.366.122.731.244,1.1.335a14.1,14.1,0,0,0,5.3.442,13.861,13.861,0,0,0,5.989-2.21c.335-.213.671-.442.991-.686a25.064,25.064,0,0,0,8.077-11.293c.061-.168.122-.335.183-.518s.122-.381.183-.564c2.728-8.443,2.271-18.106,1.844-27.478l-.092-2.012-.046-1.143-.518-11.339-.046-1.143-.549-11.9-.061-1.143-.152-3.216-.838-18.106V864h15.9l.884,19.035.213,4.557.046,1.143.412,8.794.046,1.143.534,11.491.046,1.143.122,2.7c.457,9.952.975,21.138-2.24,31.974Z" transform="translate(-1123.454 -852.219)" fill="#fc008e"/>
            <path id="Trazado_1044654" data-name="Trazado 1044654" d="M1267.673,1266.36a77.448,77.448,0,0,0-8.626,15.545c-.244-.381-.5-.762-.747-1.143a78.534,78.534,0,0,1,8.672-15.362c.244.32.472.64.716.96Z" transform="translate(-1237.749 -1192.444)" fill="#333"/>
            <path id="Trazado_1044655" data-name="Trazado 1044655" d="M1308.07,1321.152a94.746,94.746,0,0,0-8.077,16.581c-.259-.366-.518-.747-.792-1.128a95.627,95.627,0,0,1,8.184-16.505Z" transform="translate(-1272.416 -1238.808)" fill="#333"/>
            <path id="Trazado_1044656" data-name="Trazado 1044656" d="M1352.287,1384.975a155.738,155.738,0,0,0-7.849,15.3c-.274-.3-.564-.594-.838-.9a155.9,155.9,0,0,1,7.94-15.378C1351.784,1384.335,1352.028,1384.655,1352.287,1384.975Z" transform="translate(-1310.049 -1292.969)" fill="#333"/>
            <path id="Trazado_1044657" data-name="Trazado 1044657" d="M1402.609,1427.9c.29.29.579.564.884.838a123.534,123.534,0,0,0-5.5,15.972c-.122-.076-.229-.168-.351-.244l-.64-.457a122.645,122.645,0,0,1,5.608-16.094Z" transform="translate(-1355.311 -1330.179)" fill="#333"/>
            <path id="Trazado_1044658" data-name="Trazado 1044658" d="M1497.186,1472.451a103.32,103.32,0,0,0-.67,16.109c-.381-.061-.762-.122-1.143-.2a105.38,105.38,0,0,1,.716-16.262c.366.122.732.244,1.1.335Z" transform="translate(-1438.641 -1367.643)" fill="#333"/>
            <path id="Trazado_1044659" data-name="Trazado 1044659" d="M1588.247,1473.532c-.335.183-.671.351-1.006.518a137.179,137.179,0,0,1-5.441-15.164c.335-.214.671-.442.991-.686a132.593,132.593,0,0,0,5.471,15.316Z" transform="translate(-1511.947 -1355.862)" fill="#333"/>
            <path id="Trazado_1044660" data-name="Trazado 1044660" d="M1641.566,1377.1c5.121,1.4,10.3,2.652,15.484,3.764-.107.366-.214.732-.335,1.1-5.2-1.113-10.394-2.377-15.515-3.78.061-.168.122-.335.183-.518S1641.5,1377.283,1641.566,1377.1Z" transform="translate(-1562.294 -1287.121)" fill="#333"/>
            <path id="Trazado_1044661" data-name="Trazado 1044661" d="M1670.565,1166.8l.046,1.143-15.85,1.417-.061-1.128Z" transform="translate(-1573.737 -1108.872)" fill="#333"/>
            <path id="Trazado_1044662" data-name="Trazado 1044662" d="M1663.048,1011.367l-16-1.524L1647,1008.7l16,1.524Z" transform="translate(-1567.21 -974.867)" fill="#333"/>
            <path id="Trazado_1044663" data-name="Trazado 1044663" d="M1666.9,1085.043a149.186,149.186,0,0,0-15.85,1.585l-.046-1.143a153.34,153.34,0,0,1,15.85-1.585Z" transform="translate(-1570.601 -1038.606)" fill="#333"/>
            <rect id="Rectángulo_419545" data-name="Rectángulo 419545" width="7.011" height="15.423" rx="3.505" transform="translate(74.974)" fill="#feb1dc"/>
          </g>
          <g id="Grupo_1219754" data-name="Grupo 1219754" transform="translate(36.364 95.538)">
            <path id="Trazado_1044664" data-name="Trazado 1044664" d="M735.118,1498.534c-9.921,11.781-78.091,14.25-86.763,4.023s24.476-26.96,24.476-26.96l38.116-9.3,24.8,26.335-.625,5.883Z" transform="translate(-630.097 -1393.101)" fill="#ff9e99"/>
            <path id="Trazado_1044665" data-name="Trazado 1044665" d="M822.046,1685.5l-.244,33.7H807.4v-34.6h11.857Z" transform="translate(-766.13 -1578.131)" fill="#89004d"/>
            <path id="Trazado_1044666" data-name="Trazado 1044666" d="M989.517,1637.1v41.835H975.1v-34.6h11.857Z" transform="translate(-908.272 -1537.87)" fill="#89004d"/>
            <path id="Trazado_1044667" data-name="Trazado 1044667" d="M832.189,1078.367c-9.525-2.7-17.42-3.8-22.952-3.551-5.547.244-15.637,2.957-15.637,2.957s1.844,6.157,2.591,7.026c.732.868,23.15,11.948,23.15,11.948l11.08-7.757,1.768-10.607Z" transform="translate(-754.433 -1061.252)" fill="#ff9e99"/>
            <ellipse id="Elipse_12565" data-name="Elipse 12565" cx="39.503" cy="30.907" rx="39.503" ry="30.907" transform="translate(19.202 50.202)" fill="#303030"/>
            <path id="Trazado_1044668" data-name="Trazado 1044668" d="M888.152,988.088l.93,26.488-20.224-1.158L868.4,986Z" transform="translate(-817.833 -986)" fill="#303030"/>
            <path id="Trazado_1044669" data-name="Trazado 1044669" d="M799.8,1094.187s10.684-5.105,21.154-4.648c10.455.472,20.224,6.965,20.224,6.965l-8.824,7.437-20.681.229-11.857-10Z" transform="translate(-759.688 -1073.735)" fill="#303030"/>
            <path id="Trazado_1044670" data-name="Trazado 1044670" d="M661.737,1648.511h.366c9.952-.32,25.649-25.7,26.32-26.777a.48.48,0,0,0-.168-.671.468.468,0,0,0-.671.168c-.168.259-16.094,26-25.512,26.305h-.335c-9.175,0-14.341-12.1-14.951-20.407a.517.517,0,0,0-.533-.457.506.506,0,0,0-.457.533c.64,8.687,6.142,21.321,15.941,21.321Z" transform="translate(-629.154 -1524.211)" fill="#bdc967"/>
            <path id="Trazado_1044671" data-name="Trazado 1044671" d="M685.995,1675.287a7.607,7.607,0,0,0,1.829-.229c9.266-2.24,14.935-13.061,15.179-13.518l-.884-.457c-.061.107-5.7,10.881-14.524,13.015a6.146,6.146,0,0,1-4.953-.808c-4.862-3.109-6.752-12.3-6.767-12.391l-.975.2c.076.4,2,9.693,7.209,13.031a7.118,7.118,0,0,0,3.886,1.173Z" transform="translate(-653.823 -1558.043)" fill="#ff65a1"/>
            <path id="Trazado_1044672" data-name="Trazado 1044672" d="M545.168,1102.381a309.241,309.241,0,0,1,32-10.181s8.672,10.851,26.03,9.3c7.742-.686,11.156-8.367,11.156-8.367s9.541,1.783,26.747,7.209a15.123,15.123,0,0,1,10.562,13.96c.5,17.435.549,51.344-6,63.125-8.992,16.109-24.171-9.922-36.562-7.437s-29.749,18.288-54.225,15.5c0,0-7.742-1.554-8.992-21.077-.808-12.832-5.654-33.574-8.87-46.27a13.355,13.355,0,0,1,8.154-15.743Z" transform="translate(-536.603 -1076.015)" fill="#feb1dc"/>
            <g id="Grupo_1219753" data-name="Grupo 1219753" transform="translate(46.099 28.572)">
              <circle id="Elipse_12566" data-name="Elipse 12566" cx="15.85" cy="15.85" r="15.85" transform="translate(0 22.415) rotate(-45)" fill="#fff"/>
              <g id="Grupo_1219752" data-name="Grupo 1219752" transform="translate(5.198 5.205)">
                <circle id="Elipse_12567" data-name="Elipse 12567" cx="11.994" cy="11.994" r="11.994" transform="translate(0 16.962) rotate(-45)" fill="#fab8e3"/>
                <path id="Trazado_1044673" data-name="Trazado 1044673" d="M911.646,1259.152a13.076,13.076,0,1,1,13.107-13.046A13.093,13.093,0,0,1,911.646,1259.152Zm.061-23.988a10.92,10.92,0,1,0,10.9,10.943A10.943,10.943,0,0,0,911.707,1235.164Z" transform="translate(-894.727 -1229.133)" fill="#ff65a1"/>
              </g>
              <path id="Trazado_1044674" data-name="Trazado 1044674" d="M939.878,1282.831a8.217,8.217,0,0,1-.869-.046.276.276,0,1,1,.061-.549,6.752,6.752,0,0,0,1.57,0,.276.276,0,0,1,.061.549A7.44,7.44,0,0,1,939.878,1282.831Zm2.393-.381a.264.264,0,0,1-.076-.518,8.171,8.171,0,0,0,1.448-.64.27.27,0,0,1,.259.473,8.2,8.2,0,0,1-1.539.686h-.091Zm-4.831-.016h-.091a9.258,9.258,0,0,1-1.539-.686.267.267,0,0,1,.274-.457,7.478,7.478,0,0,0,1.433.64.278.278,0,0,1,.168.351.249.249,0,0,1-.259.183Zm7.651-1.6a.245.245,0,0,1-.2-.091.267.267,0,0,1,.015-.381,6.982,6.982,0,0,0,1.051-1.173.273.273,0,0,1,.442.32,8.8,8.8,0,0,1-1.128,1.25.28.28,0,0,1-.183.076Zm-10.455-.03a.282.282,0,0,1-.183-.076,8.92,8.92,0,0,1-1.128-1.265.273.273,0,0,1,.442-.32,7.716,7.716,0,0,0,1.052,1.173.274.274,0,0,1-.183.473Zm12.375-2.591a.146.146,0,0,1-.107-.03.28.28,0,0,1-.137-.366,7.123,7.123,0,0,0,.488-1.494.266.266,0,0,1,.32-.214.273.273,0,0,1,.213.32,7.306,7.306,0,0,1-.533,1.6.277.277,0,0,1-.244.168Zm-14.28-.046a.261.261,0,0,1-.244-.168,8.32,8.32,0,0,1-.518-1.616.272.272,0,0,1,.533-.107,7.142,7.142,0,0,0,.488,1.494.279.279,0,0,1-.137.366.287.287,0,0,1-.107.031Zm14.966-3.139a.261.261,0,0,1-.274-.259v-.031a7.733,7.733,0,0,0-.168-1.57.272.272,0,0,1,.533-.107,7.721,7.721,0,0,1,.168,1.677c0,.564-.122.29-.274.29ZM932.074,1275h0a.273.273,0,0,1-.274-.274,7.736,7.736,0,0,1,.183-1.676.272.272,0,1,1,.533.107,7.731,7.731,0,0,0-.168,1.57A.273.273,0,0,1,932.074,1275Zm14.951-3.155a.261.261,0,0,1-.244-.168,7.293,7.293,0,0,0-.792-1.371.273.273,0,1,1,.442-.32,6.993,6.993,0,0,1,.838,1.463.28.28,0,0,1-.137.366A.283.283,0,0,1,947.025,1271.843Zm-14.28-.015a.145.145,0,0,1-.107-.031.279.279,0,0,1-.137-.366,7.813,7.813,0,0,1,.854-1.463.273.273,0,0,1,.442.32,8.086,8.086,0,0,0-.793,1.356.277.277,0,0,1-.244.168Zm12.375-2.621a.282.282,0,0,1-.183-.076,7.6,7.6,0,0,0-1.28-.93.267.267,0,0,1,.274-.457,9.8,9.8,0,0,1,1.372.991.274.274,0,0,1-.183.473Zm-10.455-.015a.246.246,0,0,1-.2-.091.267.267,0,0,1,.015-.381,7.841,7.841,0,0,1,1.372-.991.263.263,0,0,1,.366.107.26.26,0,0,1-.107.366,7.611,7.611,0,0,0-1.28.93.282.282,0,0,1-.183.076Zm7.635-1.616h-.091a7.76,7.76,0,0,0-1.539-.335.276.276,0,1,1,.061-.548,8.56,8.56,0,0,1,1.646.35.266.266,0,0,1,.168.351.249.249,0,0,1-.259.183Zm-4.831,0a.266.266,0,0,1-.259-.183.286.286,0,0,1,.183-.351,8.711,8.711,0,0,1,1.661-.35.276.276,0,1,1,.061.548,8.655,8.655,0,0,0-1.539.32h-.091Z" transform="translate(-917.67 -1252.485)" fill="#303030"/>
            </g>
            <rect id="Rectángulo_419546" data-name="Rectángulo 419546" width="27.265" height="9.388" rx="4.694" transform="translate(19.37 84.325)" fill="#303030"/>
            <path id="Trazado_1044675" data-name="Trazado 1044675" d="M801.7,1556.888a2.088,2.088,0,1,1,2.088,2.088A2.091,2.091,0,0,1,801.7,1556.888Zm.975,0a1.113,1.113,0,1,0,1.113-1.113A1.119,1.119,0,0,0,802.675,1556.888Z" transform="translate(-761.299 -1468.113)" fill="#bdc967"/>
            <path id="Trazado_1044676" data-name="Trazado 1044676" d="M757.6,1556.888a2.088,2.088,0,1,1,2.088,2.088A2.091,2.091,0,0,1,757.6,1556.888Zm.99,0a1.113,1.113,0,1,0,1.113-1.113A1.119,1.119,0,0,0,758.591,1556.888Z" transform="translate(-723.919 -1468.113)" fill="#6662fa"/>
            <path id="Trazado_1044677" data-name="Trazado 1044677" d="M714.8,1556.888a2.088,2.088,0,1,1,2.088,2.088A2.091,2.091,0,0,1,714.8,1556.888Zm.975,0a1.113,1.113,0,1,0,1.112-1.113A1.119,1.119,0,0,0,715.776,1556.888Z" transform="translate(-687.642 -1468.113)" fill="#ff65a1"/>
          </g>
          <path id="Trazado_1044678" data-name="Trazado 1044678" d="M603.73,640.346a.62.62,0,0,1-.61-.488l-5.41-22.586a.634.634,0,1,1,1.234-.29l5.41,22.586a.63.63,0,0,1-.472.762C603.836,640.33,603.775,640.346,603.73,640.346Z" transform="translate(-552.019 -577.27)" fill="#6662fa"/>
          <path id="Trazado_1044679" data-name="Trazado 1044679" d="M1085.03,590.246a.62.62,0,0,1-.61-.488l-5.41-22.586a.634.634,0,1,1,1.234-.29l5.41,22.586a.63.63,0,0,1-.472.762C1085.136,590.23,1085.075,590.246,1085.03,590.246Z" transform="translate(-959.968 -534.805)" fill="#6662fa"/>
          <path id="Trazado_1044680" data-name="Trazado 1044680" d="M710.557,605.071a42.879,42.879,0,0,0-85.757,0c0,23.668,20.224,39.061,43.907,39.061S710.557,628.755,710.557,605.071Z" transform="translate(-574.995 -531.251)" fill="#feb1dc"/>
          <path id="Trazado_1044681" data-name="Trazado 1044681" d="M597.3,761.859l-3.292.351c-2.317.259-3.551,6.553-2.728,14.052.808,7.513,3.353,13.4,5.685,13.152l3.292-.351c2.317-.259,3.551-6.553,2.728-14.052C602.177,767.5,599.632,761.616,597.3,761.859Z" transform="translate(-546.367 -700.475)" fill="#ff9e99"/>
          <path id="Trazado_1044682" data-name="Trazado 1044682" d="M612.434,790.389a.164.164,0,0,1-.122-.03.244.244,0,0,1-.076-.32c.015-.031,1.844-3.14.762-13.854-1.082-10.729-4.146-12.528-4.176-12.543a.235.235,0,0,1,.229-.411c.137.076,3.307,1.936,4.42,12.909,1.112,10.927-.747,14.021-.838,14.158a.222.222,0,0,1-.2.107Z" transform="translate(-561.348 -701.618)" fill="#333"/>
          <path id="Trazado_1044683" data-name="Trazado 1044683" d="M755.717,973.11a.216.216,0,0,1-.213-.137.253.253,0,0,1,.122-.32,19.738,19.738,0,0,0,9.48-9.22,22.9,22.9,0,0,0,2.073-5.944.239.239,0,1,1,.472.076,22.2,22.2,0,0,1-2.1,6.081,20.137,20.137,0,0,1-9.708,9.449c-.03,0-.061.015-.091.015Z" transform="translate(-685.764 -866.127)" fill="#333"/>
          <g id="Grupo_1219755" data-name="Grupo 1219755" transform="translate(59.731 41.8)">
            <ellipse id="Elipse_12568" data-name="Elipse 12568" cx="35.007" cy="25.939" rx="35.007" ry="25.939" transform="translate(0 6.832) rotate(-5.6)" fill="#333"/>
            <path id="Trazado_1044684" data-name="Trazado 1044684" d="M803.475,796.7a2.942,2.942,0,0,1-2.865-2.3l-2.3-10.287a2.933,2.933,0,0,1,2.225-3.505l1.737-.4h0a2.961,2.961,0,0,1,3.505,2.225l2.3,10.287a2.961,2.961,0,0,1-2.225,3.505l-1.737.4A3.051,3.051,0,0,1,803.475,796.7Zm-.564-15.881a1.891,1.891,0,0,0-.5.061h0l-1.737.4a2.287,2.287,0,0,0-1.722,2.728l2.3,10.287a2.287,2.287,0,0,0,2.728,1.722l1.737-.4a2.232,2.232,0,0,0,1.417-1.006,2.286,2.286,0,0,0,.3-1.722l-2.3-10.287a2.233,2.233,0,0,0-1.006-1.417,2.312,2.312,0,0,0-1.219-.351Zm-.564-.274Z" transform="translate(-781.731 -757.779)" fill="#fff"/>
            <path id="Trazado_1044685" data-name="Trazado 1044685" d="M1031.675,750.8a2.942,2.942,0,0,1-2.865-2.3l-2.3-10.287a2.934,2.934,0,0,1,2.225-3.505l1.738-.4h0a2.961,2.961,0,0,1,3.505,2.225l2.3,10.287a2.933,2.933,0,0,1-2.225,3.505l-1.738.4A3.056,3.056,0,0,1,1031.675,750.8Zm-1.052-15.835-1.738.4a2.287,2.287,0,0,0-1.722,2.728l2.3,10.287a2.287,2.287,0,0,0,2.728,1.722l1.738-.4a2.287,2.287,0,0,0,1.722-2.728l-2.3-10.287a2.233,2.233,0,0,0-1.006-1.417,2.286,2.286,0,0,0-1.722-.3Z" transform="translate(-975.153 -718.875)" fill="#fff"/>
            <path id="Trazado_1044686" data-name="Trazado 1044686" d="M920.555,839.661a9.312,9.312,0,0,1-4.282-1.113.331.331,0,0,1,.29-.594,7.535,7.535,0,0,0,7.132.274,7.349,7.349,0,0,0,2.5-2.1.321.321,0,0,1,.457-.076.339.339,0,0,1,.091.457,8.183,8.183,0,0,1-2.713,2.3A7.423,7.423,0,0,1,920.555,839.661Z" transform="translate(-881.62 -805.11)" fill="#fff"/>
          </g>
          <path id="Trazado_1044687" data-name="Trazado 1044687" d="M1110.347,930.351h-.061c-2.743-.808-7.559-6.828-7.757-7.087a.238.238,0,1,1,.366-.3c.046.061,4.923,6.157,7.513,6.919a.243.243,0,0,1,.168.289.229.229,0,0,1-.229.168Z" transform="translate(-979.875 -836.962)" fill="#333"/>
          <ellipse id="Elipse_12569" data-name="Elipse 12569" cx="10.028" cy="9.312" rx="10.028" ry="9.312" transform="translate(80.918 39.604) rotate(-13)" fill="#feb1dc"/>
          <path id="Trazado_1044688" data-name="Trazado 1044688" d="M1631.1,863.9v8.245a11.636,11.636,0,0,1-11.628,11.644h-6.843A11.622,11.622,0,0,1,1601,872.16v-8.245h30.1Z" transform="translate(-1402.419 -786.971)" fill="#ff9e99"/>
          <path id="Trazado_1044689" data-name="Trazado 1044689" d="M586.269,1224.441c-1.387,2.088-4.557,3.155-6.508,1.57a6.978,6.978,0,0,1-1.89-3.246c-.015-.061-.046-.107-.061-.168-1.844-5.014-4.724-10.1-5.928-15.3,0-.046-.031-.107-.031-.152-.975-4.344-.29-14.143,6.965-10.912,1.89.838,3.048,2.667,3.947,4.572.183.4.366.808.533,1.2a55.284,55.284,0,0,1,4.084,14.2c.046.3.076.625.107.929.259,2.5.2,5.2-1.189,7.285Z" transform="translate(-529.819 -1068.11)" fill="#333"/>
          <g id="Grupo_1219757" data-name="Grupo 1219757" transform="translate(4.74 19.717)">
            <circle id="Elipse_12570" data-name="Elipse 12570" cx="18.395" cy="18.395" r="18.395" fill="#951bf1"/>
            <g id="Grupo_1219756" data-name="Grupo 1219756" transform="translate(4.099 1.034)">
              <path id="Trazado_1044690" data-name="Trazado 1044690" d="M369.78,522.818a4.5,4.5,0,0,1-3.277-1.4l-7.833-8.169a4.538,4.538,0,1,1,6.553-6.279l4.8,5.014,15.8-14.113a4.544,4.544,0,0,1,6.05,6.782L372.8,521.69a4.519,4.519,0,0,1-3.018,1.158Z" transform="translate(-357.191 -496.496)" fill="#fff"/>
              <path id="Trazado_1044691" data-name="Trazado 1044691" d="M368.586,521.821a4.689,4.689,0,0,1-3.429-1.463l-7.834-8.169a4.753,4.753,0,0,1,6.858-6.584l4.664,4.862L384.5,496.491a4.749,4.749,0,1,1,6.325,7.087l-19.081,17.039a4.747,4.747,0,0,1-3.17,1.2Zm-7.834-17.252a4.306,4.306,0,0,0-3,1.2,4.342,4.342,0,0,0-.122,6.127l7.834,8.169a4.324,4.324,0,0,0,3.124,1.341,4.124,4.124,0,0,0,2.88-1.1l19.081-17.039a4.328,4.328,0,1,0-5.761-6.462l-15.8,14.112a.212.212,0,0,1-.29,0l-4.8-5.014a4.315,4.315,0,0,0-3.124-1.326Z" transform="translate(-355.998 -495.285)" fill="#333"/>
            </g>
          </g>
          <path id="Trazado_1044692" data-name="Trazado 1044692" d="M505.023,1327.465l-.259,2.347-7.651-.838v5.578l-45.584.183h-1.143l-15.8.076h-1.158l-8.794.046h-4.389c-2.682,0-5.38-.015-8.093-.091-.381,0-.762-.015-1.143-.03a123.256,123.256,0,0,1-13.716-1.143c-.594-.091-1.2-.183-1.844-.29-.366-.061-.732-.122-1.113-.2-5.2-.96-11.7-2.8-17.252-7.011a26.157,26.157,0,0,1-2.438-2.073c-.274-.259-.549-.533-.808-.792a34.02,34.02,0,0,1-6.858-10.3c-.152-.351-.3-.716-.442-1.082a40.453,40.453,0,0,1-2.682-11.415c-.061-.762-.122-1.539-.152-2.3-.015-.4-.03-.793-.03-1.189a59.825,59.825,0,0,1,1.052-11.674l.229-1.143a97.715,97.715,0,0,1,2.484-9.495c.229-.747.488-1.493.762-2.271.122-.35.259-.716.411-1.082a73.528,73.528,0,0,1,6.05-11.872c.2-.32.411-.64.61-.975a93.184,93.184,0,0,1,8.047-10.76c.244-.274.488-.564.732-.838,1.661-1.859,3.4-3.673,5.227-5.395.274-.259.564-.518.838-.792,1.8-1.646,3.673-3.2,5.593-4.648.427-.32.853-.64,1.3-.945.3-.229.625-.442.945-.655a54.767,54.767,0,0,1,8.641-4.892c.183.4.366.808.533,1.2a55.286,55.286,0,0,1,4.084,14.2,41.118,41.118,0,0,0-8.55,5.547c-.335.274-.671.549-.991.838a1.321,1.321,0,0,0-.213.2c-.655.579-1.311,1.174-1.951,1.783-.29.29-.594.579-.884.869a71.121,71.121,0,0,0-5.334,6c-.29.366-.564.732-.838,1.082a70.762,70.762,0,0,0-4.877,7.3c-.213.366-.427.747-.64,1.112a57.7,57.7,0,0,0-3.368,7.072c-.137.366-.274.716-.4,1.067-.183.518-.35,1.021-.5,1.524-.838,2.713-1.494,5.2-1.981,7.5-.076.381-.152.747-.229,1.113a43.894,43.894,0,0,0-.853,8.062c0,.381,0,.762.015,1.143.015.625.061,1.25.107,1.859a24.829,24.829,0,0,0,1.28,6.035c.122.366.259.716.4,1.067a18.867,18.867,0,0,0,3.46,5.593,10.107,10.107,0,0,0,.808.808,11.858,11.858,0,0,0,1.067.9c2.8,2.134,6.843,3.521,12.68,4.39a.891.891,0,0,1,.2.03l1.006.137a119.958,119.958,0,0,0,13.335.914c.4,0,.777.015,1.174.015,3.17.046,6.355.046,9.479.03h2.713l10.363-.046h1.2l15.118-.061h1.234l41.865-.183h.03a7.962,7.962,0,0,1,7.91,8.824Z" transform="translate(-353.656 -1096.852)" fill="#fc008e"/>
          <path id="Trazado_1044693" data-name="Trazado 1044693" d="M640.992,1477.318a.229.229,0,0,1-.229-.168l-9.175-28.362-44.029,3.993a.262.262,0,0,1-.259-.213.25.25,0,0,1,.213-.259l44.212-4.008a.247.247,0,0,1,.244.167l9.236,28.545a.245.245,0,0,1-.152.3h-.076Z" transform="translate(-543.21 -1282.307)" fill="#333"/>
          <path id="Trazado_1044694" data-name="Trazado 1044694" d="M1079.435,1463.723h-.046a.252.252,0,0,1-.2-.274l4.755-27.524a.243.243,0,0,1,.229-.2l26.259-.427h0a.26.26,0,0,1,.244.229.238.238,0,0,1-.229.244l-26.076.427-4.709,27.341a.229.229,0,0,1-.229.2Z" transform="translate(-960.133 -1271.288)" fill="#333"/>
          <path id="Trazado_1044695" data-name="Trazado 1044695" d="M714.393,1168.642a.229.229,0,0,1-.229-.167l-14.707-51.528a.237.237,0,1,1,.457-.122l14.707,51.528a.231.231,0,0,1-.168.289Z" transform="translate(-638.267 -1001.201)" fill="#333"/>
          <path id="Trazado_1044696" data-name="Trazado 1044696" d="M1165.629,1172.947h0a.228.228,0,0,1-.228-.244l1.509-46.574a.236.236,0,1,1,.472.015l-1.509,46.574A.238.238,0,0,1,1165.629,1172.947Z" transform="translate(-1033.206 -1009.041)" fill="#333"/>
          <g id="Grupo_1219758" data-name="Grupo 1219758" transform="translate(86.778 39.362)">
            <path id="Trazado_1044697" data-name="Trazado 1044697" d="M867.415,643.076l1.052-9.1,2.941-.777,5.4,7.376-3.018.808-.747-1.1-2.621.7-.091,1.311-2.926.777Zm4.45-4.74-1.2-1.859-.137,2.21Z" transform="translate(-867.4 -630.793)" fill="#fc008e"/>
            <path id="Trazado_1044698" data-name="Trazado 1044698" d="M917.652,619.2a1.373,1.373,0,0,1,.168-1.082,1.443,1.443,0,0,1,.884-.671,1.453,1.453,0,0,1,1.737,1.006,1.314,1.314,0,0,1-.152,1.067,1.415,1.415,0,0,1-.854.655,1.388,1.388,0,0,1-1.1-.137,1.309,1.309,0,0,1-.671-.853Zm2.149,7.879-1.631-6.111,2.682-.716,1.631,6.111Z" transform="translate(-909.955 -617.404)" fill="#fc008e"/>
          </g>
          <path id="Trazado_1044699" data-name="Trazado 1044699" d="M401.6,1268.621a19.7,19.7,0,0,0-3.627-6.721c-.32.213-.625.427-.945.655a18.606,18.606,0,0,1,3.475,6.4,26.024,26.024,0,0,1,.93,10.028,1.3,1.3,0,0,0,.213-.2c.335-.289.655-.564.991-.838a26.8,26.8,0,0,0-1.067-9.342Zm-9.586,1.113a24.184,24.184,0,0,0-1.859-1.57c-.29.259-.564.518-.838.792a22.665,22.665,0,0,1,1.936,1.616,28.842,28.842,0,0,1,7.376,11.095c.29-.29.594-.579.884-.869a30.064,30.064,0,0,0-7.483-11.049ZM386.8,1276.9a28.847,28.847,0,0,0-2.728-2.56c-.244.274-.488.564-.732.838a28.254,28.254,0,0,1,9.1,13.579c.274-.366.564-.732.838-1.082a29.424,29.424,0,0,0-6.492-10.775Zm-13.61,23.211a42.949,42.949,0,0,0-4.572-1.341c-.137.366-.274.716-.411,1.082a41.045,41.045,0,0,1,4.6,1.326c3.49,1.219,6.965,2.591,10.348,4.1.122-.35.259-.7.4-1.067-3.383-1.509-6.873-2.9-10.363-4.115Zm6.4,23.379a38.113,38.113,0,0,0-4.206-.229c-3.932-.061-8,0-11.689,1.158,0,.4.015.793.03,1.189,3.627-1.2,7.7-1.265,11.644-1.2a37.21,37.21,0,0,1,4.237.229C379.611,1324.248,379.6,1323.867,379.6,1323.486Zm5.273,15.7a97.028,97.028,0,0,0-11,11.522c.274.274.533.533.808.792a95.632,95.632,0,0,1,10.988-11.506c-.274-.259-.549-.533-.808-.808Zm29.079,7.178a93.076,93.076,0,0,0-2.9,15.835c.381,0,.762.031,1.143.031a93.32,93.32,0,0,1,2.926-15.85C414.725,1346.377,414.344,1346.377,413.947,1346.362Zm40.052-.076a44.458,44.458,0,0,0-3.582,15.926h1.143a43.123,43.123,0,0,1,3.688-15.926H454Zm-20.529,16h1.158a102.73,102.73,0,0,1,4.267-15.926h-1.2A102.577,102.577,0,0,0,433.47,1362.288Zm-7.376-15.881a69.906,69.906,0,0,0-3.993,15.926h1.143a69.075,69.075,0,0,1,4.069-15.926Zm-26.472-1.1a.891.891,0,0,1-.2-.031,49.7,49.7,0,0,0-5.045,15.286c.381.076.747.137,1.113.2a48.574,48.574,0,0,1,5.121-15.317l-1.006-.137Zm-18.608-12.786a44.878,44.878,0,0,0-14.448,6.8c.137.366.29.716.442,1.082a43.757,43.757,0,0,1,14.4-6.812C381.272,1333.24,381.135,1332.89,381.013,1332.524ZM364.98,1311.6l-.229,1.143a49.214,49.214,0,0,1,15.7,2.682c.076-.366.152-.747.229-1.113A50.673,50.673,0,0,0,364.98,1311.6Zm10.318-25.665c-.213.32-.411.64-.61.975a26.547,26.547,0,0,1,12.253,10.242c.213-.366.411-.732.64-1.113a27.588,27.588,0,0,0-12.268-10.1Z" transform="translate(-353.687 -1124.314)" fill="#333"/>
          <g id="Grupo_1219760" data-name="Grupo 1219760" transform="translate(143.899 2.023)">
            <g id="Grupo_1219759" data-name="Grupo 1219759">
              <rect id="Rectángulo_419547" data-name="Rectángulo 419547" width="90.649" height="61.754" rx="27.9" fill="#fc008e"/>
              <rect id="Rectángulo_419548" data-name="Rectángulo 419548" width="4.069" height="15.027" transform="translate(54.042 8.839)" fill="#fff"/>
              <rect id="Rectángulo_419549" data-name="Rectángulo 419549" width="4.069" height="11.918" transform="translate(59.453 11.948)" fill="#fff"/>
              <rect id="Rectángulo_419550" data-name="Rectángulo 419550" width="4.069" height="9.205" transform="translate(70.09 14.661)" fill="#fff"/>
              <rect id="Rectángulo_419551" data-name="Rectángulo 419551" width="4.069" height="13.671" transform="translate(64.802 10.196)" fill="#fff"/>
              <rect id="Rectángulo_419552" data-name="Rectángulo 419552" width="4.069" height="13.671" transform="translate(75.44 10.196)" fill="#fff"/>
              <path id="Trazado_1044700" data-name="Trazado 1044700" d="M1616.118,577.007h-28.164a.852.852,0,0,1-.853-.853h0a.852.852,0,0,1,.853-.854h28.164a.852.852,0,0,1,.853.854h0A.852.852,0,0,1,1616.118,577.007Z" transform="translate(-1534.536 -544.377)" fill="#4555b5"/>
              <path id="Trazado_1044701" data-name="Trazado 1044701" d="M1616.118,653.007h-28.164a.852.852,0,0,1-.853-.853h0a.852.852,0,0,1,.853-.854h28.164a.852.852,0,0,1,.853.854h0A.852.852,0,0,1,1616.118,653.007Z" transform="translate(-1534.536 -608.795)" fill="#4555b5"/>
              <path id="Trazado_1044702" data-name="Trazado 1044702" d="M1616.118,681.007h-28.164a.852.852,0,0,1-.853-.853h0a.852.852,0,0,1,.853-.853h28.164a.852.852,0,0,1,.853.853h0A.852.852,0,0,1,1616.118,681.007Z" transform="translate(-1534.536 -632.528)" fill="#4555b5"/>
              <path id="Trazado_1044703" data-name="Trazado 1044703" d="M1601.493,604.207h-13.64a.852.852,0,0,1-.854-.854h0a.852.852,0,0,1,.854-.853h13.64a.852.852,0,0,1,.854.853h0A.852.852,0,0,1,1601.493,604.207Z" transform="translate(-1534.451 -567.432)" fill="#4555b5"/>
              <path id="Trazado_1044704" data-name="Trazado 1044704" d="M1707.631,604.207h-6.477a.852.852,0,0,1-.854-.854h0a.852.852,0,0,1,.854-.853h6.477a.852.852,0,0,1,.853.853h0A.852.852,0,0,1,1707.631,604.207Z" transform="translate(-1630.484 -567.432)" fill="#4555b5"/>
            </g>
            <path id="Trazado_1044705" data-name="Trazado 1044705" d="M1315.793,457a20.7,20.7,0,0,1-20.7,20.7,22.85,22.85,0,0,1-15.438-6.9A20.7,20.7,0,1,1,1315.793,457Z" transform="translate(-1269.493 -426.561)" fill="#fff"/>
          </g>
          <rect id="Rectángulo_419553" data-name="Rectángulo 419553" width="7.011" height="15.423" rx="3.505" transform="translate(209.311 72.296)" fill="#feb1dc"/>
          <rect id="Rectángulo_419554" data-name="Rectángulo 419554" width="7.011" height="15.423" rx="3.505" transform="translate(216.199 72.296)" fill="#feb1dc"/>
          <g id="Grupo_1219761" data-name="Grupo 1219761" transform="translate(72.021 0)">
            <path id="Trazado_1044706" data-name="Trazado 1044706" d="M773.212,478.155a3.259,3.259,0,0,0,.518-.137,1.191,1.191,0,0,0,.533-.274,1.111,1.111,0,0,0,.442-.4c.107-.107.2-.229.29-.335a1.793,1.793,0,0,0,.335-.869,1.7,1.7,0,0,0,0-.914l-.2-.564a1.673,1.673,0,0,0-.564-.686,1.129,1.129,0,0,0-.5-.335,1.7,1.7,0,0,0-.9-.244,2.434,2.434,0,0,0-1.661.579,2.554,2.554,0,0,0-.792,1.158,4.7,4.7,0,0,0-.137.808,2.081,2.081,0,0,0,.762,1.722,1.634,1.634,0,0,0,.732.442,2.178,2.178,0,0,0,1.128.061h0Z" transform="translate(-770.57 -455.984)" fill="#fc008e"/>
            <path id="Trazado_1044707" data-name="Trazado 1044707" d="M843.259,405.678a2.147,2.147,0,0,0,.792-.35c-.442.152-.381.137.168-.061.472-.32.518-.35.152-.107a1.668,1.668,0,0,1,.168-.091c.183-.076.107-.061-.213.061-.168,0-.335.03-.5.046h.091l-.518-.091a2.815,2.815,0,0,0,.869.091,3.1,3.1,0,0,0,.838-.229,2.012,2.012,0,0,0,1.006-1.173,2.09,2.09,0,0,0-.03-1.3,2.046,2.046,0,0,0-2.317-1.311,1.605,1.605,0,0,0-.579.183,1.15,1.15,0,0,0-.488.351c.411-.259.366-.229-.137.107-.046.03-.107.076-.152.107a2.522,2.522,0,0,0-.823,1.2,2.551,2.551,0,0,0-.046,1.311,1.519,1.519,0,0,0,1.737,1.2h0Z" transform="translate(-830.666 -394.74)" fill="#fc008e"/>
            <path id="Trazado_1044708" data-name="Trazado 1044708" d="M933.032,431.83a3.863,3.863,0,0,0,1.021-.091,4.585,4.585,0,0,0,1.052-.457,3.145,3.145,0,0,0,1.174-.914,1.787,1.787,0,0,0-1.859-2.8,3.1,3.1,0,0,0-1.311.686,5.012,5.012,0,0,0-.747.64,3.926,3.926,0,0,0-.625,1.067,1.431,1.431,0,0,0,1.28,1.875h0Z" transform="translate(-907.089 -417.097)" fill="#fc008e"/>
            <path id="Trazado_1044709" data-name="Trazado 1044709" d="M992.485,497.154c.213-.091-.183.046-.046,0l.274-.091a2.994,2.994,0,0,0,.488-.259c.091-.046.29-.091.351-.168-.031.03-.32.107-.122.046a2.191,2.191,0,0,0,.518-.213,1.494,1.494,0,0,0-.991-2.789,3.225,3.225,0,0,0-1.356.793,2.832,2.832,0,0,0-.5.549,3.862,3.862,0,0,0-.289.686,1.2,1.2,0,0,0,.351,1.25,1.188,1.188,0,0,0,1.3.168h0Z" transform="translate(-957.199 -473.14)" fill="#fc008e"/>
            <path id="Trazado_1044710" data-name="Trazado 1044710" d="M1028.024,409.234a1.677,1.677,0,0,0,.274-.03c-.183,0-.351.03-.533.046a4.008,4.008,0,0,0,.869-.076,2.589,2.589,0,0,0,1.3-.671,2.371,2.371,0,0,0,.777-1.631,2.4,2.4,0,0,0-.411-1.4,2.189,2.189,0,0,0-1.173-.914,2.232,2.232,0,0,0-1.768.137,2.957,2.957,0,0,0-1.006.884,3.228,3.228,0,0,0-.35.732c-.046.168-.091.335-.152.5a1.87,1.87,0,0,0,1.189,2.347,1.767,1.767,0,0,0,.975.046h0Z" transform="translate(-986.871 -397.533)" fill="#fc008e"/>
            <path id="Trazado_1044711" data-name="Trazado 1044711" d="M950.2,362.307h-.137a1.927,1.927,0,0,0,.884-.076,3.525,3.525,0,0,0,.533-.274,1.6,1.6,0,0,0,.671-.991,1.515,1.515,0,0,0-.229-1.143,1.562,1.562,0,0,0-2.134-.442,2.147,2.147,0,0,0-.747.777c-.061.122-.107.229-.168.351a1.324,1.324,0,0,0,.122,1.28,1.341,1.341,0,0,0,1.189.533h0Z" transform="translate(-921.602 -359.126)" fill="#fc008e"/>
          </g>
          <g id="Grupo_1219762" data-name="Grupo 1219762" transform="translate(119.576 170.048)">
            <path id="Trazado_1044712" data-name="Trazado 1044712" d="M1198.16,1500.7c5.944,1.509,11.507,3.7,17.45,5.227a13.606,13.606,0,0,0,4.846.564,15.244,15.244,0,0,0,4.146-1.28c3.368-1.417,6.736-2.85,10.1-4.267a6.376,6.376,0,0,0,1.768-.975,4.438,4.438,0,0,0,1.021-1.554A130.433,130.433,0,0,1,1249.977,1477a11.214,11.214,0,0,1-5.974-2.1q-5.349,4.481-10.683,8.946c-3.383,2.835-6.9,5.883-7.773,9.556.015-1.8-2.606-2.8-4.922-3.216a102.214,102.214,0,0,0-12.3-1.052,199.31,199.31,0,0,1-21.885-2.408c-7.422-1.234-14.311-3.322-21.565-4.846-1.814,1.966-2.393,5.456-3.338,7.772a.7.7,0,0,0-.076.518c.107.259.518.366.884.457,4.725,1.036,8.535,3.49,12.909,5.121,6.614,2.469,14.311,2.972,21.413,4.6.5.122.991.229,1.478.366Z" transform="translate(-1149.422 -1474.9)" fill="#f4e9d3"/>
            <path id="Trazado_1044713" data-name="Trazado 1044713" d="M1545.878,1597.825s-2.195-.655-7.361.168a44.083,44.083,0,0,0-8.016,1.92l5.654,5.654,11.11-4.465-1.372-3.261Z" transform="translate(-1462.239 -1578.881)" fill="#303030"/>
            <path id="Trazado_1044714" data-name="Trazado 1044714" d="M1445.5,1667.529s9.83,1.341,16.475-3.353l11.9-67.576a13.493,13.493,0,0,1-15.393,2.042Z" transform="translate(-1390.193 -1578.053)" fill="#ff8fbd"/>
            <path id="Trazado_1044715" data-name="Trazado 1044715" d="M1150.893,1556.943l-1.981,10.47-9.22,48.86-.473,2.5-1.326,7.056-38.208-10.912-14.2-4.054-1.631-.457a1.778,1.778,0,0,1-1.082-.823,1.368,1.368,0,0,1-.152-.854l4.983-32.432.031-.183,1.738-11.293,2.454-15.957a1.959,1.959,0,0,1,2.3-1.433l1.737.29,55.018,9.235Z" transform="translate(-1082.602 -1536.353)" fill="#ff65a1"/>
            <path id="Trazado_1044716" data-name="Trazado 1044716" d="M1565.418,1495.494l17.953-18.075c.213-.213.594-.076.549.2l-11.354,68.947-19.066,16.49,11.9-67.576Z" transform="translate(-1481.734 -1476.947)" fill="#ff65a1"/>
            <path id="Trazado_1044717" data-name="Trazado 1044717" d="M1523.073,1632.943l-.473,2.484a29.162,29.162,0,0,0,9.129.945,18.49,18.49,0,0,0,6.066-1.417l.549-3.155c-5.09,3.292-12.025,2.027-15.286,1.143Z" transform="translate(-1455.543 -1607.888)" fill="#303030"/>
            <path id="Trazado_1044718" data-name="Trazado 1044718" d="M1454.273,1995.3l-.473,2.5a29.555,29.555,0,0,0,10.028,1.189,18.81,18.81,0,0,0,5.791-1.3l.548-3.094C1464.56,1997.984,1456.909,1996.109,1454.273,1995.3Z" transform="translate(-1397.229 -1915.396)" fill="#303030"/>
            <path id="Trazado_1044719" data-name="Trazado 1044719" d="M1487.1,1735.472h-.153a.612.612,0,0,1-.594-.686l7.392-39.884a.731.731,0,0,1,.823-.533.612.612,0,0,1,.594.686l-7.392,39.884A.72.72,0,0,1,1487.1,1735.472Z" transform="translate(-1424.81 -1660.917)" fill="#303030"/>
            <path id="Trazado_1044720" data-name="Trazado 1044720" d="M1519.6,1859.2h-.153a.617.617,0,0,1-.594-.7l3.84-19.035a.725.725,0,0,1,.838-.518.617.617,0,0,1,.594.7l-3.841,19.035a.74.74,0,0,1-.671.534Z" transform="translate(-1452.357 -1783.458)" fill="#303030"/>
          </g>
          <rect id="Rectángulo_419555" data-name="Rectángulo 419555" width="16.246" height="8.413" rx="4.206" transform="translate(114.821 212.507)" fill="#aebdff"/>
          <path id="Trazado_1044721" data-name="Trazado 1044721" d="M1052.711,1809.5h13.61a1.311,1.311,0,0,1,1.311,1.311v5.776a1.311,1.311,0,0,1-1.311,1.311h-13.61a1.311,1.311,0,0,1-1.311-1.311v-5.776A1.31,1.31,0,0,1,1052.711,1809.5Z" transform="translate(-936.579 -1588.458)" fill="#aebdff"/>
          <path id="Trazado_1044722" data-name="Trazado 1044722" d="M1052.711,1865h13.61a1.311,1.311,0,0,1,1.311,1.311v5.776a1.311,1.311,0,0,1-1.311,1.311h-13.61a1.31,1.31,0,0,1-1.311-1.311v-5.776A1.311,1.311,0,0,1,1052.711,1865Z" transform="translate(-936.579 -1635.5)" fill="#aebdff"/>
          <g id="Grupo_1219763" data-name="Grupo 1219763" transform="translate(0 82.66)">
            <path id="Trazado_1044723" data-name="Trazado 1044723" d="M353.689,959.118a.414.414,0,0,1-.259-.091l-17.145-13.259a.411.411,0,0,1-.091-.564l4.054-6.035-4.13-6.249a.426.426,0,0,1,.091-.564l18-13.945a.426.426,0,0,1,.61.579l-13.549,20.178,12.787,19.294a.44.44,0,0,1-.061.549.4.4,0,0,1-.29.107Zm-16.582-13.777L351.921,956.8,340.75,939.93l-3.627,5.425Zm-.076-12.558,3.719,5.624,11.887-17.724-15.621,12.1Z" transform="translate(-330.249 -915.759)" fill="#6662fa"/>
            <path id="Trazado_1044724" data-name="Trazado 1044724" d="M353.471,1006.793h-.091l-17.145-3.551a.422.422,0,0,1-.335-.381v-.107a.426.426,0,0,1,.046-.579l6.279-5.715-5.791-5.41a.421.421,0,0,1-.091-.488l-.274-.091a.412.412,0,0,1-.274-.427.405.405,0,0,1,.335-.381l17.648-3.627a.393.393,0,0,1,.457.229.417.417,0,0,1-.091.5l-7.361,6.69,6.873,2.484a.423.423,0,0,1,0,.792l-7.087,2.682,7.148,6.675a.44.44,0,0,1,.091.5.43.43,0,0,1-.381.229Zm-15.637-4.084,14.25,2.941-6.34-5.928-7.894,2.987Zm5.029-5.669-5.4,4.907,7.574-2.865Zm.625-.579,2.438,2.286,6.4-2.423-6.218-2.24Zm-5.807-5.426,5.182,4.847,2.347-2.134-7.529-2.713Zm.107-.853,8.123,2.926,6.553-5.959-14.676,3.018Z" transform="translate(-330.031 -973.142)" fill="#6662fa"/>
            <path id="Trazado_1044725" data-name="Trazado 1044725" d="M481.042,958.526a.391.391,0,0,1-.274-.107.416.416,0,0,1-.046-.594l17.755-20.254-17.5-20.254a.421.421,0,1,1,.64-.549l17.74,20.529a.417.417,0,0,1,0,.549l-18,20.529a.415.415,0,0,1-.32.137Z" transform="translate(-452.787 -914.314)" fill="#6662fa"/>
            <path id="Trazado_1044726" data-name="Trazado 1044726" d="M481.253,1004.365a.411.411,0,0,1-.366-.213.425.425,0,0,1,.152-.579l16.536-9.739-16.612-9.891a.423.423,0,0,1,.427-.732l17.237,10.257a.443.443,0,0,1,.213.366.41.41,0,0,1-.213.366l-17.145,10.089a.35.35,0,0,1-.213.061Z" transform="translate(-452.906 -970.714)" fill="#6662fa"/>
            <path id="Trazado_1044727" data-name="Trazado 1044727" d="M500.975,1051.553H483.327a.426.426,0,0,1-.427-.427.417.417,0,0,1,.427-.427h17.648a.426.426,0,0,1,.427.427A.417.417,0,0,1,500.975,1051.553Z" transform="translate(-454.721 -1027.961)" fill="#6662fa"/>
            <circle id="Elipse_12571" data-name="Elipse 12571" cx="3.109" cy="3.109" r="3.109" transform="translate(0 13.823)" fill="#951bf1"/>
            <circle id="Elipse_12572" data-name="Elipse 12572" cx="3.109" cy="3.109" r="3.109" transform="translate(0 26.229)" fill="#951bf1"/>
            <circle id="Elipse_12573" data-name="Elipse 12573" cx="3.109" cy="3.109" r="3.109" transform="translate(22.937 40.036)" fill="#fc008e"/>
            <circle id="Elipse_12574" data-name="Elipse 12574" cx="3.109" cy="3.109" r="3.109" transform="translate(22.937 30.42)" fill="#fc008e"/>
            <circle id="Elipse_12575" data-name="Elipse 12575" cx="3.109" cy="3.109" r="3.109" transform="translate(22.937 20.148)" fill="#fc008e"/>
            <circle id="Elipse_12576" data-name="Elipse 12576" cx="3.109" cy="3.109" r="3.109" transform="matrix(0.378, -0.926, 0.926, 0.378, 21.977, 14.92)" fill="#fc008e"/>
            <circle id="Elipse_12577" data-name="Elipse 12577" cx="3.109" cy="3.109" r="3.109" transform="translate(22.937)" fill="#fc008e"/>
            <circle id="Elipse_12578" data-name="Elipse 12578" cx="3.109" cy="3.109" r="3.109" transform="translate(45.477 20.026)" fill="#1bf5f5"/>
          </g>
          <path id="Trazado_1044728" data-name="Trazado 1044728" d="M1323.149,868.854a19.3,19.3,0,0,1-19.248-19.248V819.049a19.3,19.3,0,0,1,19.248-19.249h0a19.3,19.3,0,0,1,19.249,19.249v30.557a19.3,19.3,0,0,1-19.249,19.248Zm0-68.2a18.417,18.417,0,0,0-18.4,18.4v30.557a18.4,18.4,0,0,0,36.79,0V819.049A18.417,18.417,0,0,0,1323.149,800.654Z" transform="translate(-1150.598 -732.64)" fill="#fc008e"/>
          <g id="Grupo_1219764" data-name="Grupo 1219764" transform="translate(160.145 72.113)">
            <rect id="Rectángulo_419556" data-name="Rectángulo 419556" width="25.528" height="25.528" fill="none"/>
            <path id="Trazado_1044729" data-name="Trazado 1044729" d="M1384.546,922.9a7.549,7.549,0,0,1-5.974-2.8,9.047,9.047,0,0,1-1.616-2.926.207.207,0,0,1,.4-.122,8.99,8.99,0,0,0,1.554,2.789,7.032,7.032,0,0,0,5.883,2.637,6.83,6.83,0,0,0,5.609-2.8,7.805,7.805,0,0,0,1.28-2.713.209.209,0,0,1,.411.076,7.831,7.831,0,0,1-1.341,2.865,7.278,7.278,0,0,1-5.944,3Z" transform="translate(-1372.659 -903.909)" fill="#303030"/>
            <path id="Trazado_1044730" data-name="Trazado 1044730" d="M1407.413,876.467a.208.208,0,0,1-.213-.213v-6.34a.213.213,0,0,1,.427,0v6.34A.208.208,0,0,1,1407.413,876.467Z" transform="translate(-1398.3 -864)" fill="#303030"/>
            <path id="Trazado_1044731" data-name="Trazado 1044731" d="M1447.813,876.467a.208.208,0,0,1-.213-.213v-6.34a.213.213,0,1,1,.427,0v6.34A.208.208,0,0,1,1447.813,876.467Z" transform="translate(-1432.543 -864)" fill="#303030"/>
          </g>
          <g id="Grupo_1219765" data-name="Grupo 1219765" transform="translate(160.145 103.066)">
            <rect id="Rectángulo_419557" data-name="Rectángulo 419557" width="25.528" height="25.604" fill="none"/>
            <path id="Trazado_1044732" data-name="Trazado 1044732" d="M1392.4,1125.533a.2.2,0,0,1-.2-.152,8.807,8.807,0,0,0-1.478-2.835,7.018,7.018,0,0,0-5.807-2.8,6.849,6.849,0,0,0-5.685,2.652,7.948,7.948,0,0,0-1.356,2.682.213.213,0,1,1-.411-.106,7.743,7.743,0,0,1,1.417-2.835,7.316,7.316,0,0,1,6.035-2.835,7.528,7.528,0,0,1,6.157,2.987,8.929,8.929,0,0,1,1.539,2.972.221.221,0,0,1-.152.259h-.061Z" transform="translate(-1373.089 -1106.513)" fill="#303030"/>
            <path id="Trazado_1044733" data-name="Trazado 1044733" d="M1407.413,1079.767a.208.208,0,0,1-.213-.213v-6.34a.213.213,0,0,1,.427,0v6.34A.208.208,0,0,1,1407.413,1079.767Z" transform="translate(-1398.3 -1067.27)" fill="#303030"/>
            <path id="Trazado_1044734" data-name="Trazado 1044734" d="M1447.813,1079.767a.208.208,0,0,1-.213-.213v-6.34a.213.213,0,1,1,.427,0v6.34A.208.208,0,0,1,1447.813,1079.767Z" transform="translate(-1432.543 -1067.27)" fill="#303030"/>
          </g>
          <g id="Grupo_1219767" data-name="Grupo 1219767" transform="translate(151.739 3.76)">
            <path id="Trazado_1044735" data-name="Trazado 1044735" d="M1298.237,412.8a59.314,59.314,0,0,1-2.24-6.873c-.61-1.951-1.387-3.841-1.89-5.822a11.492,11.492,0,0,1-.107-6.05,11.061,11.061,0,0,1,2.1-3.795,6.754,6.754,0,0,1,2.423-2.027c1.372-.61,2.972-.472,4.435-.823a35.852,35.852,0,0,0,4.511-1.981c1.524-.61,3.444-.777,4.664.32.29.259.579.61.975.625a1.552,1.552,0,0,0,.625-.183c1.021-.533,1.935-1.265,3-1.707a12.654,12.654,0,0,1,4.725-.686,2.284,2.284,0,0,1,1.067.168,1.665,1.665,0,0,1,.579.549,4.163,4.163,0,0,1,.732,2.926,3.977,3.977,0,0,1,3.932,2.713,5.075,5.075,0,0,1-1.067,4.8,3.02,3.02,0,0,0-.534.716,2.344,2.344,0,0,0-.152.975,36.953,36.953,0,0,1-1.9,11.461,20.543,20.543,0,0,1-6.584,9.434,9.755,9.755,0,0,1-3.185,1.707,12.229,12.229,0,0,1-4.344.229c-5.136-.427-9.434-1.646-11.75-6.66Z" transform="translate(-1293.641 -383.8)" fill="#333"/>
            <path id="Trazado_1044736" data-name="Trazado 1044736" d="M1337.308,597.294a20.577,20.577,0,0,1-12.969,4.572,22.849,22.849,0,0,1-15.438-6.9l5.471-1.432,1.189-10.729,14.28,8.611v5.075Z" transform="translate(-1306.575 -552.472)" fill="#c45b5b"/>
            <path id="Trazado_1044737" data-name="Trazado 1044737" d="M1385.089,600.574l-1.814,1.341c.076,0-.884,6.416-4.6,6.6-5.075.259-7.757-4.42-7.681-10.714Z" transform="translate(-1359.202 -565.186)" fill="#333"/>
            <g id="Grupo_1219766" data-name="Grupo 1219766" transform="translate(0.832 6.765)">
              <path id="Trazado_1044738" data-name="Trazado 1044738" d="M1329.916,436.834l.747,6.218c.777,9.129-1.25,13.274-4.145,15.926a9.314,9.314,0,0,1-6.751,2.438,14.312,14.312,0,0,1-13.411-10.607,5.184,5.184,0,0,1-2.286.838c-4.313-.884-6.691-7.544-3.49-9.723,2.332-1.6,4.344-.381,5.532.777,1.326.564.366-3.048.366-3.81,1.509-11.369,12.634-10.226,13.564-10.7a10.313,10.313,0,0,1,9.875,8.657Z" transform="translate(-1299.1 -428.191)" fill="#c45b5b"/>
              <path id="Trazado_1044739" data-name="Trazado 1044739" d="M1314.054,533.059a.214.214,0,0,1-.213-.183,15.7,15.7,0,0,0-.3-1.692,5.3,5.3,0,0,0-.625-1.722,2.115,2.115,0,0,0-1.356-1.006,1.27,1.27,0,0,0-1.371.64.208.208,0,0,1-.381-.168,1.7,1.7,0,0,1,1.829-.884,2.5,2.5,0,0,1,1.646,1.2,5.689,5.689,0,0,1,.671,1.859c.122.564.229,1.158.3,1.737a.222.222,0,0,1-.183.244h-.031Z" transform="translate(-1308.156 -512.803)" fill="#333"/>
              <path id="Trazado_1044740" data-name="Trazado 1044740" d="M1320.961,544.969h-.046a.214.214,0,0,1-.152-.259,1.974,1.974,0,0,1,2.164-1.433.209.209,0,1,1-.076.411,1.55,1.55,0,0,0-1.676,1.113.226.226,0,0,1-.2.168Z" transform="translate(-1317.455 -525.719)" fill="#333"/>
            </g>
            <path id="Trazado_1044741" data-name="Trazado 1044741" d="M1440.11,591.973a.144.144,0,0,1-.106-.031.207.207,0,0,1-.076-.289l.762-1.25a.212.212,0,1,1,.366.213l-.762,1.25A.231.231,0,0,1,1440.11,591.973Z" transform="translate(-1417.607 -558.825)" fill="#333"/>
            <path id="Trazado_1044742" data-name="Trazado 1044742" d="M1423.96,560.948a2.081,2.081,0,0,1,.975.061.771.771,0,0,1,.427.9,2.48,2.48,0,0,1-1.661,1.692,4.618,4.618,0,0,1-2.835.091c-.808-.229-1.524-.732-1.615-1.372-.214-1.478,3.49-1.265,4.724-1.372Z" transform="translate(-1400.1 -533.927)" fill="#fff"/>
            <path id="Trazado_1044743" data-name="Trazado 1044743" d="M1380.7,528.1" transform="translate(-1367.432 -506.108)" fill="none" stroke="#333" stroke-linecap="round" stroke-linejoin="round" stroke-width="4"/>
            <path id="Trazado_1044744" data-name="Trazado 1044744" d="M1396.388,518.567a1.044,1.044,0,1,0-1.067,1.021A1.041,1.041,0,0,0,1396.388,518.567Z" transform="translate(-1378.959 -497.124)" fill="#333"/>
            <path id="Trazado_1044745" data-name="Trazado 1044745" d="M1470.288,513.667a1.044,1.044,0,1,0-1.067,1.021A1.041,1.041,0,0,0,1470.288,513.667Z" transform="translate(-1441.597 -492.97)" fill="#333"/>
            <path id="Trazado_1044746" data-name="Trazado 1044746" d="M1388.805,502.009a1.264,1.264,0,0,1-.884-.061.682.682,0,0,1-.2-.152.557.557,0,0,1,0-.594,1.228,1.228,0,0,1,.457-.427,2.847,2.847,0,0,1,2.256-.259.728.728,0,0,1,.518.412.615.615,0,0,1-.411.655,10.757,10.757,0,0,1-1.707.427Z" transform="translate(-1373.312 -482.623)" fill="#333"/>
            <path id="Trazado_1044747" data-name="Trazado 1044747" d="M1464.2,497.109a1.264,1.264,0,0,1-.884-.061.685.685,0,0,1-.2-.152.558.558,0,0,1,0-.594,1.232,1.232,0,0,1,.457-.427,2.848,2.848,0,0,1,2.256-.259.727.727,0,0,1,.518.411.614.614,0,0,1-.411.655,10.745,10.745,0,0,1-1.707.427Z" transform="translate(-1437.22 -478.47)" fill="#333"/>
            <path id="Trazado_1044748" data-name="Trazado 1044748" d="M1406.561,566.356h-.046a.214.214,0,0,1-.153-.259l.61-2.682a.212.212,0,1,1,.411.107l-.609,2.682a.215.215,0,0,1-.213.168Z" transform="translate(-1389.177 -535.906)" fill="#333"/>
            <path id="Trazado_1044749" data-name="Trazado 1044749" d="M1442.807,511.847a.207.207,0,0,1-.122-.381l.686-.442a1.673,1.673,0,0,0,.61-.564,1.582,1.582,0,0,0-.122-1.25,3.483,3.483,0,0,0-.152-.351,4.967,4.967,0,0,1-.518-1.753,1.871,1.871,0,0,1,1.128-1.951.207.207,0,0,1,.122.4,1.459,1.459,0,0,0-.823,1.524,5.04,5.04,0,0,0,.488,1.615c.046.122.107.244.152.366a1.9,1.9,0,0,1,.107,1.6,2.084,2.084,0,0,1-.747.716l-.686.442A.164.164,0,0,1,1442.807,511.847Z" transform="translate(-1419.891 -486.655)" fill="#333"/>
            <path id="Trazado_1044750" data-name="Trazado 1044750" d="M1347.438,420.577c1.753-.488,3.7-1.4,4.115-3.17a1.038,1.038,0,0,1,.244-.594.9.9,0,0,1,.549-.168,40.2,40.2,0,0,0,5.426-.32,5.761,5.761,0,0,0,4.3-2.987,2.439,2.439,0,0,0-.625-3,3.112,3.112,0,0,0-1.63-.335,26.175,26.175,0,0,0-6.142.853c-3.078.747-6.187,1.814-8.55,3.917-1.814,1.616-3.429,4.237-3.277,6.751.106,1.676.9,1.067,1.874.412a12.327,12.327,0,0,1,3.7-1.372Z" transform="translate(-1334.49 -406.007)" fill="#333"/>
          </g>
        </g>
      </g>
    </g>
  </g>
</svg>
