<svg xmlns="http://www.w3.org/2000/svg" xmlns:xlink="http://www.w3.org/1999/xlink" width="103" height="103" viewBox="0 0 103 103">
  <defs>
    <filter id="Trazado_978624" x="0" y="0" width="103" height="103" filterUnits="userSpaceOnUse">
      <feOffset dy="3" input="SourceAlpha"/>
      <feGaussianBlur stdDeviation="3" result="blur"/>
      <feFlood flood-opacity="0.161"/>
      <feComposite operator="in" in2="blur"/>
      <feComposite in="SourceGraphic"/>
    </filter>
  </defs>
  <g id="Grupo_1219602" data-name="Grupo 1219602" transform="translate(-171 -1663)">
    <g id="Grupo_1202656" data-name="Grupo 1202656" transform="translate(0 -1210)">
      <g id="Grupo_1176881" data-name="Grupo 1176881" transform="translate(0 7)">
        <g id="Grupo_1175148" data-name="Grupo 1175148" transform="translate(0 1580)">
          <g id="Grupo_1173798" data-name="Grupo 1173798" transform="translate(-3 -3520)">
            <g id="Grupo_1171925" data-name="Grupo 1171925" transform="translate(-22 -2246)">
              <g id="Grupo_1164524" data-name="Grupo 1164524" transform="translate(205 7058)">
                <g id="Grupo_1144123" data-name="Grupo 1144123">
                  <g transform="matrix(1, 0, 0, 1, -9, -6)" filter="url(#Trazado_978624)">
                    <g id="Trazado_978624-2" data-name="Trazado 978624" transform="translate(9 6)" fill="#fee4f3">
                      <path d="M 42.5 83.5 C 36.96437835693359 83.5 31.59512901306152 82.41617584228516 26.54141235351562 80.27863311767578 C 21.65934181213379 78.21369171142578 17.27447128295898 75.25723266601562 13.50862312316895 71.49137878417969 C 9.742764472961426 67.72553253173828 6.786305904388428 63.34066009521484 4.721364498138428 58.45858764648438 C 2.583823442459106 53.40486907958984 1.5 48.03562164306641 1.5 42.5 C 1.5 36.96437835693359 2.583823442459106 31.59512901306152 4.721364498138428 26.54141235351562 C 6.786305904388428 21.65934181213379 9.742764472961426 17.27447128295898 13.50862312316895 13.50862312316895 C 17.27447128295898 9.742764472961426 21.65934181213379 6.786305904388428 26.54141235351562 4.721364498138428 C 31.59512901306152 2.583823442459106 36.96437835693359 1.5 42.5 1.5 C 48.03562164306641 1.5 53.40486907958984 2.583823442459106 58.45858764648438 4.721364498138428 C 63.34066009521484 6.786305904388428 67.72553253173828 9.742764472961426 71.49137878417969 13.50862312316895 C 75.25723266601562 17.27447128295898 78.21369171142578 21.65934181213379 80.27863311767578 26.54141235351562 C 82.41617584228516 31.59512901306152 83.5 36.96437835693359 83.5 42.5 C 83.5 48.03562164306641 82.41617584228516 53.40486907958984 80.27863311767578 58.45858764648438 C 78.21369171142578 63.34066009521484 75.25723266601562 67.72553253173828 71.49137878417969 71.49137878417969 C 67.72553253173828 75.25723266601562 63.34066009521484 78.21369171142578 58.45858764648438 80.27863311767578 C 53.40486907958984 82.41617584228516 48.03562164306641 83.5 42.5 83.5 Z" stroke="none"/>
                      <path d="M 42.5 3 C 37.16621398925781 3 31.99356079101562 4.043960571289062 27.125732421875 6.102882385253906 C 22.42246627807617 8.092185974121094 18.19785308837891 10.94070434570312 14.56928253173828 14.56928253173828 C 10.94070434570312 18.19785308837891 8.092185974121094 22.42246627807617 6.102882385253906 27.125732421875 C 4.043960571289062 31.99356079101562 3 37.16621398925781 3 42.5 C 3 47.83378601074219 4.043960571289062 53.00643920898438 6.102882385253906 57.87425231933594 C 8.092185974121094 62.57753372192383 10.94070434570312 66.80213165283203 14.56928253173828 70.43071746826172 C 18.19786834716797 74.05929565429688 22.42246627807617 76.90781402587891 27.125732421875 78.89711761474609 C 31.99356079101562 80.95603942871094 37.16621398925781 82 42.5 82 C 47.83378601074219 82 53.00642395019531 80.95603942871094 57.87425231933594 78.89711761474609 C 62.57753372192383 76.90781402587891 66.80213165283203 74.05929565429688 70.43071746826172 70.43071746826172 C 74.05929565429688 66.80213165283203 76.90781402587891 62.57753372192383 78.89711761474609 57.87425231933594 C 80.95603942871094 53.00642395019531 82 47.83378601074219 82 42.5 C 82 37.16621398925781 80.95603942871094 31.99356079101562 78.89711761474609 27.125732421875 C 76.90781402587891 22.42246627807617 74.05929565429688 18.19786834716797 70.43071746826172 14.56928253173828 C 66.80213165283203 10.94070434570312 62.57753372192383 8.092185974121094 57.87425231933594 6.102882385253906 C 53.00643920898438 4.043960571289062 47.83378601074219 3 42.5 3 M 42.5 0 C 65.97209167480469 0 85 19.02789306640625 85 42.5 C 85 65.97209167480469 65.97209167480469 85 42.5 85 C 19.02789306640625 85 0 65.97209167480469 0 42.5 C 0 19.02789306640625 19.02789306640625 0 42.5 0 Z" stroke="none" fill="#feb1dc"/>
                    </g>
                  </g>
                </g>
              </g>
            </g>
          </g>
        </g>
      </g>
    </g>
    <g id="pensando" transform="translate(179.492 1680.361)">
      <g id="Grupo_1219600" data-name="Grupo 1219600" transform="translate(16.459 0.864)">
        <path id="Trazado_1043920" data-name="Trazado 1043920" d="M125.825,7.6A11.344,11.344,0,0,0,114.481,18.94v4.7a3.616,3.616,0,0,1,2.89-.944v-.565a.773.773,0,0,1,.829-.771,20.31,20.31,0,0,0,12.225-3.283.773.773,0,0,1,.988.121c2.885,3.1,2.868,2.981,2.868,3.386v1.11a3.432,3.432,0,0,1,2.889.845V18.94A11.344,11.344,0,0,0,125.825,7.6Z" transform="translate(-104.02 -7.596)" fill="#3e4b5a"/>
        <g id="Grupo_1219596" data-name="Grupo 1219596" transform="translate(10.461 0)">
          <path id="Trazado_1043921" data-name="Trazado 1043921" d="M116.755,18.941A11.345,11.345,0,0,1,126.962,7.654Q126.4,7.6,125.825,7.6a11.344,11.344,0,0,0-11.344,11.344v4.7a3.668,3.668,0,0,1,2.274-.968Z" transform="translate(-114.481 -7.597)" fill="#22303a"/>
        </g>
        <path id="Trazado_1043922" data-name="Trazado 1043922" d="M150.368,253.313c3.616,3.842,8.727,3.842,12.343,0l1.284-1.364-1.888-.731a1.129,1.129,0,0,1-.721-1.053v-3.709a8.677,8.677,0,0,1-9.48.126v3.543a1.189,1.189,0,0,1-.759,1.108l-2,.777Z" transform="translate(-134.74 -219.297)" fill="#ffbeab"/>
        <path id="Trazado_1043923" data-name="Trazado 1043923" d="M154.174,248.569a8.41,8.41,0,0,1-2.271-1.011V251.1a1.189,1.189,0,0,1-.759,1.108l-2,.777,1.227,1.3a9.189,9.189,0,0,0,3.808,2.5v-8.22Z" transform="translate(-134.738 -220.275)" fill="#f7af9f"/>
        <path id="Trazado_1043924" data-name="Trazado 1043924" d="M287.093,135.546v6.214c0,.067,0,.134-.005.2a3.3,3.3,0,1,0,.005-6.415Z" transform="translate(-257.002 -120.96)" fill="#ffbeab"/>
        <path id="Trazado_1043925" data-name="Trazado 1043925" d="M109.536,141.893v-6.212c-1.915-.256-4.085,1.214-4.085,3.205a3.442,3.442,0,0,0,4.09,3.207C109.539,142.027,109.536,141.96,109.536,141.893Z" transform="translate(-96.017 -121.093)" fill="#ffbeab"/>
        <path id="Trazado_1043926" data-name="Trazado 1043926" d="M289.367,135.912a3.731,3.731,0,0,0-2.274-.365v6.214c0,.067,0,.134-.005.2a3.726,3.726,0,0,0,2.279-.364Z" transform="translate(-257.002 -120.961)" fill="#f7af9f"/>
        <path id="Trazado_1043927" data-name="Trazado 1043927" d="M109.536,141.731a3.069,3.069,0,0,1,0-5.6v-.45c-1.915-.256-4.085,1.214-4.085,3.205a3.442,3.442,0,0,0,4.09,3.207c0-.067,0-.134,0-.2Z" transform="translate(-96.017 -121.093)" fill="#f7af9f"/>
        <path id="Trazado_1043928" data-name="Trazado 1043928" d="M153.937,94.418a.773.773,0,0,0-.988-.121,20.31,20.31,0,0,1-12.225,3.283.773.773,0,0,0-.829.771v6.777a8.456,8.456,0,0,0,16.909,0V97.8C156.8,97.4,156.822,97.52,153.937,94.418Z" transform="translate(-126.545 -84.328)" fill="#ffcdbf"/>
        <path id="Trazado_1043929" data-name="Trazado 1043929" d="M142.17,131.687v-7.506c-.482.005-.964-.007-1.445-.042a.773.773,0,0,0-.829.771v6.777a8.393,8.393,0,0,0,9.67,8.26A8.3,8.3,0,0,1,142.17,131.687Z" transform="translate(-126.546 -110.887)" fill="#ffbeab"/>
        <path id="Trazado_1043930" data-name="Trazado 1043930" d="M61.663,297.865l-10.18-3.942-1.312,1.394a7.682,7.682,0,0,1-11.779,0l-1.257-1.336-10.02,3.885a7.946,7.946,0,0,0-4.638,7.194v11.734a1.079,1.079,0,0,0,1.079,1.079H65.232a1.07,1.07,0,0,0,1.07-1.07V305.059A7.946,7.946,0,0,0,61.663,297.865Z" transform="translate(-22.478 -261.368)" fill="#54a0ff"/>
        <g id="Grupo_1219597" data-name="Grupo 1219597" transform="translate(0 35.967)">
          <path id="Trazado_1043931" data-name="Trazado 1043931" d="M24.752,343.391V330.634a7.789,7.789,0,0,1,3.731-6.7l-1.367.53a7.946,7.946,0,0,0-4.638,7.194v11.734a1.079,1.079,0,0,0,1.079,1.079h2.274A1.079,1.079,0,0,1,24.752,343.391Z" transform="translate(-22.478 -323.933)" fill="#338def"/>
        </g>
        <path id="Trazado_1043932" data-name="Trazado 1043932" d="M371.8,104.237h-1.231a.377.377,0,0,1-.359-.259,5.764,5.764,0,0,0-.336-.811.377.377,0,0,1,.07-.437l.87-.87a.379.379,0,0,0,0-.536l-1.654-1.654a.379.379,0,0,0-.536,0l-.87.87a.377.377,0,0,1-.437.07,5.763,5.763,0,0,0-.811-.336.377.377,0,0,1-.259-.359V98.684a.379.379,0,0,0-.379-.379H363.53a.379.379,0,0,0-.379.379v1.231a.377.377,0,0,1-.259.359,5.762,5.762,0,0,0-.811.336.377.377,0,0,1-.437-.07l-.87-.87a.379.379,0,0,0-.536,0l-1.654,1.654a.379.379,0,0,0,0,.536l.87.87a.377.377,0,0,1,.07.437,5.754,5.754,0,0,0-.336.811.377.377,0,0,1-.359.259H357.6a.379.379,0,0,0-.379.379v2.339a.379.379,0,0,0,.379.379h1.231a.377.377,0,0,1,.359.259,5.765,5.765,0,0,0,.336.811.377.377,0,0,1-.07.437l-.87.87a.379.379,0,0,0,0,.536l1.654,1.654a.379.379,0,0,0,.536,0l.87-.87a.377.377,0,0,1,.437-.07,5.766,5.766,0,0,0,.811.336.377.377,0,0,1,.259.359v1.231a.379.379,0,0,0,.379.379h2.339a.379.379,0,0,0,.379-.379v-1.231a.377.377,0,0,1,.259-.359,5.766,5.766,0,0,0,.811-.336.377.377,0,0,1,.437.07l.87.87a.379.379,0,0,0,.536,0l1.654-1.654a.379.379,0,0,0,0-.536l-.87-.87a.377.377,0,0,1-.07-.437,5.768,5.768,0,0,0,.336-.811.377.377,0,0,1,.359-.259H371.8a.379.379,0,0,0,.379-.379v-2.339A.379.379,0,0,0,371.8,104.237Zm-7.1,4.748a3.2,3.2,0,1,1,3.2-3.2A3.2,3.2,0,0,1,364.7,108.985Z" transform="translate(-319.16 -87.992)" fill="#54a0ff"/>
        <path id="Trazado_1043933" data-name="Trazado 1043933" d="M300.356,259.794h-2.168a.376.376,0,0,1-.36-.261,8.631,8.631,0,0,0-.605-1.461.376.376,0,0,1,.07-.44l1.534-1.534a.379.379,0,0,0,0-.536l-2.744-2.744a.379.379,0,0,0-.536,0l-1.534,1.534a.376.376,0,0,1-.44.07,8.628,8.628,0,0,0-1.461-.605.376.376,0,0,1-.261-.36v-2.168a.379.379,0,0,0-.379-.379h-3.88a.379.379,0,0,0-.379.379v2.168a.376.376,0,0,1-.261.36,8.634,8.634,0,0,0-1.461.605.376.376,0,0,1-.44-.07l-1.534-1.534a.379.379,0,0,0-.536,0l-2.744,2.744a.379.379,0,0,0,0,.536l1.534,1.534a.376.376,0,0,1,.07.44,8.622,8.622,0,0,0-.605,1.461.376.376,0,0,1-.36.261h-2.168a.379.379,0,0,0-.379.379v3.88a.379.379,0,0,0,.379.379h2.168a.376.376,0,0,1,.36.261,8.624,8.624,0,0,0,.605,1.461.376.376,0,0,1-.07.44l-1.534,1.534a.379.379,0,0,0,0,.536l2.744,2.744a.379.379,0,0,0,.536,0l1.534-1.534a.376.376,0,0,1,.44-.07,8.626,8.626,0,0,0,1.461.605.376.376,0,0,1,.261.36v2.168a.379.379,0,0,0,.379.379h3.88a.379.379,0,0,0,.379-.379v-2.168a.376.376,0,0,1,.261-.36,8.632,8.632,0,0,0,1.461-.605.376.376,0,0,1,.44.07l1.534,1.534a.379.379,0,0,0,.536,0l2.744-2.744a.379.379,0,0,0,0-.536l-1.534-1.534a.376.376,0,0,1-.07-.44,8.625,8.625,0,0,0,.605-1.461.376.376,0,0,1,.36-.261h2.168a.379.379,0,0,0,.379-.379v-3.88A.379.379,0,0,0,300.356,259.794Zm-10.825,7.389a5.07,5.07,0,1,1,5.07-5.07A5.07,5.07,0,0,1,289.531,267.182Z" transform="translate(-249.238 -223.245)" fill="#feca57"/>
        <path id="Trazado_1043934" data-name="Trazado 1043934" d="M360.839,120.019a.379.379,0,0,1,0-.536l.87-.87a.377.377,0,0,0,.07-.437,5.763,5.763,0,0,1-.336-.811.377.377,0,0,0-.359-.259h-1.231a.379.379,0,0,1-.379-.379v-2.339a.379.379,0,0,1,.379-.379h1.231a.377.377,0,0,0,.359-.259,5.775,5.775,0,0,1,.336-.811.377.377,0,0,0-.07-.437l-.87-.87a.379.379,0,0,1,0-.536l.794-.794-.859-.859a.379.379,0,0,0-.536,0l-1.654,1.654a.379.379,0,0,0,0,.536l.87.87a.377.377,0,0,1,.07.437,5.757,5.757,0,0,0-.336.811.377.377,0,0,1-.359.259H357.6a.379.379,0,0,0-.379.379v2.339a.379.379,0,0,0,.379.379h1.231a.377.377,0,0,1,.359.259,5.77,5.77,0,0,0,.336.811.377.377,0,0,1-.07.437l-.87.87a.379.379,0,0,0,0,.536l1.654,1.654a.379.379,0,0,0,.536,0l.859-.859Z" transform="translate(-319.161 -97.762)" fill="#338def"/>
        <path id="Trazado_1043935" data-name="Trazado 1043935" d="M282.492,282.687a.379.379,0,0,1,0-.536l1.534-1.534a.376.376,0,0,0,.07-.44,8.621,8.621,0,0,1-.605-1.461.376.376,0,0,0-.36-.261h-2.168a.379.379,0,0,1-.379-.379V274.2a.379.379,0,0,1,.379-.379h2.168a.376.376,0,0,0,.36-.261,8.627,8.627,0,0,1,.605-1.461.376.376,0,0,0-.07-.44l-1.534-1.534a.379.379,0,0,1,0-.536l1.884-1.884-.859-.859a.379.379,0,0,0-.536,0l-2.744,2.744a.379.379,0,0,0,0,.536l1.534,1.534a.376.376,0,0,1,.07.44,8.627,8.627,0,0,0-.605,1.461.376.376,0,0,1-.36.261h-2.168a.379.379,0,0,0-.379.379v3.88a.379.379,0,0,0,.379.379h2.168a.376.376,0,0,1,.36.261,8.623,8.623,0,0,0,.605,1.461.376.376,0,0,1-.07.44l-1.534,1.534a.379.379,0,0,0,0,.536l2.744,2.744a.379.379,0,0,0,.536,0l.859-.859Z" transform="translate(-249.238 -237.268)" fill="#f4b537"/>
        <g id="Grupo_1219598" data-name="Grupo 1219598" transform="translate(43.732 10.314)">
          <path id="Trazado_1043936" data-name="Trazado 1043936" d="M409.63,99.248v-.562a.379.379,0,0,1,.379-.379h-2.255a.379.379,0,0,0-.379.379v1.231a.377.377,0,0,1-.259.359l1.853-.264A.77.77,0,0,0,409.63,99.248Z" transform="translate(-407.116 -98.306)" fill="#338def"/>
          <path id="Trazado_1043937" data-name="Trazado 1043937" d="M409.63,214.172v-.562a.77.77,0,0,0-.661-.763l-1.853-.264a.377.377,0,0,1,.259.359v1.231a.379.379,0,0,0,.379.379h2.255A.379.379,0,0,1,409.63,214.172Z" transform="translate(-407.116 -199.59)" fill="#338def"/>
        </g>
        <g id="Grupo_1219599" data-name="Grupo 1219599" transform="translate(37.713 27.664)">
          <path id="Trazado_1043938" data-name="Trazado 1043938" d="M356.688,252.925v-1.638a.379.379,0,0,1,.379-.379h-2.255a.379.379,0,0,0-.379.379v2.168a.376.376,0,0,1-.261.36l1.992-.285A.611.611,0,0,0,356.688,252.925Z" transform="translate(-354.172 -250.908)" fill="#f4b537"/>
          <path id="Trazado_1043939" data-name="Trazado 1043939" d="M356.687,424.944v-1.638a.612.612,0,0,0-.525-.605l-1.992-.285a.376.376,0,0,1,.261.36v2.168a.379.379,0,0,0,.379.379h2.255A.379.379,0,0,1,356.687,424.944Z" transform="translate(-354.171 -402.915)" fill="#f4b537"/>
        </g>
      </g>
      <g id="Grupo_1219601" data-name="Grupo 1219601" transform="translate(15.687)">
        <path id="Trazado_1043940" data-name="Trazado 1043940" d="M364.745,93.98l-1.654-1.654a1.231,1.231,0,0,0-1.742,0l-.634.634q-.143-.063-.289-.12v-.9a1.233,1.233,0,0,0-1.232-1.232h-2.339a1.233,1.233,0,0,0-1.232,1.232v.9q-.146.056-.289.12l-.634-.634a1.233,1.233,0,0,0-1.742,0l-1.653,1.654a1.231,1.231,0,0,0,0,1.742l.634.634q-.063.143-.12.289h-.9a1.233,1.233,0,0,0-1.232,1.232v2.339a1.233,1.233,0,0,0,1.232,1.232h.9q.056.146.12.289l-.634.634a1.231,1.231,0,0,0,0,1.742l1.654,1.654a1.233,1.233,0,0,0,1.742,0l.634-.634q.143.063.289.12v.9a1.233,1.233,0,0,0,1.232,1.232h2.339a1.233,1.233,0,0,0,1.232-1.232v-.9q.146-.056.289-.12l.634.634a1.231,1.231,0,0,0,1.742,0l1.654-1.654a1.231,1.231,0,0,0,0-1.742l-.634-.634q.063-.143.12-.289h.9a1.233,1.233,0,0,0,1.232-1.232V97.876a1.233,1.233,0,0,0-1.232-1.232h-.9q-.056-.146-.12-.289l.634-.634A1.231,1.231,0,0,0,364.745,93.98Zm-.091,4.37v1.391H363.9a1.227,1.227,0,0,0-1.169.846,4.927,4.927,0,0,1-.286.691,1.228,1.228,0,0,0,.228,1.426l.536.535-.984.984-.535-.535a1.228,1.228,0,0,0-1.426-.228,4.92,4.92,0,0,1-.691.287,1.227,1.227,0,0,0-.846,1.169v.757H357.33v-.757a1.227,1.227,0,0,0-.846-1.169,4.934,4.934,0,0,1-.691-.287,1.227,1.227,0,0,0-1.426.228l-.535.536-.984-.984.536-.536a1.228,1.228,0,0,0,.228-1.426,4.933,4.933,0,0,1-.287-.691,1.227,1.227,0,0,0-1.169-.846H351.4V98.35h.757a1.227,1.227,0,0,0,1.169-.846,4.937,4.937,0,0,1,.287-.691,1.227,1.227,0,0,0-.228-1.426l-.536-.536.984-.984.535.535a1.227,1.227,0,0,0,1.426.228,4.924,4.924,0,0,1,.691-.287,1.227,1.227,0,0,0,.846-1.169v-.757h1.391v.757a1.227,1.227,0,0,0,.846,1.169,4.948,4.948,0,0,1,.691.287,1.227,1.227,0,0,0,1.426-.228l.535-.535.984.984-.536.536a1.227,1.227,0,0,0-.228,1.426,4.916,4.916,0,0,1,.287.692,1.227,1.227,0,0,0,1.169.846h.757Z" transform="translate(-311.716 -80.398)"/>
        <path id="Trazado_1043941" data-name="Trazado 1043941" d="M391.4,128.365a4.052,4.052,0,1,0,4.052,4.052A4.057,4.057,0,0,0,391.4,128.365Zm0,6.4a2.347,2.347,0,1,1,2.347-2.347A2.349,2.349,0,0,1,391.4,134.764Z" transform="translate(-345.089 -113.77)"/>
        <path id="Trazado_1043942" data-name="Trazado 1043942" d="M15.687,44.544V56.278a1.934,1.934,0,0,0,1.932,1.932H36.355a.853.853,0,1,0,0-1.705H24.432V44.677a.853.853,0,1,0-1.705,0V56.5H17.619a.226.226,0,0,1-.226-.226V44.544a7.037,7.037,0,0,1,4.1-6.4l9.474-3.673.864.918c3.882,4.125,9.333,3.918,13.021,0l.918-.976,1.926.746.445.445a9.51,9.51,0,0,0-.393.948H45.925a1.233,1.233,0,0,0-1.232,1.232v3.88a1.233,1.233,0,0,0,1.232,1.232h1.826a9.539,9.539,0,0,0,.393.948l-1.292,1.292a1.233,1.233,0,0,0,0,1.742L49.6,49.618a1.233,1.233,0,0,0,1.742,0l.919-.919V56.5H40.334a.853.853,0,1,0,0,1.705H59.293a1.924,1.924,0,0,0,1.922-1.922V48.673l.945.945a1.234,1.234,0,0,0,1.742,0l2.743-2.744a1.231,1.231,0,0,0,0-1.742L65.355,43.84a9.532,9.532,0,0,0,.393-.948h1.827a1.233,1.233,0,0,0,1.232-1.232v-3.88a1.233,1.233,0,0,0-1.232-1.232H65.747a9.488,9.488,0,0,0-.393-.948l1.292-1.292a1.231,1.231,0,0,0,0-1.742L63.9,29.824a1.233,1.233,0,0,0-1.742,0l-1.292,1.292a9.521,9.521,0,0,0-.948-.393V28.9a1.233,1.233,0,0,0-1.232-1.232h-3.88A1.233,1.233,0,0,0,53.577,28.9v1.827a9.551,9.551,0,0,0-.948.393l-1.292-1.292a1.231,1.231,0,0,0-1.742,0l-2.744,2.744a1.223,1.223,0,0,0-.239.339l-.76-.294h0l-1.638-.635a.278.278,0,0,1-.177-.258V28.95a9.185,9.185,0,0,0,3.549-6.216,4.476,4.476,0,0,0,2.627-1.118,3.917,3.917,0,0,0,.328-5.608V12.2a12.2,12.2,0,1,0-24.394,0v3.9a3.77,3.77,0,0,0-1.027,2.549A4.219,4.219,0,0,0,29.1,22.734a9.084,9.084,0,0,0,3.75,6.359v2.586a.338.338,0,0,1-.215.313L20.869,36.555l-.016.006A8.739,8.739,0,0,0,15.687,44.544ZM59.51,56.287a.217.217,0,0,1-.217.217H53.963V51.438a1.226,1.226,0,0,0,.847.339h3.88a1.248,1.248,0,0,0,.821-.314ZM50.467,31.364l1.2,1.2a1.222,1.222,0,0,0,1.44.221,7.8,7.8,0,0,1,1.316-.546,1.222,1.222,0,0,0,.861-1.175V29.37h2.933v1.695a1.222,1.222,0,0,0,.861,1.175,7.8,7.8,0,0,1,1.316.546,1.222,1.222,0,0,0,1.44-.221l1.2-1.2,2.074,2.074-1.2,1.2a1.222,1.222,0,0,0-.221,1.44,7.8,7.8,0,0,1,.546,1.316,1.222,1.222,0,0,0,1.175.861H67.1v2.933H65.406a1.222,1.222,0,0,0-1.175.861,7.791,7.791,0,0,1-.546,1.316,1.222,1.222,0,0,0,.221,1.44l1.2,1.2-2.074,2.074-1.2-1.2a1.222,1.222,0,0,0-1.44-.221,8.294,8.294,0,0,1-1.316.546,1.222,1.222,0,0,0-.861,1.175v1.695H55.283V48.377a1.222,1.222,0,0,0-.861-1.175,7.809,7.809,0,0,1-1.316-.546,1.223,1.223,0,0,0-1.44.221l-1.2,1.2L48.393,46l1.2-1.2a1.222,1.222,0,0,0,.221-1.44,7.793,7.793,0,0,1-.546-1.316,1.222,1.222,0,0,0-1.175-.861H46.4V38.254h1.695a1.222,1.222,0,0,0,1.175-.861,7.8,7.8,0,0,1,.546-1.317,1.223,1.223,0,0,0-.221-1.44l-1.2-1.2Zm-.6-12.718a2.275,2.275,0,0,1-.789,1.7,2.75,2.75,0,0,1-1.421.664V16.283A2.5,2.5,0,0,1,49.863,18.647ZM29.037,21.011a2.5,2.5,0,0,1-2.211-2.364,2.626,2.626,0,0,1,2.211-2.318Zm.025-6.416a4.91,4.91,0,0,0-1.209.32V12.2a10.491,10.491,0,1,1,20.982,0v2.644a4.77,4.77,0,0,0-1.184-.276v-.243c0-.785-.1-.743-3.1-3.96a1.622,1.622,0,0,0-2.079-.253,19.344,19.344,0,0,1-11.694,3.147A1.63,1.63,0,0,0,29.062,14.6Zm1.681,7.058V14.962a21.117,21.117,0,0,0,12.61-3.389c1.544,1.66,2.37,2.515,2.594,2.8,0,8.309,0,7.155,0,7.426a7.6,7.6,0,0,1-15.2-.149Zm2.511,11.929a2.055,2.055,0,0,0,1.3-1.9V30.055a9.664,9.664,0,0,0,7.775-.07V31.72A2,2,0,0,0,43.6,33.568l.458.177c-.463.492-.667.719-1.03,1.044a6.691,6.691,0,0,1-9.364,0c-.365-.327-.58-.566-.976-.987Z" transform="translate(-15.687)"/>
        <path id="Trazado_1043943" data-name="Trazado 1043943" d="M330.673,309.111a5.917,5.917,0,0,0,5.448-3.6.853.853,0,0,0-1.568-.67,4.217,4.217,0,1,1,0-3.309.853.853,0,0,0,1.568-.67,5.923,5.923,0,1,0-5.448,8.247Z" transform="translate(-289.611 -263.467)"/>
      </g>
    </g>
  </g>
</svg>
