<svg xmlns="http://www.w3.org/2000/svg" xmlns:xlink="http://www.w3.org/1999/xlink" width="93.934" height="93.934" viewBox="0 0 93.934 93.934">
  <defs>
    <filter id="Trazado_982547" x="0" y="0" width="93.934" height="93.934" filterUnits="userSpaceOnUse">
      <feOffset dy="3" input="SourceAlpha"/>
      <feGaussianBlur stdDeviation="3" result="blur"/>
      <feFlood flood-opacity="0.161"/>
      <feComposite operator="in" in2="blur"/>
      <feComposite in="SourceGraphic"/>
    </filter>
  </defs>
  <g id="Grupo_1219800" data-name="Grupo 1219800" transform="translate(-191.066 -3457.033)">
    <g id="Grupo_1219799" data-name="Grupo 1219799">
      <g id="Grupo_1219540" data-name="Grupo 1219540" transform="translate(0 -4926)">
        <g id="Grupo_1219297" data-name="Grupo 1219297" transform="translate(-0.229 4661.033)">
          <g id="Grupo_1214594" data-name="Grupo 1214594" transform="translate(0 -1406)">
            <g id="Grupo_1214432" data-name="Grupo 1214432" transform="translate(-0.771 -2738.674)">
              <g id="Grupo_1183196" data-name="Grupo 1183196" transform="translate(1 1016.674)">
                <g id="Grupo_1179610" data-name="Grupo 1179610" transform="translate(8 4723.467)">
                  <g id="Grupo_1175227" data-name="Grupo 1175227" transform="translate(-5.967 140.533)">
                    <g id="Grupo_1167337" data-name="Grupo 1167337" transform="translate(198.033 1992)">
                      <g id="Grupo_1166720" data-name="Grupo 1166720">
                        <g id="Grupo_1164305" data-name="Grupo 1164305">
                          <g id="Grupo_1163948" data-name="Grupo 1163948">
                            <g id="Grupo_1158168" data-name="Grupo 1158168">
                              <g id="Grupo_1152576" data-name="Grupo 1152576">
                                <g id="Grupo_1148633" data-name="Grupo 1148633">
                                  <g id="Grupo_1148525" data-name="Grupo 1148525">
                                    <g transform="matrix(1, 0, 0, 1, -9, -6)" filter="url(#Trazado_982547)">
                                      <g id="Trazado_982547-2" data-name="Trazado 982547" transform="translate(9 6)" fill="#e6fdfd">
                                        <path d="M 37.966796875 74.43359375 C 33.04315185546875 74.43359375 28.26757431030273 73.46962738037109 23.77274131774902 71.56847381591797 C 19.43047523498535 69.73184967041016 15.53040790557861 67.10224914550781 12.18087482452393 63.75271987915039 C 8.831341743469238 60.4031867980957 6.201741218566895 56.50312042236328 4.365118980407715 52.16086196899414 C 2.463963508605957 47.66601943969727 1.499996900558472 42.89044189453125 1.499996900558472 37.966796875 C 1.499996900558472 33.04315185546875 2.463963508605957 28.26757431030273 4.365118980407715 23.77274131774902 C 6.201741218566895 19.43047523498535 8.831341743469238 15.53040790557861 12.18087482452393 12.18087482452393 C 15.53040790557861 8.831341743469238 19.43047523498535 6.201741218566895 23.77274131774902 4.365118980407715 C 28.26757431030273 2.463963508605957 33.04315185546875 1.499996900558472 37.966796875 1.499996900558472 C 42.89044189453125 1.499996900558472 47.66601943969727 2.463963508605957 52.16086196899414 4.365118980407715 C 56.50312042236328 6.201741218566895 60.4031867980957 8.831341743469238 63.75271987915039 12.18087482452393 C 67.10224914550781 15.53040790557861 69.73184967041016 19.43047523498535 71.56847381591797 23.77274131774902 C 73.46962738037109 28.26757431030273 74.43359375 33.04315185546875 74.43359375 37.966796875 C 74.43359375 42.89044189453125 73.46962738037109 47.66601943969727 71.56847381591797 52.16086196899414 C 69.73184967041016 56.50313186645508 67.10224914550781 60.4031867980957 63.75271987915039 63.75271987915039 C 60.4031867980957 67.10224914550781 56.50313186645508 69.73184967041016 52.16086196899414 71.56847381591797 C 47.66601943969727 73.46962738037109 42.89044189453125 74.43359375 37.966796875 74.43359375 Z" stroke="none"/>
                                        <path d="M 37.966796875 3 C 33.2449836730957 3 28.66600799560547 3.924095153808594 24.35705947875977 5.746635437011719 C 20.19359588623047 7.507637023925781 16.45379638671875 10.02928161621094 13.24153518676758 13.24153518676758 C 10.02927398681641 16.45379638671875 7.507621765136719 20.19359588623047 5.746635437011719 24.35705947875977 C 3.924095153808594 28.66600799560547 3 33.2449836730957 3 37.966796875 C 3 42.6886100769043 3.924095153808594 47.26758575439453 5.746635437011719 51.57653427124023 C 7.507621765136719 55.73999786376953 10.02927398681641 59.47979736328125 13.24153518676758 62.69205856323242 C 16.45379638671875 65.90431976318359 20.19359588623047 68.42597198486328 24.35705947875977 70.18695831298828 C 28.66600799560547 72.00949859619141 33.2449836730957 72.93359375 37.966796875 72.93359375 C 42.6886100769043 72.93359375 47.26758575439453 72.00949859619141 51.57653427124023 70.18695831298828 C 55.73999786376953 68.42597198486328 59.47979736328125 65.90431976318359 62.69205856323242 62.69205856323242 C 65.90431976318359 59.47979736328125 68.42597198486328 55.73999786376953 70.18695831298828 51.57653427124023 C 72.00949859619141 47.26758575439453 72.93359375 42.6886100769043 72.93359375 37.966796875 C 72.93359375 33.2449836730957 72.00949859619141 28.66600799560547 70.18695831298828 24.35705947875977 C 68.42597198486328 20.19359588623047 65.90431976318359 16.45379638671875 62.69205856323242 13.24153518676758 C 59.47979736328125 10.02928161621094 55.73999786376953 7.507637023925781 51.57653427124023 5.746635437011719 C 47.26758575439453 3.924095153808594 42.6886100769043 3 37.966796875 3 M 37.966796875 0 C 58.93528366088867 0 75.93359375 16.99832153320312 75.93359375 37.966796875 C 75.93359375 58.93528366088867 58.93528366088867 75.93359375 37.966796875 75.93359375 C 16.99831008911133 75.93359375 0 58.93528366088867 0 37.966796875 C 0 16.99832153320312 16.99831008911133 0 37.966796875 0 Z" stroke="none" fill="#1bf5f5"/>
                                      </g>
                                    </g>
                                  </g>
                                </g>
                              </g>
                            </g>
                          </g>
                        </g>
                      </g>
                    </g>
                  </g>
                </g>
              </g>
            </g>
          </g>
        </g>
      </g>
    </g>
    <g id="derechos-civiles_6_" data-name="derechos-civiles (6)" transform="translate(212.286 3473.289)">
      <path id="Trazado_1044768" data-name="Trazado 1044768" d="M196,85.582v6.781l1.257,3.338v32.014h6.537L205.3,97.753l3.822-7.15v-5.02Z" transform="translate(-176.287 -76.975)" fill="#fdbba8"/>
      <path id="Trazado_1044769" data-name="Trazado 1044769" d="M263.83,85.582V90.6a5.579,5.579,0,0,1-2.483,4.643,3.017,3.017,0,0,0-1.339,2.507l-1.509.634,1.509.634v28.694h3.017V97.753a8.59,8.59,0,0,0,3.822-7.15v-5.02Z" transform="translate(-232.501 -76.975)" fill="#fc9e8d"/>
      <path id="Trazado_1044770" data-name="Trazado 1044770" d="M291.919,37.5a1.911,1.911,0,0,0-1.911,1.911L288.5,40.92l1.509,1.509a1.911,1.911,0,1,0,3.822,0V39.411A1.911,1.911,0,0,0,291.919,37.5Z" transform="translate(-259.484 -33.728)" fill="#fc8071"/>
      <path id="Trazado_1044771" data-name="Trazado 1044771" d="M253.919,22.5a1.911,1.911,0,0,0-1.911,1.911L250.5,26.674l1.509,2.263a1.911,1.911,0,0,0,3.822,0V24.411A1.911,1.911,0,0,0,253.919,22.5Z" transform="translate(-225.306 -20.237)" fill="#fc9e8d"/>
      <path id="Trazado_1044772" data-name="Trazado 1044772" d="M215.92,7.5a1.911,1.911,0,0,0-1.911,1.911L212.5,15.445h5.33V9.411A1.911,1.911,0,0,0,215.92,7.5Z" transform="translate(-191.128 -6.746)" fill="#fc8071"/>
      <path id="Trazado_1044773" data-name="Trazado 1044773" d="M191.411,7.5A1.911,1.911,0,0,0,189.5,9.411v6.034h3.822V9.411A1.911,1.911,0,0,0,191.411,7.5Z" transform="translate(-170.441 -6.746)" fill="#fc9e8d"/>
      <path id="Trazado_1044774" data-name="Trazado 1044774" d="M174.322,74.339V71.322h3.822a1.911,1.911,0,0,0,1.909-2A1.946,1.946,0,0,0,178.09,67.5h-3.768a3.822,3.822,0,0,0-3.822,3.822v3.017a8.6,8.6,0,0,0,10.359,8.418V80.876A6.537,6.537,0,0,0,174.322,74.339Z" transform="translate(-153.352 -60.711)" fill="#fdd9c4"/>
      <path id="Trazado_1044775" data-name="Trazado 1044775" d="M33,269.082v6.781l1.257,3.338v13.559h6.537L42.3,281.253l3.822-7.15v-5.02Z" transform="translate(-29.681 -242.019)" fill="#f6d76f"/>
      <path id="Trazado_1044776" data-name="Trazado 1044776" d="M100.83,269.082v5.02a5.579,5.579,0,0,1-2.483,4.643,3.017,3.017,0,0,0-1.339,2.507l-1.509.634,1.509.634v10.238h3.017V281.253a8.59,8.59,0,0,0,3.822-7.15v-5.02Z" transform="translate(-85.894 -242.019)" fill="#f9bb69"/>
      <path id="Trazado_1044777" data-name="Trazado 1044777" d="M128.92,221a1.911,1.911,0,0,0-1.911,1.911L125.5,224.42l1.509,1.509a1.911,1.911,0,0,0,3.822,0v-3.017A1.911,1.911,0,0,0,128.92,221Z" transform="translate(-112.878 -198.773)" fill="#fc9f63"/>
      <path id="Trazado_1044778" data-name="Trazado 1044778" d="M90.92,206a1.911,1.911,0,0,0-1.911,1.911L87.5,210.174l1.509,2.263a1.911,1.911,0,0,0,3.822,0v-4.526A1.911,1.911,0,0,0,90.92,206Z" transform="translate(-78.7 -185.282)" fill="#f9bb69"/>
      <path id="Trazado_1044779" data-name="Trazado 1044779" d="M52.92,191a1.911,1.911,0,0,0-1.911,1.911L49.5,198.945h5.33v-6.034A1.911,1.911,0,0,0,52.92,191Z" transform="translate(-44.522 -171.79)" fill="#fc9f63"/>
      <path id="Trazado_1044780" data-name="Trazado 1044780" d="M28.411,191a1.911,1.911,0,0,0-1.911,1.911v6.034h3.822v-6.034A1.911,1.911,0,0,0,28.411,191Z" transform="translate(-23.835 -171.79)" fill="#f9bb69"/>
      <path id="Trazado_1044781" data-name="Trazado 1044781" d="M11.322,257.839v-3.017h3.822a1.911,1.911,0,0,0,1.909-2A1.946,1.946,0,0,0,15.09,251H11.322A3.822,3.822,0,0,0,7.5,254.822v3.017a8.6,8.6,0,0,0,10.359,8.418v-1.881A6.537,6.537,0,0,0,11.322,257.839Z" transform="translate(-6.746 -225.756)" fill="#fae8ac"/>
      <path id="Trazado_1044782" data-name="Trazado 1044782" d="M359,269.082v6.781l1.257,3.338v13.559h6.537l1.509-11.506,3.822-7.15v-5.02Z" transform="translate(-322.894 -242.019)" fill="#ae6e5a"/>
      <path id="Trazado_1044783" data-name="Trazado 1044783" d="M426.83,269.082v5.02a5.579,5.579,0,0,1-2.483,4.643,3.017,3.017,0,0,0-1.339,2.507l-1.509.634,1.509.634v10.238h3.017V281.253a8.59,8.59,0,0,0,3.822-7.15v-5.02Z" transform="translate(-379.107 -242.019)" fill="#8d5d4d"/>
      <path id="Trazado_1044784" data-name="Trazado 1044784" d="M454.92,221a1.911,1.911,0,0,0-1.911,1.911L451.5,224.42l1.509,1.509a1.911,1.911,0,0,0,3.822,0v-3.017A1.911,1.911,0,0,0,454.92,221Z" transform="translate(-406.091 -198.773)" fill="#6c4b41"/>
      <path id="Trazado_1044785" data-name="Trazado 1044785" d="M416.92,206a1.911,1.911,0,0,0-1.911,1.911l-1.509,2.263,1.509,2.263a1.911,1.911,0,0,0,3.822,0v-4.526A1.911,1.911,0,0,0,416.92,206Z" transform="translate(-371.912 -185.282)" fill="#8d5d4d"/>
      <path id="Trazado_1044786" data-name="Trazado 1044786" d="M378.919,191a1.911,1.911,0,0,0-1.911,1.911l-1.509,6.034h5.33v-6.034A1.911,1.911,0,0,0,378.919,191Z" transform="translate(-337.734 -171.79)" fill="#6c4b41"/>
      <path id="Trazado_1044787" data-name="Trazado 1044787" d="M354.411,191a1.911,1.911,0,0,0-1.911,1.911v6.034h3.822v-6.034A1.911,1.911,0,0,0,354.411,191Z" transform="translate(-317.047 -171.79)" fill="#8d5d4d"/>
      <path id="Trazado_1044788" data-name="Trazado 1044788" d="M337.322,257.839v-3.017h3.822a1.911,1.911,0,0,0,1.909-2A1.946,1.946,0,0,0,341.09,251h-3.768a3.822,3.822,0,0,0-3.822,3.822v3.017a8.6,8.6,0,0,0,10.359,8.418v-1.881A6.537,6.537,0,0,0,337.322,257.839Z" transform="translate(-299.958 -225.756)" fill="#d7795c"/>
      <path id="Trazado_1044789" data-name="Trazado 1044789" d="M181.707,5.682a2.664,2.664,0,0,0-3.953-2.333,2.663,2.663,0,0,0-3.822-1.509A2.663,2.663,0,0,0,169.487.81a2.663,2.663,0,0,0-4.576,1.855V6.894A4.572,4.572,0,0,0,163,10.611v3.017a9.342,9.342,0,0,0,3.822,7.542V50.74a.754.754,0,0,0,.754.754h9.555a.754.754,0,0,0,.754-.754V21.17a9.342,9.342,0,0,0,3.822-7.543Zm-2.665-1.157A1.158,1.158,0,0,1,180.2,5.682V8.7a1.157,1.157,0,1,1-2.313,0V5.682A1.158,1.158,0,0,1,179.042,4.526ZM175.22,3.017a1.158,1.158,0,0,1,1.157,1.157V8.7a1.157,1.157,0,0,1-2.313,0V4.174A1.158,1.158,0,0,1,175.22,3.017ZM171.4,1.509a1.158,1.158,0,0,1,1.157,1.157V6.312a2.763,2.763,0,0,0-1.211-.277h-1.1V2.665A1.158,1.158,0,0,1,171.4,1.509Zm-4.978,1.157a1.157,1.157,0,0,1,2.313,0V6.034h-1.157a4.57,4.57,0,0,0-1.157.148Zm10.292,17.486a.754.754,0,0,0-.335.627V49.986H168.33V20.778a.754.754,0,0,0-.335-.627,7.839,7.839,0,0,1-3.487-6.523V10.611a3.071,3.071,0,0,1,3.068-3.068h3.768a1.2,1.2,0,0,1,1.209,1.1A1.157,1.157,0,0,1,171.4,9.856h-3.822a.754.754,0,0,0-.754.754v3.017a.754.754,0,0,0,.754.754,5.788,5.788,0,0,1,5.072,3,.754.754,0,0,0,1.322-.727,7.3,7.3,0,0,0-5.64-3.746V11.365H171.4a2.677,2.677,0,0,0,1.912-.809,2.659,2.659,0,0,0,3.821,0,2.66,2.66,0,0,0,3.068.546v2.527A7.838,7.838,0,0,1,176.711,20.151Z" transform="translate(-146.606)"/>
      <path id="Trazado_1044790" data-name="Trazado 1044790" d="M16.042,186.517a2.649,2.649,0,0,0-1.288.333,2.663,2.663,0,0,0-3.822-1.509,2.663,2.663,0,0,0-4.445-1.031,2.663,2.663,0,0,0-4.576,1.855v4.229A4.572,4.572,0,0,0,0,194.111v3.017a9.342,9.342,0,0,0,3.822,7.542v1.057a.754.754,0,0,0,1.509,0v-1.449A.754.754,0,0,0,5,203.651a7.839,7.839,0,0,1-3.487-6.523v-3.017a3.071,3.071,0,0,1,3.068-3.068H8.344a1.2,1.2,0,0,1,1.209,1.1A1.156,1.156,0,0,1,8.4,193.356H4.576a.754.754,0,0,0-.754.754v3.017a.754.754,0,0,0,.754.754,5.788,5.788,0,0,1,5.072,3,.754.754,0,0,0,1.322-.727,7.3,7.3,0,0,0-5.64-3.746v-1.548H8.4a2.678,2.678,0,0,0,1.912-.809,2.659,2.659,0,0,0,3.821,0,2.66,2.66,0,0,0,3.068.546v2.527a7.838,7.838,0,0,1-3.487,6.523.754.754,0,0,0-.335.627V215.03H5.33v-6.286a.754.754,0,0,0-1.509,0v7.04a.754.754,0,0,0,.754.754h9.555a.754.754,0,0,0,.754-.754V204.67a9.342,9.342,0,0,0,3.822-7.543v-7.945A2.668,2.668,0,0,0,16.042,186.517ZM3.42,189.683v-3.518a1.157,1.157,0,0,1,2.313,0v3.369H4.576A4.571,4.571,0,0,0,3.42,189.683Zm4.924-.148h-1.1v-3.369a1.157,1.157,0,0,1,2.313,0v3.647A2.763,2.763,0,0,0,8.344,189.534Zm3.876,3.822a1.158,1.158,0,0,1-1.157-1.157v-4.526a1.157,1.157,0,1,1,2.313,0V192.2A1.158,1.158,0,0,1,12.22,193.356Zm3.822,0a1.158,1.158,0,0,1-1.157-1.157v-3.017a1.157,1.157,0,0,1,2.313,0V192.2A1.158,1.158,0,0,1,16.042,193.356Z" transform="translate(0 -165.045)"/>
      <path id="Trazado_1044791" data-name="Trazado 1044791" d="M342.042,186.517a2.649,2.649,0,0,0-1.288.333,2.663,2.663,0,0,0-3.822-1.509,2.663,2.663,0,0,0-4.445-1.031,2.663,2.663,0,0,0-4.576,1.855v4.229A4.572,4.572,0,0,0,326,194.111v3.017a9.342,9.342,0,0,0,3.822,7.542v11.114a.754.754,0,0,0,.754.754h9.555a.754.754,0,0,0,.754-.754V204.67a9.342,9.342,0,0,0,3.822-7.543v-7.945A2.668,2.668,0,0,0,342.042,186.517Zm-3.822,0a1.158,1.158,0,0,1,1.157,1.157V192.2a1.157,1.157,0,1,1-2.313,0v-4.526A1.158,1.158,0,0,1,338.22,186.517Zm-3.822-1.509a1.158,1.158,0,0,1,1.157,1.157v3.647a2.763,2.763,0,0,0-1.211-.277h-1.1v-3.369A1.158,1.158,0,0,1,334.4,185.009Zm-4.978,1.157a1.157,1.157,0,0,1,2.313,0v3.369h-1.157a4.572,4.572,0,0,0-1.157.148Zm10.292,17.486a.754.754,0,0,0-.335.627V215.03H331.33V204.278a.754.754,0,0,0-.335-.627,7.839,7.839,0,0,1-3.487-6.523v-3.017a3.071,3.071,0,0,1,3.067-3.068h3.768a1.2,1.2,0,0,1,1.209,1.1,1.157,1.157,0,0,1-1.155,1.213h-3.822a.754.754,0,0,0-.754.754v3.017a.754.754,0,0,0,.754.754,5.788,5.788,0,0,1,5.072,3,.754.754,0,0,0,1.322-.727,7.3,7.3,0,0,0-5.64-3.746v-1.548H334.4a2.677,2.677,0,0,0,1.912-.809,2.659,2.659,0,0,0,3.821,0,2.66,2.66,0,0,0,3.068.546v2.527A7.838,7.838,0,0,1,339.711,203.651Zm2.331-10.295a1.158,1.158,0,0,1-1.157-1.157v-3.017a1.157,1.157,0,0,1,2.313,0V192.2A1.158,1.158,0,0,1,342.042,193.356Z" transform="translate(-293.213 -165.045)"/>
    </g>
  </g>
</svg>
